<svg version="1.1" xmlns="http://www.w3.org/2000/svg" viewBox="0 0 1840 1820" width="1840" height="1820">
  <!-- svg-source:excalidraw -->
  
  <defs>
    <style class="style-fonts">
      @font-face {
        font-family: "Virgil";
        src: url("https://excalidraw.com/Virgil.woff2");
      }
      @font-face {
        font-family: "Cascadia";
        src: url("https://excalidraw.com/Cascadia.woff2");
      }
      @font-face {
        font-family: "Assistant";
        src: url("https://excalidraw.com/Assistant-Regular.woff2");
      }
    </style>
    
  </defs>
  <rect x="0" y="0" width="1840" height="1820" fill="#ffffff"></rect><g stroke-linecap="round" transform="translate(10 10) rotate(0 910 900)"><path d="M32 0 C496.41 0, 960.83 0, 1788 0 C1809.33 0, 1820 10.67, 1820 32 C1820 708.55, 1820 1385.09, 1820 1768 C1820 1789.33, 1809.33 1800, 1788 1800 C1243.9 1800, 699.81 1800, 32 1800 C10.67 1800, 0 1789.33, 0 1768 C0 1313.29, 0 858.58, 0 32 C0 10.67, 10.67 0, 32 0" stroke="none" stroke-width="0" fill="#ffffff"></path><path d="M32 0 C427.55 0, 823.09 0, 1788 0 M1788 0 C1809.33 0, 1820 10.67, 1820 32 M1820 32 C1820 724.9, 1820 1417.8, 1820 1768 M1820 1768 C1820 1789.33, 1809.33 1800, 1788 1800 M1788 1800 C1320.01 1800, 852.02 1800, 32 1800 M32 1800 C10.67 1800, 0 1789.33, 0 1768 M0 1768 C0 1400.33, 0 1032.67, 0 32 M0 32 C0 10.67, 10.67 0, 32 0" stroke="#1e1e1e" stroke-width="2.5" fill="none" stroke-dasharray="8 10"></path></g><g stroke-linecap="round" transform="translate(450 650) rotate(0 170 40)"><path d="M0 0 L340 0 L340 80 L0 80" stroke="none" stroke-width="0" fill="#ffffff"></path><path d="M0 0 C110.07 0, 220.14 0, 340 0 M0 0 C120.12 0, 240.24 0, 340 0 M340 0 C340 21.02, 340 42.05, 340 80 M340 0 C340 18.88, 340 37.76, 340 80 M340 80 C212.86 80, 85.73 80, 0 80 M340 80 C241.05 80, 142.1 80, 0 80 M0 80 C0 62.32, 0 44.63, 0 0 M0 80 C0 49.71, 0 19.43, 0 0" stroke="#1971c2" stroke-width="2" fill="none"></path></g><g stroke-linecap="round" transform="translate(630 470) rotate(0 150 40)"><path d="M0 0 L300 0 L300 80 L0 80" stroke="none" stroke-width="0" fill="#ffffff"></path><path d="M0 0 C115.23 0, 230.45 0, 300 0 M0 0 C90.6 0, 181.2 0, 300 0 M300 0 C300 27.42, 300 54.85, 300 80 M300 0 C300 23.26, 300 46.51, 300 80 M300 80 C190.98 80, 81.95 80, 0 80 M300 80 C207.33 80, 114.66 80, 0 80 M0 80 C0 51.05, 0 22.09, 0 0 M0 80 C0 56.92, 0 33.85, 0 0" stroke="#1971c2" stroke-width="2" fill="none"></path></g><g stroke-linecap="round" transform="translate(290 470) rotate(0 150 40)"><path d="M0 0 L300 0 L300 80 L0 80" stroke="none" stroke-width="0" fill="#ffffff"></path><path d="M0 0 C104.49 0, 208.98 0, 300 0 M0 0 C62.84 0, 125.69 0, 300 0 M300 0 C300 27.4, 300 54.79, 300 80 M300 0 C300 29.45, 300 58.9, 300 80 M300 80 C220.33 80, 140.66 80, 0 80 M300 80 C221.03 80, 142.06 80, 0 80 M0 80 C0 51.9, 0 23.81, 0 0 M0 80 C0 53.77, 0 27.54, 0 0" stroke="#1971c2" stroke-width="2" fill="none"></path></g><g transform="translate(650 290) rotate(0 234.375 60)"><text x="0" y="19.3125" font-family="Cascadia, Segoe UI Emoji" font-size="20px" fill="#1971c2" text-anchor="start" style="white-space: pre;" direction="ltr" dominant-baseline="alphabetic">$ ksctl add cluster \</text><text x="0" y="43.3125" font-family="Cascadia, Segoe UI Emoji" font-size="20px" fill="#1971c2" text-anchor="start" style="white-space: pre;" direction="ltr" dominant-baseline="alphabetic">    -kubeconfig &lt;??path to kubeconfig&gt; \</text><text x="0" y="67.3125" font-family="Cascadia, Segoe UI Emoji" font-size="20px" fill="#1971c2" text-anchor="start" style="white-space: pre;" direction="ltr" dominant-baseline="alphabetic">    -name &lt;??&gt; -region &lt;??&gt; \</text><text x="0" y="91.3125" font-family="Cascadia, Segoe UI Emoji" font-size="20px" fill="#1971c2" text-anchor="start" style="white-space: pre;" direction="ltr" dominant-baseline="alphabetic">    -cloud &lt;??&gt; -clusterType &lt;??&gt; \</text><text x="0" y="115.3125" font-family="Cascadia, Segoe UI Emoji" font-size="20px" fill="#1971c2" text-anchor="start" style="white-space: pre;" direction="ltr" dominant-baseline="alphabetic">    -addons=&lt;??&gt;</text></g><g transform="translate(344.15876361425944 480.05946555099945) rotate(0 87.890625 24)"><text x="87.890625" y="19.3125" font-family="Cascadia, Segoe UI Emoji" font-size="20px" fill="#1971c2" text-anchor="middle" style="white-space: pre;" direction="ltr" dominant-baseline="alphabetic">cluster created</text><text x="87.890625" y="43.3125" font-family="Cascadia, Segoe UI Emoji" font-size="20px" fill="#1971c2" text-anchor="middle" style="white-space: pre;" direction="ltr" dominant-baseline="alphabetic">[ksctl]</text></g><g transform="translate(687.5 479.60000000000036) rotate(0 93.75 24)"><text x="93.75" y="19.3125" font-family="Cascadia, Segoe UI Emoji" font-size="20px" fill="#1971c2" text-anchor="middle" style="white-space: pre;" direction="ltr" dominant-baseline="alphabetic">cluster existing</text><text x="93.75" y="43.3125" font-family="Cascadia, Segoe UI Emoji" font-size="20px" fill="#1971c2" text-anchor="middle" style="white-space: pre;" direction="ltr" dominant-baseline="alphabetic">[non-ksctl]</text></g><g transform="translate(512.1875 674.7999999999993) rotate(0 105.46875 12)"><text x="105.46875" y="19.3125" font-family="Cascadia, Segoe UI Emoji" font-size="20px" fill="#1971c2" text-anchor="middle" style="white-space: pre;" direction="ltr" dominant-baseline="alphabetic">deploy ksctl agent</text></g><g stroke-linecap="round" transform="translate(470 790) rotate(0 140 58)"><path d="M176.25 14.75 C200.33 25.12, 224.41 35.49, 244.75 44.25 C280 59, 280 59, 244.75 73.75 C223.14 82.43, 201.52 91.1, 176.25 101.25 C141 116, 141 116, 105.75 101.25 C82.1 92.02, 58.45 82.8, 35.25 73.75 C0 59, 0 59, 35.25 44.25 C56.17 35.5, 77.08 26.75, 105.75 14.75 C141 0, 141 0, 176.25 14.75" stroke="none" stroke-width="0" fill="#ffffff"></path><path d="M176.25 14.75 C200.48 25.18, 224.71 35.62, 244.75 44.25 M176.25 14.75 C192.98 21.95, 209.71 29.16, 244.75 44.25 M244.75 44.25 C280 59, 280 59, 244.75 73.75 M244.75 44.25 C280 59, 280 59, 244.75 73.75 M244.75 73.75 C224.8 81.76, 204.84 89.77, 176.25 101.25 M244.75 73.75 C230.84 79.33, 216.94 84.91, 176.25 101.25 M176.25 101.25 C141 116, 141 116, 105.75 101.25 M176.25 101.25 C141 116, 141 116, 105.75 101.25 M105.75 101.25 C83.13 92.43, 60.52 83.61, 35.25 73.75 M105.75 101.25 C84.41 92.92, 63.06 84.6, 35.25 73.75 M35.25 73.75 C0 59, 0 59, 35.25 44.25 M35.25 73.75 C0 59, 0 59, 35.25 44.25 M35.25 44.25 C53.16 36.76, 71.06 29.27, 105.75 14.75 M35.25 44.25 C61.82 33.13, 88.38 22.02, 105.75 14.75 M105.75 14.75 C141 0, 141 0, 176.25 14.75 M105.75 14.75 C141 0, 141 0, 176.25 14.75" stroke="#1971c2" stroke-width="2" fill="none"></path></g><g transform="translate(545.546875 836) rotate(0 64.453125 12)"><text x="64.453125" y="19.3125" font-family="Cascadia, Segoe UI Emoji" font-size="20px" fill="#1971c2" text-anchor="middle" style="white-space: pre;" direction="ltr" dominant-baseline="alphabetic">store=local</text></g><g stroke-linecap="round"><g transform="translate(450 550) rotate(0 80 50)"><path d="M0 0 C0 16.11, 0 32.22, 0 60 M0 0 C0 19.65, 0 39.3, 0 60 M0 60 C52.68 60, 105.36 60, 160 60 M0 60 C41.46 60, 82.92 60, 160 60 M160 60 C160 73.57, 160 87.13, 160 100 M160 60 C160 75.77, 160 91.55, 160 100" stroke="#1971c2" stroke-width="2" fill="none"></path></g><g transform="translate(450 550) rotate(0 80 50)"><path d="M160 100 L153.66 86.41 L166.34 86.41 L160 100" stroke="none" stroke-width="0" fill="#1971c2" fill-rule="evenodd"></path><path d="M160 100 C158.3 96.35, 156.6 92.7, 153.66 86.41 M160 100 C157.92 95.55, 155.85 91.1, 153.66 86.41 M153.66 86.41 C157.84 86.41, 162.01 86.41, 166.34 86.41 M153.66 86.41 C156.95 86.41, 160.23 86.41, 166.34 86.41 M166.34 86.41 C164.19 91.02, 162.04 95.63, 160 100 M166.34 86.41 C163.84 91.77, 161.34 97.13, 160 100 M160 100 C160 100, 160 100, 160 100 M160 100 C160 100, 160 100, 160 100" stroke="#1971c2" stroke-width="2" fill="none"></path></g></g><mask></mask><g stroke-linecap="round"><g transform="translate(770 550) rotate(0 -80 50)"><path d="M0 0 C0 19.9, 0 39.81, 0 60 M0 0 C0 13.75, 0 27.49, 0 60 M0 60 C-48.77 60, -97.54 60, -160 60 M0 60 C-32.11 60, -64.22 60, -160 60 M-160 60 C-160 73.28, -160 86.56, -160 100 M-160 60 C-160 75.02, -160 90.03, -160 100" stroke="#1971c2" stroke-width="2" fill="none"></path></g><g transform="translate(770 550) rotate(0 -80 50)"><path d="M-160 100 L-166.34 86.41 L-153.66 86.41 L-160 100" stroke="none" stroke-width="0" fill="#1971c2" fill-rule="evenodd"></path><path d="M-160 100 C-162.1 95.49, -164.21 90.98, -166.34 86.41 M-160 100 C-161.45 96.89, -162.9 93.77, -166.34 86.41 M-166.34 86.41 C-162.47 86.41, -158.61 86.41, -153.66 86.41 M-166.34 86.41 C-163.79 86.41, -161.25 86.41, -153.66 86.41 M-153.66 86.41 C-155.77 90.92, -157.87 95.43, -160 100 M-153.66 86.41 C-156.04 91.51, -158.42 96.61, -160 100 M-160 100 C-160 100, -160 100, -160 100 M-160 100 C-160 100, -160 100, -160 100" stroke="#1971c2" stroke-width="2" fill="none"></path></g></g><mask></mask><g stroke-linecap="round"><g transform="translate(610 730) rotate(0 0 30)"><path d="M0 0 C0 19.76, 0 39.53, 0 60 M0 0 C0 23.06, 0 46.13, 0 60" stroke="#1971c2" stroke-width="2" fill="none"></path></g><g transform="translate(610 730) rotate(0 0 30)"><path d="M0 60 L-6.34 46.41 L6.34 46.41 L0 60" stroke="none" stroke-width="0" fill="#1971c2" fill-rule="evenodd"></path><path d="M0 60 C-2.09 55.52, -4.18 51.04, -6.34 46.41 M0 60 C-2.44 54.77, -4.87 49.55, -6.34 46.41 M-6.34 46.41 C-1.59 46.41, 3.16 46.41, 6.34 46.41 M-6.34 46.41 C-1.9 46.41, 2.55 46.41, 6.34 46.41 M6.34 46.41 C4.93 49.44, 3.51 52.47, 0 60 M6.34 46.41 C4.35 50.67, 2.36 54.94, 0 60 M0 60 C0 60, 0 60, 0 60 M0 60 C0 60, 0 60, 0 60" stroke="#1971c2" stroke-width="2" fill="none"></path></g></g><mask></mask><g stroke-linecap="round" transform="translate(310 1010) rotate(0 90 65)"><path d="M0 0 L180 0 L180 130 L0 130" stroke="none" stroke-width="0" fill="#ffffff"></path><path d="M0 0 C70.12 0, 140.24 0, 180 0 M0 0 C62.13 0, 124.26 0, 180 0 M180 0 C180 50.4, 180 100.8, 180 130 M180 0 C180 46.24, 180 92.49, 180 130 M180 130 C125.91 130, 71.82 130, 0 130 M180 130 C112.68 130, 45.36 130, 0 130 M0 130 C0 85.91, 0 41.82, 0 0 M0 130 C0 83.65, 0 37.29, 0 0" stroke="#1971c2" stroke-width="2" fill="none"></path></g><g transform="translate(317.96875 1015) rotate(0 82.03125 60)"><text x="82.03125" y="19.3125" font-family="Cascadia, Segoe UI Emoji" font-size="20px" fill="#1971c2" text-anchor="middle" style="white-space: pre;" direction="ltr" dominant-baseline="alphabetic">create a </text><text x="82.03125" y="43.3125" font-family="Cascadia, Segoe UI Emoji" font-size="20px" fill="#1971c2" text-anchor="middle" style="white-space: pre;" direction="ltr" dominant-baseline="alphabetic">secret</text><text x="82.03125" y="67.3125" font-family="Cascadia, Segoe UI Emoji" font-size="20px" fill="#1971c2" text-anchor="middle" style="white-space: pre;" direction="ltr" dominant-baseline="alphabetic">with creds to </text><text x="82.03125" y="91.3125" font-family="Cascadia, Segoe UI Emoji" font-size="20px" fill="#1971c2" text-anchor="middle" style="white-space: pre;" direction="ltr" dominant-baseline="alphabetic">talk with ext.</text><text x="82.03125" y="115.3125" font-family="Cascadia, Segoe UI Emoji" font-size="20px" fill="#1971c2" text-anchor="middle" style="white-space: pre;" direction="ltr" dominant-baseline="alphabetic">storage</text></g><g stroke-linecap="round" transform="translate(730 1010) rotate(0 90 53)"><path d="M0 0 L180 0 L180 106 L0 106" stroke="none" stroke-width="0" fill="#ffffff"></path><path d="M0 0 C47.6 0, 95.19 0, 180 0 M0 0 C66.21 0, 132.42 0, 180 0 M180 0 C180 40.21, 180 80.42, 180 106 M180 0 C180 42.36, 180 84.72, 180 106 M180 106 C135.42 106, 90.84 106, 0 106 M180 106 C126.24 106, 72.48 106, 0 106 M0 106 C0 68.05, 0 30.09, 0 0 M0 106 C0 78.26, 0 50.53, 0 0" stroke="#1971c2" stroke-width="2" fill="none"></path></g><g transform="translate(755.546875 1015) rotate(0 64.453125 48)"><text x="64.453125" y="19.3125" font-family="Cascadia, Segoe UI Emoji" font-size="20px" fill="#1971c2" text-anchor="middle" style="white-space: pre;" direction="ltr" dominant-baseline="alphabetic">deploy</text><text x="64.453125" y="43.3125" font-family="Cascadia, Segoe UI Emoji" font-size="20px" fill="#1971c2" text-anchor="middle" style="white-space: pre;" direction="ltr" dominant-baseline="alphabetic">importState</text><text x="64.453125" y="67.3125" font-family="Cascadia, Segoe UI Emoji" font-size="20px" fill="#1971c2" text-anchor="middle" style="white-space: pre;" direction="ltr" dominant-baseline="alphabetic">ksctl </text><text x="64.453125" y="91.3125" font-family="Cascadia, Segoe UI Emoji" font-size="20px" fill="#1971c2" text-anchor="middle" style="white-space: pre;" direction="ltr" dominant-baseline="alphabetic">controller</text></g><g mask="url(#mask-5RikHAqZU-G_QU5NeCHtz)" stroke-linecap="round"><g transform="translate(470 850) rotate(0 -40 80)"><path d="M0 0 C-29.51 0, -59.02 0, -80 0 M0 0 C-19.63 0, -39.27 0, -80 0 M-80 0 C-80 59.24, -80 118.48, -80 160 M-80 0 C-80 37, -80 74, -80 160" stroke="#1971c2" stroke-width="2" fill="none"></path></g><g transform="translate(470 850) rotate(0 -40 80)"><path d="M-80 160 L-86.34 146.41 L-73.66 146.41 L-80 160" stroke="none" stroke-width="0" fill="#1971c2" fill-rule="evenodd"></path><path d="M-80 160 C-82.34 154.99, -84.68 149.97, -86.34 146.41 M-80 160 C-81.56 156.66, -83.11 153.33, -86.34 146.41 M-86.34 146.41 C-81.64 146.41, -76.95 146.41, -73.66 146.41 M-86.34 146.41 C-83.41 146.41, -80.48 146.41, -73.66 146.41 M-73.66 146.41 C-75.45 150.24, -77.23 154.07, -80 160 M-73.66 146.41 C-75.39 150.11, -77.11 153.81, -80 160 M-80 160 C-80 160, -80 160, -80 160 M-80 160 C-80 160, -80 160, -80 160" stroke="#1971c2" stroke-width="2" fill="none"></path></g></g><mask id="mask-5RikHAqZU-G_QU5NeCHtz"><rect x="0" y="0" fill="#fff" width="650" height="1110"></rect><rect x="378.28125" y="838" fill="#000" width="23.4375" height="24" opacity="1"></rect></mask><g transform="translate(378.28125 838) rotate(0 51.71875 92)"><text x="11.71875" y="19.3125" font-family="Cascadia, Segoe UI Emoji" font-size="20px" fill="#1971c2" text-anchor="middle" style="white-space: pre;" direction="ltr" dominant-baseline="alphabetic">No</text></g><g mask="url(#mask-FIUFplOJR3H3gkwy_WGNn)" stroke-linecap="round"><g transform="translate(750 850) rotate(0 40 80)"><path d="M0 0 C16.12 0, 32.24 0, 80 0 M0 0 C25.68 0, 51.37 0, 80 0 M80 0 C80 61.14, 80 122.29, 80 160 M80 0 C80 49.07, 80 98.14, 80 160" stroke="#1971c2" stroke-width="2" fill="none"></path></g><g transform="translate(750 850) rotate(0 40 80)"><path d="M80 160 L73.66 146.41 L86.34 146.41 L80 160" stroke="none" stroke-width="0" fill="#1971c2" fill-rule="evenodd"></path><path d="M80 160 C78.72 157.26, 77.45 154.52, 73.66 146.41 M80 160 C77.96 155.64, 75.93 151.27, 73.66 146.41 M73.66 146.41 C78.51 146.41, 83.35 146.41, 86.34 146.41 M73.66 146.41 C77.55 146.41, 81.44 146.41, 86.34 146.41 M86.34 146.41 C83.99 151.43, 81.65 156.46, 80 160 M86.34 146.41 C83.84 151.76, 81.35 157.11, 80 160 M80 160 C80 160, 80 160, 80 160 M80 160 C80 160, 80 160, 80 160" stroke="#1971c2" stroke-width="2" fill="none"></path></g></g><mask id="mask-FIUFplOJR3H3gkwy_WGNn"><rect x="0" y="0" fill="#fff" width="930" height="1110"></rect><rect x="812.421875" y="838" fill="#000" width="35.15625" height="24" opacity="1"></rect></mask><g transform="translate(812.421875 838) rotate(0 -22.421875 92)"><text x="17.578125" y="19.3125" font-family="Cascadia, Segoe UI Emoji" font-size="20px" fill="#1971c2" text-anchor="middle" style="white-space: pre;" direction="ltr" dominant-baseline="alphabetic">Yes</text></g><g transform="translate(310 290) rotate(0 128.90625 12)"><text x="128.90625" y="19.3125" font-family="Cascadia, Segoe UI Emoji" font-size="20px" fill="#1971c2" text-anchor="middle" style="white-space: pre;" direction="ltr" dominant-baseline="alphabetic">$ ksctl create cluster</text></g><g stroke-linecap="round"><g transform="translate(410 330) rotate(0 0 70)"><path d="M0 0 C0 48.11, 0 96.21, 0 140 M0 0 C0 37.34, 0 74.67, 0 140" stroke="#1971c2" stroke-width="2" fill="none"></path></g><g transform="translate(410 330) rotate(0 0 70)"><path d="M0 140 L-6.34 126.41 L6.34 126.41 L0 140" stroke="none" stroke-width="0" fill="#1971c2" fill-rule="evenodd"></path><path d="M0 140 C-2.18 135.33, -4.36 130.66, -6.34 126.41 M0 140 C-1.69 136.37, -3.38 132.75, -6.34 126.41 M-6.34 126.41 C-1.31 126.41, 3.71 126.41, 6.34 126.41 M-6.34 126.41 C-3.64 126.41, -0.93 126.41, 6.34 126.41 M6.34 126.41 C4.82 129.66, 3.3 132.92, 0 140 M6.34 126.41 C4.54 130.27, 2.73 134.13, 0 140 M0 140 C0 140, 0 140, 0 140 M0 140 C0 140, 0 140, 0 140" stroke="#1971c2" stroke-width="2" fill="none"></path></g></g><mask></mask><g stroke-linecap="round"><g transform="translate(770 410) rotate(0 0 30)"><path d="M0 0 C0 18.06, 0 36.11, 0 60 M0 0 C0 17.24, 0 34.49, 0 60" stroke="#1971c2" stroke-width="2" fill="none"></path></g><g transform="translate(770 410) rotate(0 0 30)"><path d="M0 60 L-6.34 46.41 L6.34 46.41 L0 60" stroke="none" stroke-width="0" fill="#1971c2" fill-rule="evenodd"></path><path d="M0 60 C-1.91 55.91, -3.82 51.82, -6.34 46.41 M0 60 C-1.82 56.09, -3.64 52.19, -6.34 46.41 M-6.34 46.41 C-3.8 46.41, -1.26 46.41, 6.34 46.41 M-6.34 46.41 C-2.7 46.41, 0.94 46.41, 6.34 46.41 M6.34 46.41 C5.07 49.13, 3.8 51.85, 0 60 M6.34 46.41 C4.35 50.67, 2.37 54.93, 0 60 M0 60 C0 60, 0 60, 0 60 M0 60 C0 60, 0 60, 0 60" stroke="#1971c2" stroke-width="2" fill="none"></path></g></g><mask></mask><g transform="translate(990 810) rotate(0 287.109375 12)"><text x="287.109375" y="19.3125" font-family="Cascadia, Segoe UI Emoji" font-size="20px" fill="#1e1e1e" text-anchor="middle" style="white-space: pre;" direction="ltr" dominant-baseline="alphabetic">How are we thinking of install ksctl application?</text></g><g transform="translate(1030 870) rotate(0 257.8125 48)"><text x="257.8125" y="19.3125" font-family="Cascadia, Segoe UI Emoji" font-size="20px" fill="#1e1e1e" text-anchor="middle" style="white-space: pre;" direction="ltr" dominant-baseline="alphabetic">Option 1--&gt; install the controller and crd</text><text x="257.8125" y="43.3125" font-family="Cascadia, Segoe UI Emoji" font-size="20px" fill="#1e1e1e" text-anchor="middle" style="white-space: pre;" direction="ltr" dominant-baseline="alphabetic">(stack.applications.ksctl.com)</text><text x="257.8125" y="67.3125" font-family="Cascadia, Segoe UI Emoji" font-size="20px" fill="#1e1e1e" text-anchor="middle" style="white-space: pre;" direction="ltr" dominant-baseline="alphabetic">Option 2 --&gt; use the ksctl kubernetes client</text><text x="257.8125" y="91.3125" font-family="Cascadia, Segoe UI Emoji" font-size="20px" fill="#1e1e1e" text-anchor="middle" style="white-space: pre;" direction="ltr" dominant-baseline="alphabetic">to install them from the cli</text></g><g stroke-linecap="round"><g transform="translate(610 1150) rotate(0 0 80)"><path d="M0 0 C0 58.28, 0 116.55, 0 160 M0 0 C0 42.09, 0 84.18, 0 160" stroke="#1971c2" stroke-width="2" fill="none"></path></g><g transform="translate(610 1150) rotate(0 0 80)"><path d="M0 160 L-6.34 146.41 L6.34 146.41 L0 160" stroke="none" stroke-width="0" fill="#1971c2" fill-rule="evenodd"></path><path d="M0 160 C-2.31 155.05, -4.62 150.1, -6.34 146.41 M0 160 C-1.67 156.42, -3.34 152.85, -6.34 146.41 M-6.34 146.41 C-3.04 146.41, 0.26 146.41, 6.34 146.41 M-6.34 146.41 C-3.73 146.41, -1.11 146.41, 6.34 146.41 M6.34 146.41 C4.38 150.6, 2.42 154.8, 0 160 M6.34 146.41 C4.57 150.2, 2.8 153.99, 0 160 M0 160 C0 160, 0 160, 0 160 M0 160 C0 160, 0 160, 0 160" stroke="#1971c2" stroke-width="2" fill="none"></path></g></g><mask></mask><g stroke-linecap="round" transform="translate(170 1370) rotate(0 200 200)"><path d="M0 0 L400 0 L400 400 L0 400" stroke="none" stroke-width="0" fill="#ffffff"></path><path d="M0 0 C111.46 0, 222.93 0, 400 0 M400 0 C400 97.62, 400 195.23, 400 400 M400 400 C275.61 400, 151.22 400, 0 400 M0 400 C0 273, 0 145.99, 0 0" stroke="#1e1e1e" stroke-width="2.5" fill="none" stroke-dasharray="1.5 8"></path></g><g stroke-linecap="round" transform="translate(710 1370) rotate(0 200 200)"><path d="M0 0 L400 0 L400 400 L0 400" stroke="none" stroke-width="0" fill="#ffffff"></path><path d="M0 0 C158.31 0, 316.63 0, 400 0 M400 0 C400 91.1, 400 182.19, 400 400 M400 400 C270.22 400, 140.44 400, 0 400 M0 400 C0 270.89, 0 141.78, 0 0" stroke="#1e1e1e" stroke-width="2.5" fill="none" stroke-dasharray="1.5 8"></path></g><g transform="translate(330 1330) rotate(0 46.875 12)"><text x="46.875" y="19.3125" font-family="Cascadia, Segoe UI Emoji" font-size="20px" fill="#1e1e1e" text-anchor="middle" style="white-space: pre;" direction="ltr" dominant-baseline="alphabetic">Option 1</text></g><g transform="translate(870 1330) rotate(0 46.875 12)"><text x="46.875" y="19.3125" font-family="Cascadia, Segoe UI Emoji" font-size="20px" fill="#1e1e1e" text-anchor="middle" style="white-space: pre;" direction="ltr" dominant-baseline="alphabetic">Option 2</text></g><g transform="translate(210 1410) rotate(0 158.203125 36)"><text x="158.203125" y="19.3125" font-family="Cascadia, Segoe UI Emoji" font-size="20px" fill="#1971c2" text-anchor="middle" style="white-space: pre;" direction="ltr" dominant-baseline="alphabetic">if we are going to use this</text><text x="158.203125" y="43.3125" font-family="Cascadia, Segoe UI Emoji" font-size="20px" fill="#1971c2" text-anchor="middle" style="white-space: pre;" direction="ltr" dominant-baseline="alphabetic">then sequence changes</text><text x="158.203125" y="67.3125" font-family="Cascadia, Segoe UI Emoji" font-size="20px" fill="#1971c2" text-anchor="middle" style="white-space: pre;" direction="ltr" dominant-baseline="alphabetic"></text></g><g transform="translate(190 1490) rotate(0 175.78125 120)"><text x="0" y="19.3125" font-family="Cascadia, Segoe UI Emoji" font-size="20px" fill="#1971c2" text-anchor="start" style="white-space: pre;" direction="ltr" dominant-baseline="alphabetic">1. install application crds </text><text x="0" y="43.3125" font-family="Cascadia, Segoe UI Emoji" font-size="20px" fill="#1971c2" text-anchor="start" style="white-space: pre;" direction="ltr" dominant-baseline="alphabetic">    and control.</text><text x="0" y="67.3125" font-family="Cascadia, Segoe UI Emoji" font-size="20px" fill="#1971c2" text-anchor="start" style="white-space: pre;" direction="ltr" dominant-baseline="alphabetic"></text><text x="0" y="91.3125" font-family="Cascadia, Segoe UI Emoji" font-size="20px" fill="#1971c2" text-anchor="start" style="white-space: pre;" direction="ltr" dominant-baseline="alphabetic">2. create a resource of the</text><text x="0" y="115.3125" font-family="Cascadia, Segoe UI Emoji" font-size="20px" fill="#1971c2" text-anchor="start" style="white-space: pre;" direction="ltr" dominant-baseline="alphabetic">    crd to install ksctl agent</text><text x="0" y="139.3125" font-family="Cascadia, Segoe UI Emoji" font-size="20px" fill="#1971c2" text-anchor="start" style="white-space: pre;" direction="ltr" dominant-baseline="alphabetic"></text><text x="0" y="163.3125" font-family="Cascadia, Segoe UI Emoji" font-size="20px" fill="#1971c2" text-anchor="start" style="white-space: pre;" direction="ltr" dominant-baseline="alphabetic">3. all it will install other</text><text x="0" y="187.3125" font-family="Cascadia, Segoe UI Emoji" font-size="20px" fill="#1971c2" text-anchor="start" style="white-space: pre;" direction="ltr" dominant-baseline="alphabetic">    crds and controllers</text><text x="0" y="211.3125" font-family="Cascadia, Segoe UI Emoji" font-size="20px" fill="#1971c2" text-anchor="start" style="white-space: pre;" direction="ltr" dominant-baseline="alphabetic">    like the importstate thing</text><text x="0" y="235.3125" font-family="Cascadia, Segoe UI Emoji" font-size="20px" fill="#1971c2" text-anchor="start" style="white-space: pre;" direction="ltr" dominant-baseline="alphabetic">    acc. to logic</text></g><g transform="translate(750 1430) rotate(0 169.921875 84)"><text x="0" y="19.3125" font-family="Cascadia, Segoe UI Emoji" font-size="20px" fill="#1971c2" text-anchor="start" style="white-space: pre;" direction="ltr" dominant-baseline="alphabetic">so here we will install</text><text x="0" y="43.3125" font-family="Cascadia, Segoe UI Emoji" font-size="20px" fill="#1971c2" text-anchor="start" style="white-space: pre;" direction="ltr" dominant-baseline="alphabetic">application via ksctl core</text><text x="0" y="67.3125" font-family="Cascadia, Segoe UI Emoji" font-size="20px" fill="#1971c2" text-anchor="start" style="white-space: pre;" direction="ltr" dominant-baseline="alphabetic">directly</text><text x="0" y="91.3125" font-family="Cascadia, Segoe UI Emoji" font-size="20px" fill="#1971c2" text-anchor="start" style="white-space: pre;" direction="ltr" dominant-baseline="alphabetic"></text><text x="0" y="115.3125" font-family="Cascadia, Segoe UI Emoji" font-size="20px" fill="#1971c2" text-anchor="start" style="white-space: pre;" direction="ltr" dominant-baseline="alphabetic">and then other subsequent</text><text x="0" y="139.3125" font-family="Cascadia, Segoe UI Emoji" font-size="20px" fill="#1971c2" text-anchor="start" style="white-space: pre;" direction="ltr" dominant-baseline="alphabetic">crds and controller according</text><text x="0" y="163.3125" font-family="Cascadia, Segoe UI Emoji" font-size="20px" fill="#1971c2" text-anchor="start" style="white-space: pre;" direction="ltr" dominant-baseline="alphabetic">to the user requests</text></g><g transform="translate(290 50) rotate(0 442.96875 86.39999999999964)"><text x="442.96875" y="34.762499999999996" font-family="Cascadia, Segoe UI Emoji" font-size="36px" fill="#1971c2" text-anchor="middle" style="white-space: pre;" direction="ltr" dominant-baseline="alphabetic">Ksctl kubernetes part</text><text x="442.96875" y="77.96249999999999" font-family="Cascadia, Segoe UI Emoji" font-size="36px" fill="#1971c2" text-anchor="middle" style="white-space: pre;" direction="ltr" dominant-baseline="alphabetic"></text><text x="442.96875" y="121.1625" font-family="Cascadia, Segoe UI Emoji" font-size="36px" fill="#1971c2" text-anchor="middle" style="white-space: pre;" direction="ltr" dominant-baseline="alphabetic">[How to install the components]</text><text x="442.96875" y="164.36249999999998" font-family="Cascadia, Segoe UI Emoji" font-size="36px" fill="#1971c2" text-anchor="middle" style="white-space: pre;" direction="ltr" dominant-baseline="alphabetic">(aka initial components specific to ksctl)</text></g></svg>