<svg version="1.1" xmlns="http://www.w3.org/2000/svg" viewBox="0 0 1580 1460" width="1580" height="1460">
  <!-- svg-source:excalidraw -->
  
  <defs>
    <style class="style-fonts">
      @font-face {
        font-family: "Virgil";
        src: url("https://excalidraw.com/Virgil.woff2");
      }
      @font-face {
        font-family: "Cascadia";
        src: url("https://excalidraw.com/Cascadia.woff2");
      }
      @font-face {
        font-family: "Assistant";
        src: url("https://excalidraw.com/Assistant-Regular.woff2");
      }
    </style>
    
  </defs>
  <rect x="0" y="0" width="1580" height="1460" fill="#ffffff"></rect><g stroke-linecap="round" transform="translate(10 10) rotate(0 780 720)"><path d="M32 0 C428.73 0, 825.46 0, 1528 0 C1549.33 0, 1560 10.67, 1560 32 C1560 467.25, 1560 902.5, 1560 1408 C1560 1429.33, 1549.33 1440, 1528 1440 C1094.46 1440, 660.93 1440, 32 1440 C10.67 1440, 0 1429.33, 0 1408 C0 897.44, 0 386.88, 0 32 C0 10.67, 10.67 0, 32 0" stroke="none" stroke-width="0" fill="#ffffff"></path><path d="M32 0 C340.58 0, 649.15 0, 1528 0 M32 0 C462.28 0, 892.56 0, 1528 0 M1528 0 C1549.33 0, 1560 10.67, 1560 32 M1528 0 C1549.33 0, 1560 10.67, 1560 32 M1560 32 C1560 560.81, 1560 1089.63, 1560 1408 M1560 32 C1560 483.67, 1560 935.34, 1560 1408 M1560 1408 C1560 1429.33, 1549.33 1440, 1528 1440 M1560 1408 C1560 1429.33, 1549.33 1440, 1528 1440 M1528 1440 C1007.29 1440, 486.58 1440, 32 1440 M1528 1440 C1206.65 1440, 885.3 1440, 32 1440 M32 1440 C10.67 1440, 0 1429.33, 0 1408 M32 1440 C10.67 1440, 0 1429.33, 0 1408 M0 1408 C0 1074.97, 0 741.93, 0 32 M0 1408 C0 1005.72, 0 603.45, 0 32 M0 32 C0 10.67, 10.67 0, 32 0 M0 32 C0 10.67, 10.67 0, 32 0" stroke="#1971c2" stroke-width="2" fill="none"></path></g><g stroke-linecap="round" transform="translate(110 870) rotate(0 290 60)"><path d="M0 0 L580 0 L580 120 L0 120" stroke="none" stroke-width="0" fill="#ebfbee"></path><path d="M0 0 C189.38 0, 378.77 0, 580 0 M0 0 C152.17 0, 304.35 0, 580 0 M580 0 C580 47.89, 580 95.78, 580 120 M580 0 C580 29.01, 580 58.02, 580 120 M580 120 C446.77 120, 313.53 120, 0 120 M580 120 C391.17 120, 202.35 120, 0 120 M0 120 C0 72.67, 0 25.33, 0 0 M0 120 C0 83.18, 0 46.37, 0 0" stroke="#2f9e44" stroke-width="4" fill="none"></path></g><g stroke-linecap="round" transform="translate(370 510) rotate(0 350 90)"><path d="M0 0 L700 0 L700 180 L0 180" stroke="none" stroke-width="0" fill="#ffec99"></path><path d="M0 0 C146.26 0, 292.53 0, 700 0 M0 0 C178.72 0, 357.44 0, 700 0 M700 0 C700 49.43, 700 98.86, 700 180 M700 0 C700 62.93, 700 125.85, 700 180 M700 180 C442.18 180, 184.35 180, 0 180 M700 180 C511.6 180, 323.2 180, 0 180 M0 180 C0 118.33, 0 56.67, 0 0 M0 180 C0 124.28, 0 68.56, 0 0" stroke="#f08c00" stroke-width="4" fill="none"></path></g><g stroke-linecap="round" transform="translate(790 870) rotate(0 340 60)"><path d="M0 0 L680 0 L680 120 L0 120" stroke="none" stroke-width="0" fill="#ebfbee"></path><path d="M0 0 C212.8 0, 425.61 0, 680 0 M0 0 C186.84 0, 373.68 0, 680 0 M680 0 C680 31.15, 680 62.3, 680 120 M680 0 C680 35.97, 680 71.95, 680 120 M680 120 C418.49 120, 156.98 120, 0 120 M680 120 C477.64 120, 275.28 120, 0 120 M0 120 C0 80.5, 0 41.01, 0 0 M0 120 C0 89.24, 0 58.48, 0 0" stroke="#2f9e44" stroke-width="4" fill="none"></path></g><g stroke-linecap="round" transform="translate(130 1130) rotate(0 300 140)"><path d="M0 0 L600 0 L600 280 L0 280" stroke="none" stroke-width="0" fill="#e3fafc"></path><path d="M0 0 C132.74 0, 265.47 0, 600 0 M0 0 C191.24 0, 382.49 0, 600 0 M600 0 C600 93.9, 600 187.8, 600 280 M600 0 C600 92.79, 600 185.58, 600 280 M600 280 C390.13 280, 180.26 280, 0 280 M600 280 C463.73 280, 327.46 280, 0 280 M0 280 C0 191.97, 0 103.94, 0 0 M0 280 C0 211.73, 0 143.45, 0 0" stroke="#1971c2" stroke-width="4" fill="none"></path></g><g stroke-linecap="round" transform="translate(810 1170) rotate(0 290 100)"><path d="M0 0 L580 0 L580 200 L0 200" stroke="none" stroke-width="0" fill="#e3fafc"></path><path d="M0 0 C145.73 0, 291.45 0, 580 0 M0 0 C184.93 0, 369.85 0, 580 0 M580 0 C580 72.62, 580 145.24, 580 200 M580 0 C580 43.12, 580 86.23, 580 200 M580 200 C395.93 200, 211.86 200, 0 200 M580 200 C420.13 200, 260.26 200, 0 200 M0 200 C0 140.47, 0 80.94, 0 0 M0 200 C0 156.67, 0 113.34, 0 0" stroke="#1971c2" stroke-width="4" fill="none"></path></g><g transform="translate(159.16887530747772 1161.2639221592353) rotate(0 246.09375 117.59999999999991)"><text x="0" y="27.0375" font-family="Cascadia, Segoe UI Emoji" font-size="28px" fill="#1971c2" text-anchor="start" style="white-space: pre;" direction="ltr" dominant-baseline="alphabetic">type ClusterState struct {</text><text x="0" y="60.6375" font-family="Cascadia, Segoe UI Emoji" font-size="28px" fill="#1971c2" text-anchor="start" style="white-space: pre;" direction="ltr" dominant-baseline="alphabetic">  provider: string</text><text x="0" y="94.23750000000001" font-family="Cascadia, Segoe UI Emoji" font-size="28px" fill="#1971c2" text-anchor="start" style="white-space: pre;" direction="ltr" dominant-baseline="alphabetic">  clusterType: string</text><text x="0" y="127.8375" font-family="Cascadia, Segoe UI Emoji" font-size="28px" fill="#1971c2" text-anchor="start" style="white-space: pre;" direction="ltr" dominant-baseline="alphabetic">  clusterName: string</text><text x="0" y="161.4375" font-family="Cascadia, Segoe UI Emoji" font-size="28px" fill="#1971c2" text-anchor="start" style="white-space: pre;" direction="ltr" dominant-baseline="alphabetic">  region: string</text><text x="0" y="195.0375" font-family="Cascadia, Segoe UI Emoji" font-size="28px" fill="#1971c2" text-anchor="start" style="white-space: pre;" direction="ltr" dominant-baseline="alphabetic">  data: *types.StorageDocument</text><text x="0" y="228.63750000000002" font-family="Cascadia, Segoe UI Emoji" font-size="28px" fill="#1971c2" text-anchor="start" style="white-space: pre;" direction="ltr" dominant-baseline="alphabetic">}</text></g><g transform="translate(830 1210) rotate(0 270.703125 67.20000000000005)"><text x="0" y="27.0375" font-family="Cascadia, Segoe UI Emoji" font-size="28px" fill="#1971c2" text-anchor="start" style="white-space: pre;" direction="ltr" dominant-baseline="alphabetic">type CloudCredential struct {</text><text x="0" y="60.6375" font-family="Cascadia, Segoe UI Emoji" font-size="28px" fill="#1971c2" text-anchor="start" style="white-space: pre;" direction="ltr" dominant-baseline="alphabetic">  cloudProvider: string</text><text x="0" y="94.23750000000001" font-family="Cascadia, Segoe UI Emoji" font-size="28px" fill="#1971c2" text-anchor="start" style="white-space: pre;" direction="ltr" dominant-baseline="alphabetic">  data: *types.CredentialDocument</text><text x="0" y="127.8375" font-family="Cascadia, Segoe UI Emoji" font-size="28px" fill="#1971c2" text-anchor="start" style="white-space: pre;" direction="ltr" dominant-baseline="alphabetic">}</text></g><g transform="translate(130 910) rotate(0 270.703125 16.799999999999955)"><text x="0" y="27.0375" font-family="Cascadia, Segoe UI Emoji" font-size="28px" fill="#2f9e44" text-anchor="start" style="white-space: pre;" direction="ltr" dominant-baseline="alphabetic">type ClusterStates []ClusterState</text></g><g transform="translate(810 910) rotate(0 319.921875 16.799999999999955)"><text x="0" y="27.0375" font-family="Cascadia, Segoe UI Emoji" font-size="28px" fill="#2f9e44" text-anchor="start" style="white-space: pre;" direction="ltr" dominant-baseline="alphabetic">type CloudCredentials []CloudCredential</text></g><g stroke-linecap="round"><g transform="translate(1110 990) rotate(0 0 90)"><path d="M0 0 C0 57.73, 0 115.46, 0 180 M0 0 C0 51.8, 0 103.61, 0 180" stroke="#e03131" stroke-width="4" fill="none"></path></g><g transform="translate(1110 990) rotate(0 0 90)"><path d="M0 180 L-6.34 166.41 L6.34 166.41 L0 180" stroke="none" stroke-width="0" fill="#e03131" fill-rule="evenodd"></path><path d="M0 180 C-2.03 175.64, -4.07 171.28, -6.34 166.41 M0 180 C-1.82 176.09, -3.65 172.18, -6.34 166.41 M-6.34 166.41 C-3.02 166.41, 0.3 166.41, 6.34 166.41 M-6.34 166.41 C-3 166.41, 0.34 166.41, 6.34 166.41 M6.34 166.41 C4.57 170.2, 2.8 173.99, 0 180 M6.34 166.41 C4.37 170.63, 2.4 174.85, 0 180 M0 180 C0 180, 0 180, 0 180 M0 180 C0 180, 0 180, 0 180" stroke="#e03131" stroke-width="4" fill="none"></path></g></g><mask></mask><g stroke-linecap="round"><g transform="translate(430 990) rotate(0 0 70)"><path d="M0 0 C0 44.58, 0 89.16, 0 140 M0 0 C0 49.18, 0 98.36, 0 140" stroke="#e03131" stroke-width="4" fill="none"></path></g><g transform="translate(430 990) rotate(0 0 70)"><path d="M0 140 L-6.34 126.41 L6.34 126.41 L0 140" stroke="none" stroke-width="0" fill="#e03131" fill-rule="evenodd"></path><path d="M0 140 C-2.02 135.67, -4.04 131.34, -6.34 126.41 M0 140 C-2.23 135.22, -4.45 130.45, -6.34 126.41 M-6.34 126.41 C-1.71 126.41, 2.91 126.41, 6.34 126.41 M-6.34 126.41 C-1.39 126.41, 3.55 126.41, 6.34 126.41 M6.34 126.41 C3.99 131.44, 1.64 136.48, 0 140 M6.34 126.41 C4.28 130.83, 2.21 135.25, 0 140 M0 140 C0 140, 0 140, 0 140 M0 140 C0 140, 0 140, 0 140" stroke="#e03131" stroke-width="4" fill="none"></path></g></g><mask></mask><g transform="translate(410 530) rotate(0 311.71875 67.20000000000005)"><text x="0" y="27.0375" font-family="Cascadia, Segoe UI Emoji" font-size="28px" fill="#e03131" text-anchor="start" style="white-space: pre;" direction="ltr" dominant-baseline="alphabetic">type StorageStateExportImport struct {</text><text x="0" y="60.6375" font-family="Cascadia, Segoe UI Emoji" font-size="28px" fill="#e03131" text-anchor="start" style="white-space: pre;" direction="ltr" dominant-baseline="alphabetic">  Clusters ClusterStates</text><text x="0" y="94.23750000000001" font-family="Cascadia, Segoe UI Emoji" font-size="28px" fill="#e03131" text-anchor="start" style="white-space: pre;" direction="ltr" dominant-baseline="alphabetic">  Credentials CloudCredentials</text><text x="0" y="127.8375" font-family="Cascadia, Segoe UI Emoji" font-size="28px" fill="#e03131" text-anchor="start" style="white-space: pre;" direction="ltr" dominant-baseline="alphabetic">}</text></g><g stroke-linecap="round"><g transform="translate(890 690) rotate(0 0 90)"><path d="M0 0 C0 59.47, 0 118.94, 0 180 M0 0 C0 51.36, 0 102.72, 0 180" stroke="#e03131" stroke-width="4" fill="none"></path></g><g transform="translate(890 690) rotate(0 0 90)"><path d="M0 180 L-6.34 166.41 L6.34 166.41 L0 180" stroke="none" stroke-width="0" fill="#e03131" fill-rule="evenodd"></path><path d="M0 180 C-2.09 175.51, -4.19 171.02, -6.34 166.41 M0 180 C-1.81 176.12, -3.62 172.24, -6.34 166.41 M-6.34 166.41 C-1.49 166.41, 3.36 166.41, 6.34 166.41 M-6.34 166.41 C-2.15 166.41, 2.04 166.41, 6.34 166.41 M6.34 166.41 C4.66 170.02, 2.97 173.63, 0 180 M6.34 166.41 C3.82 171.82, 1.29 177.22, 0 180 M0 180 C0 180, 0 180, 0 180 M0 180 C0 180, 0 180, 0 180" stroke="#e03131" stroke-width="4" fill="none"></path></g></g><mask></mask><g stroke-linecap="round"><g transform="translate(510 690) rotate(0 0 90)"><path d="M0 0 C0 62.45, 0 124.91, 0 180 M0 0 C0 63.87, 0 127.74, 0 180" stroke="#e03131" stroke-width="4" fill="none"></path></g><g transform="translate(510 690) rotate(0 0 90)"><path d="M0 180 L-6.34 166.41 L6.34 166.41 L0 180" stroke="none" stroke-width="0" fill="#e03131" fill-rule="evenodd"></path><path d="M0 180 C-2.2 175.28, -4.4 170.57, -6.34 166.41 M0 180 C-2.25 175.18, -4.5 170.35, -6.34 166.41 M-6.34 166.41 C-2.93 166.41, 0.47 166.41, 6.34 166.41 M-6.34 166.41 C-3.79 166.41, -1.23 166.41, 6.34 166.41 M6.34 166.41 C3.81 171.82, 1.29 177.23, 0 180 M6.34 166.41 C4.14 171.11, 1.95 175.82, 0 180 M0 180 C0 180, 0 180, 0 180 M0 180 C0 180, 0 180, 0 180" stroke="#e03131" stroke-width="4" fill="none"></path></g></g><mask></mask><g transform="translate(310 130) rotate(0 442.96875 129.5999999999999)"><text x="0" y="34.762499999999996" font-family="Cascadia, Segoe UI Emoji" font-size="36px" fill="#e03131" text-anchor="start" style="white-space: pre;" direction="ltr" dominant-baseline="alphabetic">type StorageFactory interface {</text><text x="0" y="77.96249999999999" font-family="Cascadia, Segoe UI Emoji" font-size="36px" fill="#e03131" text-anchor="start" style="white-space: pre;" direction="ltr" dominant-baseline="alphabetic">...</text><text x="0" y="121.1625" font-family="Cascadia, Segoe UI Emoji" font-size="36px" fill="#e03131" text-anchor="start" style="white-space: pre;" direction="ltr" dominant-baseline="alphabetic">Export() (StorageStateExportImport, error)</text><text x="0" y="164.36249999999998" font-family="Cascadia, Segoe UI Emoji" font-size="36px" fill="#e03131" text-anchor="start" style="white-space: pre;" direction="ltr" dominant-baseline="alphabetic">Import(StorageStateExportImport) error</text><text x="0" y="207.56249999999997" font-family="Cascadia, Segoe UI Emoji" font-size="36px" fill="#e03131" text-anchor="start" style="white-space: pre;" direction="ltr" dominant-baseline="alphabetic">...</text><text x="0" y="250.76249999999996" font-family="Cascadia, Segoe UI Emoji" font-size="36px" fill="#e03131" text-anchor="start" style="white-space: pre;" direction="ltr" dominant-baseline="alphabetic">}</text></g><g transform="translate(210 30) rotate(0 63.28125 21.600000000000023)"><text x="0" y="34.762499999999996" font-family="Cascadia, Segoe UI Emoji" font-size="36px" fill="#e03131" text-anchor="start" style="white-space: pre;" direction="ltr" dominant-baseline="alphabetic">Usage:</text></g></svg>