<?xml version="1.0" encoding="UTF-8" standalone="no"?>
<svg
   version="1.1"
   viewBox="0 0 1880 1320"
   width="3760"
   height="2640"
   id="svg32"
   sodipodi:docname="storage-kubernetes.svg"
   inkscape:version="1.3.2 (091e20ef0f, 2023-11-25)"
   xmlns:inkscape="http://www.inkscape.org/namespaces/inkscape"
   xmlns:sodipodi="http://sodipodi.sourceforge.net/DTD/sodipodi-0.dtd"
   xmlns="http://www.w3.org/2000/svg"
   xmlns:svg="http://www.w3.org/2000/svg">
  <sodipodi:namedview
     id="namedview32"
     pagecolor="#505050"
     bordercolor="#eeeeee"
     borderopacity="1"
     inkscape:showpageshadow="0"
     inkscape:pageopacity="0"
     inkscape:pagecheckerboard="0"
     inkscape:deskcolor="#d1d1d1"
     showgrid="false"
     inkscape:zoom="0.29760638"
     inkscape:cx="2031.2064"
     inkscape:cy="1357.4978"
     inkscape:window-width="1894"
     inkscape:window-height="1011"
     inkscape:window-x="13"
     inkscape:window-y="56"
     inkscape:window-maximized="1"
     inkscape:current-layer="svg32" />
  <!-- svg-source:excalidraw -->
  <defs
     id="defs1">
    <style
       class="style-fonts"
       id="style1">
      @font-face {
        font-family: &quot;Virgil&quot;;
        src: url(&quot;https://excalidraw.com/Virgil.woff2&quot;);
      }
      @font-face {
        font-family: &quot;Cascadia&quot;;
        src: url(&quot;https://excalidraw.com/Cascadia.woff2&quot;);
      }
      @font-face {
        font-family: &quot;Assistant&quot;;
        src: url(&quot;https://excalidraw.com/Assistant-Regular.woff2&quot;);
      }
    </style>
  </defs>
  <rect
     x="0"
     y="0"
     width="1880"
     height="1320"
     fill="#ffffff"
     id="rect1" />
  <g
     stroke-linecap="round"
     transform="translate(10 10) rotate(0 930 650)"
     id="g2">
    <path
       d="M0 0 L1860 0 L1860 1300 L0 1300"
       stroke="none"
       stroke-width="0"
       fill="#f8f9fa"
       id="path1" />
    <path
       d="M0 0 C390.69 0, 781.37 0, 1860 0 M0 0 C434.29 0, 868.58 0, 1860 0 M1860 0 C1860 372.23, 1860 744.45, 1860 1300 M1860 0 C1860 291.27, 1860 582.53, 1860 1300 M1860 1300 C1450.42 1300, 1040.85 1300, 0 1300 M1860 1300 C1282.52 1300, 705.05 1300, 0 1300 M0 1300 C0 1023.33, 0 746.66, 0 0 M0 1300 C0 865.7, 0 431.4, 0 0"
       stroke="#e03131"
       stroke-width="2"
       fill="none"
       id="path2" />
  </g>
  <g
     stroke-linecap="round"
     transform="translate(110 410) rotate(0 830 440)"
     id="g4">
    <path
       d="M0 0 L1660 0 L1660 880 L0 880"
       stroke="none"
       stroke-width="0"
       fill="#e3fafc"
       id="path3" />
    <path
       d="M0 0 C401.89 0, 803.78 0, 1660 0 M0 0 C510.97 0, 1021.93 0, 1660 0 M1660 0 C1660 245.97, 1660 491.95, 1660 880 M1660 0 C1660 314.63, 1660 629.25, 1660 880 M1660 880 C1039.06 880, 418.11 880, 0 880 M1660 880 C1150.11 880, 640.21 880, 0 880 M0 880 C0 529.65, 0 179.31, 0 0 M0 880 C0 580.54, 0 281.09, 0 0"
       stroke="#e03131"
       stroke-width="2"
       fill="none"
       id="path4" />
  </g>
  <g
     stroke-linecap="round"
     transform="translate(330 170) rotate(0 600 100)"
     id="g6">
    <path
       d="M0 0 L1200 0 L1200 200 L0 200"
       stroke="none"
       stroke-width="0"
       fill="#ffec99"
       id="path5" />
    <path
       d="M0 0 C465.08 0, 930.16 0, 1200 0 M0 0 C343.54 0, 687.08 0, 1200 0 M1200 0 C1200 58.2, 1200 116.41, 1200 200 M1200 0 C1200 50.71, 1200 101.42, 1200 200 M1200 200 C883.86 200, 567.72 200, 0 200 M1200 200 C887.07 200, 574.14 200, 0 200 M0 200 C0 138.49, 0 76.98, 0 0 M0 200 C0 135.46, 0 70.92, 0 0"
       stroke="#e03131"
       stroke-width="2"
       fill="none"
       id="path6" />
  </g>
  <g
     stroke-linecap="round"
     transform="translate(610 890) rotate(0 100 100)"
     id="g8">
    <path
       d="M0 0 L200 0 L200 200 L0 200"
       stroke="none"
       stroke-width="0"
       fill="#a5d8ff"
       id="path7" />
    <path
       d="M0 0 C61.43 0, 122.87 0, 200 0 M0 0 C75.32 0, 150.64 0, 200 0 M200 0 C200 62.44, 200 124.88, 200 200 M200 0 C200 56.62, 200 113.24, 200 200 M200 200 C130.97 200, 61.95 200, 0 200 M200 200 C159.23 200, 118.47 200, 0 200 M0 200 C0 145.54, 0 91.09, 0 0 M0 200 C0 124.94, 0 49.89, 0 0"
       stroke="#1971c2"
       stroke-width="2"
       fill="none"
       id="path8" />
  </g>
  <g
     transform="translate(619.765625 956.4) rotate(0 90.234375 33.60000000000002)"
     id="g9">
    <text
       x="90.234375"
       y="27.0375"
       font-family="Cascadia, 'Segoe UI Emoji'"
       font-size="28px"
       fill="#1971c2"
       text-anchor="middle"
       style="white-space:pre"
       direction="ltr"
       dominant-baseline="alphabetic"
       id="text8">ksctl-state</text>
    <text
       x="90.234375"
       y="60.6375"
       font-family="Cascadia, Segoe UI Emoji"
       font-size="28px"
       fill="#1971c2"
       text-anchor="middle"
       style="white-space: pre;"
       direction="ltr"
       dominant-baseline="alphabetic"
       id="text9">[configmap]</text>
  </g>
  <g
     stroke-linecap="round"
     transform="translate(650 450) rotate(0 100 100)"
     id="g10">
    <path
       d="M0 0 L200 0 L200 200 L0 200"
       stroke="none"
       stroke-width="0"
       fill="#b2f2bb"
       id="path9" />
    <path
       d="M0 0 C69.9 0, 139.8 0, 200 0 M0 0 C51.19 0, 102.38 0, 200 0 M200 0 C200 56.14, 200 112.28, 200 200 M200 0 C200 52.28, 200 104.57, 200 200 M200 200 C152.47 200, 104.94 200, 0 200 M200 200 C149.21 200, 98.41 200, 0 200 M0 200 C0 129.45, 0 58.89, 0 0 M0 200 C0 151.27, 0 102.54, 0 0"
       stroke="#2f9e44"
       stroke-width="2"
       fill="none"
       id="path10" />
  </g>
  <g
     transform="translate(659.765625 516.4) rotate(0 90.234375 33.60000000000002)"
     id="g11">
    <text
       x="90.234375"
       y="27.0375"
       font-family="Cascadia, 'Segoe UI Emoji'"
       font-size="28px"
       fill="#2f9e44"
       text-anchor="middle"
       style="white-space:pre"
       direction="ltr"
       dominant-baseline="alphabetic"
       id="text10">ksctl-creds</text>
    <text
       x="90.234375"
       y="60.6375"
       font-family="Cascadia, Segoe UI Emoji"
       font-size="28px"
       fill="#2f9e44"
       text-anchor="middle"
       style="white-space: pre;"
       direction="ltr"
       dominant-baseline="alphabetic"
       id="text11">[secret]</text>
  </g>
  <g
     transform="translate(670 690) rotate(0 410.15625 50.39999999999998)"
     id="g14">
    <text
       x="0"
       y="27.0375"
       font-family="Cascadia, Segoe UI Emoji"
       font-size="28px"
       fill="#2f9e44"
       text-anchor="start"
       style="white-space: pre;"
       direction="ltr"
       dominant-baseline="alphabetic"
       id="text12">Data:</text>
    <text
       x="0"
       y="60.6375"
       font-family="Cascadia, Segoe UI Emoji"
       font-size="28px"
       fill="#2f9e44"
       text-anchor="start"
       style="white-space: pre;"
       direction="ltr"
       dominant-baseline="alphabetic"
       id="text13">  KEY: ${cloud_provider}</text>
    <text
       x="0"
       y="94.23750000000001"
       font-family="Cascadia, Segoe UI Emoji"
       font-size="28px"
       fill="#2f9e44"
       text-anchor="start"
       style="white-space: pre;"
       direction="ltr"
       dominant-baseline="alphabetic"
       id="text14">  VALUE: []byte( base64( types.CredentialDoc{} ) )</text>
  </g>
  <g
     transform="translate(630 1130) rotate(0 541.40625 50.39999999999998)"
     id="g17">
    <text
       x="0"
       y="27.0375"
       font-family="Cascadia, Segoe UI Emoji"
       font-size="28px"
       fill="#1971c2"
       text-anchor="start"
       style="white-space: pre;"
       direction="ltr"
       dominant-baseline="alphabetic"
       id="text15">BinaryData:</text>
    <text
       x="0"
       y="60.6375"
       font-family="Cascadia, Segoe UI Emoji"
       font-size="28px"
       fill="#1971c2"
       text-anchor="start"
       style="white-space: pre;"
       direction="ltr"
       dominant-baseline="alphabetic"
       id="text16">  KEY: ${cloud_provider}/${cluster_type}/${cluster_name} ${region}</text>
    <text
       x="0"
       y="94.23750000000001"
       font-family="Cascadia, Segoe UI Emoji"
       font-size="28px"
       fill="#1971c2"
       text-anchor="start"
       style="white-space: pre;"
       direction="ltr"
       dominant-baseline="alphabetic"
       id="text17">  VALUE: []byte( types.StorageDoc{} )</text>
  </g>
  <g
     stroke-linecap="round"
     transform="translate(1250 890) rotate(0 220 70)"
     id="g18">
    <path
       d="M0 0 L440 0 L440 140 L0 140"
       stroke="none"
       stroke-width="0"
       fill="#ffec99"
       id="path17" />
    <path
       d="M0 0 C159.75 0, 319.5 0, 440 0 M0 0 C148.62 0, 297.23 0, 440 0 M440 0 C440 40.73, 440 81.46, 440 140 M440 0 C440 55.62, 440 111.23, 440 140 M440 140 C309.76 140, 179.52 140, 0 140 M440 140 C344.78 140, 249.55 140, 0 140 M0 140 C0 94.05, 0 48.1, 0 0 M0 140 C0 111.09, 0 82.18, 0 0"
       stroke="#f08c00"
       stroke-width="2"
       fill="none"
       id="path18" />
  </g>
  <g
     transform="translate(1264.921875 926.4000000000001) rotate(0 205.078125 33.60000000000002)"
     id="g19">
    <text
       x="205.078125"
       y="27.0375"
       font-family="Cascadia, Segoe UI Emoji"
       font-size="28px"
       fill="#e03131"
       text-anchor="middle"
       style="white-space: pre;"
       direction="ltr"
       dominant-baseline="alphabetic"
       id="text18">almost the copy of local </text>
    <text
       x="205.078125"
       y="60.6375"
       font-family="Cascadia, Segoe UI Emoji"
       font-size="28px"
       fill="#e03131"
       text-anchor="middle"
       style="white-space: pre;"
       direction="ltr"
       dominant-baseline="alphabetic"
       id="text19">storage driver</text>
  </g>
  <g
     transform="translate(390 50) rotate(0 485.15625 21.599999999999994)"
     id="g20">
    <text
       x="0"
       y="34.762499999999996"
       font-family="Cascadia, Segoe UI Emoji"
       font-size="36px"
       fill="#e03131"
       text-anchor="start"
       style="white-space: pre;"
       direction="ltr"
       dominant-baseline="alphabetic"
       id="text20">Proposal for Ksctl (kubernetes storage driver)</text>
  </g>
  <g
     transform="translate(350 190) rotate(0 590.625 84)"
     id="g25">
    <text
       x="0"
       y="27.0375"
       font-family="Cascadia, Segoe UI Emoji"
       font-size="28px"
       fill="#e03131"
       text-anchor="start"
       style="white-space: pre;"
       direction="ltr"
       dominant-baseline="alphabetic"
       id="text21">Purpose:</text>
    <text
       x="0"
       y="60.6375"
       font-family="Cascadia, Segoe UI Emoji"
       font-size="28px"
       fill="#e03131"
       text-anchor="start"
       style="white-space: pre;"
       direction="ltr"
       dominant-baseline="alphabetic"
       id="text22">1.will help us to translate the local storage from </text>
    <text
       x="0"
       y="94.23750000000001"
       font-family="Cascadia, Segoe UI Emoji"
       font-size="28px"
       fill="#e03131"
       text-anchor="start"
       style="white-space: pre;"
       direction="ltr"
       dominant-baseline="alphabetic"
       id="text23">    the host to kubernetes one when external storage was not configured!</text>
    <text
       x="0"
       y="127.8375"
       font-family="Cascadia, Segoe UI Emoji"
       font-size="28px"
       fill="#e03131"
       text-anchor="start"
       style="white-space: pre;"
       direction="ltr"
       dominant-baseline="alphabetic"
       id="text24">2. will open doors for using ksctl as a pod inside </text>
    <text
       x="0"
       y="161.4375"
       font-family="Cascadia, Segoe UI Emoji"
       font-size="28px"
       fill="#e03131"
       text-anchor="start"
       style="white-space: pre;"
       direction="ltr"
       dominant-baseline="alphabetic"
       id="text25">    a exiting kubernetes cluster as well</text>
  </g>
  <g
     transform="translate(170 825.2) rotate(0 221.484375 16.80000000000001)"
     id="g26">
    <text
       x="0"
       y="27.0375"
       font-family="Cascadia, Segoe UI Emoji"
       font-size="28px"
       fill="#1e1e1e"
       text-anchor="start"
       style="white-space: pre;"
       direction="ltr"
       dominant-baseline="alphabetic"
       id="text26">internal/storage/kubernetes</text>
  </g>
  <g
     stroke-linecap="round"
     id="g29">
    <g
       transform="translate(630 570) rotate(0 -80 120)"
       id="g27">
      <path
         d="M0 0 C-58.98 88.47, -117.96 176.94, -160 240 M0 0 C-42.87 64.31, -85.74 128.62, -160 240"
         stroke="#1e1e1e"
         stroke-width="2"
         fill="none"
         id="path26" />
    </g>
    <g
       transform="translate(630 570) rotate(0 -80 120)"
       id="g28">
      <path
         d="M-160 240 L-157.73 225.17 L-147.18 232.2 L-160 240"
         stroke="none"
         stroke-width="0"
         fill="#1e1e1e"
         fill-rule="evenodd"
         id="path27" />
      <path
         d="M-160 240 C-159.16 234.53, -158.33 229.07, -157.73 225.17 M-160 240 C-159.39 236.03, -158.79 232.05, -157.73 225.17 M-157.73 225.17 C-155.6 226.6, -153.46 228.02, -147.18 232.2 M-157.73 225.17 C-155.43 226.71, -153.13 228.24, -147.18 232.2 M-147.18 232.2 C-151.21 234.65, -155.24 237.1, -160 240 M-147.18 232.2 C-149.76 233.77, -152.34 235.34, -160 240 M-160 240 C-160 240, -160 240, -160 240 M-160 240 C-160 240, -160 240, -160 240"
         stroke="#1e1e1e"
         stroke-width="2"
         fill="none"
         id="path28" />
    </g>
  </g>
  <mask
     id="mask29" />
  <g
     stroke-linecap="round"
     id="g32">
    <g
       transform="translate(590 994.8000000000003) rotate(0 -60 -62.40000000000015)"
       id="g30">
      <path
         d="M0 0 C-38.06 -39.58, -76.12 -79.17, -120 -124.8 M0 0 C-35.17 -36.58, -70.34 -73.16, -120 -124.8"
         stroke="#1e1e1e"
         stroke-width="2"
         fill="none"
         id="path29" />
    </g>
    <g
       transform="translate(590 994.8000000000003) rotate(0 -60 -62.40000000000015)"
       id="g31">
      <path
         d="M-120 -124.8 L-106.01 -119.39 L-115.15 -110.61 L-120 -124.8"
         stroke="none"
         stroke-width="0"
         fill="#1e1e1e"
         fill-rule="evenodd"
         id="path30" />
      <path
         d="M-120 -124.8 C-115.56 -123.09, -111.12 -121.37, -106.01 -119.39 M-120 -124.8 C-115.9 -123.22, -111.8 -121.63, -106.01 -119.39 M-106.01 -119.39 C-108.16 -117.33, -110.31 -115.26, -115.15 -110.61 M-106.01 -119.39 C-107.85 -117.62, -109.7 -115.85, -115.15 -110.61 M-115.15 -110.61 C-116.64 -114.98, -118.14 -119.35, -120 -124.8 M-115.15 -110.61 C-117.09 -116.28, -119.03 -121.95, -120 -124.8 M-120 -124.8 C-120 -124.8, -120 -124.8, -120 -124.8 M-120 -124.8 C-120 -124.8, -120 -124.8, -120 -124.8"
         stroke="#1e1e1e"
         stroke-width="2"
         fill="none"
         id="path31" />
    </g>
  </g>
  <mask
     id="mask32" />
</svg>
