<svg xmlns="http://www.w3.org/2000/svg" version="1.1" width="200px" height="200px" style="shape-rendering:geometricPrecision; text-rendering:geometricPrecision; image-rendering:optimizeQuality; fill-rule:evenodd; clip-rule:evenodd" xmlns:xlink="http://www.w3.org/1999/xlink" viewBox="0 0 100 94.108">
  <g>
    <path style="opacity:0.148" fill="#fefefe" d="M-0.008 -0.008h100v94.108h-100V-0.008Z" />
  </g>
  <g>
    <path style="opacity:1" fill="#397c8a" d="m37.308 5.852 1.345 0.855a880.158 880.158 0 0 1 6.059 3.743 12.122 12.122 0 0 1 -1.876 2.183 4.502 4.502 0 0 1 -1.212 0.731 2.471 2.471 0 0 1 -1.975 -0.149 5.01 5.01 0 0 1 -1.046 -0.748 9.452 9.452 0 0 1 -1.046 -1.171l-3.868 -2.398a0.053 0.053 0 0 0 0.033 -0.025 3.222 3.222 0 0 0 1.295 -0.556 7.818 7.818 0 0 0 1.386 -1.319 14.412 14.412 0 0 0 0.862 -1.145c0.013 -0.018 0.027 -0.018 0.042 0Z" />
  </g>
  <g>
    <path style="opacity:1" fill="#4491a2" d="M37.308 5.852a16.558 16.558 0 0 1 2.838 0.489l5.312 3.288a0.083 0.083 0 0 0 0.05 0.008 124.882 124.882 0 0 0 2.058 1.295 18.568 18.568 0 0 0 -2.855 -0.482 880.158 880.158 0 0 0 -6.058 -3.743L37.308 5.852Z" />
  </g>
  <g>
    <path style="opacity:1" fill="#4491a2" d="M33.723 8.873a0.055 0.055 0 0 1 -0.033 0.025l3.868 2.398a16.528 16.528 0 0 0 -3.138 1.278 0.065 0.065 0 0 0 -0.033 -0.058 3183.998 3183.998 0 0 1 -7.371 -4.558 0.512 0.512 0 0 1 -0.033 0.033v-0.067a46.653 46.653 0 0 1 1.71 -0.755 26.272 26.272 0 0 1 1.403 -0.489 386.565 386.565 0 0 1 3.527 2.183 0.318 0.318 0 0 0 0.099 0.008Z" />
  </g>
  <g>
    <path style="opacity:1" fill="#397c8a" d="M34.421 12.575a10.938 10.938 0 0 1 -0.788 2.855 4.091 4.091 0 0 1 -1.171 1.535 3.203 3.203 0 0 1 -1.759 0.598 6.628 6.628 0 0 1 -1.809 -0.198 19.505 19.505 0 0 1 -0.763 -0.208l-7.388 -4.582a10.932 10.932 0 0 0 1.975 0.39c1.453 0.093 2.542 -0.485 3.262 -1.735a7.99 7.99 0 0 0 0.648 -1.61 14.695 14.695 0 0 0 0.357 -1.628 0.455 0.455 0 0 0 0.033 -0.033 3183.998 3183.998 0 0 0 7.371 4.558 0.065 0.065 0 0 1 0.033 0.058Z" />
  </g>
  <g>
    <path style="opacity:1" fill="#397d8a" d="M53.512 13.936a10.392 10.392 0 0 1 -2.142 0.972 3.548 3.548 0 0 1 -1.66 0.133 2.047 2.047 0 0 1 -1.302 -0.972 5.958 5.958 0 0 1 -0.614 -1.727 24.063 24.063 0 0 1 -0.198 -1.395 0.037 0.037 0 0 0 -0.025 -0.017 124.882 124.882 0 0 1 -2.058 -1.295l0.548 -0.291a0.09 0.09 0 0 1 0.083 0.017 2414.412 2414.412 0 0 1 7.371 4.573Z" />
  </g>
  <g>
    <path style="opacity:1" fill="#50aec2" d="M44.713 10.45a18.568 18.568 0 0 1 2.855 0.482 0.038 0.038 0 0 1 0.025 0.017 24.055 24.055 0 0 0 0.198 1.395 5.958 5.958 0 0 0 0.614 1.727 2.048 2.048 0 0 0 1.302 0.972 3.548 3.548 0 0 0 1.66 -0.133 10.392 10.392 0 0 0 2.142 -0.972 12.84 12.84 0 0 1 2.092 2.008 12.785 12.785 0 0 0 -0.655 2.125 4.468 4.468 0 0 0 -0.075 1.478c0.043 0.844 0.432 1.482 1.162 1.918a4.82 4.82 0 0 0 1.228 0.448 11.553 11.553 0 0 0 1.776 0.208 17.715 17.715 0 0 1 0.598 2.374c0.05 0.268 0.094 0.537 0.133 0.805a14.845 14.845 0 0 0 -1.585 1.735 7.223 7.223 0 0 0 -0.681 1.128 2.656 2.656 0 0 0 -0.142 0.382 2.804 2.804 0 0 0 -0.133 1.494c0.037 0.222 0.103 0.432 0.198 0.632 0.032 0.079 0.072 0.158 0.116 0.233a4.735 4.735 0 0 0 0.772 1.046 10.262 10.262 0 0 0 1.188 1.005 0.082 0.082 0 0 1 0.017 0.042 24.987 24.987 0 0 1 -0.88 3.146 0.062 0.062 0 0 1 -0.033 0.033 9.473 9.473 0 0 0 -1.063 0.323 6.448 6.448 0 0 0 -2.108 1.121 3.231 3.231 0 0 0 -0.855 1.153 2.602 2.602 0 0 0 -0.125 0.382 3.365 3.365 0 0 0 -0.125 1.295 8.973 8.973 0 0 0 0.638 2.573 20.958 20.958 0 0 1 -2.199 2.557 7.385 7.385 0 0 0 -2.698 -0.407 2.978 2.978 0 0 0 -1.727 0.688 3.84 3.84 0 0 0 -0.872 1.063 9.245 9.245 0 0 0 -0.88 2.606 39.476 39.476 0 0 0 -0.116 0.648 2.155 2.155 0 0 1 -0.274 0.149 21.465 21.465 0 0 1 -2.831 1.112c-0.013 -0.002 -0.022 -0.007 -0.025 -0.017a7.86 7.86 0 0 0 -1.494 -1.535 3.672 3.672 0 0 0 -1.195 -0.598 2.757 2.757 0 0 0 -0.847 -0.042 2.616 2.616 0 0 0 -0.681 0.175 4.972 4.972 0 0 0 -1.378 0.963 13.397 13.397 0 0 0 -1.561 1.893 14.453 14.453 0 0 1 -2.888 -0.507 9.47 9.47 0 0 0 -0.489 -2.458c-0.524 -1.418 -1.522 -1.94 -2.997 -1.568a9.813 9.813 0 0 0 -1.776 0.688 12.614 12.614 0 0 0 -0.075 -2.54 28.125 28.125 0 0 0 -0.623 -3.171 23.345 23.345 0 0 0 0.39 -2.125 1.407 1.407 0 0 0 -0.033 -0.465 0.585 0.585 0 0 0 -0.423 -0.365c-0.069 -0.203 -0.203 -0.268 -0.398 -0.192a0.758 0.758 0 0 0 -0.166 0.133 0.362 0.362 0 0 0 -0.291 0.241c0.004 0.492 0.004 0.985 0 1.478 -0.031 0.082 -0.083 0.102 -0.158 0.058l-0.092 -0.092a8.028 8.028 0 0 0 -0.44 -0.638c-0.138 -0.072 -0.237 -0.037 -0.298 0.108a195.314 195.314 0 0 1 1.005 1.858 34.052 34.052 0 0 1 -0.233 1.628 54.743 54.743 0 0 0 -0.323 3.072 7.845 7.845 0 0 1 -0.582 -0.632 13.362 13.362 0 0 0 0.688 -2.308 4.628 4.628 0 0 0 0.033 -1.578c-0.139 -0.732 -0.529 -1.282 -1.171 -1.652a5.368 5.368 0 0 0 -1.593 -0.515 16.905 16.905 0 0 0 -1.395 -0.142 17.475 17.475 0 0 1 -0.714 -3.188 11.545 11.545 0 0 0 1.951 -2.274 4.319 4.319 0 0 0 0.582 -1.478 2.846 2.846 0 0 0 -0.382 -1.958 5.958 5.958 0 0 0 -1.369 -1.518c-0.184 -0.142 -0.367 -0.282 -0.548 -0.423a23.972 23.972 0 0 1 0.897 -3.204 9.832 9.832 0 0 0 2.423 -0.905c1.518 -0.868 2.12 -2.172 1.809 -3.909a10.582 10.582 0 0 0 -0.565 -2.025 19.83 19.83 0 0 1 2.175 -2.557 19.995 19.995 0 0 0 0.763 0.208 6.625 6.625 0 0 0 1.809 0.198 3.203 3.203 0 0 0 1.759 -0.598 4.102 4.102 0 0 0 1.171 -1.535 10.943 10.943 0 0 0 0.788 -2.855 16.496 16.496 0 0 1 3.138 -1.278 9.488 9.488 0 0 0 1.046 1.171 5.01 5.01 0 0 0 1.046 0.748c0.638 0.325 1.297 0.375 1.975 0.149a4.492 4.492 0 0 0 1.212 -0.731 12.105 12.105 0 0 0 1.876 -2.183Z" />
  </g>
  <g>
    <path style="opacity:1" fill="#4491a2" d="m20.742 12.575 7.388 4.582a19.83 19.83 0 0 0 -2.175 2.557l-7.438 -4.598c-0.018 -0.007 -0.02 -0.018 -0.008 -0.033a24.97 24.97 0 0 1 2.175 -2.54 0.338 0.338 0 0 1 0.058 0.033Z" />
  </g>
  <g>
    <path style="opacity:1" fill="#397c8a" d="m18.518 15.115 7.438 4.598a10.582 10.582 0 0 1 0.565 2.025c0.312 1.738 -0.292 3.042 -1.809 3.909a9.838 9.838 0 0 1 -2.423 0.905 641.663 641.663 0 0 1 -7.438 -4.598 10.71 10.71 0 0 0 2.407 -0.905 4.333 4.333 0 0 0 1.287 -1.087 3.438 3.438 0 0 0 0.598 -2.274 8.432 8.432 0 0 0 -0.216 -1.312 15.252 15.252 0 0 0 -0.407 -1.262Z" />
  </g>
  <g>
    <path style="opacity:1" fill="#6c4179" d="M67.722 17.754a0.205 0.205 0 0 1 -0.092 0.067 0.224 0.224 0 0 0 -0.175 -0.025c0.9 0.553 1.797 1.108 2.688 1.668a8.755 8.755 0 0 0 -2.49 1.013 0.09 0.09 0 0 0 -0.05 -0.058 658.005 658.005 0 0 1 -4.748 -2.938 0.145 0.145 0 0 0 -0.083 -0.025 8.785 8.785 0 0 1 2.465 -1.013 0.608 0.608 0 0 1 0.192 0.092c0.655 0.413 1.314 0.823 1.975 1.228 0.105 0.008 0.211 0.006 0.315 -0.008Z" />
  </g>
  <g>
    <path style="opacity:1" fill="#5a3465" d="M69.912 16.542a0.048 0.048 0 0 0 0.017 0.042l4.798 2.963a7.114 7.114 0 0 1 -1.178 0.888 2.433 2.433 0 0 1 -1.61 0.332 2.315 2.315 0 0 1 -0.763 -0.315 4.572 4.572 0 0 1 -1.028 -0.988 323.247 323.247 0 0 0 -2.688 -1.668 0.225 0.225 0 0 1 0.175 0.025 0.208 0.208 0 0 0 0.092 -0.067 3.079 3.079 0 0 0 0.88 -0.307 6.28 6.28 0 0 0 1.245 -0.912 0.128 0.128 0 0 1 0.067 0.008Z" />
  </g>
  <g>
    <path style="opacity:1" fill="#6d427a" d="M69.912 16.542a8.465 8.465 0 0 1 1.578 0.722 1040.741 1040.741 0 0 0 4.482 2.781 0.038 0.038 0 0 0 -0.025 0.017 9.08 9.08 0 0 0 -1.22 -0.515L69.927 16.583a0.048 0.048 0 0 1 -0.017 -0.042Z" />
  </g>
  <g>
    <path style="opacity:1" fill="#5a3465" d="M62.774 17.455a0.145 0.145 0 0 1 0.083 0.025 630.095 630.095 0 0 0 4.748 2.938 0.09 0.09 0 0 1 0.05 0.058 5.912 5.912 0 0 1 -0.705 2.058c-0.482 0.753 -1.172 1.193 -2.067 1.319a4.505 4.505 0 0 1 -0.748 0.058c-0.088 0.003 -0.178 0 -0.265 -0.008a17113.13 17113.13 0 0 1 -4.831 -2.997 4.888 4.888 0 0 0 1.743 -0.291 2.893 2.893 0 0 0 1.518 -1.552 7.015 7.015 0 0 0 0.472 -1.61Z" />
  </g>
  <g>
    <path style="opacity:1" fill="#7c4b8d" d="M70.145 19.464a4.593 4.593 0 0 0 1.028 0.988c0.235 0.152 0.49 0.256 0.763 0.315a2.432 2.432 0 0 0 1.61 -0.332 7.114 7.114 0 0 0 1.178 -0.888 9.08 9.08 0 0 1 1.22 0.515 0.035 0.035 0 0 1 0.025 -0.017c0.207 0.121 0.412 0.245 0.614 0.373 0.08 0.049 0.152 0.108 0.216 0.175a5.422 5.422 0 0 0 0.033 1.876c0.155 0.7 0.57 1.178 1.245 1.436a4.318 4.318 0 0 0 1.462 0.241 0.045 0.045 0 0 1 0.042 0.033 8.37 8.37 0 0 1 0.582 2.523 7.365 7.365 0 0 0 -1.145 1.412c-0.581 0.992 -0.586 1.988 -0.017 2.988a13.298 13.298 0 0 0 0.423 0.655 11.752 11.752 0 0 1 -1.262 2.391 5.028 5.028 0 0 0 -1.628 0.265c-0.816 0.307 -1.394 0.862 -1.735 1.668a6.787 6.787 0 0 0 -0.282 0.797c-0.063 0.275 -0.126 0.548 -0.192 0.822a9.186 9.186 0 0 1 -2.49 0.988 5.218 5.218 0 0 0 -1.063 -0.972 2.446 2.446 0 0 0 -0.847 -0.315 0.287 0.287 0 0 0 -0.166 0.008 2.002 2.002 0 0 0 -1.013 0.158 5.555 5.555 0 0 0 -0.365 0.175 3.627 3.627 0 0 0 -0.398 0.248 5.85 5.85 0 0 0 -0.788 0.598 7.823 7.823 0 0 1 -2.033 -1.028 0.208 0.208 0 0 1 -0.033 -0.133 6.416 6.416 0 0 0 0.008 -1.494c-0.135 -0.926 -0.647 -1.532 -1.535 -1.818a5.803 5.803 0 0 0 -1.212 -0.224 9.373 9.373 0 0 1 -0.582 -2.589 5.61 5.61 0 0 0 1.337 -1.71 2.728 2.728 0 0 0 0.149 -1.876 4.822 4.822 0 0 0 -0.688 -1.395 13.146 13.146 0 0 1 1.278 -2.382 1.81 1.81 0 0 0 0.248 -0.025 4.615 4.615 0 0 0 0.748 -0.058c0.895 -0.127 1.583 -0.567 2.067 -1.319a5.912 5.912 0 0 0 0.705 -2.058 8.727 8.727 0 0 1 2.49 -1.013Z" />
  </g>
  <g>
    <path style="opacity:1" fill="#397d8a" d="M54.872 19.548a543.239 543.239 0 0 0 3.603 2.208c0.183 0.128 0.372 0.25 0.565 0.365a11.534 11.534 0 0 1 -1.776 -0.208 4.82 4.82 0 0 1 -1.228 -0.448c-0.732 -0.434 -1.118 -1.073 -1.162 -1.918Z" />
  </g>
  <g>
    <path style="opacity:1" fill="#fefefe" d="M42.438 19.878a11.037 11.037 0 0 1 1.27 5.976c-0.273 3.263 -1.512 6.092 -3.718 8.482a12.793 12.793 0 0 1 -4.872 3.262 10.882 10.882 0 0 1 -4.068 0.655 10.708 10.708 0 0 1 -1.253 -4.15c-0.201 -2.645 0.336 -5.128 1.61 -7.453a13.644 13.644 0 0 1 5.304 -5.388 11.248 11.248 0 0 1 4.299 -1.362 10.355 10.355 0 0 1 1.428 -0.025Z" />
  </g>
  <g>
    <path style="opacity:1" fill="#397d8a" d="M42.438 19.878c2.688 0.15 4.882 1.258 6.582 3.32a10.102 10.102 0 0 1 2.042 4.931c0.304 2.555 -0.105 4.989 -1.228 7.304 -1.248 2.572 -3.112 4.572 -5.586 6.002a11.042 11.042 0 0 1 -5.644 1.428c-2.752 -0.128 -4.996 -1.248 -6.732 -3.362a9.315 9.315 0 0 1 -0.822 -1.245 10.898 10.898 0 0 0 4.068 -0.655 12.79 12.79 0 0 0 4.872 -3.262c2.205 -2.392 3.445 -5.219 3.718 -8.482a11.035 11.035 0 0 0 -1.27 -5.976Z" />
  </g>
  <g>
    <path style="opacity:1" fill="#6c4179" d="m59.038 20.908 4.831 2.997c0.088 0.008 0.177 0.012 0.265 0.008a1.81 1.81 0 0 1 -0.248 0.025 13.146 13.146 0 0 0 -1.278 2.382 394.208 394.208 0 0 0 -2.972 -1.826 17.792 17.792 0 0 0 -0.598 -2.374 9.489 9.489 0 0 1 -0.565 -0.365 15.406 15.406 0 0 1 0.507 -0.813 0.065 0.065 0 0 1 0.058 -0.033Z" />
  </g>
  <g>
    <path style="opacity:1" fill="#4490a2" d="M14.848 21.954a641.663 641.663 0 0 0 7.438 4.598 23.972 23.972 0 0 0 -0.897 3.204 2225.966 2225.966 0 0 1 -7.354 -4.548 0.098 0.098 0 0 1 -0.083 -0.083 21.582 21.582 0 0 1 0.897 -3.171Z" />
  </g>
  <g>
    <path style="opacity:1" fill="#6c3f77" d="M76.835 22.468a226.074 226.074 0 0 1 2.706 1.677 4.33 4.33 0 0 1 -1.462 -0.241c-0.675 -0.258 -1.09 -0.735 -1.245 -1.436Z" />
  </g>
  <g>
    <path style="opacity:1" fill="#693e74" d="M66.277 31.267a5.808 5.808 0 0 0 3.146 -1.826c1.301 -1.488 1.809 -3.215 1.528 -5.179a5.207 5.207 0 0 0 -0.092 -0.398c1.371 -0.248 2.582 0.075 3.635 0.972a4.623 4.623 0 0 1 1.403 2.863c0.138 2.147 -0.595 3.932 -2.199 5.353a5.414 5.414 0 0 1 -3.387 1.319c-1.728 -0.058 -2.986 -0.851 -3.777 -2.374a8.182 8.182 0 0 1 -0.258 -0.731Z" />
  </g>
  <g>
    <path style="opacity:1" fill="#fefefe" d="M70.858 23.863a5.207 5.207 0 0 1 0.092 0.398c0.282 1.965 -0.228 3.691 -1.528 5.179a5.808 5.808 0 0 1 -3.146 1.826c-0.35 -1.358 -0.232 -2.675 0.357 -3.952 0.688 -1.469 1.777 -2.528 3.262 -3.178a4.542 4.542 0 0 1 0.963 -0.274Z" />
  </g>
  <g>
    <path style="opacity:1" fill="#593464" d="M59.637 24.493a404.503 404.503 0 0 1 2.972 1.826 4.822 4.822 0 0 1 0.688 1.395 2.725 2.725 0 0 1 -0.149 1.876 5.616 5.616 0 0 1 -1.337 1.71l-4.448 -2.755a2.805 2.805 0 0 1 0.142 -0.382c0.193 -0.398 0.421 -0.775 0.681 -1.128a14.762 14.762 0 0 1 1.585 -1.735 20.146 20.146 0 0 0 -0.133 -0.805Z" />
  </g>
  <g>
    <path style="opacity:1" fill="#397c8a" d="M14.035 25.207a2164.445 2164.445 0 0 0 7.354 4.548l0.548 0.423a5.958 5.958 0 0 1 1.369 1.518 2.848 2.848 0 0 1 0.382 1.958 4.319 4.319 0 0 1 -0.582 1.478 11.53 11.53 0 0 1 -1.951 2.274 0.585 0.585 0 0 1 -0.166 -0.083 1.948 1.948 0 0 0 -0.664 -0.938l-0.332 -0.233a0.342 0.342 0 0 0 -0.133 -0.05 12.345 12.345 0 0 0 -0.996 -0.092 7940.682 7940.682 0 0 0 -4.931 -3.063l-0.216 -0.108c-0.018 -0.007 -0.02 -0.018 -0.008 -0.033a12.912 12.912 0 0 0 1.908 -2.208 4.712 4.712 0 0 0 0.614 -1.462 2.94 2.94 0 0 0 -0.515 -2.274 7.056 7.056 0 0 0 -0.855 -0.972 46.762 46.762 0 0 0 -0.83 -0.688Z" />
  </g>
  <g>
    <path style="opacity:1" fill="#511d10" d="M85.865 36.362a17.03 17.03 0 0 1 -1.893 0.216 11.475 11.475 0 0 0 -0.598 -0.025l0.248 -0.149a0.09 0.09 0 0 0 0.05 -0.058 2.652 2.652 0 0 0 1.095 -1.312 1.667 1.667 0 0 0 0.149 -0.614c0.158 -1.875 0.312 -3.752 0.457 -5.628a0.987 0.987 0 0 0 -0.606 -0.507 2.302 2.302 0 0 0 -1.046 -0.149 0.848 0.848 0 0 0 -0.472 0.291l-0.548 0.797a3.422 3.422 0 0 1 -0.482 0.498c0.009 0.332 0.015 0.664 0.017 0.996a20.345 20.345 0 0 1 -0.216 0.979 4.585 4.585 0 0 0 0.282 2.042c0.079 0.212 0.163 0.422 0.248 0.632 0.187 0.28 0.448 0.408 0.788 0.382 0.118 0.002 0.235 -0.01 0.348 -0.033v0.614a0.186 0.186 0 0 0 -0.099 -0.033 1.352 1.352 0 0 0 -0.248 -0.142 6.235 6.235 0 0 0 -1.212 -0.382 1.047 1.047 0 0 0 -0.929 0.216 2.598 2.598 0 0 0 -0.465 0.572 5.38 5.38 0 0 1 -0.78 -0.092 2.165 2.165 0 0 0 1.153 -0.922 1.988 1.988 0 0 0 0.216 -0.862c0.155 -1.787 0.302 -3.574 0.44 -5.362h0.05a0.605 0.605 0 0 1 0.075 -0.282 2.572 2.572 0 0 1 1.502 -1.302 3.987 3.987 0 0 1 2.805 0.067 1.961 1.961 0 0 1 0.838 0.688c0.065 0.158 0.172 0.283 0.323 0.373a3.57 3.57 0 0 1 0.972 1.568 13.873 13.873 0 0 1 0.348 4.665c-0.038 0.673 -0.341 1.19 -0.905 1.552a5.065 5.065 0 0 1 -1.428 0.598 25.8 25.8 0 0 0 -0.482 0.108Z" />
  </g>
  <g>
    <path style="opacity:1" fill="#f3bc93" d="m84.918 34.421 -0.897 0.241a17.392 17.392 0 0 1 -0.332 0.058 1.639 1.639 0 0 1 -0.348 0.033c-0.339 0.025 -0.603 -0.102 -0.788 -0.382a20.151 20.151 0 0 1 -0.248 -0.632 4.585 4.585 0 0 1 -0.282 -2.042c0.079 -0.325 0.152 -0.652 0.216 -0.979a47.26 47.26 0 0 0 -0.017 -0.996 3.422 3.422 0 0 0 0.482 -0.498l0.548 -0.797a0.85 0.85 0 0 1 0.472 -0.291 2.302 2.302 0 0 1 1.046 0.149c0.273 0.085 0.475 0.253 0.606 0.507a760.245 760.245 0 0 1 -0.457 5.628Z" />
  </g>
  <g>
    <path style="opacity:1" fill="#6c4179" d="m57.362 28.544 4.448 2.755a9.362 9.362 0 0 0 0.582 2.589l-2.208 -1.362a333.926 333.926 0 0 0 -2.639 -1.628 1.625 1.625 0 0 1 -0.116 -0.233 22 22 0 0 0 -0.198 -0.632 2.804 2.804 0 0 1 0.133 -1.494Z" />
  </g>
  <g>
    <path style="opacity:1" fill="#d0d6e3" d="M57.229 30.038c0.068 0.208 0.135 0.418 0.198 0.632a2.315 2.315 0 0 1 -0.198 -0.632Z" />
  </g>
  <g>
    <path style="opacity:1" fill="#fefefe" d="M57.545 30.902a319.745 319.745 0 0 1 2.639 1.628c0.103 0.458 0.138 0.924 0.108 1.395a10.081 10.081 0 0 0 -0.05 0.582 46.757 46.757 0 0 0 1.785 1.121c0.032 0.016 0.037 0.035 0.017 0.058a8.953 8.953 0 0 1 -1.876 1.137 4.735 4.735 0 0 1 -1.544 0.341 53.655 53.655 0 0 1 -1.078 -0.664 9.473 9.473 0 0 1 1.063 -0.323 0.059 0.059 0 0 0 0.033 -0.033 25.072 25.072 0 0 0 0.88 -3.146 0.087 0.087 0 0 0 -0.017 -0.042 10.212 10.212 0 0 1 -1.188 -1.005 4.713 4.713 0 0 1 -0.772 -1.046Z" />
  </g>
  <g>
    <path style="opacity:1" fill="#5a3465" d="m60.185 32.528 2.208 1.362a5.803 5.803 0 0 1 1.212 0.224c0.888 0.285 1.401 0.892 1.535 1.818a6.416 6.416 0 0 1 -0.008 1.494 0.21 0.21 0 0 0 0.033 0.133 456.672 456.672 0 0 1 -3.072 -1.893 0.092 0.092 0 0 1 -0.05 0.017c0.02 -0.022 0.015 -0.042 -0.017 -0.058a46.757 46.757 0 0 1 -1.785 -1.121c0.012 -0.193 0.028 -0.388 0.05 -0.582a4.874 4.874 0 0 0 -0.108 -1.395Z" />
  </g>
  <g>
    <path style="opacity:1" fill="#4490a2" d="m13.72 32.843 0.216 0.108a7940.682 7940.682 0 0 1 4.931 3.063 14.623 14.623 0 0 0 -2.075 0.008 5.36 5.36 0 0 0 -1.593 0.457 35.392 35.392 0 0 0 -0.755 -0.465 17.109 17.109 0 0 1 -0.722 -3.171Z" />
  </g>
  <g>
    <path style="opacity:1" fill="#efa474" d="M84.918 34.421a1.664 1.664 0 0 1 -0.149 0.614c-0.002 -0.008 -0.007 -0.015 -0.017 -0.017 -0.351 0.157 -0.702 0.312 -1.054 0.465a0.682 0.682 0 0 1 -0.008 -0.149v-0.614l0.332 -0.058 0.897 -0.241Z" />
  </g>
  <g>
    <path style="opacity:1" fill="#5a2e47" d="M83.591 35.301c-0.2 0.368 -0.172 0.717 0.083 1.046a0.09 0.09 0 0 1 -0.05 0.058l-0.248 0.149c0.201 0.003 0.399 0.012 0.598 0.025a2.215 2.215 0 0 0 0.797 0.291 1.225 1.225 0 0 0 0.946 -0.265 1.173 1.173 0 0 1 0.198 -0.208 11.904 11.904 0 0 1 1.478 0.805 2.775 2.775 0 0 1 1.137 0.738 5.276 5.276 0 0 1 0.946 1.643 8.445 8.445 0 0 1 0.465 2.158 3.772 3.772 0 0 1 -0.341 0.382 3.094 3.094 0 0 1 -1.378 0.672 6.315 6.315 0 0 1 -0.963 0.125h-0.149a13.872 13.872 0 0 1 -0.298 -1.312c0.027 -0.065 0.005 -0.095 -0.067 -0.092a2.324 2.324 0 0 1 -1.412 0.407 4.844 4.844 0 0 1 -0.748 -0.075 11.815 11.815 0 0 1 -1.908 -0.598 17.338 17.338 0 0 1 -1.544 -0.498 1.055 1.055 0 0 1 -0.556 -0.688 3.013 3.013 0 0 1 0.033 -1.593l0.448 -1.444a5.352 5.352 0 0 0 0.125 -1.153 2.848 2.848 0 0 0 -0.042 -0.572 2.708 2.708 0 0 0 -0.149 0.448 77.486 77.486 0 0 1 -0.198 1.112 5.582 5.582 0 0 0 -0.298 0.763 4.265 4.265 0 0 0 -0.515 2.125 2.395 2.395 0 0 0 0.233 0.813c0.184 0.269 0.364 0.541 0.539 0.813a2.443 2.443 0 0 1 -1.095 -0.482 0.94 0.94 0 0 1 -0.274 -0.448 0.207 0.207 0 0 1 0 -0.116 392.6 392.6 0 0 0 0.979 -3.785 4.638 4.638 0 0 1 0.373 -0.979c0.125 -0.212 0.281 -0.403 0.465 -0.572a1.047 1.047 0 0 1 0.929 -0.216 6.235 6.235 0 0 1 1.212 0.382 1.352 1.352 0 0 1 0.248 0.142Z" />
  </g>
  <g>
    <path style="opacity:1" fill="#f3bb93" d="M84.769 35.035a2.656 2.656 0 0 1 -1.095 1.312c-0.255 -0.329 -0.283 -0.678 -0.083 -1.046a0.191 0.191 0 0 1 0.099 0.033c-0.003 0.05 0 0.1 0.008 0.149 0.352 -0.153 0.703 -0.308 1.054 -0.465 0.01 0.002 0.015 0.007 0.017 0.017Z" />
  </g>
  <g>
    <path style="opacity:1" fill="#4d273c" d="M87.11 42.92a4.385 4.385 0 0 0 -0.116 0.772 4.368 4.368 0 0 0 0.44 1.685 15.95 15.95 0 0 1 0.373 1.013 702.608 702.608 0 0 1 -5.428 3.728l-0.282 0.108a6.928 6.928 0 0 1 -1.212 -0.614 11.225 11.225 0 0 0 -0.332 -0.912 4.873 4.873 0 0 1 -0.315 -0.216c0.083 -0.708 0.172 -1.418 0.265 -2.125 0.192 -1.492 0.38 -2.988 0.565 -4.482a5.788 5.788 0 0 0 -0.315 -0.498 36.095 36.095 0 0 0 -0.539 -0.813 2.395 2.395 0 0 1 -0.233 -0.813 4.265 4.265 0 0 1 0.515 -2.125 5.582 5.582 0 0 1 0.298 -0.763c0.068 -0.37 0.135 -0.741 0.198 -1.112 0.037 -0.155 0.087 -0.304 0.149 -0.448 0.033 0.188 0.048 0.38 0.042 0.572a5.333 5.333 0 0 1 -0.125 1.153l-0.448 1.444a3.008 3.008 0 0 0 -0.033 1.593c0.085 0.312 0.271 0.542 0.556 0.688 0.508 0.191 1.023 0.357 1.544 0.498a11.815 11.815 0 0 0 1.908 0.598c0.247 0.045 0.496 0.068 0.748 0.075a2.328 2.328 0 0 0 1.412 -0.407c0.071 -0.004 0.092 0.027 0.067 0.092 0.078 0.442 0.178 0.88 0.298 1.312Z" />
  </g>
  <g>
    <path style="opacity:1" fill="#524281" d="M65.165 37.558a7.808 7.808 0 0 0 2.033 1.028 5.838 5.838 0 0 1 0.788 -0.598l3.818 2.374a12.855 12.855 0 0 1 -2.225 1.635c-1.795 0.988 -3.444 0.793 -4.948 -0.582l-0.623 -0.623a11.513 11.513 0 0 1 -0.523 -0.614 1115.065 1115.065 0 0 1 -4.864 -3.022 4.738 4.738 0 0 0 1.544 -0.341 8.965 8.965 0 0 0 1.876 -1.137 0.092 0.092 0 0 0 0.05 -0.017 456.672 456.672 0 0 0 3.072 1.893Z" />
  </g>
  <g>
    <path style="opacity:1" fill="#5f564d" d="M18.866 36.015c0.333 0.018 0.665 0.048 0.996 0.092a0.344 0.344 0 0 1 0.133 0.05l0.332 0.233a1.948 1.948 0 0 1 0.664 0.938 1.716 1.716 0 0 1 -0.042 0.847 1.058 1.058 0 0 1 -0.423 0.482 1.922 1.922 0 0 1 -0.482 0.175 6.825 6.825 0 0 0 -0.582 0.067c-0.375 0.115 -0.568 0.369 -0.582 0.763 0.007 0.098 0.018 0.194 0.033 0.291 -0.602 0.433 -0.814 1.015 -0.638 1.743a15.012 15.012 0 0 0 0.315 1.162c0.066 0.199 0.202 0.292 0.407 0.274 0.148 -0.052 0.292 -0.113 0.432 -0.182a2.203 2.203 0 0 1 1.028 -0.025l-0.083 0.83c-0.013 0.225 -0.024 0.452 -0.033 0.681a1.418 1.418 0 0 1 -0.108 0.315 1.327 1.327 0 0 1 -0.888 0.423 5.508 5.508 0 0 1 -1.028 -0.042 1.132 1.132 0 0 1 -0.655 -0.731 2.272 2.272 0 0 1 -0.116 -0.963c0.088 -0.338 0.178 -0.672 0.274 -1.005a0.665 0.665 0 0 0 0.357 -0.457c0.076 -0.575 -0.132 -1.015 -0.623 -1.319 -0.344 -0.16 -0.628 -0.092 -0.855 0.208a1.097 1.097 0 0 0 0 0.946c0.095 0.212 0.233 0.388 0.415 0.532 0.005 0.193 -0.001 0.388 -0.017 0.582 -0.038 0.503 -0.075 1.008 -0.108 1.511 -0.315 0.08 -0.631 0.158 -0.946 0.233a282.646 282.646 0 0 1 -1.419 -1.295 4.994 4.994 0 0 1 -1.345 -2.507 4.398 4.398 0 0 1 0.033 -1.759c0.102 -0.435 0.368 -0.702 0.805 -0.797a0.943 0.943 0 0 1 -0.075 -0.929 3.125 3.125 0 0 1 0.755 -0.672 7.172 7.172 0 0 1 0.398 -0.224 5.372 5.372 0 0 1 1.593 -0.457 14.663 14.663 0 0 1 2.075 -0.008Z" />
  </g>
  <g>
    <path style="opacity:1" fill="#f1ba92" d="m85.865 36.362 0.05 0.033a1.155 1.155 0 0 0 -0.198 0.208 1.225 1.225 0 0 1 -0.946 0.265 2.218 2.218 0 0 1 -0.797 -0.291 16.827 16.827 0 0 0 1.893 -0.216Z" />
  </g>
  <g>
    <path style="opacity:1" fill="#6755a0" d="M57.545 36.495c0.357 0.225 0.717 0.447 1.078 0.664 1.618 1.012 3.238 2.018 4.864 3.022a19.062 19.062 0 0 0 -4.398 1.785 0.193 0.193 0 0 0 -0.067 0.075 0.075 0.075 0 0 0 -0.033 -0.075 467.493 467.493 0 0 1 -4.532 -2.813 2.62 2.62 0 0 1 0.125 -0.382 3.231 3.231 0 0 1 0.855 -1.153 6.452 6.452 0 0 1 2.108 -1.121Z" />
  </g>
  <g>
    <path style="opacity:1" fill="#5b3666" d="M69.763 37.408a0.292 0.292 0 0 1 0.166 -0.008 2.446 2.446 0 0 1 0.847 0.315 5.232 5.232 0 0 1 1.063 0.972 206.272 206.272 0 0 1 -2.075 -1.278Z" />
  </g>
  <g>
    <path style="opacity:1" fill="#6755a0" d="M68.385 37.741a1515.358 1515.358 0 0 1 5.893 3.668 24.282 24.282 0 0 0 -1.511 -0.705 11.063 11.063 0 0 0 -0.963 -0.341l-3.818 -2.374a3.627 3.627 0 0 1 0.398 -0.248Z" />
  </g>
  <g>
    <path style="opacity:1" fill="#4491a2" d="M20.992 37.325a0.562 0.562 0 0 0 0.166 0.083 17.452 17.452 0 0 0 0.714 3.188 32.776 32.776 0 0 1 -1.195 -0.731c0.003 -0.222 0 -0.442 -0.008 -0.664a1.815 1.815 0 0 0 -0.142 -0.548 1.05 1.05 0 0 0 0.423 -0.482 1.716 1.716 0 0 0 0.042 -0.847Z" />
  </g>
  <g>
    <path style="opacity:1" fill="#f3bc93" d="M20.526 38.653c0.075 0.175 0.122 0.357 0.142 0.548 0.008 0.222 0.012 0.442 0.008 0.664a2.378 2.378 0 0 0 0.092 0.979c0.044 0.122 0.105 0.232 0.182 0.332a4.489 4.489 0 0 1 0.332 0.315c0.143 0.222 0.113 0.418 -0.092 0.589a1.488 1.488 0 0 0 -0.672 0.606 0.895 0.895 0 0 0 -0.058 0.233 2.203 2.203 0 0 0 -1.028 0.025 3.705 3.705 0 0 1 -0.432 0.182c-0.205 0.018 -0.341 -0.075 -0.407 -0.274a15.012 15.012 0 0 1 -0.315 -1.162c-0.175 -0.728 0.038 -1.31 0.638 -1.743a3.536 3.536 0 0 1 -0.033 -0.291c0.013 -0.394 0.206 -0.648 0.582 -0.763 0.193 -0.031 0.387 -0.053 0.582 -0.067a1.922 1.922 0 0 0 0.482 -0.175Z" />
  </g>
  <g>
    <path style="opacity:1" fill="#524281" d="M54.458 39.152a448.704 448.704 0 0 0 4.532 2.813 0.076 0.076 0 0 1 0.033 0.075 12.748 12.748 0 0 1 -0.888 2.972c-0.864 1.865 -2.322 2.918 -4.374 3.162a11.678 11.678 0 0 1 -1.544 0.092 683.455 683.455 0 0 1 -3.868 -2.407 2.977 2.977 0 0 1 1.727 -0.688 7.385 7.385 0 0 1 2.698 0.407 20.958 20.958 0 0 0 2.199 -2.557 8.94 8.94 0 0 1 -0.638 -2.573 3.365 3.365 0 0 1 0.125 -1.295Z" />
  </g>
  <g>
    <path style="opacity:1" fill="#f3bd94" d="M28.046 48.432v0.083c-0.033 0.217 -0.068 0.432 -0.108 0.648 -0.068 0.233 -0.141 0.466 -0.216 0.698a1.186 1.186 0 0 1 -0.838 0.638 3.075 3.075 0 0 1 -0.415 0.067c-0.608 0.008 -1.218 0.012 -1.826 0.008a2.668 2.668 0 0 0 0.224 -1.578 3.078 3.078 0 0 0 -0.158 -0.648c0.377 0.025 0.753 0.053 1.128 0.083 0.012 -0.193 0.018 -0.388 0.017 -0.582a4.508 4.508 0 0 0 0.033 -0.432c0.078 -1.027 0.188 -2.051 0.323 -3.072 0.091 -0.542 0.168 -1.083 0.233 -1.628a179.365 179.365 0 0 0 -1.005 -1.858c0.063 -0.145 0.162 -0.182 0.298 -0.108 0.158 0.206 0.303 0.418 0.44 0.638l0.092 0.092c0.075 0.042 0.128 0.023 0.158 -0.058 0.004 -0.492 0.004 -0.985 0 -1.478a0.362 0.362 0 0 1 0.291 -0.241 0.733 0.733 0 0 1 0.166 -0.133c0.196 -0.077 0.328 -0.013 0.398 0.192a0.585 0.585 0 0 1 0.423 0.365c0.037 0.152 0.048 0.308 0.033 0.465a23.207 23.207 0 0 1 -0.39 2.125 28.125 28.125 0 0 1 0.623 3.171 12.614 12.614 0 0 1 0.075 2.54Z" />
  </g>
  <g>
    <path style="opacity:1" fill="#397d8a" d="M20.675 39.865c0.393 0.252 0.792 0.495 1.195 0.731a16.905 16.905 0 0 1 1.395 0.142 5.378 5.378 0 0 1 1.593 0.515c0.642 0.37 1.032 0.922 1.171 1.652a4.641 4.641 0 0 1 -0.033 1.578 13.362 13.362 0 0 1 -0.688 2.308 688.957 688.957 0 0 0 -4.931 -3.038l0.083 -0.83c0.008 -0.08 0.028 -0.158 0.058 -0.233a1.485 1.485 0 0 1 0.672 -0.606c0.205 -0.172 0.235 -0.367 0.092 -0.589a4.489 4.489 0 0 0 -0.332 -0.315 1.2 1.2 0 0 1 -0.182 -0.332 2.378 2.378 0 0 1 -0.092 -0.979Z" />
  </g>
  <g>
    <path style="opacity:1" fill="#634e9b" d="M63.488 40.182a11.513 11.513 0 0 0 0.523 0.614l0.623 0.623c1.502 1.375 3.152 1.568 4.948 0.582a12.907 12.907 0 0 0 2.225 -1.635 11.063 11.063 0 0 1 0.963 0.341c0.525 0.224 1.028 0.458 1.511 0.705a14.912 14.912 0 0 1 1.245 0.78l0.017 0.042a11.393 11.393 0 0 0 -0.042 2.897c0.028 0.174 0.065 0.345 0.108 0.515 0.27 1.218 0.978 2.067 2.125 2.548a6.158 6.158 0 0 0 1.593 0.398c0.408 0.048 0.818 0.083 1.228 0.108a11.225 11.225 0 0 1 0.332 0.912 8.545 8.545 0 0 1 0.233 0.813l-0.415 0.265a0.265 0.265 0 0 0 0.182 0.175c0.095 0.007 0.188 0.007 0.282 0l-0.265 0.233a1.47 1.47 0 0 0 -0.216 0.241c0.068 0.147 0.183 0.213 0.348 0.198 0.035 0.157 0.135 0.234 0.298 0.233 0.033 0.045 0.072 0.083 0.116 0.116 0.084 0.457 0.142 0.916 0.175 1.378a22.815 22.815 0 0 0 -1.212 1.328 3.552 3.552 0 0 0 -0.175 0.248 7.232 7.232 0 0 0 -1.287 2.324 4.792 4.792 0 0 0 0.133 3.154c0.151 0.378 0.328 0.743 0.532 1.095a15.465 15.465 0 0 0 0.672 1.005 21.762 21.762 0 0 1 -2.292 4.316 9.888 9.888 0 0 0 -2.589 0.365c-1.462 0.439 -2.551 1.333 -3.262 2.682a9.878 9.878 0 0 0 -0.862 2.423c-0.066 0.315 -0.13 0.631 -0.192 0.946a17.655 17.655 0 0 1 -4.515 1.809 8.362 8.362 0 0 0 -1.792 -1.685 4.156 4.156 0 0 0 -1.958 -0.688 0.08 0.08 0 0 0 -0.05 0.017 3.66 3.66 0 0 0 -1.395 0.175 7.612 7.612 0 0 0 -1.893 0.963 12.433 12.433 0 0 0 -1.212 0.946 0.298 0.298 0 0 1 -0.108 0.058 13.582 13.582 0 0 1 -3.76 -1.925 0.09 0.09 0 0 0 0.025 -0.05 11.553 11.553 0 0 0 0.05 -2.688 4.437 4.437 0 0 0 -0.763 -2.042 4.011 4.011 0 0 0 -1.752 -1.27 8.297 8.297 0 0 0 -1.511 -0.382 77.403 77.403 0 0 1 -0.963 -0.125 16.439 16.439 0 0 1 -1.013 -4.665 11.704 11.704 0 0 0 2.001 -2.374c0.985 -1.598 1.102 -3.258 0.348 -4.98A13.477 13.477 0 0 0 49.892 52.583a23.82 23.82 0 0 1 2.324 -4.316 11.639 11.639 0 0 0 1.544 -0.092c2.052 -0.243 3.51 -1.298 4.374 -3.162a12.717 12.717 0 0 0 0.888 -2.972 0.182 0.182 0 0 1 0.067 -0.075 19.072 19.072 0 0 1 4.398 -1.785Z" />
  </g>
  <g>
    <path style="opacity:1" fill="#f3bc93" d="M18.318 45.128a14.561 14.561 0 0 1 -0.175 0.797 318.446 318.446 0 0 0 -2.117 -0.862l-0.017 -0.033a8.793 8.793 0 0 0 0.067 -0.332 0.513 0.513 0 0 1 -0.033 -0.033 54.627 54.627 0 0 0 0.946 -0.233c0.033 -0.503 0.068 -1.008 0.108 -1.511 0.016 -0.193 0.022 -0.388 0.017 -0.582a1.397 1.397 0 0 1 -0.415 -0.532 1.097 1.097 0 0 1 0 -0.946c0.226 -0.298 0.512 -0.367 0.855 -0.208 0.492 0.305 0.698 0.745 0.623 1.319a0.663 0.663 0 0 1 -0.357 0.457 44.148 44.148 0 0 0 -0.274 1.005 2.282 2.282 0 0 0 0.116 0.963 1.132 1.132 0 0 0 0.655 0.731Z" />
  </g>
  <g>
    <path style="opacity:1" fill="#f3bc94" d="M79.657 40.895a2.458 2.458 0 0 0 1.095 0.482c0.113 0.161 0.218 0.327 0.315 0.498a830.853 830.853 0 0 1 -0.565 4.482 2.798 2.798 0 0 1 -0.556 0.648 52.012 52.012 0 0 0 -0.738 0.847 75.851 75.851 0 0 1 -1.578 -0.979 146.465 146.465 0 0 1 0.988 -1.66l1.038 -4.316Z" />
  </g>
  <g>
    <path style="opacity:1" fill="#e29d83" d="M17.223 40.828c0.102 -0.005 0.201 0.003 0.298 0.025 0.042 0.035 0.042 0.068 0 0.099a0.476 0.476 0 0 0 -0.44 0.274 0.342 0.342 0 0 0 0 0.149 0.123 0.123 0 0 0 0.075 0.075c0.098 0.003 0.194 -0.005 0.291 -0.025a0.324 0.324 0 0 1 0.198 0.182c0.015 0.072 0.026 0.143 0.033 0.216a0.487 0.487 0 0 0 0.149 0.083 0.145 0.145 0 0 1 -0.025 0.142 2.788 2.788 0 0 1 -0.365 0.017 1.45 1.45 0 0 0 -0.432 -0.465 0.378 0.378 0 0 1 -0.116 -0.274 0.547 0.547 0 0 1 0.332 -0.498Z" />
  </g>
  <g>
    <path style="opacity:1" fill="#f4bc94" d="M89.6 42.123c0.156 1.22 0.331 2.438 0.523 3.652a3.463 3.463 0 0 1 -0.341 1.802l-1.444 0.722a849.506 849.506 0 0 0 -4.532 2.258 10.184 10.184 0 0 0 -0.698 0.348 3.032 3.032 0 0 0 -0.265 0.125 25.05 25.05 0 0 1 -0.448 0.539 10.035 10.035 0 0 0 -0.348 0.341l-0.216 0.149a0.215 0.215 0 0 1 -0.216 -0.125 0.742 0.742 0 0 1 -0.166 -0.05 0.575 0.575 0 0 1 -0.116 -0.116c-0.163 0.002 -0.263 -0.076 -0.298 -0.233 -0.165 0.015 -0.282 -0.052 -0.348 -0.198a1.47 1.47 0 0 1 0.216 -0.241l0.265 -0.233a2.042 2.042 0 0 1 -0.282 0 0.262 0.262 0 0 1 -0.182 -0.175l0.415 -0.265 0.315 -0.158c0.221 -0.025 0.442 -0.039 0.664 -0.042l0.282 -0.108a702.608 702.608 0 0 0 5.428 -3.728l0.332 -0.216 0.017 -0.05a199.472 199.472 0 0 0 -0.748 -3.188 0.352 0.352 0 0 0 -0.149 -0.017 6.332 6.332 0 0 0 0.963 -0.125 3.092 3.092 0 0 0 1.378 -0.672Z" />
  </g>
  <g>
    <path style="opacity:1" fill="#fefdfd" d="M87.11 42.92h0.149a0.352 0.352 0 0 1 0.149 0.017c0.258 1.06 0.507 2.123 0.748 3.188l-0.017 0.05 -0.332 0.216a15.95 15.95 0 0 0 -0.373 -1.013 4.368 4.368 0 0 1 -0.44 -1.685 4.428 4.428 0 0 1 0.116 -0.772Z" />
  </g>
  <g>
    <path style="opacity:1" fill="#4491a2" d="M20.378 43.75a690.267 690.267 0 0 1 4.931 3.038 7.845 7.845 0 0 0 0.582 0.632 4.654 4.654 0 0 1 -0.033 0.432l-5.512 -3.419c0.008 -0.229 0.021 -0.457 0.033 -0.681Z" />
  </g>
  <g>
    <path style="opacity:1" fill="#f4bd94" d="M20.958 47.236a4.992 4.992 0 0 0 -1.444 0.008 6.952 6.952 0 0 0 -0.432 0.108 31.54 31.54 0 0 1 1.478 -2.507l0.78 0.423a0.082 0.082 0 0 1 0.017 0.042 61.288 61.288 0 0 1 -0.398 1.925Z" />
  </g>
  <g>
    <path style="opacity:1" fill="#d4dd64" d="M14.965 45.576a4.072 4.072 0 0 0 1.145 0.938 5.512 5.512 0 0 0 2.44 0.664c0.13 0.068 0.258 0.139 0.382 0.216a0.147 0.147 0 0 0 0.149 -0.042c0.142 -0.042 0.286 -0.077 0.432 -0.108a4.992 4.992 0 0 1 1.444 -0.008c0.156 0.019 0.312 0.045 0.465 0.075 1.061 0.235 2.118 0.482 3.171 0.738 0.048 0.097 0.087 0.196 0.116 0.298 0.076 0.209 0.128 0.425 0.158 0.648a2.668 2.668 0 0 1 -0.224 1.578 2.618 2.618 0 0 1 -0.382 0.539 325.198 325.198 0 0 1 -3.685 -0.224c-0.528 -0.038 -1.06 -0.075 -1.593 -0.108a2.268 2.268 0 0 1 -0.572 -0.507l-0.033 0.099a14.734 14.734 0 0 0 -0.116 1.544 47.795 47.795 0 0 0 0 1.776c0.015 0.355 0.042 0.709 0.083 1.063 0.133 0.84 0.262 1.682 0.382 2.523 0.055 0.513 0.072 1.028 0.05 1.544a3.76 3.76 0 0 1 -0.862 2.242 3.388 3.388 0 0 1 -1.302 0.872 6.986 6.986 0 0 1 -1.792 0.44 11.057 11.057 0 0 1 -2.672 -1.544 1.554 1.554 0 0 1 -0.142 -0.133l-0.017 -0.083a154.225 154.225 0 0 1 0.198 -12.682c0.018 -0.43 0.048 -0.858 0.092 -1.287a2.085 2.085 0 0 1 -0.017 -0.822c0.038 0.095 0.068 0.195 0.092 0.298 0.053 -0.237 0.142 -0.458 0.265 -0.664 0.218 -0.263 0.497 -0.365 0.838 -0.307a8.385 8.385 0 0 1 1.511 0.423Z" />
  </g>
  <g>
    <path style="opacity:1" fill="#b5bd59" d="M14.965 45.576a8.385 8.385 0 0 0 -1.511 -0.423c-0.342 -0.058 -0.621 0.045 -0.838 0.307a2.252 2.252 0 0 0 -0.265 0.664 2.056 2.056 0 0 0 -0.092 -0.298 0.663 0.663 0 0 1 0.265 -0.489 1.508 1.508 0 0 1 1.128 -0.282 4.307 4.307 0 0 1 1.395 0.465 0.168 0.168 0 0 0 -0.083 0.058Z" />
  </g>
  <g>
    <path style="opacity:1" fill="#524281" d="m75.606 45.642 2.025 1.228a75.55 75.55 0 0 0 1.578 0.979 24.122 24.122 0 0 0 1.028 0.632 4.873 4.873 0 0 0 0.315 0.216 21.963 21.963 0 0 1 -1.228 -0.108 6.142 6.142 0 0 1 -1.593 -0.398c-1.147 -0.481 -1.855 -1.33 -2.125 -2.548Z" />
  </g>
  <g>
    <path style="opacity:1" fill="#6755a0" d="M48.348 45.858a683.455 683.455 0 0 0 3.868 2.407 23.82 23.82 0 0 0 -2.324 4.316l-3.685 -2.258a2.192 2.192 0 0 0 0.274 -0.149c0.037 -0.216 0.075 -0.432 0.116 -0.648a9.223 9.223 0 0 1 0.88 -2.606 3.84 3.84 0 0 1 0.872 -1.063Z" />
  </g>
  <g>
    <path style="opacity:1" fill="#fefdfd" d="M80.502 46.356a136.945 136.945 0 0 0 -0.265 2.125 24.122 24.122 0 0 1 -1.028 -0.632c0.242 -0.285 0.488 -0.567 0.738 -0.847a2.798 2.798 0 0 0 0.556 -0.648Z" />
  </g>
  <g>
    <path style="opacity:1" fill="#397d8a" d="m33.308 51.768 -5.263 -3.253v-0.083a9.878 9.878 0 0 1 1.776 -0.688c1.473 -0.372 2.473 0.152 2.997 1.568a9.445 9.445 0 0 1 0.489 2.458Z" />
  </g>
  <g>
    <path style="opacity:1" fill="#524281" d="M56.515 61.528a10.104 10.104 0 0 0 4.283 -1.983c2.503 -2.042 3.938 -4.679 4.308 -7.91a9.908 9.908 0 0 0 -0.307 -3.486c1.848 -0.352 3.597 -0.084 5.245 0.805 1.622 0.959 2.753 2.328 3.395 4.108a9.772 9.772 0 0 1 0.365 4.98c-0.582 2.933 -2.045 5.308 -4.392 7.13a9.992 9.992 0 0 1 -4.299 1.858c-2.258 0.352 -4.282 -0.163 -6.075 -1.544a7.755 7.755 0 0 1 -2.523 -3.958Z" />
  </g>
  <g>
    <path style="opacity:1" fill="#fefefe" d="M64.798 48.148a9.9 9.9 0 0 1 0.307 3.486c-0.368 3.231 -1.805 5.868 -4.308 7.91a10.098 10.098 0 0 1 -4.283 1.983 9.513 9.513 0 0 1 -0.241 -4.217c0.462 -2.643 1.672 -4.87 3.627 -6.682a10.555 10.555 0 0 1 3.935 -2.258 10.105 10.105 0 0 1 0.963 -0.224Z" />
  </g>
  <g>
    <path style="opacity:1" fill="#4d273c" d="M88.338 48.298a4.278 4.278 0 0 1 0.067 1.66 2.322 2.322 0 0 0 -0.265 0.083 14.435 14.435 0 0 1 -3.154 0.523 15.793 15.793 0 0 1 -1.178 -0.008 868.74 868.74 0 0 1 4.532 -2.258Z" />
  </g>
  <g>
    <path style="opacity:1" fill="#397d8a" d="M39.815 49.245a2.757 2.757 0 0 1 0.847 0.042 3.662 3.662 0 0 1 1.195 0.598 7.86 7.86 0 0 1 1.494 1.535l-0.862 -0.515a322.658 322.658 0 0 0 -2.672 -1.66Z" />
  </g>
  <g>
    <path style="opacity:1" fill="#222644" d="M80.885 49.61a6.928 6.928 0 0 0 1.212 0.614 6.3 6.3 0 0 0 -0.664 0.042l-0.315 0.158a8.545 8.545 0 0 0 -0.233 -0.813Z" />
  </g>
  <g>
    <path style="opacity:1" fill="#272d4f" d="M88.138 50.042a8.795 8.795 0 0 1 -0.092 1.063c-0.352 2.058 -0.702 4.116 -1.046 6.175a105.363 105.363 0 0 0 -0.332 2.125 51.855 51.855 0 0 0 -0.033 1.528 22.635 22.635 0 0 1 0.672 8.698 187.445 187.445 0 0 0 -0.216 2.358 0.218 0.218 0 0 0 -0.025 0.083 0.47 0.47 0 0 0 -0.258 0.058 2.96 2.96 0 0 1 -1.61 -0.008 102.628 102.628 0 0 0 -0.298 -2.589 2837.39 2837.39 0 0 0 -1.005 -8.665 128.482 128.482 0 0 1 -0.332 -3.718 182.145 182.145 0 0 0 -0.332 1.893 10.088 10.088 0 0 0 -0.133 1.444 37.308 37.308 0 0 1 -0.182 7.802c-0.033 0.388 -0.063 0.775 -0.092 1.162a98.662 98.662 0 0 0 -0.149 1.792 0.16 0.16 0 0 0 -0.116 -0.008 3.128 3.128 0 0 1 -1.693 0.075 108.152 108.152 0 0 0 -0.083 -1.66c-0.161 -3.425 -0.323 -6.851 -0.489 -10.275a1757.888 1757.888 0 0 1 -0.058 -4.532 3.28 3.28 0 0 1 0.175 -0.248 22.83 22.83 0 0 1 1.212 -1.328 12.312 12.312 0 0 0 -0.175 -1.378c0.053 0.022 0.108 0.039 0.166 0.05a0.215 0.215 0 0 0 0.216 0.125l0.216 -0.149c0.114 -0.117 0.23 -0.23 0.348 -0.341a5.767 5.767 0 0 1 0.373 1.412 82.026 82.026 0 0 0 0.332 2.458c0.082 0.45 0.225 0.876 0.432 1.278a462.53 462.53 0 0 0 -0.44 -5.768 0.048 0.048 0 0 0 0.017 -0.042 10.184 10.184 0 0 1 0.698 -0.348 16.028 16.028 0 0 0 1.178 0.008 14.457 14.457 0 0 0 3.154 -0.523Z" />
  </g>
  <g>
    <path style="opacity:1" fill="#524281" d="m46.208 50.323 3.685 2.258a13.543 13.543 0 0 1 0.938 1.66c0.753 1.722 0.638 3.382 -0.348 4.98a11.718 11.718 0 0 1 -2.001 2.374 0.438 0.438 0 0 1 -0.166 -0.075 3887.425 3887.425 0 0 0 -8.665 -5.37 14.608 14.608 0 0 0 1.768 -2.025 5.998 5.998 0 0 0 1.046 -2.573 6.717 6.717 0 0 0 0.025 -0.648l0.862 0.515c0.004 0.01 0.013 0.015 0.025 0.017a21.465 21.465 0 0 0 2.831 -1.112Z" />
  </g>
  <g>
    <path style="opacity:1" fill="#b4bc57" d="M20.576 50.888h-0.05c0.018 4.083 0.028 8.168 0.033 12.252a5.647 5.647 0 0 1 -0.498 0.05 10.935 10.935 0 0 1 -5.245 -0.813 6.986 6.986 0 0 0 1.792 -0.44 3.383 3.383 0 0 0 1.302 -0.872 3.756 3.756 0 0 0 0.862 -2.242 10.273 10.273 0 0 0 -0.05 -1.544 163.165 163.165 0 0 0 -0.382 -2.523 14.23 14.23 0 0 1 -0.083 -1.063 47.795 47.795 0 0 1 0 -1.776c0.012 -0.517 0.051 -1.032 0.116 -1.544l0.033 -0.099a2.285 2.285 0 0 0 0.572 0.507c0.534 0.033 1.065 0.069 1.593 0.108Z" />
  </g>
  <g>
    <path style="opacity:1" fill="#212644" d="M83.108 50.905a0.048 0.048 0 0 1 -0.017 0.042c0.158 1.922 0.305 3.845 0.44 5.768a4.585 4.585 0 0 1 -0.432 -1.278 82.026 82.026 0 0 1 -0.332 -2.458 5.774 5.774 0 0 0 -0.373 -1.412c0.152 -0.177 0.302 -0.357 0.448 -0.539 0.087 -0.046 0.175 -0.088 0.265 -0.125Z" />
  </g>
  <g>
    <path style="opacity:1" fill="#6755a0" d="M39.649 56.151a4053.373 4053.373 0 0 1 8.665 5.37 0.422 0.422 0 0 0 0.166 0.075 16.418 16.418 0 0 0 1.013 4.665 714.282 714.282 0 0 1 -4.001 -2.458l-4.814 -2.988a15.943 15.943 0 0 1 -1.029 -4.665Z" />
  </g>
  <g>
    <path style="opacity:1" fill="#fdfdfe" d="M84.902 69.53a68.341 68.341 0 0 0 -2.075 -0.017v-0.067c0.028 -0.388 0.058 -0.775 0.092 -1.162 0.333 -2.595 0.395 -5.195 0.182 -7.802a10.093 10.093 0 0 1 0.133 -1.444c0.108 -0.632 0.218 -1.262 0.332 -1.893 0.092 1.242 0.203 2.481 0.332 3.718a2819.235 2819.235 0 0 1 1.005 8.665Z" />
  </g>
  <g>
    <path style="opacity:1" fill="#1f304e" d="M12.143 60.832a11.066 11.066 0 0 0 2.672 1.544 10.942 10.942 0 0 0 5.245 0.813c0.005 2.738 0.013 5.478 0.025 8.218 -0.097 3.171 -0.188 6.342 -0.274 9.512a118.425 118.425 0 0 0 -0.083 2.888 3.423 3.423 0 0 1 -1.876 0.457 2.883 2.883 0 0 1 -0.664 -0.142c0.004 -0.022 -0.002 -0.038 -0.017 -0.05a243.102 243.102 0 0 0 -0.282 -3.353 4663.972 4663.972 0 0 0 -0.772 -9.113 1214.348 1214.348 0 0 0 -0.158 -5.81 0.349 0.349 0 0 1 -0.116 -0.033l-0.017 0.216a742.18 742.18 0 0 0 -0.108 5.478 4547.275 4547.275 0 0 0 -1.468 9.329 51.885 51.885 0 0 0 -0.298 1.942 3.172 3.172 0 0 1 -1.128 0.39 2.042 2.042 0 0 1 -0.912 -0.099 0.812 0.812 0 0 1 -0.233 -0.142c0.032 -0.608 0.058 -1.218 0.083 -1.826a5014.272 5014.272 0 0 0 0.489 -10.143 659.468 659.468 0 0 0 -0.108 -10.077Z" />
  </g>
  <g>
    <path style="opacity:1" fill="#524281" d="M45.492 63.803a775.233 775.233 0 0 0 4.001 2.458c0.318 0.042 0.639 0.085 0.963 0.125a8.275 8.275 0 0 1 1.511 0.382 4.013 4.013 0 0 1 1.752 1.27 4.425 4.425 0 0 1 0.763 2.042 11.518 11.518 0 0 1 -0.05 2.688 0.093 0.093 0 0 1 -0.025 0.05 3630.222 3630.222 0 0 1 -8.782 -5.428l-0.017 -0.075a14.038 14.038 0 0 0 0.108 -1.951 6.631 6.631 0 0 0 -0.224 -1.561Z" />
  </g>
  <g>
    <path style="opacity:1" fill="#fdfdfe" d="M16.892 80.718a38.409 38.409 0 0 0 -2.639 0.067c0.487 -3.11 0.976 -6.22 1.468 -9.329 0.028 -1.826 0.065 -3.652 0.108 -5.478l0.017 -0.216a0.349 0.349 0 0 0 0.116 0.033c0.058 1.937 0.11 3.873 0.158 5.81 0.26 3.038 0.518 6.075 0.772 9.113Z" />
  </g>
  <g>
    <path style="opacity:1" fill="#adb5d9" d="M82.828 69.448v0.067c0.692 -0.005 1.383 0.001 2.075 0.017 0.111 0.862 0.21 1.725 0.298 2.589a0.912 0.912 0 0 1 -0.017 0.116c0.026 0.222 0.045 0.442 0.058 0.664a0.263 0.263 0 0 0 0.042 0.067 0.813 0.813 0 0 0 -0.166 0.008 0.15 0.15 0 0 0 -0.033 0.125 0.786 0.786 0 0 0 -0.166 0.083 0.562 0.562 0 0 0 -0.282 -0.042c-0.043 0.053 -0.043 0.105 0 0.158a0.919 0.919 0 0 0 -0.149 0.067 0.715 0.715 0 0 0 -0.233 -0.025 0.125 0.125 0 0 0 -0.017 0.142 0.538 0.538 0 0 0 -0.166 0.067 0.352 0.352 0 0 0 -0.198 -0.025c-0.048 0.032 -0.06 0.072 -0.033 0.125a1.097 1.097 0 0 0 -0.233 0.099 0.605 0.605 0 0 0 -0.198 -0.008 0.12 0.12 0 0 0 -0.033 0.108 0.86 0.86 0 0 0 -0.248 0.099 2.785 2.785 0 0 0 -0.465 0.208 0.292 0.292 0 0 0 -0.133 0.208c-0.042 0.263 0.063 0.438 0.315 0.523a1.677 1.677 0 0 0 1.345 0 977.52 977.52 0 0 1 2.706 -1.188c0.017 -0.088 0.022 -0.177 0.017 -0.265 0.005 -0.113 0 -0.225 -0.017 -0.332v-0.133a0.377 0.377 0 0 0 0.208 -0.133 7.972 7.972 0 0 0 -0.008 -0.847c0.068 -0.788 0.138 -1.575 0.216 -2.358v0.083c1.518 0.158 3 0.472 4.448 0.938a10.028 10.028 0 0 1 2.589 1.262 3.395 3.395 0 0 1 0.972 1.054c0.295 0.598 0.272 1.185 -0.067 1.759a3.317 3.317 0 0 1 -0.755 0.822 8.265 8.265 0 0 1 -1.544 0.912 18.106 18.106 0 0 1 -4.249 1.212 31.278 31.278 0 0 1 -10.226 -0.033 18.313 18.313 0 0 1 -3.868 -1.095 8.389 8.389 0 0 1 -1.727 -0.996 2.96 2.96 0 0 1 -0.905 -1.121c-0.218 -0.575 -0.158 -1.117 0.182 -1.628a4.327 4.327 0 0 1 1.237 -1.137 11.73 11.73 0 0 1 2.738 -1.178 22.528 22.528 0 0 1 4.648 -0.838c0.032 0.553 0.059 1.107 0.083 1.66 -0.074 0.012 -0.102 0.055 -0.083 0.133 0.022 0.21 0.042 0.421 0.058 0.632a0.189 0.189 0 0 0 0.058 0.075c0.059 0.03 0.12 0.055 0.182 0.075 0.002 0.056 0.007 0.112 0.017 0.166 -0.142 -0.032 -0.185 0.018 -0.133 0.149a0.613 0.613 0 0 0 -0.116 0.067 0.357 0.357 0 0 0 -0.216 -0.042 0.14 0.14 0 0 0 -0.05 0.142 0.786 0.786 0 0 0 -0.166 0.083 0.45 0.45 0 0 0 -0.282 -0.042c-0.043 0.053 -0.043 0.105 0 0.158a0.942 0.942 0 0 0 -0.149 0.067 0.443 0.443 0 0 0 -0.216 -0.025 0.118 0.118 0 0 0 -0.05 0.125 0.32 0.32 0 0 1 -0.149 0.067 0.523 0.523 0 0 0 -0.198 -0.008c-0.048 0.033 -0.06 0.074 -0.033 0.125a1.097 1.097 0 0 0 -0.233 0.099 2.755 2.755 0 0 1 -0.149 -0.033c-0.068 0.018 -0.097 0.063 -0.083 0.133a0.612 0.612 0 0 0 -0.233 0.099 1.889 1.889 0 0 0 -0.498 0.224 0.252 0.252 0 0 0 -0.099 0.192c-0.058 0.261 0.041 0.435 0.298 0.523a1.718 1.718 0 0 0 1.362 0 977.52 977.52 0 0 1 2.706 -1.188 0.835 0.835 0 0 0 0 -0.282 14.528 14.528 0 0 0 -0.033 -0.813v-0.033a0.698 0.698 0 0 0 0.323 -0.166 7.635 7.635 0 0 0 0 -0.731 0.053 0.053 0 0 0 -0.025 -0.033c0.045 -0.601 0.095 -1.198 0.149 -1.792Z" />
  </g>
  <g>
    <path style="opacity:1" fill="#3b678b" d="M82.678 71.24a0.055 0.055 0 0 1 0.025 0.033c0.012 0.243 0.012 0.487 0 0.731a0.703 0.703 0 0 1 -0.323 0.166 4.337 4.337 0 0 1 -0.398 0.099 2.013 2.013 0 0 1 -0.897 -0.05 1.282 1.282 0 0 1 -0.182 -0.075 0.189 0.189 0 0 1 -0.058 -0.075 26.637 26.637 0 0 0 -0.058 -0.632c-0.018 -0.078 0.008 -0.122 0.083 -0.133a3.138 3.138 0 0 0 1.693 -0.075 0.16 0.16 0 0 1 0.116 0.008Z" />
  </g>
  <g>
    <path style="opacity:1" fill="#3b678b" d="M87.093 71.988c0.018 0.282 0.021 0.564 0.008 0.847a0.378 0.378 0 0 1 -0.208 0.133 2.265 2.265 0 0 1 -0.748 0.166h-0.265a3.223 3.223 0 0 1 -0.398 -0.083 0.786 0.786 0 0 1 -0.198 -0.083 0.282 0.282 0 0 1 -0.042 -0.067 11.362 11.362 0 0 0 -0.058 -0.664 0.792 0.792 0 0 0 0.017 -0.116 2.969 2.969 0 0 0 1.61 0.008 0.469 0.469 0 0 1 0.258 -0.058 0.218 0.218 0 0 1 0.025 -0.083Z" />
  </g>
  <g>
    <path style="opacity:1" fill="#8d2f29" d="M81.084 72.219a2.02 2.02 0 0 0 0.897 0.05 0.745 0.745 0 0 1 -0.05 0.116 1.795 1.795 0 0 1 -0.058 0.233l-0.216 0.099a0.206 0.206 0 0 1 -0.025 0.175c-0.049 0.035 -0.094 0.033 -0.133 -0.008 0.072 0.014 0.117 -0.014 0.133 -0.083a0.728 0.728 0 0 0 -0.532 -0.415 1.315 1.315 0 0 1 -0.017 -0.166Z" />
  </g>
  <g>
    <path style="opacity:1" fill="#f7c6a6" d="M82.378 72.169v0.033c-0.148 0.064 -0.297 0.125 -0.448 0.182a0.783 0.783 0 0 0 0.05 -0.116c0.135 -0.028 0.268 -0.06 0.398 -0.099Z" />
  </g>
  <g>
    <path style="opacity:1" fill="#e54645" d="M82.378 72.203c0.018 0.268 0.029 0.539 0.033 0.813a339.708 339.708 0 0 0 -2.888 1.153 1.886 1.886 0 0 1 -0.979 0.067 1.218 1.218 0 0 1 -0.498 -0.274 0.253 0.253 0 0 1 0.099 -0.192 1.917 1.917 0 0 1 0.498 -0.224 0.725 0.725 0 0 0 0.698 0.166l0.017 0.033c0.014 0.109 0.075 0.145 0.182 0.108 0.036 -0.045 0.042 -0.092 0.017 -0.142a0.113 0.113 0 0 1 -0.033 -0.067l0.298 -0.116v0.017c0.008 0.105 0.064 0.142 0.166 0.108 0.049 -0.04 0.061 -0.087 0.033 -0.142l-0.033 -0.067c0.076 -0.028 0.148 -0.061 0.216 -0.099 0.012 0 0.017 0.005 0.017 0.017 0.008 0.105 0.063 0.141 0.166 0.108 0.055 -0.052 0.062 -0.104 0.017 -0.158l-0.017 -0.033a1.038 1.038 0 0 1 0.233 -0.099v0.017c0.035 0.112 0.098 0.128 0.192 0.05a0.208 0.208 0 0 0 0 -0.116 0.035 0.035 0 0 0 -0.025 -0.017v-0.017a1.718 1.718 0 0 1 0.298 -0.116v0.017c0.013 0.088 0.063 0.118 0.149 0.092 0.051 -0.046 0.062 -0.098 0.033 -0.158a0.053 0.053 0 0 1 0.017 -0.05 0.552 0.552 0 0 1 0.166 -0.067l0.05 0.067c0.038 0.042 0.083 0.043 0.133 0.008a0.206 0.206 0 0 0 0.025 -0.175l0.216 -0.099c0.025 -0.077 0.044 -0.154 0.058 -0.233 0.151 -0.058 0.3 -0.118 0.448 -0.182Z" />
  </g>
  <g>
    <path style="opacity:1" fill="#fbf9f9" d="M81.101 72.385a0.733 0.733 0 0 1 0.532 0.415c-0.017 0.068 -0.062 0.098 -0.133 0.083l-0.05 -0.067a0.643 0.643 0 0 0 -0.482 -0.282c-0.053 -0.131 -0.008 -0.181 0.133 -0.149Z" />
  </g>
  <g>
    <path style="opacity:1" fill="#8f322b" d="M80.968 72.535a0.65 0.65 0 0 1 0.482 0.282 0.538 0.538 0 0 0 -0.166 0.067 0.05 0.05 0 0 0 -0.017 0.05 0.774 0.774 0 0 0 -0.415 -0.332 0.618 0.618 0 0 1 0.116 -0.067Z" />
  </g>
  <g>
    <path style="opacity:1" fill="#fcfaf9" d="M80.852 72.602a0.769 0.769 0 0 1 0.415 0.332c0.021 0.098 -0.018 0.141 -0.116 0.125a0.118 0.118 0 0 1 -0.067 -0.058v-0.017a0.722 0.722 0 0 0 -0.498 -0.282 0.138 0.138 0 0 1 0.05 -0.142 0.358 0.358 0 0 1 0.216 0.042Z" />
  </g>
  <g>
    <path style="opacity:1" fill="#534381" d="M62.774 72.602a0.075 0.075 0 0 1 0.05 -0.017 4.156 4.156 0 0 1 1.958 0.688 8.362 8.362 0 0 1 1.792 1.685l-3.802 -2.358Z" />
  </g>
  <g>
    <path style="opacity:1" fill="#8e312a" d="M80.586 72.702a0.722 0.722 0 0 1 0.498 0.282 1.718 1.718 0 0 0 -0.298 0.116 0.844 0.844 0 0 0 -0.365 -0.315 0.752 0.752 0 0 1 0.166 -0.083Z" />
  </g>
  <g>
    <path style="opacity:1" fill="#fcfaf9" d="M80.42 72.784c0.152 0.07 0.275 0.175 0.365 0.315v0.017c-0.007 0.119 -0.062 0.147 -0.166 0.083v-0.017a0.585 0.585 0 0 0 -0.482 -0.282c-0.043 -0.053 -0.043 -0.105 0 -0.158a0.448 0.448 0 0 1 0.282 0.042Z" />
  </g>
  <g>
    <path style="opacity:1" fill="#8e312a" d="M80.138 72.9a0.588 0.588 0 0 1 0.482 0.282 1.086 1.086 0 0 0 -0.233 0.099 0.932 0.932 0 0 0 -0.398 -0.315 0.967 0.967 0 0 1 0.149 -0.067Z" />
  </g>
  <g>
    <path style="opacity:1" fill="#fcf9f8" d="M79.988 72.967c0.163 0.068 0.295 0.173 0.398 0.315l0.017 0.033c0.008 0.088 -0.031 0.13 -0.116 0.125a0.422 0.422 0 0 1 -0.067 -0.075c0 -0.012 -0.005 -0.017 -0.017 -0.017a0.573 0.573 0 0 0 -0.432 -0.241 0.172 0.172 0 0 0 -0.05 -0.042 0.117 0.117 0 0 1 0.05 -0.125 0.442 0.442 0 0 1 0.216 0.025Z" />
  </g>
  <g>
    <path style="opacity:1" fill="#fcfaf9" d="M85.284 72.967a0.768 0.768 0 0 0 0.198 0.083 1.011 1.011 0 0 1 0.265 0.265l0.017 0.033c0.003 0.094 -0.042 0.13 -0.133 0.108a0.535 0.535 0 0 0 -0.067 -0.075 0.408 0.408 0 0 0 -0.149 -0.158 1.323 1.323 0 0 0 -0.332 -0.125 0.15 0.15 0 0 1 0.033 -0.125 0.792 0.792 0 0 1 0.166 -0.008Z" />
  </g>
  <g>
    <path style="opacity:1" fill="#e54645" d="M86.894 72.967v0.133c0.005 0.112 -0.001 0.223 -0.017 0.332a305.108 305.108 0 0 0 -2.855 1.137 1.633 1.633 0 0 1 -1.245 -0.033 1.522 1.522 0 0 1 -0.248 -0.175 0.292 0.292 0 0 1 0.133 -0.208 2.765 2.765 0 0 1 0.465 -0.208c0.08 0.065 0.168 0.117 0.265 0.158 0.144 0.028 0.287 0.032 0.432 0.008a0.05 0.05 0 0 1 0.033 0.033c0.008 0.105 0.064 0.142 0.166 0.108 0.048 -0.035 0.059 -0.076 0.033 -0.125l-0.033 -0.067a3.31 3.31 0 0 1 0.282 -0.133c0.012 0 0.017 0.005 0.017 0.017 0.008 0.105 0.063 0.141 0.166 0.108 0.055 -0.052 0.062 -0.104 0.017 -0.158a0.098 0.098 0 0 1 -0.017 -0.05c0.075 -0.037 0.152 -0.065 0.233 -0.083v0.017c0.007 0.094 0.058 0.125 0.149 0.092a0.077 0.077 0 0 0 0.042 -0.042 0.108 0.108 0 0 0 -0.008 -0.099 0.098 0.098 0 0 1 -0.017 -0.05c0.068 -0.035 0.136 -0.068 0.208 -0.099a0.035 0.035 0 0 0 0.025 0.017c0.035 0.112 0.098 0.128 0.192 0.05a0.208 0.208 0 0 0 0 -0.116 0.035 0.035 0 0 0 -0.025 -0.017v-0.017a3.075 3.075 0 0 1 0.282 -0.116c0.034 0.125 0.103 0.147 0.208 0.067a0.108 0.108 0 0 0 -0.008 -0.099l-0.017 -0.033c-0.002 -0.015 0.003 -0.025 0.017 -0.033l0.166 -0.067a0.17 0.17 0 0 1 0.05 0.05c0.039 0.062 0.088 0.066 0.149 0.017a0.128 0.128 0 0 0 0.017 -0.149 2.265 2.265 0 0 0 0.748 -0.166Z" />
  </g>
  <g>
    <path style="opacity:1" fill="#f0efef" d="M82.412 73.017a0.842 0.842 0 0 1 0 0.282c-0.902 0.394 -1.805 0.789 -2.706 1.188a1.718 1.718 0 0 1 -1.362 0c-0.258 -0.088 -0.358 -0.263 -0.298 -0.523 0.143 0.13 0.308 0.222 0.498 0.274a1.886 1.886 0 0 0 0.979 -0.067 310.082 310.082 0 0 1 2.888 -1.153Z" />
  </g>
  <g>
    <path style="opacity:1" fill="#95362f" d="M81.267 72.933c0.028 0.059 0.018 0.112 -0.033 0.158 -0.087 0.027 -0.137 -0.003 -0.149 -0.092a0.116 0.116 0 0 0 0.067 0.058c0.098 0.016 0.137 -0.025 0.116 -0.125Z" />
  </g>
  <g>
    <path style="opacity:1" fill="#8e312a" d="M79.723 73.066a0.172 0.172 0 0 1 0.05 0.042 0.577 0.577 0 0 1 0.432 0.241 1.296 1.296 0 0 1 -0.216 0.099 1.023 1.023 0 0 0 -0.415 -0.315 0.315 0.315 0 0 0 0.149 -0.067Z" />
  </g>
  <g>
    <path style="opacity:1" fill="#8d322c" d="M85.483 73.049c0.132 0.036 0.265 0.064 0.398 0.083a0.205 0.205 0 0 1 0.05 0.083l-0.166 0.067a0.03 0.03 0 0 0 -0.017 0.033 1.011 1.011 0 0 0 -0.265 -0.265Z" />
  </g>
  <g>
    <path style="opacity:1" fill="#fcf9f8" d="M79.573 73.132c0.165 0.068 0.303 0.174 0.415 0.315l0.033 0.067c-0.007 0.094 -0.058 0.125 -0.149 0.092a0.123 0.123 0 0 0 -0.05 -0.058v-0.017a1.532 1.532 0 0 0 -0.133 -0.142 1.913 1.913 0 0 0 -0.348 -0.142c-0.027 -0.051 -0.016 -0.092 0.033 -0.125a0.521 0.521 0 0 1 0.198 0.008Z" />
  </g>
  <g>
    <path style="opacity:1" fill="#fcfafa" d="M84.918 73.183c0.148 0.075 0.272 0.179 0.365 0.315v0.017c-0.012 0.116 -0.067 0.144 -0.166 0.083a0.548 0.548 0 0 0 -0.482 -0.298c-0.043 -0.053 -0.043 -0.105 0 -0.158a0.553 0.553 0 0 1 0.282 0.042Z" />
  </g>
  <g>
    <path style="opacity:1" fill="#8f312a" d="M85.085 73.099c0.115 0.026 0.225 0.068 0.332 0.125a0.412 0.412 0 0 1 0.149 0.158 3.15 3.15 0 0 0 -0.282 0.116 0.96 0.96 0 0 0 -0.365 -0.315 0.752 0.752 0 0 1 0.166 -0.083Z" />
  </g>
  <g>
    <path style="opacity:1" fill="#fcf9f8" d="M85.882 73.132h0.216c0.042 0.118 0.003 0.163 -0.116 0.133a0.17 0.17 0 0 0 -0.05 -0.05 0.192 0.192 0 0 0 -0.05 -0.083Z" />
  </g>
  <g>
    <path style="opacity:1" fill="#91332c" d="M80.785 73.116a0.038 0.038 0 0 1 0.025 0.017 0.208 0.208 0 0 1 0 0.116c-0.092 0.078 -0.155 0.062 -0.192 -0.05 0.104 0.064 0.159 0.037 0.166 -0.083Z" />
  </g>
  <g>
    <path style="opacity:1" fill="#9d4037" d="M86.098 73.132h0.05a0.128 0.128 0 0 1 -0.017 0.149c-0.061 0.049 -0.11 0.044 -0.149 -0.017 0.118 0.03 0.158 -0.014 0.116 -0.133Z" />
  </g>
  <g>
    <path style="opacity:1" fill="#8e302a" d="M79.342 73.248c0.119 0.035 0.235 0.083 0.348 0.142 0.048 0.045 0.092 0.092 0.133 0.142l-0.298 0.116a0.935 0.935 0 0 0 -0.415 -0.298c0.072 -0.042 0.15 -0.075 0.233 -0.099Z" />
  </g>
  <g>
    <path style="opacity:1" fill="#8f322b" d="M84.637 73.298a0.553 0.553 0 0 1 0.482 0.298 0.038 0.038 0 0 1 -0.025 -0.017 3.462 3.462 0 0 0 -0.208 0.099 0.925 0.925 0 0 0 -0.398 -0.315 0.919 0.919 0 0 1 0.149 -0.067Z" />
  </g>
  <g>
    <path style="opacity:1" fill="#cd97a0" d="M86.894 73.099c0.017 0.108 0.022 0.218 0.017 0.332h-0.033c0.016 -0.108 0.022 -0.22 0.017 -0.332Z" />
  </g>
  <g>
    <path style="opacity:1" fill="#fcfaf9" d="M79.108 73.348a0.933 0.933 0 0 1 0.415 0.298 0.121 0.121 0 0 0 0.033 0.067c0.003 0.094 -0.042 0.13 -0.133 0.108a0.535 0.535 0 0 0 -0.067 -0.075l-0.017 -0.033a0.643 0.643 0 0 0 -0.415 -0.224 0.072 0.072 0 0 1 -0.05 -0.042c-0.013 -0.069 0.015 -0.114 0.083 -0.133 0.049 0.013 0.099 0.024 0.149 0.033Z" />
  </g>
  <g>
    <path style="opacity:1" fill="#fbf8f7" d="M84.488 73.365a0.917 0.917 0 0 1 0.398 0.315 0.099 0.099 0 0 0 0.017 0.05c-0.028 0.133 -0.088 0.149 -0.182 0.05v-0.017a0.725 0.725 0 0 0 -0.482 -0.282 0.125 0.125 0 0 1 0.017 -0.142 0.71 0.71 0 0 1 0.233 0.025Z" />
  </g>
  <g>
    <path style="opacity:1" fill="#f0efef" d="M86.878 73.432h0.033c0.005 0.088 0 0.178 -0.017 0.265 -0.902 0.394 -1.805 0.789 -2.706 1.188a1.677 1.677 0 0 1 -1.345 0c-0.252 -0.086 -0.357 -0.261 -0.315 -0.523 0.077 0.066 0.159 0.124 0.248 0.175a1.63 1.63 0 0 0 1.245 0.033 317.927 317.927 0 0 1 2.855 -1.137Z" />
  </g>
  <g>
    <path style="opacity:1" fill="#95372f" d="M80.403 73.315c0.045 0.054 0.038 0.107 -0.017 0.158 -0.102 0.033 -0.158 -0.003 -0.166 -0.108a0.422 0.422 0 0 0 0.067 0.075c0.085 0.005 0.125 -0.036 0.116 -0.125Z" />
  </g>
  <g>
    <path style="opacity:1" fill="#8e3029" d="M78.876 73.448a0.072 0.072 0 0 0 0.05 0.042 0.643 0.643 0 0 1 0.415 0.224 0.725 0.725 0 0 1 -0.698 -0.166 0.604 0.604 0 0 1 0.233 -0.099Z" />
  </g>
  <g>
    <path style="opacity:1" fill="#94342d" d="M85.765 73.348a0.11 0.11 0 0 1 0.008 0.099c-0.105 0.081 -0.173 0.058 -0.208 -0.067a0.603 0.603 0 0 1 0.067 0.075c0.092 0.022 0.136 -0.014 0.133 -0.108Z" />
  </g>
  <g>
    <path style="opacity:1" fill="#8e3029" d="M84.238 73.482c0.198 0.03 0.358 0.124 0.482 0.282a1.013 1.013 0 0 0 -0.233 0.083 0.938 0.938 0 0 0 -0.415 -0.298 0.555 0.555 0 0 1 0.166 -0.067Z" />
  </g>
  <g>
    <path style="opacity:1" fill="#fcf9f9" d="M84.072 73.548c0.167 0.062 0.305 0.162 0.415 0.298a0.099 0.099 0 0 0 0.017 0.05c0.008 0.099 -0.036 0.135 -0.133 0.108a0.492 0.492 0 0 1 -0.05 -0.058c0 -0.012 -0.005 -0.017 -0.017 -0.017a0.408 0.408 0 0 0 -0.149 -0.158 1.028 1.028 0 0 0 -0.298 -0.099 0.035 0.035 0 0 1 -0.017 -0.025c-0.027 -0.052 -0.015 -0.092 0.033 -0.125a0.348 0.348 0 0 1 0.198 0.025Z" />
  </g>
  <g>
    <path style="opacity:1" fill="#92342c" d="M85.284 73.515a0.038 0.038 0 0 1 0.025 0.017 0.208 0.208 0 0 1 0 0.116c-0.092 0.078 -0.155 0.062 -0.192 -0.05 0.099 0.062 0.155 0.033 0.166 -0.083Z" />
  </g>
  <g>
    <path style="opacity:1" fill="#93352d" d="M80.022 73.515c0.028 0.054 0.017 0.102 -0.033 0.142 -0.102 0.033 -0.158 -0.003 -0.166 -0.108a0.127 0.127 0 0 1 0.05 0.058c0.092 0.033 0.142 0.003 0.149 -0.092Z" />
  </g>
  <g>
    <path style="opacity:1" fill="#8f312a" d="M83.839 73.647a0.038 0.038 0 0 0 0.017 0.025 1.028 1.028 0 0 1 0.298 0.099 0.415 0.415 0 0 1 0.149 0.158 3.31 3.31 0 0 0 -0.282 0.133 0.84 0.84 0 0 0 -0.415 -0.315c0.072 -0.042 0.15 -0.075 0.233 -0.099Z" />
  </g>
  <g>
    <path style="opacity:1" fill="#fcfaf9" d="M83.608 73.747c0.172 0.062 0.31 0.166 0.415 0.315l0.033 0.067c-0.011 0.079 -0.055 0.11 -0.133 0.092a0.422 0.422 0 0 1 -0.067 -0.075 0.05 0.05 0 0 0 -0.033 -0.033 0.56 0.56 0 0 0 -0.415 -0.224 0.118 0.118 0 0 1 -0.033 -0.042 0.122 0.122 0 0 1 0.033 -0.108 0.585 0.585 0 0 1 0.198 0.008Z" />
  </g>
  <g>
    <path style="opacity:1" fill="#983830" d="M79.558 73.713a0.122 0.122 0 0 1 -0.017 0.142c-0.108 0.038 -0.168 0.002 -0.182 -0.108a0.603 0.603 0 0 1 0.067 0.075c0.092 0.022 0.136 -0.014 0.133 -0.108Z" />
  </g>
  <g>
    <path style="opacity:1" fill="#93352d" d="M84.902 73.73a0.11 0.11 0 0 1 0.008 0.099 0.077 0.077 0 0 1 -0.042 0.042c-0.092 0.033 -0.142 0.003 -0.149 -0.092 0.095 0.099 0.155 0.083 0.182 -0.05Z" />
  </g>
  <g>
    <path style="opacity:1" fill="#8e3029" d="M83.375 73.847a0.118 0.118 0 0 0 0.033 0.042 0.558 0.558 0 0 1 0.415 0.224 1.204 1.204 0 0 1 -0.432 -0.008 1.065 1.065 0 0 1 -0.265 -0.158c0.077 -0.046 0.159 -0.078 0.248 -0.099Z" />
  </g>
  <g>
    <path style="opacity:1" fill="#983d34" d="M84.503 73.896c0.045 0.054 0.038 0.107 -0.017 0.158 -0.102 0.033 -0.158 -0.003 -0.166 -0.108a0.492 0.492 0 0 0 0.05 0.058c0.098 0.028 0.142 -0.008 0.133 -0.108Z" />
  </g>
  <g>
    <path style="opacity:1" fill="#963a31" d="M84.055 74.128c0.026 0.048 0.015 0.09 -0.033 0.125 -0.102 0.033 -0.158 -0.003 -0.166 -0.108a0.422 0.422 0 0 0 0.067 0.075c0.078 0.018 0.122 -0.012 0.133 -0.092Z" />
  </g>
  <g>
    <path style="opacity:1" fill="#adb5d9" d="M16.892 80.718c0.102 1.117 0.196 2.235 0.282 3.353a0.923 0.923 0 0 1 -0.058 0.166c0.008 0.398 0.03 0.797 0.067 1.195a0.325 0.325 0 0 0 0.142 0.158c0.122 0.022 0.243 0.041 0.365 0.058a3.318 3.318 0 0 0 -0.067 1.095c-0.003 0.155 0 0.31 0.008 0.465 0.198 0.113 0.411 0.182 0.638 0.208 0.128 0.012 0.255 0.012 0.382 0a7.719 7.719 0 0 0 1.958 -0.598 41.84 41.84 0 0 0 1.743 -0.83 1.375 1.375 0 0 0 0.192 -0.158 1.572 1.572 0 0 0 0.025 -0.532c0.033 -0.153 -0.022 -0.268 -0.166 -0.341a0.713 0.713 0 0 0 -0.233 -0.092 1.618 1.618 0 0 0 -1.028 -0.058c-0.435 0.115 -0.872 0.218 -1.312 0.307a0.407 0.407 0 0 0 0.042 -0.099c0.012 -0.342 0.012 -0.686 0 -1.028 0.008 -0.108 -0.039 -0.168 -0.142 -0.182 0.016 -0.963 0.043 -1.926 0.083 -2.888a20.773 20.773 0 0 1 5.146 1.171A8.21 8.21 0 0 1 27.2 83.333c1.216 1.072 1.238 2.167 0.067 3.288a7.787 7.787 0 0 1 -2.075 1.212 20.185 20.185 0 0 1 -4.232 1.112 32.26 32.26 0 0 1 -9.861 -0.083 18.112 18.112 0 0 1 -4.068 -1.178 8.319 8.319 0 0 1 -1.544 -0.912 2.928 2.928 0 0 1 -0.922 -1.153 1.659 1.659 0 0 1 0.099 -1.444 3.99 3.99 0 0 1 1.171 -1.188 10.81 10.81 0 0 1 2.723 -1.228 22.247 22.247 0 0 1 3.204 -0.705 170.923 170.923 0 0 1 -0.083 1.826 0.218 0.218 0 0 0 -0.108 0.149 110.635 110.635 0 0 1 -0.075 0.912c-0.013 0.157 0.053 0.262 0.198 0.315a3.553 3.553 0 0 0 -0.067 1.128c-0.003 0.149 0 0.298 0.008 0.448a0.385 0.385 0 0 0 0.142 0.092 1.919 1.919 0 0 0 0.912 0.116 7.538 7.538 0 0 0 1.826 -0.548 34.375 34.375 0 0 0 1.826 -0.862 0.783 0.783 0 0 0 0.208 -0.175c0.042 -0.172 0.049 -0.344 0.025 -0.515a0.254 0.254 0 0 0 -0.058 -0.265 0.757 0.757 0 0 0 -0.307 -0.166 1.618 1.618 0 0 0 -0.83 -0.108c-0.453 0.108 -0.907 0.21 -1.362 0.307 0.033 -0.275 0.061 -0.553 0.083 -0.83 -0.002 -0.102 -0.052 -0.151 -0.149 -0.149a51.885 51.885 0 0 1 0.298 -1.942 38.345 38.345 0 0 1 2.639 -0.067Z" />
  </g>
  <g>
    <path style="opacity:1" fill="#85a1c8" d="M13.952 82.728c0.098 -0.002 0.148 0.048 0.149 0.149a22.686 22.686 0 0 1 -0.083 0.83 0.473 0.473 0 0 1 -0.099 0.198c-0.665 0.602 -1.407 0.718 -2.225 0.348 -0.146 -0.054 -0.213 -0.158 -0.198 -0.315a110.635 110.635 0 0 0 0.075 -0.912 0.218 0.218 0 0 1 0.108 -0.149c0.068 0.058 0.145 0.105 0.233 0.142a2.035 2.035 0 0 0 0.912 0.099 3.184 3.184 0 0 0 1.128 -0.39Z" />
  </g>
  <g>
    <path style="opacity:1" fill="#6e3d38" d="M16.21 83.508c-0.032 -0.002 -0.037 0.007 -0.017 0.025a0.446 0.446 0 0 1 0.265 0.298 0.19 0.19 0 0 1 -0.025 0.092 0.965 0.965 0 0 1 -0.175 0.125 74.578 74.578 0 0 0 -3.072 1.295 3.072 3.072 0 0 1 -1.395 0.108l-0.166 -0.067a3.553 3.553 0 0 1 0.067 -1.128c0.818 0.368 1.559 0.253 2.225 -0.348a0.473 0.473 0 0 0 0.099 -0.198 59.865 59.865 0 0 0 1.362 -0.307 1.618 1.618 0 0 1 0.83 0.108Z" />
  </g>
  <g>
    <path style="opacity:1" fill="#5c2d2c" d="M16.21 83.508a0.773 0.773 0 0 1 0.307 0.166 0.253 0.253 0 0 1 0.058 0.265 0.633 0.633 0 0 1 -0.348 0.307 54.648 54.648 0 0 1 -2.972 1.228 2.307 2.307 0 0 1 -1.462 -0.025 3.072 3.072 0 0 0 1.395 -0.108 74.578 74.578 0 0 1 3.072 -1.295 0.965 0.965 0 0 0 0.175 -0.125 0.193 0.193 0 0 0 0.025 -0.092 0.448 0.448 0 0 0 -0.265 -0.298c-0.02 -0.018 -0.015 -0.027 0.017 -0.025Z" />
  </g>
  <g>
    <path style="opacity:1" fill="#85a1c8" d="M19.729 83.807c0.102 0.015 0.148 0.075 0.142 0.182 0.012 0.342 0.012 0.686 0 1.028a0.407 0.407 0 0 1 -0.042 0.099 2.36 2.36 0 0 1 -1.378 0.556 3.894 3.894 0 0 1 -0.763 -0.025 12.88 12.88 0 0 1 -0.365 -0.058 0.328 0.328 0 0 1 -0.142 -0.158 17.068 17.068 0 0 1 -0.067 -1.195c0.025 -0.055 0.045 -0.11 0.058 -0.166 0.015 0.012 0.021 0.028 0.017 0.05 0.215 0.072 0.437 0.12 0.664 0.142a3.423 3.423 0 0 0 1.876 -0.457Z" />
  </g>
  <g>
    <path style="opacity:1" fill="#efefef" d="M16.575 83.938c0.025 0.171 0.016 0.342 -0.025 0.515a0.802 0.802 0 0 1 -0.208 0.175 34.375 34.375 0 0 1 -1.826 0.862 7.6 7.6 0 0 1 -1.826 0.548 1.925 1.925 0 0 1 -0.912 -0.116 0.378 0.378 0 0 1 -0.142 -0.092 6.082 6.082 0 0 1 -0.008 -0.448l0.166 0.067c0.482 0.167 0.97 0.175 1.462 0.025a54.648 54.648 0 0 0 2.972 -1.228 0.635 0.635 0 0 0 0.348 -0.307Z" />
  </g>
  <g>
    <path style="opacity:1" fill="#6e3d38" d="M22.169 84.868a0.266 0.266 0 0 0 0.116 0.092c0.226 0.163 0.221 0.313 -0.017 0.448a70.213 70.213 0 0 0 -2.972 1.262 2.922 2.922 0 0 1 -1.237 0.175 0.117 0.117 0 0 0 -0.092 0.033 1.104 1.104 0 0 1 -0.348 -0.133 3.318 3.318 0 0 1 0.067 -1.095 3.936 3.936 0 0 0 0.763 0.025 2.362 2.362 0 0 0 1.378 -0.556 22.452 22.452 0 0 0 1.312 -0.307 1.622 1.622 0 0 1 1.028 0.058Z" />
  </g>
  <g>
    <path style="opacity:1" fill="#5c2d2c" d="M22.169 84.868a0.717 0.717 0 0 1 0.233 0.092c0.143 0.073 0.198 0.188 0.166 0.341a0.517 0.517 0 0 1 -0.298 0.291 64.198 64.198 0 0 1 -2.838 1.195 2.608 2.608 0 0 1 -1.462 0.092 0.115 0.115 0 0 1 0.092 -0.033 2.92 2.92 0 0 0 1.237 -0.175 70.213 70.213 0 0 1 2.972 -1.262c0.237 -0.136 0.242 -0.285 0.017 -0.448a0.256 0.256 0 0 1 -0.116 -0.092Z" />
  </g>
  <g>
    <path style="opacity:1" fill="#f0efef" d="M22.568 85.301c0.022 0.175 0.013 0.352 -0.025 0.532a1.375 1.375 0 0 1 -0.192 0.158 41.84 41.84 0 0 1 -1.743 0.83 7.719 7.719 0 0 1 -1.958 0.598 2.215 2.215 0 0 1 -0.382 0 1.612 1.612 0 0 1 -0.638 -0.208 6.183 6.183 0 0 1 -0.008 -0.465c0.108 0.063 0.224 0.108 0.348 0.133a2.608 2.608 0 0 0 1.462 -0.092 64.198 64.198 0 0 0 2.838 -1.195 0.515 0.515 0 0 0 0.298 -0.291Z" />
  </g>
</svg>