<svg xmlns="http://www.w3.org/2000/svg" version="1.1" width="200px" height="200px" style="shape-rendering:geometricPrecision; text-rendering:geometricPrecision; image-rendering:optimizeQuality; fill-rule:evenodd; clip-rule:evenodd" xmlns:xlink="http://www.w3.org/1999/xlink" viewBox="0 0 200px 200px">
  <g>
    <path style="opacity:0.976" fill="#c6eae3" d="M181 131h-4a144.76 144.76 0 0 0 -20 -14c-1.268 -2.894 -3.6 -4.226 -7 -4 -3.4 -0.226 -5.732 1.106 -7 4l-6 4c-3.034 -2.47 -6.368 -2.47 -10 0 -2.906 5.212 -6.24 9.88 -10 14 -0.428 3.288 0.24 6.288 2 9a213.708 213.708 0 0 0 24 5h26c-4.938 1.634 -10.27 2.634 -16 3 -11.628 12.528 -24.628 14.196 -39 5 -12.212 13.184 -27.212 17.516 -45 13 -19.278 -6.934 -28.612 -20.6 -28 -41 -14.412 0.82 -22.412 -5.848 -24 -20 -7.898 -0.386 -7.898 -1.386 0 -3 -13.268 -1.646 -13.268 -2.646 0 -3 0.56 -8.492 4.56 -14.492 12 -18h14c3.776 -1.55 7.776 -1.55 12 0 6.7 0.33 13.366 -0.004 20 -1 5.822 -6.374 4.822 -11.374 -3 -15 -1.53 0.14 -2.53 0.806 -3 2 -1.676 -0.684 -2.344 -2.016 -2 -4 -4.062 -2.078 -6.728 -5.41 -8 -10 4.714 0.326 9.38 -0.006 14 -1 15.122 -30.06 37.79 -37.394 68 -22 12.086 8.416 17.42 20.082 16 35 9.112 2.77 15.444 8.77 19 18 1.534 8.114 1.2 16.114 -1 24 4.96 5.72 6.96 12.388 6 20Z" />
  </g>
  <g>
    <path style="opacity:1" fill="#7f6236" d="M95 51h-4c1.334 -5.334 2.666 -5.334 4 0Z" />
  </g>
  <g>
    <path style="opacity:1" fill="#685240" d="m91 51 -4 4c-1.086 -0.12 -1.752 -0.786 -2 -2 1.65 -1.772 3.65 -2.438 6 -2Z" />
  </g>
  <g>
    <path style="opacity:1" fill="#68523f" d="M95 51c2.35 -0.438 4.35 0.228 6 2 -0.248 1.214 -0.914 1.88 -2 2l-4 -4Z" />
  </g>
  <g>
    <path style="opacity:1" fill="#e4b11a" d="M91 51h4l4 4c-1.536 1.524 -2.536 3.524 -3 6 -2 -2.666 -4 -2.666 -6 0 -0.464 -2.476 -1.464 -4.476 -3 -6l4 -4Z" />
  </g>
  <g>
    <path style="opacity:0.827" fill="#513936" d="M59 57c1.272 4.59 3.938 7.922 8 10h-8c0.83 -4.896 -1.17 -7.562 -6 -8 -3.794 0.456 -6.46 2.456 -8 6 -3.084 -2.494 -6.084 -2.494 -9 0 -0.83 3.58 -2.83 6.248 -6 8 -1.334 2.666 -1.334 5.334 0 8a193.378 193.378 0 0 1 13 4h-14c-3.496 -3.32 -4.496 -7.32 -3 -12a111.794 111.794 0 0 0 9 -11c7.612 -3.234 15.612 -4.9 24 -5Z" />
  </g>
  <g>
    <path style="opacity:1" fill="#f7f5e8" d="M67 67c-0.344 1.984 0.324 3.316 2 4 5.488 1.144 7.154 4.476 5 10 -6.54 1.264 -12.874 2.598 -19 4 -4.224 -1.55 -8.224 -1.55 -12 0a193.378 193.378 0 0 0 -13 -4c-1.334 -2.666 -1.334 -5.334 0 -8 3.17 -1.752 5.17 -4.42 6 -8 2.916 -2.494 5.916 -2.494 9 0 1.54 -3.544 4.206 -5.544 8 -6 4.83 0.438 6.83 3.104 6 8h8Z" />
  </g>
  <g>
    <path style="opacity:1" fill="#807565" d="M87 55c1.536 1.524 2.536 3.524 3 6 2 -2.666 4 -2.666 6 0 0.464 -2.476 1.464 -4.476 3 -6v8h-12v-8Z" />
  </g>
  <g>
    <path style="opacity:1" fill="#72645f" d="M69 71c0.47 -1.194 1.47 -1.86 3 -2 7.822 3.626 8.822 8.626 3 15 -6.634 0.996 -13.3 1.33 -20 1 6.126 -1.402 12.46 -2.736 19 -4 2.154 -5.524 0.488 -8.856 -5 -10Z" />
  </g>
  <g>
    <path style="opacity:1" fill="#76695c" d="M155 85c1.626 -2.306 3.626 -2.306 6 0 2.546 1.514 2.546 2.846 0 4 -1.58 -1.802 -3.58 -3.136 -6 -4Z" />
  </g>
  <g>
    <path style="opacity:1" fill="#d3a21d" d="M155 85c2.42 0.864 4.42 2.198 6 4 -1.934 2.612 -4.6 3.946 -8 4 -0.134 -2.918 0.532 -5.584 2 -8Z" />
  </g>
  <g>
    <path style="opacity:1" fill="#756859" d="M155 85c-1.468 2.416 -2.134 5.082 -2 8 3.4 -0.054 6.066 -1.388 8 -4v6h-10a13.69 13.69 0 0 0 -2 -8c1.65 -1.772 3.65 -2.438 6 -2Z" />
  </g>
  <g>
    <path style="opacity:1" fill="#f6f4e7" d="M157 117a23.28 23.28 0 0 0 4 10l4 -2c3.142 3.83 7.142 5.83 12 6 5.172 5.012 5.172 10.012 0 15 -11.696 0.346 -23.03 1.346 -34 3a213.708 213.708 0 0 1 -24 -5c-1.76 -2.712 -2.428 -5.712 -2 -9 4.34 -2.536 8.674 -2.536 13 0 -1.414 -3.62 -2.414 -7.62 -3 -12a41.354 41.354 0 0 0 10 -2c0.566 1.58 1.566 2.912 3 4a20.246 20.246 0 0 0 3 -8c4.666 -2.666 9.334 -2.666 14 0Z" />
  </g>
  <g>
    <path style="opacity:1" fill="#73635e" d="M157 117c-4.666 -2.666 -9.334 -2.666 -14 0 1.268 -2.894 3.6 -4.226 7 -4 3.4 -0.226 5.732 1.106 7 4Z" />
  </g>
  <g>
    <path style="opacity:1" fill="#5c423e" d="M121 61h18c0.58 8.872 -0.42 17.54 -3 26a159.8 159.8 0 0 1 -30 30l-6 26a29.948 29.948 0 0 1 -7 6 51.74 51.74 0 0 1 -2 -20c-7.214 -0.242 -11.546 3.09 -13 10 -6.654 5.308 -14.32 7.308 -23 6 -1.22 -12.226 3.78 -20.892 15 -26a16.868 16.868 0 0 0 1 -8c-6.444 0.784 -12.444 -0.216 -18 -3l6 -6 28 -8c8.508 -14.124 19.842 -25.124 34 -33Z" />
  </g>
  <g>
    <path style="opacity:1" fill="#ecd64d" d="M77 99a4.856 4.856 0 0 1 4 1 27.824 27.824 0 0 0 -6 8c-5.414 0.656 -10.748 -0.01 -16 -2a360.828 360.828 0 0 0 18 -7Z" />
  </g>
  <g>
    <path style="opacity:1" fill="#b5b0bf" d="m119 69 14 16c-4.114 7.134 -9.446 13.468 -16 19a321.248 321.248 0 0 0 -26 22c-5.872 -1.786 -10.872 -5.452 -15 -11 0.088 -3.558 1.42 -6.89 4 -10L109 72c3.05 -2.018 6.384 -3.018 10 -3Z" />
  </g>
  <g>
    <path style="opacity:1" fill="#5b4d4e" d="M115 83c-8.666 -0.666 -12.666 3.334 -12 12 -3.864 -7.548 -1.53 -12.214 7 -14 2.14 0.056 3.806 0.722 5 2Z" />
  </g>
  <g>
    <path style="opacity:1" fill="#76c5cc" d="M115 83c3.296 3.912 4.63 8.58 4 14 -5.558 0.442 -10.892 -0.224 -16 -2 -0.666 -8.666 3.334 -12.666 12 -12Z" />
  </g>
  <g>
    <path style="opacity:1" fill="#db4c84" d="m133 85 -14 -16c-0.06 -1.994 0.94 -3.328 3 -4a39.048 39.048 0 0 1 15 -2c0.768 7.978 -0.566 15.31 -4 22Z" />
  </g>
  <g>
    <path style="opacity:1" fill="#6a5652" d="M143 117a20.246 20.246 0 0 1 -3 8c-1.434 -1.088 -2.434 -2.42 -3 -4l6 -4Z" />
  </g>
  <g>
    <path style="opacity:1" fill="#edd64d" d="M99 121c1.976 7.31 0.976 14.642 -3 22 -4.62 -8.252 -3.62 -15.584 3 -22Z" />
  </g>
  <g>
    <path style="opacity:1" fill="#705e5a" d="M157 117a144.76 144.76 0 0 1 20 14c-4.858 -0.17 -8.858 -2.17 -12 -6l-4 2a23.28 23.28 0 0 1 -4 -10Z" />
  </g>
  <g>
    <path style="opacity:1" fill="#e9d04d" d="M71 125c2 0.666 3.334 2 4 4 -0.716 4.402 -3.384 7.068 -8 8 -2.96 -5.514 -1.626 -9.514 4 -12Z" />
  </g>
  <g>
    <path style="opacity:1" fill="#d3505d" d="M71 125c-5.626 2.486 -6.96 6.486 -4 12 4.616 -0.932 7.284 -3.598 8 -8 2.774 3.978 2.106 7.644 -2 11 -4.356 2.404 -9.02 3.404 -14 3 -1.59 -8.188 1.076 -14.52 8 -19 1.874 -1.384 3.206 -1.05 4 1Z" />
  </g>
  <g>
    <path style="opacity:1" fill="#9f928b" d="M137 121a41.354 41.354 0 0 1 -10 2c0.586 4.38 1.586 8.38 3 12 -4.326 -2.536 -8.66 -2.536 -13 0 3.76 -4.12 7.094 -8.788 10 -14 3.632 -2.47 6.966 -2.47 10 0Z" />
  </g>
  <g>
    <path style="opacity:1" fill="#4e3431" d="M177 131h4c5.398 12.452 1.398 18.452 -12 18h-26c10.97 -1.654 22.304 -2.654 34 -3 5.172 -4.988 5.172 -9.988 0 -15Z" />
  </g>
</svg>