<svg version="1.1" xmlns="http://www.w3.org/2000/svg" viewBox="0 0 653.0286602916481 1274.0620981843917" width="653.0286602916481" height="1274.0620981843917">
  <!-- svg-source:excalidraw -->
  
  <defs>
    <style class="style-fonts">
      @font-face {
        font-family: "Virgil";
        src: url("https://excalidraw.com/Virgil.woff2");
      }
      @font-face {
        font-family: "Cascadia";
        src: url("https://excalidraw.com/Cascadia.woff2");
      }
    </style>
    
  </defs>
  <rect x="0" y="0" width="653.0286602916481" height="1274.0620981843917" fill="#ffffff"></rect><g stroke-linecap="round" transform="translate(203 478) rotate(0 121.5 84.00000000000023)"><path d="M32 0 M32 0 C87.8 0, 143.6 0, 211 0 M32 0 C81.66 0, 131.31 0, 211 0 M211 0 C232.33 0, 243 10.67, 243 32 M211 0 C232.33 0, 243 10.67, 243 32 M243 32 C243 54.26, 243 76.52, 243 136 M243 32 C243 65.1, 243 98.2, 243 136 M243 136 C243 157.33, 232.33 168, 211 168 M243 136 C243 157.33, 232.33 168, 211 168 M211 168 C167.78 168, 124.56 168, 32 168 M211 168 C156 168, 101 168, 32 168 M32 168 C10.67 168, 0 157.33, 0 136 M32 168 C10.67 168, 0 157.33, 0 136 M0 136 C0 109.17, 0 82.35, 0 32 M0 136 C0 106.24, 0 76.47, 0 32 M0 32 C0 10.67, 10.67 0, 32 0 M0 32 C0 10.67, 10.67 0, 32 0" stroke="#1e1e1e" stroke-width="4" fill="none"></path></g><g transform="translate(260.44972229003906 527.0000000000005) rotate(0 64.05027770996094 35)"><text x="64.05027770996094" y="0" font-family="Virgil, Segoe UI Emoji" font-size="28px" fill="#1e1e1e" text-anchor="middle" style="white-space: pre;" direction="ltr" dominant-baseline="text-before-edge">cloud</text><text x="64.05027770996094" y="35" font-family="Virgil, Segoe UI Emoji" font-size="28px" fill="#1e1e1e" text-anchor="middle" style="white-space: pre;" direction="ltr" dominant-baseline="text-before-edge">controller</text></g><g mask="url(#mask-mcRC3GuqhKmkHXNlcMJte)" stroke-linecap="round"><g transform="translate(247 657) rotate(0 -70.5 87.50000000000023)"><path d="M0 0 C-23.5 29.17, -117.5 145.83, -141 175 M0 0 C-23.5 29.17, -117.5 145.83, -141 175" stroke="#1e1e1e" stroke-width="4" fill="none"></path></g><g transform="translate(247 657) rotate(0 -70.5 87.50000000000023)"><path d="M-141 175 L-137.41 160.44 L-127.53 168.39 L-141 175" stroke="none" stroke-width="0" fill="#1e1e1e" fill-rule="evenodd"></path><path d="M-141 175 C-139.57 169.21, -138.14 163.41, -137.41 160.44 M-141 175 C-139.7 169.75, -138.41 164.5, -137.41 160.44 M-137.41 160.44 C-135.4 162.05, -133.4 163.67, -127.53 168.39 M-137.41 160.44 C-133.75 163.39, -130.09 166.34, -127.53 168.39 M-127.53 168.39 C-130.97 170.08, -134.4 171.76, -141 175 M-127.53 168.39 C-131.53 170.35, -135.53 172.32, -141 175 M-141 175 C-141 175, -141 175, -141 175 M-141 175 C-141 175, -141 175, -141 175" stroke="#1e1e1e" stroke-width="4" fill="none"></path></g></g><mask id="mask-mcRC3GuqhKmkHXNlcMJte"><rect x="0" y="0" fill="#fff" width="488" height="932.0000000000005"></rect><rect x="130.88780212402344" y="727.0000000000005" fill="#000" width="91.22439575195312" height="35" opacity="1"></rect></mask><g transform="translate(130.88780212402344 727) rotate(0 45.61219787597656 17.499999999999773)"><text x="45.61219787597656" y="0" font-family="Virgil, Segoe UI Emoji" font-size="28px" fill="#1e1e1e" text-anchor="middle" style="white-space: pre;" direction="ltr" dominant-baseline="text-before-edge">create</text></g><g mask="url(#mask-u8YFVJ5KsS4QI3Ur_vngX)" stroke-linecap="round"><g transform="translate(391 658) rotate(0 79 82.00000000000023)"><path d="M0 0 C26.33 27.33, 131.67 136.67, 158 164 M0 0 C26.33 27.33, 131.67 136.67, 158 164" stroke="#1e1e1e" stroke-width="4" fill="none"></path></g><g transform="translate(391 658) rotate(0 79 82.00000000000023)"><path d="M158 164 L144 158.61 L153.13 149.81 L158 164" stroke="none" stroke-width="0" fill="#1e1e1e" fill-rule="evenodd"></path><path d="M158 164 C155.16 162.91, 152.33 161.81, 144 158.61 M158 164 C153.78 162.37, 149.56 160.75, 144 158.61 M144 158.61 C146.82 155.89, 149.64 153.18, 153.13 149.81 M144 158.61 C146.19 156.5, 148.38 154.4, 153.13 149.81 M153.13 149.81 C154.2 152.92, 155.27 156.03, 158 164 M153.13 149.81 C154.78 154.61, 156.43 159.42, 158 164 M158 164 C158 164, 158 164, 158 164 M158 164 C158 164, 158 164, 158 164" stroke="#1e1e1e" stroke-width="4" fill="none"></path></g></g><mask id="mask-u8YFVJ5KsS4QI3Ur_vngX"><rect x="0" y="0" fill="#fff" width="649" height="922.0000000000005"></rect><rect x="427.46781158447266" y="722.5000000000005" fill="#000" width="85.06437683105469" height="35" opacity="1"></rect></mask><g transform="translate(427.46781158447266 722.5) rotate(0 42.532188415527344 17.499999999999773)"><text x="42.532188415527344" y="0" font-family="Virgil, Segoe UI Emoji" font-size="28px" fill="#1e1e1e" text-anchor="middle" style="white-space: pre;" direction="ltr" dominant-baseline="text-before-edge">delete</text></g><g transform="translate(162.1639404296875 10) rotate(0 145.8360595703125 22.5)"><text x="145.8360595703125" y="0" font-family="Virgil, Segoe UI Emoji" font-size="36px" fill="#1e1e1e" text-anchor="middle" style="white-space: pre;" direction="ltr" dominant-baseline="text-before-edge">Managed cluster</text></g><g stroke-linecap="round" transform="translate(200.5 169.9999999999991) rotate(0 121.5 84.00000000000023)"><path d="M32 0 M32 0 C97.02 0, 162.05 0, 211 0 M32 0 C102.71 0, 173.41 0, 211 0 M211 0 C232.33 0, 243 10.67, 243 32 M211 0 C232.33 0, 243 10.67, 243 32 M243 32 C243 67.9, 243 103.8, 243 136 M243 32 C243 70.99, 243 109.98, 243 136 M243 136 C243 157.33, 232.33 168, 211 168 M243 136 C243 157.33, 232.33 168, 211 168 M211 168 C157.73 168, 104.46 168, 32 168 M211 168 C153.25 168, 95.5 168, 32 168 M32 168 C10.67 168, 0 157.33, 0 136 M32 168 C10.67 168, 0 157.33, 0 136 M0 136 C0 105.79, 0 75.58, 0 32 M0 136 C0 107.72, 0 79.43, 0 32 M0 32 C0 10.67, 10.67 0, 32 0 M0 32 C0 10.67, 10.67 0, 32 0" stroke="#1e1e1e" stroke-width="4" fill="none"></path></g><g transform="translate(265.36976623535156 236.49999999999955) rotate(0 56.63023376464844 17.5)"><text x="56.63023376464844" y="0" font-family="Virgil, Segoe UI Emoji" font-size="28px" fill="#1e1e1e" text-anchor="middle" style="white-space: pre;" direction="ltr" dominant-baseline="text-before-edge">Manager</text></g><g stroke-linecap="round"><g transform="translate(325 339) rotate(0 1 70)"><path d="M0 0 C0.33 23.33, 1.67 116.67, 2 140 M0 0 C0.33 23.33, 1.67 116.67, 2 140" stroke="#1e1e1e" stroke-width="4" fill="none"></path></g><g transform="translate(325 339) rotate(0 1 70)"><path d="M2 140 L-4.53 126.5 L8.14 126.32 L2 140" stroke="none" stroke-width="0" fill="#1e1e1e" fill-rule="evenodd"></path><path d="M2 140 C0.14 136.15, -1.73 132.3, -4.53 126.5 M2 140 C-0.43 134.97, -2.86 129.95, -4.53 126.5 M-4.53 126.5 C-0.24 126.44, 4.06 126.37, 8.14 126.32 M-4.53 126.5 C0.52 126.43, 5.57 126.35, 8.14 126.32 M8.14 126.32 C6.85 129.19, 5.56 132.06, 2 140 M8.14 126.32 C6.58 129.8, 5.02 133.28, 2 140 M2 140 C2 140, 2 140, 2 140 M2 140 C2 140, 2 140, 2 140" stroke="#1e1e1e" stroke-width="4" fill="none"></path></g></g><mask></mask><g stroke-linecap="round" transform="translate(10 837.0000000000005) rotate(0 94.5 78)"><path d="M32 0 L157 0 L164.5 0.5 L171 2 L176.5 4.5 L181 8 L184.5 12.5 L187 18 L188.5 24.5 L189 32 L188.5 131.5 L187 138 L184.5 143.5 L181 148 L176.5 151.5 L171 154 L164.5 155.5 L157 156 L32 156 L24.5 155.5 L18 154 L12.5 151.5 L8 148 L4.5 143.5 L2 138 L0.5 131.5 L0 124 L0.5 24.5 L2 18 L4.5 12.5 L8 8 L12.5 4.5 L18 2 L24.5 0.5 L32 0" stroke="none" stroke-width="0" fill="#fff"></path><path d="M32 0 M32 0 C78.42 0, 124.83 0, 157 0 M32 0 C75.81 0, 119.63 0, 157 0 M157 0 C178.33 0, 189 10.67, 189 32 M157 0 C178.33 0, 189 10.67, 189 32 M189 32 C189 57.27, 189 82.54, 189 124 M189 32 C189 61.5, 189 90.99, 189 124 M189 124 C189 145.33, 178.33 156, 157 156 M189 124 C189 145.33, 178.33 156, 157 156 M157 156 C119.45 156, 81.9 156, 32 156 M157 156 C108.83 156, 60.67 156, 32 156 M32 156 C10.67 156, 0 145.33, 0 124 M32 156 C10.67 156, 0 145.33, 0 124 M0 124 C0 98.71, 0 73.41, 0 32 M0 124 C0 103.4, 0 82.79, 0 32 M0 32 C0 10.67, 10.67 0, 32 0 M0 32 C0 10.67, 10.67 0, 32 0" stroke="#1e1e1e" stroke-width="4" fill="none"></path></g><g transform="translate(53.273773193359375 880.0000000000005) rotate(0 51.226226806640625 35)"><text x="51.226226806640625" y="0" font-family="Virgil, Segoe UI Emoji" font-size="28px" fill="#1e1e1e" text-anchor="middle" style="white-space: pre;" direction="ltr" dominant-baseline="text-before-edge">create</text><text x="51.226226806640625" y="35" font-family="Virgil, Segoe UI Emoji" font-size="28px" fill="#1e1e1e" text-anchor="middle" style="white-space: pre;" direction="ltr" dominant-baseline="text-before-edge">network</text></g><g stroke-linecap="round"><g transform="translate(106.12511891869724 994.0000000000005) rotate(0 0.4123964189714684 52.5)"><path d="M0 0 C0.14 17.5, 0.69 87.5, 0.82 105 M0 0 C0.14 17.5, 0.69 87.5, 0.82 105" stroke="#1e1e1e" stroke-width="4" fill="none"></path></g><g transform="translate(106.12511891869724 994.0000000000005) rotate(0 0.4123964189714684 52.5)"><path d="M0.82 105 L-5.62 91.46 L7.06 91.36 L0.82 105" stroke="none" stroke-width="0" fill="#1e1e1e" fill-rule="evenodd"></path><path d="M0.82 105 C-0.99 101.19, -2.8 97.38, -5.62 91.46 M0.82 105 C-1.4 100.33, -3.62 95.67, -5.62 91.46 M-5.62 91.46 C-1.36 91.42, 2.9 91.39, 7.06 91.36 M-5.62 91.46 C-1.46 91.42, 2.69 91.39, 7.06 91.36 M7.06 91.36 C5.6 94.55, 4.14 97.74, 0.82 105 M7.06 91.36 C4.98 95.9, 2.9 100.45, 0.82 105 M0.82 105 C0.82 105, 0.82 105, 0.82 105 M0.82 105 C0.82 105, 0.82 105, 0.82 105" stroke="#1e1e1e" stroke-width="4" fill="none"></path></g></g><mask></mask><g stroke-linecap="round" transform="translate(16 1107.0000000000005) rotate(0 95.5 78.5)"><path d="M32 0 M32 0 C64 0, 95.99 0, 159 0 M32 0 C66.04 0, 100.08 0, 159 0 M159 0 C180.33 0, 191 10.67, 191 32 M159 0 C180.33 0, 191 10.67, 191 32 M191 32 C191 57.05, 191 82.1, 191 125 M191 32 C191 62.72, 191 93.44, 191 125 M191 125 C191 146.33, 180.33 157, 159 157 M191 125 C191 146.33, 180.33 157, 159 157 M159 157 C127.2 157, 95.41 157, 32 157 M159 157 C129.69 157, 100.37 157, 32 157 M32 157 C10.67 157, 0 146.33, 0 125 M32 157 C10.67 157, 0 146.33, 0 125 M0 125 C0 94.3, 0 63.6, 0 32 M0 125 C0 88.33, 0 51.66, 0 32 M0 32 C0 10.67, 10.67 0, 32 0 M0 32 C0 10.67, 10.67 0, 32 0" stroke="#1e1e1e" stroke-width="4" fill="none"></path></g><g transform="translate(54.7857666015625 1133.0000000000005) rotate(0 56.7142333984375 52.5)"><text x="56.7142333984375" y="0" font-family="Virgil, Segoe UI Emoji" font-size="28px" fill="#1e1e1e" text-anchor="middle" style="white-space: pre;" direction="ltr" dominant-baseline="text-before-edge">create</text><text x="56.7142333984375" y="35" font-family="Virgil, Segoe UI Emoji" font-size="28px" fill="#1e1e1e" text-anchor="middle" style="white-space: pre;" direction="ltr" dominant-baseline="text-before-edge">managed</text><text x="56.7142333984375" y="70" font-family="Virgil, Segoe UI Emoji" font-size="28px" fill="#1e1e1e" text-anchor="middle" style="white-space: pre;" direction="ltr" dominant-baseline="text-before-edge">cluster</text></g><g stroke-linecap="round" transform="translate(452.02866029164807 830.5620981843917) rotate(0 95.5 78.5)"><path d="M32 0 M32 0 C61.02 0, 90.03 0, 159 0 M32 0 C72.26 0, 112.52 0, 159 0 M159 0 C180.33 0, 191 10.67, 191 32 M159 0 C180.33 0, 191 10.67, 191 32 M191 32 C191 57.6, 191 83.21, 191 125 M191 32 C191 51.3, 191 70.61, 191 125 M191 125 C191 146.33, 180.33 157, 159 157 M191 125 C191 146.33, 180.33 157, 159 157 M159 157 C131.02 157, 103.03 157, 32 157 M159 157 C112.82 157, 66.63 157, 32 157 M32 157 C10.67 157, 0 146.33, 0 125 M32 157 C10.67 157, 0 146.33, 0 125 M0 125 C0 94.94, 0 64.89, 0 32 M0 125 C0 106.39, 0 87.78, 0 32 M0 32 C0 10.67, 10.67 0, 32 0 M0 32 C0 10.67, 10.67 0, 32 0" stroke="#1e1e1e" stroke-width="4" fill="none"></path></g><g transform="translate(490.81442689321057 856.5620981843917) rotate(0 56.7142333984375 52.5)"><text x="56.7142333984375" y="0" font-family="Virgil, Segoe UI Emoji" font-size="28px" fill="#1e1e1e" text-anchor="middle" style="white-space: pre;" direction="ltr" dominant-baseline="text-before-edge">delete</text><text x="56.7142333984375" y="35" font-family="Virgil, Segoe UI Emoji" font-size="28px" fill="#1e1e1e" text-anchor="middle" style="white-space: pre;" direction="ltr" dominant-baseline="text-before-edge">managed</text><text x="56.7142333984375" y="70" font-family="Virgil, Segoe UI Emoji" font-size="28px" fill="#1e1e1e" text-anchor="middle" style="white-space: pre;" direction="ltr" dominant-baseline="text-before-edge">cluster</text></g><g stroke-linecap="round" transform="translate(450.02866029164807 1108.0620981843917) rotate(0 94.5 78)"><path d="M32 0 L157 0 L164.5 0.5 L171 2 L176.5 4.5 L181 8 L184.5 12.5 L187 18 L188.5 24.5 L189 32 L188.5 131.5 L187 138 L184.5 143.5 L181 148 L176.5 151.5 L171 154 L164.5 155.5 L157 156 L32 156 L24.5 155.5 L18 154 L12.5 151.5 L8 148 L4.5 143.5 L2 138 L0.5 131.5 L0 124 L0.5 24.5 L2 18 L4.5 12.5 L8 8 L12.5 4.5 L18 2 L24.5 0.5 L32 0" stroke="none" stroke-width="0" fill="#fff"></path><path d="M32 0 M32 0 C77.33 0, 122.65 0, 157 0 M32 0 C71.14 0, 110.29 0, 157 0 M157 0 C178.33 0, 189 10.67, 189 32 M157 0 C178.33 0, 189 10.67, 189 32 M189 32 C189 67.59, 189 103.17, 189 124 M189 32 C189 68.51, 189 105.01, 189 124 M189 124 C189 145.33, 178.33 156, 157 156 M189 124 C189 145.33, 178.33 156, 157 156 M157 156 C114.87 156, 72.75 156, 32 156 M157 156 C111.45 156, 65.89 156, 32 156 M32 156 C10.67 156, 0 145.33, 0 124 M32 156 C10.67 156, 0 145.33, 0 124 M0 124 C0 99.5, 0 75, 0 32 M0 124 C0 102.34, 0 80.68, 0 32 M0 32 C0 10.67, 10.67 0, 32 0 M0 32 C0 10.67, 10.67 0, 32 0" stroke="#1e1e1e" stroke-width="4" fill="none"></path></g><g transform="translate(493.30243348500744 1151.0620981843917) rotate(0 51.226226806640625 35)"><text x="51.226226806640625" y="0" font-family="Virgil, Segoe UI Emoji" font-size="28px" fill="#1e1e1e" text-anchor="middle" style="white-space: pre;" direction="ltr" dominant-baseline="text-before-edge">delete</text><text x="51.226226806640625" y="35" font-family="Virgil, Segoe UI Emoji" font-size="28px" fill="#1e1e1e" text-anchor="middle" style="white-space: pre;" direction="ltr" dominant-baseline="text-before-edge">network</text></g><g stroke-linecap="round"><g transform="translate(546.5286602916481 991.0620981843917) rotate(0 1.5 56.5)"><path d="M0 0 C0.5 18.83, 2.5 94.17, 3 113 M0 0 C0.5 18.83, 2.5 94.17, 3 113" stroke="#1e1e1e" stroke-width="4" fill="none"></path></g><g transform="translate(546.5286602916481 991.0620981843917) rotate(0 1.5 56.5)"><path d="M3 113 L-3.7 99.58 L8.98 99.24 L3 113" stroke="none" stroke-width="0" fill="#1e1e1e" fill-rule="evenodd"></path><path d="M3 113 C1.18 109.35, -0.64 105.7, -3.7 99.58 M3 113 C1.46 109.92, -0.08 106.83, -3.7 99.58 M-3.7 99.58 C0.69 99.46, 5.08 99.35, 8.98 99.24 M-3.7 99.58 C-0.19 99.49, 3.31 99.39, 8.98 99.24 M8.98 99.24 C7.72 102.14, 6.46 105.04, 3 113 M8.98 99.24 C7.32 103.06, 5.66 106.88, 3 113 M3 113 C3 113, 3 113, 3 113 M3 113 C3 113, 3 113, 3 113" stroke="#1e1e1e" stroke-width="4" fill="none"></path></g></g><mask></mask></svg>