<svg version="1.1" xmlns="http://www.w3.org/2000/svg" viewBox="0 0 1635.265009937766 2558.616971660276" width="1635.265009937766" height="2558.616971660276">
  <!-- svg-source:excalidraw -->
  
  <defs>
    <style class="style-fonts">
      @font-face {
        font-family: "Virgil";
        src: url("https://excalidraw.com/Virgil.woff2");
      }
      @font-face {
        font-family: "Cascadia";
        src: url("https://excalidraw.com/Cascadia.woff2");
      }
    </style>
    
  </defs>
  <rect x="0" y="0" width="1635.265009937766" height="2558.616971660276" fill="#ffffff"></rect><g stroke-linecap="round" transform="translate(291.58975774952023 496.3647365499928) rotate(0 224.5 84.5)"><path d="M32 0 M32 0 C117.27 0, 202.54 0, 417 0 M32 0 C125.44 0, 218.87 0, 417 0 M417 0 C438.33 0, 449 10.67, 449 32 M417 0 C438.33 0, 449 10.67, 449 32 M449 32 C449 53.88, 449 75.75, 449 137 M449 32 C449 71.11, 449 110.22, 449 137 M449 137 C449 158.33, 438.33 169, 417 169 M449 137 C449 158.33, 438.33 169, 417 169 M417 169 C334.92 169, 252.83 169, 32 169 M417 169 C294.14 169, 171.27 169, 32 169 M32 169 C10.67 169, 0 158.33, 0 137 M32 169 C10.67 169, 0 158.33, 0 137 M0 137 C0 96.61, 0 56.21, 0 32 M0 137 C0 96.75, 0 56.49, 0 32 M0 32 C0 10.67, 10.67 0, 32 0 M0 32 C0 10.67, 10.67 0, 32 0" stroke="#1e1e1e" stroke-width="4" fill="none"></path></g><g transform="translate(452.0394800395593 545.8647365499928) rotate(0 64.05027770996094 35)"><text x="64.05027770996094" y="0" font-family="Virgil, Segoe UI Emoji" font-size="28px" fill="#1e1e1e" text-anchor="middle" style="white-space: pre;" direction="ltr" dominant-baseline="text-before-edge">cloud</text><text x="64.05027770996094" y="35" font-family="Virgil, Segoe UI Emoji" font-size="28px" fill="#1e1e1e" text-anchor="middle" style="white-space: pre;" direction="ltr" dominant-baseline="text-before-edge">controller</text></g><g stroke-linecap="round" transform="translate(697.3283283255832 175.8522471497563) rotate(0 121.5 84.00000000000023)"><path d="M32 0 M32 0 C68.69 0, 105.38 0, 211 0 M32 0 C99.95 0, 167.89 0, 211 0 M211 0 C232.33 0, 243 10.67, 243 32 M211 0 C232.33 0, 243 10.67, 243 32 M243 32 C243 72.86, 243 113.72, 243 136 M243 32 C243 58.44, 243 84.87, 243 136 M243 136 C243 157.33, 232.33 168, 211 168 M243 136 C243 157.33, 232.33 168, 211 168 M211 168 C171.33 168, 131.66 168, 32 168 M211 168 C170.64 168, 130.27 168, 32 168 M32 168 C10.67 168, 0 157.33, 0 136 M32 168 C10.67 168, 0 157.33, 0 136 M0 136 C0 113.89, 0 91.79, 0 32 M0 136 C0 109.05, 0 82.11, 0 32 M0 32 C0 10.67, 10.67 0, 32 0 M0 32 C0 10.67, 10.67 0, 32 0" stroke="#1e1e1e" stroke-width="4" fill="none"></path></g><g transform="translate(762.1980945609348 242.35224714975675) rotate(0 56.63023376464844 17.5)"><text x="56.63023376464844" y="0" font-family="Virgil, Segoe UI Emoji" font-size="28px" fill="#1e1e1e" text-anchor="middle" style="white-space: pre;" direction="ltr" dominant-baseline="text-before-edge">Manager</text></g><g mask="url(#mask-QxhAjutKzpjysIQBAoGvN)" stroke-linecap="round"><g transform="translate(693.1965814997966 346.66803623411624) rotate(0 -79.22599086641844 72.84835015793851)"><path d="M0 0 C-26.41 24.28, -132.04 121.41, -158.45 145.7 M0 0 C-26.41 24.28, -132.04 121.41, -158.45 145.7" stroke="#1e1e1e" stroke-width="4" fill="none"></path></g><g transform="translate(693.1965814997966 346.66803623411624) rotate(0 -79.22599086641844 72.84835015793851)"><path d="M-158.45 145.7 L-152.74 131.83 L-144.15 141.16 L-158.45 145.7" stroke="none" stroke-width="0" fill="#1e1e1e" fill-rule="evenodd"></path><path d="M-158.45 145.7 C-157.01 142.2, -155.57 138.7, -152.74 131.83 M-158.45 145.7 C-157.25 142.79, -156.05 139.87, -152.74 131.83 M-152.74 131.83 C-150.08 134.72, -147.42 137.61, -144.15 141.16 M-152.74 131.83 C-149.67 135.16, -146.6 138.5, -144.15 141.16 M-144.15 141.16 C-149.17 142.75, -154.19 144.34, -158.45 145.7 M-144.15 141.16 C-147.41 142.2, -150.67 143.23, -158.45 145.7 M-158.45 145.7 C-158.45 145.7, -158.45 145.7, -158.45 145.7 M-158.45 145.7 C-158.45 145.7, -158.45 145.7, -158.45 145.7" stroke="#1e1e1e" stroke-width="4" fill="none"></path></g></g><mask id="mask-QxhAjutKzpjysIQBAoGvN"><rect x="0" y="0" fill="#fff" width="951.6485632326335" height="592.3647365499933"></rect><rect x="498.0500812949995" y="402.0163863920552" fill="#000" width="231.8410186767578" height="35" opacity="1"></rect></mask><g transform="translate(498.0500812949995 402.01638639205476) rotate(0 115.92050933837868 17.5)"><text x="115.9205093383789" y="0" font-family="Virgil, Segoe UI Emoji" font-size="28px" fill="#1e1e1e" text-anchor="middle" style="white-space: pre;" direction="ltr" dominant-baseline="text-before-edge">create or delete</text></g><g stroke-linecap="round" transform="translate(1206.8108661967885 485.6584494508238) rotate(0 176 84.5)"><path d="M32 0 M32 0 C93.73 0, 155.47 0, 320 0 M32 0 C137.92 0, 243.85 0, 320 0 M320 0 C341.33 0, 352 10.67, 352 32 M320 0 C341.33 0, 352 10.67, 352 32 M352 32 C352 73.48, 352 114.96, 352 137 M352 32 C352 59.1, 352 86.2, 352 137 M352 137 C352 158.33, 341.33 169, 320 169 M352 137 C352 158.33, 341.33 169, 320 169 M320 169 C227.86 169, 135.73 169, 32 169 M320 169 C241.19 169, 162.38 169, 32 169 M32 169 C10.67 169, 0 158.33, 0 137 M32 169 C10.67 169, 0 158.33, 0 137 M0 137 C0 110.93, 0 84.86, 0 32 M0 137 C0 102.61, 0 68.22, 0 32 M0 32 C0 10.67, 10.67 0, 32 0 M0 32 C0 10.67, 10.67 0, 32 0" stroke="#1e1e1e" stroke-width="4" fill="none"></path></g><g transform="translate(1318.7605884868276 535.1584494508238) rotate(0 64.05027770996094 35)"><text x="64.05027770996094" y="0" font-family="Virgil, Segoe UI Emoji" font-size="28px" fill="#1e1e1e" text-anchor="middle" style="white-space: pre;" direction="ltr" dominant-baseline="text-before-edge">Distro</text><text x="64.05027770996094" y="35" font-family="Virgil, Segoe UI Emoji" font-size="28px" fill="#1e1e1e" text-anchor="middle" style="white-space: pre;" direction="ltr" dominant-baseline="text-before-edge">controller</text></g><g mask="url(#mask-2pKoRxwT94YvLlb5VFQi5)" stroke-linecap="round"><g transform="translate(947.597062425938 299.3212776903606) rotate(0 153.29108475120574 88.6685858802316)"><path d="M0 0 C51.1 29.56, 255.49 147.78, 306.58 177.34 M0 0 C51.1 29.56, 255.49 147.78, 306.58 177.34" stroke="#1e1e1e" stroke-width="4" fill="none"></path></g><g transform="translate(947.597062425938 299.3212776903606) rotate(0 153.29108475120574 88.6685858802316)"><path d="M306.58 177.34 L291.64 176.02 L297.99 165.04 L306.58 177.34" stroke="none" stroke-width="0" fill="#1e1e1e" fill-rule="evenodd"></path><path d="M306.58 177.34 C300.88 176.83, 295.18 176.33, 291.64 176.02 M306.58 177.34 C301.4 176.88, 296.21 176.42, 291.64 176.02 M291.64 176.02 C294.12 171.73, 296.6 167.44, 297.99 165.04 M291.64 176.02 C293.5 172.81, 295.35 169.6, 297.99 165.04 M297.99 165.04 C301 169.35, 304.01 173.66, 306.58 177.34 M297.99 165.04 C301.16 169.58, 304.33 174.12, 306.58 177.34 M306.58 177.34 C306.58 177.34, 306.58 177.34, 306.58 177.34 M306.58 177.34 C306.58 177.34, 306.58 177.34, 306.58 177.34" stroke="#1e1e1e" stroke-width="4" fill="none"></path></g></g><mask id="mask-2pKoRxwT94YvLlb5VFQi5"><rect x="0" y="0" fill="#fff" width="1354.1792319283495" height="576.6584494508238"></rect><rect x="1045.5739153045852" y="352.9898635705922" fill="#000" width="110.62846374511719" height="70" opacity="1"></rect></mask><g transform="translate(1045.5739153045852 352.9898635705922) rotate(0 55.314231872558594 35)"><text x="55.314231872558594" y="0" font-family="Virgil, Segoe UI Emoji" font-size="28px" fill="#1e1e1e" text-anchor="middle" style="white-space: pre;" direction="ltr" dominant-baseline="text-before-edge">creation</text><text x="55.314231872558594" y="35" font-family="Virgil, Segoe UI Emoji" font-size="28px" fill="#1e1e1e" text-anchor="middle" style="white-space: pre;" direction="ltr" dominant-baseline="text-before-edge">done</text></g><g stroke-linecap="round" transform="translate(109.50042399051995 816.0658389253472) rotate(0 92.03789219123121 75.24719564283077)"><path d="M32 0 L152.08 0 L159.58 0.5 L166.08 2 L171.58 4.5 L176.08 8 L179.58 12.5 L182.08 18 L183.58 24.5 L184.08 32 L183.58 125.99 L182.08 132.49 L179.58 137.99 L176.08 142.49 L171.58 145.99 L166.08 148.49 L159.58 149.99 L152.08 150.49 L32 150.49 L24.5 149.99 L18 148.49 L12.5 145.99 L8 142.49 L4.5 137.99 L2 132.49 L0.5 125.99 L0 118.49 L0.5 24.5 L2 18 L4.5 12.5 L8 8 L12.5 4.5 L18 2 L24.5 0.5 L32 0" stroke="none" stroke-width="0" fill="#fff"></path><path d="M32 0 M32 0 C74.05 0, 116.1 0, 152.08 0 M32 0 C57.14 0, 82.27 0, 152.08 0 M152.08 0 C173.41 0, 184.08 10.67, 184.08 32 M152.08 0 C173.41 0, 184.08 10.67, 184.08 32 M184.08 32 C184.08 60.86, 184.08 89.71, 184.08 118.49 M184.08 32 C184.08 61.55, 184.08 91.09, 184.08 118.49 M184.08 118.49 C184.08 139.83, 173.41 150.49, 152.08 150.49 M184.08 118.49 C184.08 139.83, 173.41 150.49, 152.08 150.49 M152.08 150.49 C112.41 150.49, 72.74 150.49, 32 150.49 M152.08 150.49 C118.12 150.49, 84.15 150.49, 32 150.49 M32 150.49 C10.67 150.49, 0 139.83, 0 118.49 M32 150.49 C10.67 150.49, 0 139.83, 0 118.49 M0 118.49 C0 86.45, 0 54.41, 0 32 M0 118.49 C0 88.72, 0 58.95, 0 32 M0 32 C0 10.67, 10.67 0, 32 0 M0 32 C0 10.67, 10.67 0, 32 0" stroke="#1e1e1e" stroke-width="4" fill="none"></path></g><g transform="translate(150.31208937511042 856.313034568178) rotate(0 51.226226806640625 35)"><text x="51.226226806640625" y="0" font-family="Virgil, Segoe UI Emoji" font-size="28px" fill="#1e1e1e" text-anchor="middle" style="white-space: pre;" direction="ltr" dominant-baseline="text-before-edge">create</text><text x="51.226226806640625" y="35" font-family="Virgil, Segoe UI Emoji" font-size="28px" fill="#1e1e1e" text-anchor="middle" style="white-space: pre;" direction="ltr" dominant-baseline="text-before-edge">network</text></g><g mask="url(#mask-o8EuI-mnkxj4vieyQeRTz)" stroke-linecap="round"><g transform="translate(350.8010810313981 671.5464688392099) rotate(0 -44.05091806458336 68.52841914342389)"><path d="M0 0 C-14.68 22.84, -73.42 114.21, -88.1 137.06 M0 0 C-14.68 22.84, -73.42 114.21, -88.1 137.06" stroke="#1e1e1e" stroke-width="4" fill="none"></path></g><g transform="translate(350.8010810313981 671.5464688392099) rotate(0 -44.05091806458336 68.52841914342389)"><path d="M-88.1 137.06 L-86.08 122.19 L-75.42 129.05 L-88.1 137.06" stroke="none" stroke-width="0" fill="#1e1e1e" fill-rule="evenodd"></path><path d="M-88.1 137.06 C-87.3 131.17, -86.5 125.27, -86.08 122.19 M-88.1 137.06 C-87.48 132.47, -86.86 127.89, -86.08 122.19 M-86.08 122.19 C-82.07 124.78, -78.05 127.36, -75.42 129.05 M-86.08 122.19 C-82.09 124.76, -78.09 127.33, -75.42 129.05 M-75.42 129.05 C-79.89 131.87, -84.37 134.7, -88.1 137.06 M-75.42 129.05 C-78.84 131.21, -82.26 133.37, -88.1 137.06 M-88.1 137.06 C-88.1 137.06, -88.1 137.06, -88.1 137.06 M-88.1 137.06 C-88.1 137.06, -88.1 137.06, -88.1 137.06" stroke="#1e1e1e" stroke-width="4" fill="none"></path></g></g><mask id="mask-o8EuI-mnkxj4vieyQeRTz"><rect x="0" y="0" fill="#fff" width="538.9029171605648" height="908.6033071260576"></rect><rect x="261.1379650908384" y="722.5748879826333" fill="#000" width="91.22439575195312" height="35" opacity="1"></rect></mask><g transform="translate(261.1379650908384 722.5748879826333) rotate(0 45.61219787597656 17.5)"><text x="45.61219787597656" y="0" font-family="Virgil, Segoe UI Emoji" font-size="28px" fill="#1e1e1e" text-anchor="middle" style="white-space: pre;" direction="ltr" dominant-baseline="text-before-edge">create</text></g><g mask="url(#mask-r42ikXnSRVZmvHZrt4Z6S)" stroke-linecap="round"><g transform="translate(669.7506241996821 671.5464688392094) rotate(0 27.88917124980776 66.04090854366109)"><path d="M0 0 C9.3 22.01, 46.48 110.07, 55.78 132.08 M0 0 C9.3 22.01, 46.48 110.07, 55.78 132.08" stroke="#1e1e1e" stroke-width="4" fill="none"></path></g><g transform="translate(669.7506241996821 671.5464688392094) rotate(0 27.88917124980776 66.04090854366109)"><path d="M55.78 132.08 L44.65 122.02 L56.33 117.09 L55.78 132.08" stroke="none" stroke-width="0" fill="#1e1e1e" fill-rule="evenodd"></path><path d="M55.78 132.08 C52.26 128.9, 48.74 125.72, 44.65 122.02 M55.78 132.08 C52.16 128.81, 48.54 125.54, 44.65 122.02 M44.65 122.02 C47.95 120.63, 51.24 119.24, 56.33 117.09 M44.65 122.02 C47.05 121.01, 49.44 120, 56.33 117.09 M56.33 117.09 C56.16 121.76, 55.99 126.44, 55.78 132.08 M56.33 117.09 C56.21 120.42, 56.08 123.74, 55.78 132.08 M55.78 132.08 C55.78 132.08, 55.78 132.08, 55.78 132.08 M55.78 132.08 C55.78 132.08, 55.78 132.08, 55.78 132.08" stroke="#1e1e1e" stroke-width="4" fill="none"></path></g></g><mask id="mask-r42ikXnSRVZmvHZrt4Z6S"><rect x="0" y="0" fill="#fff" width="825.5289666992976" height="903.6282859265316"></rect><rect x="655.1076070339623" y="720.0873773828703" fill="#000" width="85.06437683105469" height="35" opacity="1"></rect></mask><g transform="translate(655.1076070339623 720.0873773828698) rotate(0 42.53218841552757 17.500000000000227)"><text x="42.532188415527344" y="0" font-family="Virgil, Segoe UI Emoji" font-size="28px" fill="#1e1e1e" text-anchor="middle" style="white-space: pre;" direction="ltr" dominant-baseline="text-before-edge">delete</text></g><g stroke-linecap="round" transform="translate(113.23168989016472 1118.298376796551) rotate(0 86.4409933417644 69.02841914342298)"><path d="M32 0 L140.88 0 L148.38 0.5 L154.88 2 L160.38 4.5 L164.88 8 L168.38 12.5 L170.88 18 L172.38 24.5 L172.88 32 L172.38 113.56 L170.88 120.06 L168.38 125.56 L164.88 130.06 L160.38 133.56 L154.88 136.06 L148.38 137.56 L140.88 138.06 L32 138.06 L24.5 137.56 L18 136.06 L12.5 133.56 L8 130.06 L4.5 125.56 L2 120.06 L0.5 113.56 L0 106.06 L0.5 24.5 L2 18 L4.5 12.5 L8 8 L12.5 4.5 L18 2 L24.5 0.5 L32 0" stroke="none" stroke-width="0" fill="#fff"></path><path d="M32 0 M32 0 C57.12 0, 82.25 0, 140.88 0 M32 0 C63.02 0, 94.04 0, 140.88 0 M140.88 0 C162.22 0, 172.88 10.67, 172.88 32 M140.88 0 C162.22 0, 172.88 10.67, 172.88 32 M172.88 32 C172.88 51.01, 172.88 70.02, 172.88 106.06 M172.88 32 C172.88 47.47, 172.88 62.94, 172.88 106.06 M172.88 106.06 C172.88 127.39, 162.22 138.06, 140.88 138.06 M172.88 106.06 C172.88 127.39, 162.22 138.06, 140.88 138.06 M140.88 138.06 C97.79 138.06, 54.7 138.06, 32 138.06 M140.88 138.06 C99.65 138.06, 58.43 138.06, 32 138.06 M32 138.06 C10.67 138.06, 0 127.39, 0 106.06 M32 138.06 C10.67 138.06, 0 127.39, 0 106.06 M0 106.06 C0 87.07, 0 68.08, 0 32 M0 106.06 C0 78, 0 49.95, 0 32 M0 32 C0 10.67, 10.67 0, 32 0 M0 32 C0 10.67, 10.67 0, 32 0" stroke="#1e1e1e" stroke-width="4" fill="none"></path></g><g transform="translate(121.56634473095255 1152.326795939974) rotate(0 78.10633850097656 35)"><text x="78.10633850097656" y="0" font-family="Virgil, Segoe UI Emoji" font-size="28px" fill="#1e1e1e" text-anchor="middle" style="white-space: pre;" direction="ltr" dominant-baseline="text-before-edge">create</text><text x="78.10633850097656" y="35" font-family="Virgil, Segoe UI Emoji" font-size="28px" fill="#1e1e1e" text-anchor="middle" style="white-space: pre;" direction="ltr" dominant-baseline="text-before-edge">SSH keypair</text></g><g stroke-linecap="round"><g transform="translate(200.29456088186976 972.7790067104156) rotate(0 0.6218776499407568 70.89405209324559)"><path d="M0 0 C0.21 23.63, 1.04 118.16, 1.24 141.79 M0 0 C0.21 23.63, 1.04 118.16, 1.24 141.79" stroke="#1e1e1e" stroke-width="4" fill="none"></path></g><g transform="translate(200.29456088186976 972.7790067104156) rotate(0 0.6218776499407568 70.89405209324559)"><path d="M1.24 141.79 L-5.21 128.25 L7.46 128.14 L1.24 141.79" stroke="none" stroke-width="0" fill="#1e1e1e" fill-rule="evenodd"></path><path d="M1.24 141.79 C-0.94 137.21, -3.12 132.64, -5.21 128.25 M1.24 141.79 C-0.25 138.65, -1.75 135.52, -5.21 128.25 M-5.21 128.25 C-2.53 128.23, 0.15 128.2, 7.46 128.14 M-5.21 128.25 C-1.41 128.22, 2.39 128.18, 7.46 128.14 M7.46 128.14 C5.76 131.88, 4.05 135.63, 1.24 141.79 M7.46 128.14 C5.43 132.6, 3.4 137.05, 1.24 141.79 M1.24 141.79 C1.24 141.79, 1.24 141.79, 1.24 141.79 M1.24 141.79 C1.24 141.79, 1.24 141.79, 1.24 141.79" stroke="#1e1e1e" stroke-width="4" fill="none"></path></g></g><mask></mask><g stroke-linecap="round" transform="translate(10 1344.3509025500139) rotate(0 95.76915809087575 69.02841914342298)"><path d="M32 0 L159.54 0 L167.04 0.5 L173.54 2 L179.04 4.5 L183.54 8 L187.04 12.5 L189.54 18 L191.04 24.5 L191.54 32 L191.04 113.56 L189.54 120.06 L187.04 125.56 L183.54 130.06 L179.04 133.56 L173.54 136.06 L167.04 137.56 L159.54 138.06 L32 138.06 L24.5 137.56 L18 136.06 L12.5 133.56 L8 130.06 L4.5 125.56 L2 120.06 L0.5 113.56 L0 106.06 L0.5 24.5 L2 18 L4.5 12.5 L8 8 L12.5 4.5 L18 2 L24.5 0.5 L32 0" stroke="none" stroke-width="0" fill="#fff"></path><path d="M32 0 M32 0 C70.08 0, 108.16 0, 159.54 0 M32 0 C59.88 0, 87.77 0, 159.54 0 M159.54 0 C180.87 0, 191.54 10.67, 191.54 32 M159.54 0 C180.87 0, 191.54 10.67, 191.54 32 M191.54 32 C191.54 52.56, 191.54 73.12, 191.54 106.06 M191.54 32 C191.54 52.4, 191.54 72.81, 191.54 106.06 M191.54 106.06 C191.54 127.39, 180.87 138.06, 159.54 138.06 M191.54 106.06 C191.54 127.39, 180.87 138.06, 159.54 138.06 M159.54 138.06 C128.76 138.06, 97.98 138.06, 32 138.06 M159.54 138.06 C110.92 138.06, 62.3 138.06, 32 138.06 M32 138.06 C10.67 138.06, 0 127.39, 0 106.06 M32 138.06 C10.67 138.06, 0 127.39, 0 106.06 M0 106.06 C0 87.39, 0 68.73, 0 32 M0 106.06 C0 90.95, 0 75.84, 0 32 M0 32 C0 10.67, 10.67 0, 32 0 M0 32 C0 10.67, 10.67 0, 32 0" stroke="#1e1e1e" stroke-width="4" fill="none"></path></g><g transform="translate(20.312805856989144 1360.8793216934369) rotate(0 85.45635223388672 52.5)"><text x="85.45635223388672" y="0" font-family="Virgil, Segoe UI Emoji" font-size="28px" fill="#1e1e1e" text-anchor="middle" style="white-space: pre;" direction="ltr" dominant-baseline="text-before-edge">create</text><text x="85.45635223388672" y="35" font-family="Virgil, Segoe UI Emoji" font-size="28px" fill="#1e1e1e" text-anchor="middle" style="white-space: pre;" direction="ltr" dominant-baseline="text-before-edge">loadbalancer</text><text x="85.45635223388672" y="70" font-family="Virgil, Segoe UI Emoji" font-size="28px" fill="#1e1e1e" text-anchor="middle" style="white-space: pre;" direction="ltr" dominant-baseline="text-before-edge">firewall</text></g><g stroke-linecap="round" transform="translate(213.9758691805664 1344.3509025500139) rotate(0 95.76915809087586 69.02841914342298)"><path d="M32 0 L159.54 0 L167.04 0.5 L173.54 2 L179.04 4.5 L183.54 8 L187.04 12.5 L189.54 18 L191.04 24.5 L191.54 32 L191.04 113.56 L189.54 120.06 L187.04 125.56 L183.54 130.06 L179.04 133.56 L173.54 136.06 L167.04 137.56 L159.54 138.06 L32 138.06 L24.5 137.56 L18 136.06 L12.5 133.56 L8 130.06 L4.5 125.56 L2 120.06 L0.5 113.56 L0 106.06 L0.5 24.5 L2 18 L4.5 12.5 L8 8 L12.5 4.5 L18 2 L24.5 0.5 L32 0" stroke="none" stroke-width="0" fill="#fff"></path><path d="M32 0 M32 0 C60.92 0, 89.84 0, 159.54 0 M32 0 C79.05 0, 126.1 0, 159.54 0 M159.54 0 C180.87 0, 191.54 10.67, 191.54 32 M159.54 0 C180.87 0, 191.54 10.67, 191.54 32 M191.54 32 C191.54 61.37, 191.54 90.74, 191.54 106.06 M191.54 32 C191.54 56.32, 191.54 80.63, 191.54 106.06 M191.54 106.06 C191.54 127.39, 180.87 138.06, 159.54 138.06 M191.54 106.06 C191.54 127.39, 180.87 138.06, 159.54 138.06 M159.54 138.06 C125.29 138.06, 91.05 138.06, 32 138.06 M159.54 138.06 C113.28 138.06, 67.01 138.06, 32 138.06 M32 138.06 C10.67 138.06, 0 127.39, 0 106.06 M32 138.06 C10.67 138.06, 0 127.39, 0 106.06 M0 106.06 C0 81.94, 0 57.82, 0 32 M0 106.06 C0 85.32, 0 64.58, 0 32 M0 32 C0 10.67, 10.67 0, 32 0 M0 32 C0 10.67, 10.67 0, 32 0" stroke="#1e1e1e" stroke-width="4" fill="none"></path></g><g transform="translate(238.2467286264225 1360.8793216934369) rotate(0 71.49829864501953 52.5)"><text x="71.49829864501953" y="0" font-family="Virgil, Segoe UI Emoji" font-size="28px" fill="#1e1e1e" text-anchor="middle" style="white-space: pre;" direction="ltr" dominant-baseline="text-before-edge">create</text><text x="71.49829864501953" y="35" font-family="Virgil, Segoe UI Emoji" font-size="28px" fill="#1e1e1e" text-anchor="middle" style="white-space: pre;" direction="ltr" dominant-baseline="text-before-edge">datastore</text><text x="71.49829864501953" y="70" font-family="Virgil, Segoe UI Emoji" font-size="28px" fill="#1e1e1e" text-anchor="middle" style="white-space: pre;" direction="ltr" dominant-baseline="text-before-edge">firewall</text></g><g stroke-linecap="round" transform="translate(10.000000000000227 1501.9968868099945) rotate(0 95.76915809087575 69.02841914342298)"><path d="M32 0 L159.54 0 L167.04 0.5 L173.54 2 L179.04 4.5 L183.54 8 L187.04 12.5 L189.54 18 L191.04 24.5 L191.54 32 L191.04 113.56 L189.54 120.06 L187.04 125.56 L183.54 130.06 L179.04 133.56 L173.54 136.06 L167.04 137.56 L159.54 138.06 L32 138.06 L24.5 137.56 L18 136.06 L12.5 133.56 L8 130.06 L4.5 125.56 L2 120.06 L0.5 113.56 L0 106.06 L0.5 24.5 L2 18 L4.5 12.5 L8 8 L12.5 4.5 L18 2 L24.5 0.5 L32 0" stroke="none" stroke-width="0" fill="#fff"></path><path d="M32 0 M32 0 C65.36 0, 98.72 0, 159.54 0 M32 0 C71.28 0, 110.56 0, 159.54 0 M159.54 0 C180.87 0, 191.54 10.67, 191.54 32 M159.54 0 C180.87 0, 191.54 10.67, 191.54 32 M191.54 32 C191.54 51.71, 191.54 71.42, 191.54 106.06 M191.54 32 C191.54 54.83, 191.54 77.66, 191.54 106.06 M191.54 106.06 C191.54 127.39, 180.87 138.06, 159.54 138.06 M191.54 106.06 C191.54 127.39, 180.87 138.06, 159.54 138.06 M159.54 138.06 C120.06 138.06, 80.58 138.06, 32 138.06 M159.54 138.06 C115.83 138.06, 72.12 138.06, 32 138.06 M32 138.06 C10.67 138.06, 0 127.39, 0 106.06 M32 138.06 C10.67 138.06, 0 127.39, 0 106.06 M0 106.06 C0 86.83, 0 67.6, 0 32 M0 106.06 C0 77.43, 0 48.81, 0 32 M0 32 C0 10.67, 10.67 0, 32 0 M0 32 C0 10.67, 10.67 0, 32 0" stroke="#1e1e1e" stroke-width="4" fill="none"></path></g><g transform="translate(24.96081611089562 1518.5253059534175) rotate(0 80.80834197998047 52.5)"><text x="80.80834197998047" y="0" font-family="Virgil, Segoe UI Emoji" font-size="28px" fill="#1e1e1e" text-anchor="middle" style="white-space: pre;" direction="ltr" dominant-baseline="text-before-edge">create</text><text x="80.80834197998047" y="35" font-family="Virgil, Segoe UI Emoji" font-size="28px" fill="#1e1e1e" text-anchor="middle" style="white-space: pre;" direction="ltr" dominant-baseline="text-before-edge">controlplane</text><text x="80.80834197998047" y="70" font-family="Virgil, Segoe UI Emoji" font-size="28px" fill="#1e1e1e" text-anchor="middle" style="white-space: pre;" direction="ltr" dominant-baseline="text-before-edge">firewall</text></g><g stroke-linecap="round" transform="translate(213.97586918056663 1501.9968868099945) rotate(0 95.76915809087575 69.02841914342298)"><path d="M32 0 L159.54 0 L167.04 0.5 L173.54 2 L179.04 4.5 L183.54 8 L187.04 12.5 L189.54 18 L191.04 24.5 L191.54 32 L191.04 113.56 L189.54 120.06 L187.04 125.56 L183.54 130.06 L179.04 133.56 L173.54 136.06 L167.04 137.56 L159.54 138.06 L32 138.06 L24.5 137.56 L18 136.06 L12.5 133.56 L8 130.06 L4.5 125.56 L2 120.06 L0.5 113.56 L0 106.06 L0.5 24.5 L2 18 L4.5 12.5 L8 8 L12.5 4.5 L18 2 L24.5 0.5 L32 0" stroke="none" stroke-width="0" fill="#fff"></path><path d="M32 0 M32 0 C80.16 0, 128.31 0, 159.54 0 M32 0 C82.03 0, 132.07 0, 159.54 0 M159.54 0 C180.87 0, 191.54 10.67, 191.54 32 M159.54 0 C180.87 0, 191.54 10.67, 191.54 32 M191.54 32 C191.54 54.4, 191.54 76.8, 191.54 106.06 M191.54 32 C191.54 49.8, 191.54 67.6, 191.54 106.06 M191.54 106.06 C191.54 127.39, 180.87 138.06, 159.54 138.06 M191.54 106.06 C191.54 127.39, 180.87 138.06, 159.54 138.06 M159.54 138.06 C125.55 138.06, 91.57 138.06, 32 138.06 M159.54 138.06 C110.11 138.06, 60.68 138.06, 32 138.06 M32 138.06 C10.67 138.06, 0 127.39, 0 106.06 M32 138.06 C10.67 138.06, 0 127.39, 0 106.06 M0 106.06 C0 84.95, 0 63.85, 0 32 M0 106.06 C0 83.91, 0 61.77, 0 32 M0 32 C0 10.67, 10.67 0, 32 0 M0 32 C0 10.67, 10.67 0, 32 0" stroke="#1e1e1e" stroke-width="4" fill="none"></path></g><g transform="translate(232.82869121187218 1518.5253059534175) rotate(0 76.91633605957031 52.5)"><text x="76.91633605957031" y="0" font-family="Virgil, Segoe UI Emoji" font-size="28px" fill="#1e1e1e" text-anchor="middle" style="white-space: pre;" direction="ltr" dominant-baseline="text-before-edge">create</text><text x="76.91633605957031" y="35" font-family="Virgil, Segoe UI Emoji" font-size="28px" fill="#1e1e1e" text-anchor="middle" style="white-space: pre;" direction="ltr" dominant-baseline="text-before-edge">workerplane</text><text x="76.91633605957031" y="70" font-family="Virgil, Segoe UI Emoji" font-size="28px" fill="#1e1e1e" text-anchor="middle" style="white-space: pre;" direction="ltr" dominant-baseline="text-before-edge">firewall</text></g><g stroke-linecap="round"><g transform="translate(205.26958208139558 1261.3302362829231) rotate(0 0.6218776499407568 32.95951544685977)"><path d="M0 0 C0.21 10.99, 1.04 54.93, 1.24 65.92 M0 0 C0.21 10.99, 1.04 54.93, 1.24 65.92" stroke="#1e1e1e" stroke-width="4" fill="none"></path></g><g transform="translate(205.26958208139558 1261.3302362829231) rotate(0 0.6218776499407568 32.95951544685977)"><path d="M1.24 65.92 L-5.35 52.45 L7.33 52.21 L1.24 65.92" stroke="none" stroke-width="0" fill="#1e1e1e" fill-rule="evenodd"></path><path d="M1.24 65.92 C-1.38 60.56, -4.01 55.19, -5.35 52.45 M1.24 65.92 C-0.23 62.91, -1.7 59.91, -5.35 52.45 M-5.35 52.45 C-1.19 52.37, 2.96 52.29, 7.33 52.21 M-5.35 52.45 C-2.61 52.39, 0.13 52.34, 7.33 52.21 M7.33 52.21 C5.34 56.68, 3.36 61.15, 1.24 65.92 M7.33 52.21 C5.65 55.97, 3.98 59.74, 1.24 65.92 M1.24 65.92 C1.24 65.92, 1.24 65.92, 1.24 65.92 M1.24 65.92 C1.24 65.92, 1.24 65.92, 1.24 65.92" stroke="#1e1e1e" stroke-width="4" fill="none"></path></g></g><mask></mask><g stroke-linecap="round" transform="translate(109.50042399051995 1960.3207148163278) rotate(0 80.22221684235694 65.91903089371954)"><path d="M32 0 L128.44 0 L135.94 0.5 L142.44 2 L147.94 4.5 L152.44 8 L155.94 12.5 L158.44 18 L159.94 24.5 L160.44 32 L159.94 107.34 L158.44 113.84 L155.94 119.34 L152.44 123.84 L147.94 127.34 L142.44 129.84 L135.94 131.34 L128.44 131.84 L32 131.84 L24.5 131.34 L18 129.84 L12.5 127.34 L8 123.84 L4.5 119.34 L2 113.84 L0.5 107.34 L0 99.84 L0.5 24.5 L2 18 L4.5 12.5 L8 8 L12.5 4.5 L18 2 L24.5 0.5 L32 0" stroke="none" stroke-width="0" fill="#fff"></path><path d="M32 0 M32 0 C53 0, 74 0, 128.44 0 M32 0 C58.31 0, 84.62 0, 128.44 0 M128.44 0 C149.78 0, 160.44 10.67, 160.44 32 M128.44 0 C149.78 0, 160.44 10.67, 160.44 32 M160.44 32 C160.44 46.45, 160.44 60.89, 160.44 99.84 M160.44 32 C160.44 51.46, 160.44 70.91, 160.44 99.84 M160.44 99.84 C160.44 121.17, 149.78 131.84, 128.44 131.84 M160.44 99.84 C160.44 121.17, 149.78 131.84, 128.44 131.84 M128.44 131.84 C96.14 131.84, 63.84 131.84, 32 131.84 M128.44 131.84 C103.46 131.84, 78.47 131.84, 32 131.84 M32 131.84 C10.67 131.84, 0 121.17, 0 99.84 M32 131.84 C10.67 131.84, 0 121.17, 0 99.84 M0 99.84 C0 77.43, 0 55.02, 0 32 M0 99.84 C0 84.67, 0 69.5, 0 32 M0 32 C0 10.67, 10.67 0, 32 0 M0 32 C0 10.67, 10.67 0, 32 0" stroke="#1e1e1e" stroke-width="4" fill="none"></path></g><g stroke-linecap="round" transform="translate(131.26614173844632 1945.3956512177479) rotate(0 88.5 66)"><path d="M32 0 L145 0 L152.5 0.5 L159 2 L164.5 4.5 L169 8 L172.5 12.5 L175 18 L176.5 24.5 L177 32 L176.5 107.5 L175 114 L172.5 119.5 L169 124 L164.5 127.5 L159 130 L152.5 131.5 L145 132 L32 132 L24.5 131.5 L18 130 L12.5 127.5 L8 124 L4.5 119.5 L2 114 L0.5 107.5 L0 100 L0.5 24.5 L2 18 L4.5 12.5 L8 8 L12.5 4.5 L18 2 L24.5 0.5 L32 0" stroke="none" stroke-width="0" fill="#fff"></path><path d="M32 0 M32 0 C76.3 0, 120.6 0, 145 0 M32 0 C75.86 0, 119.72 0, 145 0 M145 0 C166.33 0, 177 10.67, 177 32 M145 0 C166.33 0, 177 10.67, 177 32 M177 32 C177 59.01, 177 86.02, 177 100 M177 32 C177 49.14, 177 66.27, 177 100 M177 100 C177 121.33, 166.33 132, 145 132 M177 100 C177 121.33, 166.33 132, 145 132 M145 132 C109.59 132, 74.18 132, 32 132 M145 132 C101.72 132, 58.43 132, 32 132 M32 132 C10.67 132, 0 121.33, 0 100 M32 132 C10.67 132, 0 121.33, 0 100 M0 100 C0 85.58, 0 71.17, 0 32 M0 100 C0 73.58, 0 47.17, 0 32 M0 32 C0 10.67, 10.67 0, 32 0 M0 32 C0 10.67, 10.67 0, 32 0" stroke="#1e1e1e" stroke-width="4" fill="none"></path></g><g transform="translate(148.2678430934268 1958.8956512177479) rotate(0 71.49829864501953 52.5)"><text x="71.49829864501953" y="0" font-family="Virgil, Segoe UI Emoji" font-size="28px" fill="#1e1e1e" text-anchor="middle" style="white-space: pre;" direction="ltr" dominant-baseline="text-before-edge">create</text><text x="71.49829864501953" y="35" font-family="Virgil, Segoe UI Emoji" font-size="28px" fill="#1e1e1e" text-anchor="middle" style="white-space: pre;" direction="ltr" dominant-baseline="text-before-edge">datastore</text><text x="71.49829864501953" y="70" font-family="Virgil, Segoe UI Emoji" font-size="28px" fill="#1e1e1e" text-anchor="middle" style="white-space: pre;" direction="ltr" dominant-baseline="text-before-edge">VMs</text></g><g stroke-linecap="round" transform="translate(111.98793459028298 1717.7884313394338) rotate(0 101 75)"><path d="M32 0 L170 0 L177.5 0.5 L184 2 L189.5 4.5 L194 8 L197.5 12.5 L200 18 L201.5 24.5 L202 32 L201.5 125.5 L200 132 L197.5 137.5 L194 142 L189.5 145.5 L184 148 L177.5 149.5 L170 150 L32 150 L24.5 149.5 L18 148 L12.5 145.5 L8 142 L4.5 137.5 L2 132 L0.5 125.5 L0 118 L0.5 24.5 L2 18 L4.5 12.5 L8 8 L12.5 4.5 L18 2 L24.5 0.5 L32 0" stroke="none" stroke-width="0" fill="#fff"></path><path d="M32 0 M32 0 C62.42 0, 92.85 0, 170 0 M32 0 C82.6 0, 133.2 0, 170 0 M170 0 C191.33 0, 202 10.67, 202 32 M170 0 C191.33 0, 202 10.67, 202 32 M202 32 C202 50.59, 202 69.18, 202 118 M202 32 C202 59.55, 202 87.1, 202 118 M202 118 C202 139.33, 191.33 150, 170 150 M202 118 C202 139.33, 191.33 150, 170 150 M170 150 C140.63 150, 111.26 150, 32 150 M170 150 C119.09 150, 68.19 150, 32 150 M32 150 C10.67 150, 0 139.33, 0 118 M32 150 C10.67 150, 0 139.33, 0 118 M0 118 C0 91.68, 0 65.36, 0 32 M0 118 C0 91.53, 0 65.06, 0 32 M0 32 C0 10.67, 10.67 0, 32 0 M0 32 C0 10.67, 10.67 0, 32 0" stroke="#1e1e1e" stroke-width="4" fill="none"></path></g><g transform="translate(127.53158235639626 1740.2884313394338) rotate(0 85.45635223388672 52.5)"><text x="85.45635223388672" y="0" font-family="Virgil, Segoe UI Emoji" font-size="28px" fill="#1e1e1e" text-anchor="middle" style="white-space: pre;" direction="ltr" dominant-baseline="text-before-edge">create</text><text x="85.45635223388672" y="35" font-family="Virgil, Segoe UI Emoji" font-size="28px" fill="#1e1e1e" text-anchor="middle" style="white-space: pre;" direction="ltr" dominant-baseline="text-before-edge">loadbalancer</text><text x="85.45635223388672" y="70" font-family="Virgil, Segoe UI Emoji" font-size="28px" fill="#1e1e1e" text-anchor="middle" style="white-space: pre;" direction="ltr" dominant-baseline="text-before-edge">VM</text></g><g transform="translate(341.3780981610121 2033.7022775093342) rotate(0 25.59210968017578 17.5)"><text x="25.59210968017578" y="0" font-family="Virgil, Segoe UI Emoji" font-size="28px" fill="#1e1e1e" text-anchor="middle" style="white-space: pre;" direction="ltr" dominant-baseline="text-before-edge">x M</text></g><g transform="translate(348.308128983766 1825.9951424291235) rotate(0 18.662078857421875 17.5)"><text x="18.662078857421875" y="0" font-family="Virgil, Segoe UI Emoji" font-size="28px" fill="#1e1e1e" text-anchor="middle" style="white-space: pre;" direction="ltr" dominant-baseline="text-before-edge">x 1</text></g><g stroke-linecap="round"><g transform="translate(204.02582678151407 1651.8694004457143) rotate(0 0.6218776499407568 27.984494247333714)"><path d="M0 0 C0.21 9.33, 1.04 46.64, 1.24 55.97 M0 0 C0.21 9.33, 1.04 46.64, 1.24 55.97" stroke="#1e1e1e" stroke-width="4" fill="none"></path></g><g transform="translate(204.02582678151407 1651.8694004457143) rotate(0 0.6218776499407568 27.984494247333714)"><path d="M1.24 55.97 L-5.4 42.52 L7.28 42.24 L1.24 55.97" stroke="none" stroke-width="0" fill="#1e1e1e" fill-rule="evenodd"></path><path d="M1.24 55.97 C-1.05 51.32, -3.34 46.68, -5.4 42.52 M1.24 55.97 C-1.31 50.8, -3.86 45.64, -5.4 42.52 M-5.4 42.52 C-1.33 42.43, 2.73 42.34, 7.28 42.24 M-5.4 42.52 C-1.23 42.43, 2.94 42.33, 7.28 42.24 M7.28 42.24 C4.96 47.53, 2.63 52.81, 1.24 55.97 M7.28 42.24 C5.84 45.52, 4.39 48.8, 1.24 55.97 M1.24 55.97 C1.24 55.97, 1.24 55.97, 1.24 55.97 M1.24 55.97 C1.24 55.97, 1.24 55.97, 1.24 55.97" stroke="#1e1e1e" stroke-width="4" fill="none"></path></g></g><mask></mask><g stroke-linecap="round"><g transform="translate(204.02582678151407 1872.0140885247397) rotate(0 0.6218776499407568 33.58139309680064)"><path d="M0 0 C0.21 11.19, 1.04 55.97, 1.24 67.16 M0 0 C0.21 11.19, 1.04 55.97, 1.24 67.16" stroke="#1e1e1e" stroke-width="4" fill="none"></path></g><g transform="translate(204.02582678151407 1872.0140885247397) rotate(0 0.6218776499407568 33.58139309680064)"><path d="M1.24 67.16 L-5.35 53.69 L7.33 53.45 L1.24 67.16" stroke="none" stroke-width="0" fill="#1e1e1e" fill-rule="evenodd"></path><path d="M1.24 67.16 C-0.89 62.8, -3.02 58.44, -5.35 53.69 M1.24 67.16 C-1.17 62.23, -3.58 57.3, -5.35 53.69 M-5.35 53.69 C-1.48 53.62, 2.39 53.54, 7.33 53.45 M-5.35 53.69 C-2.66 53.64, 0.03 53.59, 7.33 53.45 M7.33 53.45 C5.08 58.51, 2.84 63.57, 1.24 67.16 M7.33 53.45 C5.05 58.58, 2.78 63.71, 1.24 67.16 M1.24 67.16 C1.24 67.16, 1.24 67.16, 1.24 67.16 M1.24 67.16 C1.24 67.16, 1.24 67.16, 1.24 67.16" stroke="#1e1e1e" stroke-width="4" fill="none"></path></g></g><mask></mask><g stroke-linecap="round" transform="translate(106.88653780579352 2207.8280194927443) rotate(0 80.22221684235694 65.91903089371954)"><path d="M32 0 L128.44 0 L135.94 0.5 L142.44 2 L147.94 4.5 L152.44 8 L155.94 12.5 L158.44 18 L159.94 24.5 L160.44 32 L159.94 107.34 L158.44 113.84 L155.94 119.34 L152.44 123.84 L147.94 127.34 L142.44 129.84 L135.94 131.34 L128.44 131.84 L32 131.84 L24.5 131.34 L18 129.84 L12.5 127.34 L8 123.84 L4.5 119.34 L2 113.84 L0.5 107.34 L0 99.84 L0.5 24.5 L2 18 L4.5 12.5 L8 8 L12.5 4.5 L18 2 L24.5 0.5 L32 0" stroke="none" stroke-width="0" fill="#fff"></path><path d="M32 0 M32 0 C60.8 0, 89.6 0, 128.44 0 M32 0 C66.87 0, 101.74 0, 128.44 0 M128.44 0 C149.78 0, 160.44 10.67, 160.44 32 M128.44 0 C149.78 0, 160.44 10.67, 160.44 32 M160.44 32 C160.44 51.71, 160.44 71.42, 160.44 99.84 M160.44 32 C160.44 47.96, 160.44 63.92, 160.44 99.84 M160.44 99.84 C160.44 121.17, 149.78 131.84, 128.44 131.84 M160.44 99.84 C160.44 121.17, 149.78 131.84, 128.44 131.84 M128.44 131.84 C105.35 131.84, 82.25 131.84, 32 131.84 M128.44 131.84 C101.2 131.84, 73.95 131.84, 32 131.84 M32 131.84 C10.67 131.84, 0 121.17, 0 99.84 M32 131.84 C10.67 131.84, 0 121.17, 0 99.84 M0 99.84 C0 79.94, 0 60.03, 0 32 M0 99.84 C0 85.66, 0 71.47, 0 32 M0 32 C0 10.67, 10.67 0, 32 0 M0 32 C0 10.67, 10.67 0, 32 0" stroke="#1e1e1e" stroke-width="4" fill="none"></path></g><g stroke-linecap="round" transform="translate(128.65225555371944 2192.9029558941634) rotate(0 88.5 66)"><path d="M32 0 L145 0 L152.5 0.5 L159 2 L164.5 4.5 L169 8 L172.5 12.5 L175 18 L176.5 24.5 L177 32 L176.5 107.5 L175 114 L172.5 119.5 L169 124 L164.5 127.5 L159 130 L152.5 131.5 L145 132 L32 132 L24.5 131.5 L18 130 L12.5 127.5 L8 124 L4.5 119.5 L2 114 L0.5 107.5 L0 100 L0.5 24.5 L2 18 L4.5 12.5 L8 8 L12.5 4.5 L18 2 L24.5 0.5 L32 0" stroke="none" stroke-width="0" fill="#fff"></path><path d="M32 0 M32 0 C75.67 0, 119.34 0, 145 0 M32 0 C63.48 0, 94.96 0, 145 0 M145 0 C166.33 0, 177 10.67, 177 32 M145 0 C166.33 0, 177 10.67, 177 32 M177 32 C177 49.57, 177 67.15, 177 100 M177 32 C177 54.46, 177 76.91, 177 100 M177 100 C177 121.33, 166.33 132, 145 132 M177 100 C177 121.33, 166.33 132, 145 132 M145 132 C114.8 132, 84.59 132, 32 132 M145 132 C104.14 132, 63.27 132, 32 132 M32 132 C10.67 132, 0 121.33, 0 100 M32 132 C10.67 132, 0 121.33, 0 100 M0 100 C0 72.82, 0 45.63, 0 32 M0 100 C0 78.17, 0 56.34, 0 32 M0 32 C0 10.67, 10.67 0, 32 0 M0 32 C0 10.67, 10.67 0, 32 0" stroke="#1e1e1e" stroke-width="4" fill="none"></path></g><g transform="translate(136.34391357373897 2206.4029558941634) rotate(0 80.80834197998047 52.5)"><text x="80.80834197998047" y="0" font-family="Virgil, Segoe UI Emoji" font-size="28px" fill="#1e1e1e" text-anchor="middle" style="white-space: pre;" direction="ltr" dominant-baseline="text-before-edge">create</text><text x="80.80834197998047" y="35" font-family="Virgil, Segoe UI Emoji" font-size="28px" fill="#1e1e1e" text-anchor="middle" style="white-space: pre;" direction="ltr" dominant-baseline="text-before-edge">controlplane</text><text x="80.80834197998047" y="70" font-family="Virgil, Segoe UI Emoji" font-size="28px" fill="#1e1e1e" text-anchor="middle" style="white-space: pre;" direction="ltr" dominant-baseline="text-before-edge">VMs</text></g><g transform="translate(343.0861059735121 2281.2095821857506) rotate(0 23.88410186767578 17.5)"><text x="23.88410186767578" y="0" font-family="Virgil, Segoe UI Emoji" font-size="28px" fill="#1e1e1e" text-anchor="middle" style="white-space: pre;" direction="ltr" dominant-baseline="text-before-edge">x N</text></g><g stroke-linecap="round" transform="translate(111.86155900531958 2416.7789098728367) rotate(0 80.22221684235694 65.91903089371954)"><path d="M32 0 L128.44 0 L135.94 0.5 L142.44 2 L147.94 4.5 L152.44 8 L155.94 12.5 L158.44 18 L159.94 24.5 L160.44 32 L159.94 107.34 L158.44 113.84 L155.94 119.34 L152.44 123.84 L147.94 127.34 L142.44 129.84 L135.94 131.34 L128.44 131.84 L32 131.84 L24.5 131.34 L18 129.84 L12.5 127.34 L8 123.84 L4.5 119.34 L2 113.84 L0.5 107.34 L0 99.84 L0.5 24.5 L2 18 L4.5 12.5 L8 8 L12.5 4.5 L18 2 L24.5 0.5 L32 0" stroke="none" stroke-width="0" fill="#fff"></path><path d="M32 0 M32 0 C51.98 0, 71.96 0, 128.44 0 M32 0 C58.31 0, 84.63 0, 128.44 0 M128.44 0 C149.78 0, 160.44 10.67, 160.44 32 M128.44 0 C149.78 0, 160.44 10.67, 160.44 32 M160.44 32 C160.44 57.24, 160.44 82.48, 160.44 99.84 M160.44 32 C160.44 50.06, 160.44 68.12, 160.44 99.84 M160.44 99.84 C160.44 121.17, 149.78 131.84, 128.44 131.84 M160.44 99.84 C160.44 121.17, 149.78 131.84, 128.44 131.84 M128.44 131.84 C101.19 131.84, 73.94 131.84, 32 131.84 M128.44 131.84 C107.87 131.84, 87.31 131.84, 32 131.84 M32 131.84 C10.67 131.84, 0 121.17, 0 99.84 M32 131.84 C10.67 131.84, 0 121.17, 0 99.84 M0 99.84 C0 83.37, 0 66.9, 0 32 M0 99.84 C0 74.61, 0 49.39, 0 32 M0 32 C0 10.67, 10.67 0, 32 0 M0 32 C0 10.67, 10.67 0, 32 0" stroke="#1e1e1e" stroke-width="4" fill="none"></path></g><g stroke-linecap="round" transform="translate(133.6272767532455 2401.853846274256) rotate(0 88.5 66)"><path d="M32 0 L145 0 L152.5 0.5 L159 2 L164.5 4.5 L169 8 L172.5 12.5 L175 18 L176.5 24.5 L177 32 L176.5 107.5 L175 114 L172.5 119.5 L169 124 L164.5 127.5 L159 130 L152.5 131.5 L145 132 L32 132 L24.5 131.5 L18 130 L12.5 127.5 L8 124 L4.5 119.5 L2 114 L0.5 107.5 L0 100 L0.5 24.5 L2 18 L4.5 12.5 L8 8 L12.5 4.5 L18 2 L24.5 0.5 L32 0" stroke="none" stroke-width="0" fill="#fff"></path><path d="M32 0 M32 0 C60.82 0, 89.64 0, 145 0 M32 0 C68.13 0, 104.26 0, 145 0 M145 0 C166.33 0, 177 10.67, 177 32 M145 0 C166.33 0, 177 10.67, 177 32 M177 32 C177 57.17, 177 82.35, 177 100 M177 32 C177 47.76, 177 63.52, 177 100 M177 100 C177 121.33, 166.33 132, 145 132 M177 100 C177 121.33, 166.33 132, 145 132 M145 132 C118.73 132, 92.47 132, 32 132 M145 132 C104.69 132, 64.38 132, 32 132 M32 132 C10.67 132, 0 121.33, 0 100 M32 132 C10.67 132, 0 121.33, 0 100 M0 100 C0 83.78, 0 67.57, 0 32 M0 100 C0 81.05, 0 62.11, 0 32 M0 32 C0 10.67, 10.67 0, 32 0 M0 32 C0 10.67, 10.67 0, 32 0" stroke="#1e1e1e" stroke-width="4" fill="none"></path></g><g transform="translate(145.21094069367518 2415.353846274256) rotate(0 76.91633605957031 52.5)"><text x="76.91633605957031" y="0" font-family="Virgil, Segoe UI Emoji" font-size="28px" fill="#1e1e1e" text-anchor="middle" style="white-space: pre;" direction="ltr" dominant-baseline="text-before-edge">create</text><text x="76.91633605957031" y="35" font-family="Virgil, Segoe UI Emoji" font-size="28px" fill="#1e1e1e" text-anchor="middle" style="white-space: pre;" direction="ltr" dominant-baseline="text-before-edge">workerplane</text><text x="76.91633605957031" y="70" font-family="Virgil, Segoe UI Emoji" font-size="28px" fill="#1e1e1e" text-anchor="middle" style="white-space: pre;" direction="ltr" dominant-baseline="text-before-edge">VMs</text></g><g transform="translate(341.93810334900036 2490.160472565843) rotate(0 25.0321044921875 17.5)"><text x="25.0321044921875" y="0" font-family="Virgil, Segoe UI Emoji" font-size="28px" fill="#1e1e1e" text-anchor="middle" style="white-space: pre;" direction="ltr" dominant-baseline="text-before-edge">x O</text></g><g stroke-linecap="round"><g transform="translate(212.73211388068466 2100.8650637029355) rotate(0 0 41.665802546030136)"><path d="M0 0 C0 13.89, 0 69.44, 0 83.33 M0 0 C0 13.89, 0 69.44, 0 83.33" stroke="#1e1e1e" stroke-width="4" fill="none"></path></g><g transform="translate(212.73211388068466 2100.8650637029355) rotate(0 0 41.665802546030136)"><path d="M0 83.33 L-6.34 69.74 L6.34 69.74 L0 83.33" stroke="none" stroke-width="0" fill="#1e1e1e" fill-rule="evenodd"></path><path d="M0 83.33 C-1.51 80.08, -3.03 76.84, -6.34 69.74 M0 83.33 C-1.35 80.44, -2.7 77.54, -6.34 69.74 M-6.34 69.74 C-1.82 69.74, 2.71 69.74, 6.34 69.74 M-6.34 69.74 C-2.86 69.74, 0.63 69.74, 6.34 69.74 M6.34 69.74 C4.92 72.77, 3.51 75.81, 0 83.33 M6.34 69.74 C4.35 74, 2.37 78.26, 0 83.33 M0 83.33 C0 83.33, 0 83.33, 0 83.33 M0 83.33 C0 83.33, 0 83.33, 0 83.33" stroke="#1e1e1e" stroke-width="4" fill="none"></path></g></g><mask></mask><g stroke-linecap="round"><g transform="translate(218.95089038009223 2344.6411024797094) rotate(0 0 25.49698364757114)"><path d="M0 0 C0 8.5, 0 42.49, 0 50.99 M0 0 C0 8.5, 0 42.49, 0 50.99" stroke="#1e1e1e" stroke-width="4" fill="none"></path></g><g transform="translate(218.95089038009223 2344.6411024797094) rotate(0 0 25.49698364757114)"><path d="M0 50.99 L-6.34 37.4 L6.34 37.4 L0 50.99" stroke="none" stroke-width="0" fill="#1e1e1e" fill-rule="evenodd"></path><path d="M0 50.99 C-1.42 47.96, -2.83 44.92, -6.34 37.4 M0 50.99 C-1.99 46.73, -3.97 42.47, -6.34 37.4 M-6.34 37.4 C-3.17 37.4, -0.01 37.4, 6.34 37.4 M-6.34 37.4 C-2.36 37.4, 1.62 37.4, 6.34 37.4 M6.34 37.4 C3.87 42.7, 1.4 48, 0 50.99 M6.34 37.4 C4.45 41.46, 2.56 45.51, 0 50.99 M0 50.99 C0 50.99, 0 50.99, 0 50.99 M0 50.99 C0 50.99, 0 50.99, 0 50.99" stroke="#1e1e1e" stroke-width="4" fill="none"></path></g></g><mask></mask><g mask="url(#mask-WuTDkK3eQ6ERhnY0bgDHC)" stroke-linecap="round"><g transform="translate(133.1317746882687 792.4344882275968) rotate(0 77.54862869588078 -62.76793437016522)"><path d="M0 0 C4.56 -13.47, 1.51 -59.92, 27.36 -80.84 C53.21 -101.77, 133.81 -118.09, 155.1 -125.54 M0 0 C4.56 -13.47, 1.51 -59.92, 27.36 -80.84 C53.21 -101.77, 133.81 -118.09, 155.1 -125.54" stroke="#1e1e1e" stroke-width="4" fill="none"></path></g><g transform="translate(133.1317746882687 792.4344882275968) rotate(0 77.54862869588078 -62.76793437016522)"><path d="M155.1 -125.54 L143.71 -115.77 L140.3 -127.98 L155.1 -125.54" stroke="none" stroke-width="0" fill="#1e1e1e" fill-rule="evenodd"></path><path d="M155.1 -125.54 C151.01 -122.03, 146.92 -118.52, 143.71 -115.77 M155.1 -125.54 C151 -122.02, 146.89 -118.49, 143.71 -115.77 M143.71 -115.77 C142.87 -118.78, 142.03 -121.79, 140.3 -127.98 M143.71 -115.77 C142.58 -119.82, 141.45 -123.87, 140.3 -127.98 M140.3 -127.98 C146.06 -127.03, 151.82 -126.08, 155.1 -125.54 M140.3 -127.98 C145.37 -127.14, 150.43 -126.3, 155.1 -125.54 M155.1 -125.54 C155.1 -125.54, 155.1 -125.54, 155.1 -125.54 M155.1 -125.54 C155.1 -125.54, 155.1 -125.54, 155.1 -125.54" stroke="#1e1e1e" stroke-width="4" fill="none"></path></g></g><mask id="mask-WuTDkK3eQ6ERhnY0bgDHC"><rect x="0" y="0" fill="#fff" width="388.22903208003027" height="1017.9703569679273"></rect><rect x="105.18015941310273" y="676.5903937352996" fill="#000" width="110.62846374511719" height="70" opacity="1"></rect></mask><g transform="translate(105.18015941310273 676.5903937352991) rotate(0 105.50024397104676 53.07616012213248)"><text x="55.314231872558594" y="0" font-family="Virgil, Segoe UI Emoji" font-size="28px" fill="#1e1e1e" text-anchor="middle" style="white-space: pre;" direction="ltr" dominant-baseline="text-before-edge">creation</text><text x="55.314231872558594" y="35" font-family="Virgil, Segoe UI Emoji" font-size="28px" fill="#1e1e1e" text-anchor="middle" style="white-space: pre;" direction="ltr" dominant-baseline="text-before-edge">done</text></g><g mask="url(#mask-BWG0_sBegp9KN5tnMLIOb)" stroke-linecap="round"><g transform="translate(333.5639056338 473.4112538079912) rotate(0 170.75890074587437 -103.21606027180815)"><path d="M0 0 C7.79 -26.12, -10.17 -122.31, 46.75 -156.71 C103.67 -191.12, 292.39 -198.15, 341.52 -206.43 M0 0 C7.79 -26.12, -10.17 -122.31, 46.75 -156.71 C103.67 -191.12, 292.39 -198.15, 341.52 -206.43" stroke="#1e1e1e" stroke-width="4" fill="none"></path></g><g transform="translate(333.5639056338 473.4112538079912) rotate(0 170.75890074587437 -103.21606027180815)"><path d="M341.52 -206.43 L328.67 -198.7 L327.33 -211.31 L341.52 -206.43" stroke="none" stroke-width="0" fill="#1e1e1e" fill-rule="evenodd"></path><path d="M341.52 -206.43 C337.6 -204.07, 333.68 -201.71, 328.67 -198.7 M341.52 -206.43 C336.82 -203.61, 332.13 -200.78, 328.67 -198.7 M328.67 -198.7 C328.31 -202.07, 327.95 -205.44, 327.33 -211.31 M328.67 -198.7 C328.22 -202.92, 327.77 -207.14, 327.33 -211.31 M327.33 -211.31 C331.35 -209.93, 335.37 -208.55, 341.52 -206.43 M327.33 -211.31 C331.76 -209.78, 336.2 -208.26, 341.52 -206.43 M341.52 -206.43 C341.52 -206.43, 341.52 -206.43, 341.52 -206.43 M341.52 -206.43 C341.52 -206.43, 341.52 -206.43, 341.52 -206.43" stroke="#1e1e1e" stroke-width="4" fill="none"></path></g></g><mask id="mask-BWG0_sBegp9KN5tnMLIOb"><rect x="0" y="0" fill="#fff" width="775.0817071255487" height="779.8433743516075"></rect><rect x="324.99746918107394" y="281.6980860229223" fill="#000" width="110.62846374511719" height="70" opacity="1"></rect></mask><g transform="translate(324.99746918107394 281.69808602292187) rotate(0 179.32533719860044 88.4971075132612)"><text x="55.314231872558594" y="0" font-family="Virgil, Segoe UI Emoji" font-size="28px" fill="#1e1e1e" text-anchor="middle" style="white-space: pre;" direction="ltr" dominant-baseline="text-before-edge">creation</text><text x="55.314231872558594" y="35" font-family="Virgil, Segoe UI Emoji" font-size="28px" fill="#1e1e1e" text-anchor="middle" style="white-space: pre;" direction="ltr" dominant-baseline="text-before-edge">done</text></g><g stroke-linecap="round" transform="translate(641.1273154425835 833.4784131236888) rotate(0 80.22221684235683 65.91903089371954)"><path d="M32 0 L128.44 0 L135.94 0.5 L142.44 2 L147.94 4.5 L152.44 8 L155.94 12.5 L158.44 18 L159.94 24.5 L160.44 32 L159.94 107.34 L158.44 113.84 L155.94 119.34 L152.44 123.84 L147.94 127.34 L142.44 129.84 L135.94 131.34 L128.44 131.84 L32 131.84 L24.5 131.34 L18 129.84 L12.5 127.34 L8 123.84 L4.5 119.34 L2 113.84 L0.5 107.34 L0 99.84 L0.5 24.5 L2 18 L4.5 12.5 L8 8 L12.5 4.5 L18 2 L24.5 0.5 L32 0" stroke="none" stroke-width="0" fill="#fff"></path><path d="M32 0 M32 0 C66.6 0, 101.2 0, 128.44 0 M32 0 C60.44 0, 88.88 0, 128.44 0 M128.44 0 C149.78 0, 160.44 10.67, 160.44 32 M128.44 0 C149.78 0, 160.44 10.67, 160.44 32 M160.44 32 C160.44 51.09, 160.44 70.18, 160.44 99.84 M160.44 32 C160.44 51.24, 160.44 70.49, 160.44 99.84 M160.44 99.84 C160.44 121.17, 149.78 131.84, 128.44 131.84 M160.44 99.84 C160.44 121.17, 149.78 131.84, 128.44 131.84 M128.44 131.84 C102.46 131.84, 76.48 131.84, 32 131.84 M128.44 131.84 C107.96 131.84, 87.48 131.84, 32 131.84 M32 131.84 C10.67 131.84, 0 121.17, 0 99.84 M32 131.84 C10.67 131.84, 0 121.17, 0 99.84 M0 99.84 C0 84.73, 0 69.62, 0 32 M0 99.84 C0 79.25, 0 58.66, 0 32 M0 32 C0 10.67, 10.67 0, 32 0 M0 32 C0 10.67, 10.67 0, 32 0" stroke="#1e1e1e" stroke-width="4" fill="none"></path></g><g stroke-linecap="round" transform="translate(662.8930331905094 818.5533495251079) rotate(0 88.5 66)"><path d="M32 0 L145 0 L152.5 0.5 L159 2 L164.5 4.5 L169 8 L172.5 12.5 L175 18 L176.5 24.5 L177 32 L176.5 107.5 L175 114 L172.5 119.5 L169 124 L164.5 127.5 L159 130 L152.5 131.5 L145 132 L32 132 L24.5 131.5 L18 130 L12.5 127.5 L8 124 L4.5 119.5 L2 114 L0.5 107.5 L0 100 L0.5 24.5 L2 18 L4.5 12.5 L8 8 L12.5 4.5 L18 2 L24.5 0.5 L32 0" stroke="none" stroke-width="0" fill="#fff"></path><path d="M32 0 M32 0 C57.24 0, 82.48 0, 145 0 M32 0 C63.57 0, 95.14 0, 145 0 M145 0 C166.33 0, 177 10.67, 177 32 M145 0 C166.33 0, 177 10.67, 177 32 M177 32 C177 51.1, 177 70.21, 177 100 M177 32 C177 55.16, 177 78.32, 177 100 M177 100 C177 121.33, 166.33 132, 145 132 M177 100 C177 121.33, 166.33 132, 145 132 M145 132 C100.97 132, 56.94 132, 32 132 M145 132 C105.64 132, 66.29 132, 32 132 M32 132 C10.67 132, 0 121.33, 0 100 M32 132 C10.67 132, 0 121.33, 0 100 M0 100 C0 84.65, 0 69.3, 0 32 M0 100 C0 84.35, 0 68.71, 0 32 M0 32 C0 10.67, 10.67 0, 32 0 M0 32 C0 10.67, 10.67 0, 32 0" stroke="#1e1e1e" stroke-width="4" fill="none"></path></g><g transform="translate(674.4766971309391 832.0533495251079) rotate(0 76.91633605957031 52.5)"><text x="76.91633605957031" y="0" font-family="Virgil, Segoe UI Emoji" font-size="28px" fill="#1e1e1e" text-anchor="middle" style="white-space: pre;" direction="ltr" dominant-baseline="text-before-edge">delete</text><text x="76.91633605957031" y="35" font-family="Virgil, Segoe UI Emoji" font-size="28px" fill="#1e1e1e" text-anchor="middle" style="white-space: pre;" direction="ltr" dominant-baseline="text-before-edge">workerplane</text><text x="76.91633605957031" y="70" font-family="Virgil, Segoe UI Emoji" font-size="28px" fill="#1e1e1e" text-anchor="middle" style="white-space: pre;" direction="ltr" dominant-baseline="text-before-edge">VMs</text></g><g transform="translate(873.5525580258663 906.8599758166952) rotate(0 25.0321044921875 17.5)"><text x="25.0321044921875" y="0" font-family="Virgil, Segoe UI Emoji" font-size="28px" fill="#1e1e1e" text-anchor="middle" style="white-space: pre;" direction="ltr" dominant-baseline="text-before-edge">x O</text></g><g stroke-linecap="round" transform="translate(542.3272683492833 1843.5631860399503) rotate(0 95.76915809087586 69.02841914342298)"><path d="M32 0 L159.54 0 L167.04 0.5 L173.54 2 L179.04 4.5 L183.54 8 L187.04 12.5 L189.54 18 L191.04 24.5 L191.54 32 L191.04 113.56 L189.54 120.06 L187.04 125.56 L183.54 130.06 L179.04 133.56 L173.54 136.06 L167.04 137.56 L159.54 138.06 L32 138.06 L24.5 137.56 L18 136.06 L12.5 133.56 L8 130.06 L4.5 125.56 L2 120.06 L0.5 113.56 L0 106.06 L0.5 24.5 L2 18 L4.5 12.5 L8 8 L12.5 4.5 L18 2 L24.5 0.5 L32 0" stroke="none" stroke-width="0" fill="#fff"></path><path d="M32 0 M32 0 C61.34 0, 90.67 0, 159.54 0 M32 0 C75.54 0, 119.08 0, 159.54 0 M159.54 0 C180.87 0, 191.54 10.67, 191.54 32 M159.54 0 C180.87 0, 191.54 10.67, 191.54 32 M191.54 32 C191.54 59.5, 191.54 87.01, 191.54 106.06 M191.54 32 C191.54 57, 191.54 82, 191.54 106.06 M191.54 106.06 C191.54 127.39, 180.87 138.06, 159.54 138.06 M191.54 106.06 C191.54 127.39, 180.87 138.06, 159.54 138.06 M159.54 138.06 C112.47 138.06, 65.41 138.06, 32 138.06 M159.54 138.06 C111.42 138.06, 63.3 138.06, 32 138.06 M32 138.06 C10.67 138.06, 0 127.39, 0 106.06 M32 138.06 C10.67 138.06, 0 127.39, 0 106.06 M0 106.06 C0 89.67, 0 73.29, 0 32 M0 106.06 C0 89.91, 0 73.77, 0 32 M0 32 C0 10.67, 10.67 0, 32 0 M0 32 C0 10.67, 10.67 0, 32 0" stroke="#1e1e1e" stroke-width="4" fill="none"></path></g><g transform="translate(552.6400742062724 1860.0916051833733) rotate(0 85.45635223388672 52.5)"><text x="85.45635223388672" y="0" font-family="Virgil, Segoe UI Emoji" font-size="28px" fill="#1e1e1e" text-anchor="middle" style="white-space: pre;" direction="ltr" dominant-baseline="text-before-edge">delete</text><text x="85.45635223388672" y="35" font-family="Virgil, Segoe UI Emoji" font-size="28px" fill="#1e1e1e" text-anchor="middle" style="white-space: pre;" direction="ltr" dominant-baseline="text-before-edge">loadbalancer</text><text x="85.45635223388672" y="70" font-family="Virgil, Segoe UI Emoji" font-size="28px" fill="#1e1e1e" text-anchor="middle" style="white-space: pre;" direction="ltr" dominant-baseline="text-before-edge">firewall</text></g><g stroke-linecap="round" transform="translate(746.3031375298497 1843.5631860399503) rotate(0 95.76915809087586 69.02841914342298)"><path d="M32 0 L159.54 0 L167.04 0.5 L173.54 2 L179.04 4.5 L183.54 8 L187.04 12.5 L189.54 18 L191.04 24.5 L191.54 32 L191.04 113.56 L189.54 120.06 L187.04 125.56 L183.54 130.06 L179.04 133.56 L173.54 136.06 L167.04 137.56 L159.54 138.06 L32 138.06 L24.5 137.56 L18 136.06 L12.5 133.56 L8 130.06 L4.5 125.56 L2 120.06 L0.5 113.56 L0 106.06 L0.5 24.5 L2 18 L4.5 12.5 L8 8 L12.5 4.5 L18 2 L24.5 0.5 L32 0" stroke="none" stroke-width="0" fill="#fff"></path><path d="M32 0 M32 0 C74.83 0, 117.65 0, 159.54 0 M32 0 C61.8 0, 91.61 0, 159.54 0 M159.54 0 C180.87 0, 191.54 10.67, 191.54 32 M159.54 0 C180.87 0, 191.54 10.67, 191.54 32 M191.54 32 C191.54 52.94, 191.54 73.87, 191.54 106.06 M191.54 32 C191.54 51.74, 191.54 71.49, 191.54 106.06 M191.54 106.06 C191.54 127.39, 180.87 138.06, 159.54 138.06 M191.54 106.06 C191.54 127.39, 180.87 138.06, 159.54 138.06 M159.54 138.06 C115.67 138.06, 71.81 138.06, 32 138.06 M159.54 138.06 C130.8 138.06, 102.06 138.06, 32 138.06 M32 138.06 C10.67 138.06, 0 127.39, 0 106.06 M32 138.06 C10.67 138.06, 0 127.39, 0 106.06 M0 106.06 C0 82.7, 0 59.34, 0 32 M0 106.06 C0 83.32, 0 60.58, 0 32 M0 32 C0 10.67, 10.67 0, 32 0 M0 32 C0 10.67, 10.67 0, 32 0" stroke="#1e1e1e" stroke-width="4" fill="none"></path></g><g transform="translate(770.573996975706 1860.0916051833733) rotate(0 71.49829864501953 52.5)"><text x="71.49829864501953" y="0" font-family="Virgil, Segoe UI Emoji" font-size="28px" fill="#1e1e1e" text-anchor="middle" style="white-space: pre;" direction="ltr" dominant-baseline="text-before-edge">delete</text><text x="71.49829864501953" y="35" font-family="Virgil, Segoe UI Emoji" font-size="28px" fill="#1e1e1e" text-anchor="middle" style="white-space: pre;" direction="ltr" dominant-baseline="text-before-edge">datastore</text><text x="71.49829864501953" y="70" font-family="Virgil, Segoe UI Emoji" font-size="28px" fill="#1e1e1e" text-anchor="middle" style="white-space: pre;" direction="ltr" dominant-baseline="text-before-edge">firewall</text></g><g stroke-linecap="round" transform="translate(542.3272683492833 2001.20917029993) rotate(0 95.76915809087586 69.02841914342298)"><path d="M32 0 L159.54 0 L167.04 0.5 L173.54 2 L179.04 4.5 L183.54 8 L187.04 12.5 L189.54 18 L191.04 24.5 L191.54 32 L191.04 113.56 L189.54 120.06 L187.04 125.56 L183.54 130.06 L179.04 133.56 L173.54 136.06 L167.04 137.56 L159.54 138.06 L32 138.06 L24.5 137.56 L18 136.06 L12.5 133.56 L8 130.06 L4.5 125.56 L2 120.06 L0.5 113.56 L0 106.06 L0.5 24.5 L2 18 L4.5 12.5 L8 8 L12.5 4.5 L18 2 L24.5 0.5 L32 0" stroke="none" stroke-width="0" fill="#fff"></path><path d="M32 0 M32 0 C67.08 0, 102.16 0, 159.54 0 M32 0 C58.99 0, 85.98 0, 159.54 0 M159.54 0 C180.87 0, 191.54 10.67, 191.54 32 M159.54 0 C180.87 0, 191.54 10.67, 191.54 32 M191.54 32 C191.54 55.95, 191.54 79.89, 191.54 106.06 M191.54 32 C191.54 51.58, 191.54 71.16, 191.54 106.06 M191.54 106.06 C191.54 127.39, 180.87 138.06, 159.54 138.06 M191.54 106.06 C191.54 127.39, 180.87 138.06, 159.54 138.06 M159.54 138.06 C114.27 138.06, 69 138.06, 32 138.06 M159.54 138.06 C116.28 138.06, 73.02 138.06, 32 138.06 M32 138.06 C10.67 138.06, 0 127.39, 0 106.06 M32 138.06 C10.67 138.06, 0 127.39, 0 106.06 M0 106.06 C0 82.84, 0 59.63, 0 32 M0 106.06 C0 82.13, 0 58.2, 0 32 M0 32 C0 10.67, 10.67 0, 32 0 M0 32 C0 10.67, 10.67 0, 32 0" stroke="#1e1e1e" stroke-width="4" fill="none"></path></g><g transform="translate(557.2880844601787 2017.737589443353) rotate(0 80.80834197998047 52.5)"><text x="80.80834197998047" y="0" font-family="Virgil, Segoe UI Emoji" font-size="28px" fill="#1e1e1e" text-anchor="middle" style="white-space: pre;" direction="ltr" dominant-baseline="text-before-edge">delete</text><text x="80.80834197998047" y="35" font-family="Virgil, Segoe UI Emoji" font-size="28px" fill="#1e1e1e" text-anchor="middle" style="white-space: pre;" direction="ltr" dominant-baseline="text-before-edge">controlplane</text><text x="80.80834197998047" y="70" font-family="Virgil, Segoe UI Emoji" font-size="28px" fill="#1e1e1e" text-anchor="middle" style="white-space: pre;" direction="ltr" dominant-baseline="text-before-edge">firewall</text></g><g stroke-linecap="round" transform="translate(746.3031375298497 2001.20917029993) rotate(0 95.76915809087586 69.02841914342298)"><path d="M32 0 L159.54 0 L167.04 0.5 L173.54 2 L179.04 4.5 L183.54 8 L187.04 12.5 L189.54 18 L191.04 24.5 L191.54 32 L191.04 113.56 L189.54 120.06 L187.04 125.56 L183.54 130.06 L179.04 133.56 L173.54 136.06 L167.04 137.56 L159.54 138.06 L32 138.06 L24.5 137.56 L18 136.06 L12.5 133.56 L8 130.06 L4.5 125.56 L2 120.06 L0.5 113.56 L0 106.06 L0.5 24.5 L2 18 L4.5 12.5 L8 8 L12.5 4.5 L18 2 L24.5 0.5 L32 0" stroke="none" stroke-width="0" fill="#fff"></path><path d="M32 0 M32 0 C74.58 0, 117.16 0, 159.54 0 M32 0 C68.69 0, 105.37 0, 159.54 0 M159.54 0 C180.87 0, 191.54 10.67, 191.54 32 M159.54 0 C180.87 0, 191.54 10.67, 191.54 32 M191.54 32 C191.54 61.26, 191.54 90.51, 191.54 106.06 M191.54 32 C191.54 52.56, 191.54 73.13, 191.54 106.06 M191.54 106.06 C191.54 127.39, 180.87 138.06, 159.54 138.06 M191.54 106.06 C191.54 127.39, 180.87 138.06, 159.54 138.06 M159.54 138.06 C131.56 138.06, 103.57 138.06, 32 138.06 M159.54 138.06 C121.27 138.06, 82.99 138.06, 32 138.06 M32 138.06 C10.67 138.06, 0 127.39, 0 106.06 M32 138.06 C10.67 138.06, 0 127.39, 0 106.06 M0 106.06 C0 87.67, 0 69.29, 0 32 M0 106.06 C0 77.78, 0 49.51, 0 32 M0 32 C0 10.67, 10.67 0, 32 0 M0 32 C0 10.67, 10.67 0, 32 0" stroke="#1e1e1e" stroke-width="4" fill="none"></path></g><g transform="translate(765.1559595611552 2017.737589443353) rotate(0 76.91633605957031 52.5)"><text x="76.91633605957031" y="0" font-family="Virgil, Segoe UI Emoji" font-size="28px" fill="#1e1e1e" text-anchor="middle" style="white-space: pre;" direction="ltr" dominant-baseline="text-before-edge">delete</text><text x="76.91633605957031" y="35" font-family="Virgil, Segoe UI Emoji" font-size="28px" fill="#1e1e1e" text-anchor="middle" style="white-space: pre;" direction="ltr" dominant-baseline="text-before-edge">workerplane</text><text x="76.91633605957031" y="70" font-family="Virgil, Segoe UI Emoji" font-size="28px" fill="#1e1e1e" text-anchor="middle" style="white-space: pre;" direction="ltr" dominant-baseline="text-before-edge">firewall</text></g><g stroke-linecap="round" transform="translate(633.3847810493007 1095.9107813986852) rotate(0 80.22221684235683 65.91903089371954)"><path d="M32 0 L128.44 0 L135.94 0.5 L142.44 2 L147.94 4.5 L152.44 8 L155.94 12.5 L158.44 18 L159.94 24.5 L160.44 32 L159.94 107.34 L158.44 113.84 L155.94 119.34 L152.44 123.84 L147.94 127.34 L142.44 129.84 L135.94 131.34 L128.44 131.84 L32 131.84 L24.5 131.34 L18 129.84 L12.5 127.34 L8 123.84 L4.5 119.34 L2 113.84 L0.5 107.34 L0 99.84 L0.5 24.5 L2 18 L4.5 12.5 L8 8 L12.5 4.5 L18 2 L24.5 0.5 L32 0" stroke="none" stroke-width="0" fill="#fff"></path><path d="M32 0 M32 0 C69.36 0, 106.72 0, 128.44 0 M32 0 C69.3 0, 106.59 0, 128.44 0 M128.44 0 C149.78 0, 160.44 10.67, 160.44 32 M128.44 0 C149.78 0, 160.44 10.67, 160.44 32 M160.44 32 C160.44 55.17, 160.44 78.34, 160.44 99.84 M160.44 32 C160.44 48.22, 160.44 64.45, 160.44 99.84 M160.44 99.84 C160.44 121.17, 149.78 131.84, 128.44 131.84 M160.44 99.84 C160.44 121.17, 149.78 131.84, 128.44 131.84 M128.44 131.84 C100.14 131.84, 71.84 131.84, 32 131.84 M128.44 131.84 C97.47 131.84, 66.49 131.84, 32 131.84 M32 131.84 C10.67 131.84, 0 121.17, 0 99.84 M32 131.84 C10.67 131.84, 0 121.17, 0 99.84 M0 99.84 C0 84.75, 0 69.66, 0 32 M0 99.84 C0 85.77, 0 71.71, 0 32 M0 32 C0 10.67, 10.67 0, 32 0 M0 32 C0 10.67, 10.67 0, 32 0" stroke="#1e1e1e" stroke-width="4" fill="none"></path></g><g stroke-linecap="round" transform="translate(655.1504987972266 1080.9857178001043) rotate(0 88.5 66)"><path d="M32 0 L145 0 L152.5 0.5 L159 2 L164.5 4.5 L169 8 L172.5 12.5 L175 18 L176.5 24.5 L177 32 L176.5 107.5 L175 114 L172.5 119.5 L169 124 L164.5 127.5 L159 130 L152.5 131.5 L145 132 L32 132 L24.5 131.5 L18 130 L12.5 127.5 L8 124 L4.5 119.5 L2 114 L0.5 107.5 L0 100 L0.5 24.5 L2 18 L4.5 12.5 L8 8 L12.5 4.5 L18 2 L24.5 0.5 L32 0" stroke="none" stroke-width="0" fill="#fff"></path><path d="M32 0 M32 0 C65.03 0, 98.05 0, 145 0 M32 0 C57.08 0, 82.16 0, 145 0 M145 0 C166.33 0, 177 10.67, 177 32 M145 0 C166.33 0, 177 10.67, 177 32 M177 32 C177 54.02, 177 76.05, 177 100 M177 32 C177 55.5, 177 78.99, 177 100 M177 100 C177 121.33, 166.33 132, 145 132 M177 100 C177 121.33, 166.33 132, 145 132 M145 132 C119.35 132, 93.71 132, 32 132 M145 132 C109.84 132, 74.69 132, 32 132 M32 132 C10.67 132, 0 121.33, 0 100 M32 132 C10.67 132, 0 121.33, 0 100 M0 100 C0 85.08, 0 70.15, 0 32 M0 100 C0 77.17, 0 54.34, 0 32 M0 32 C0 10.67, 10.67 0, 32 0 M0 32 C0 10.67, 10.67 0, 32 0" stroke="#1e1e1e" stroke-width="4" fill="none"></path></g><g transform="translate(662.8421568172462 1094.4857178001043) rotate(0 80.80834197998047 52.5)"><text x="80.80834197998047" y="0" font-family="Virgil, Segoe UI Emoji" font-size="28px" fill="#1e1e1e" text-anchor="middle" style="white-space: pre;" direction="ltr" dominant-baseline="text-before-edge">delete</text><text x="80.80834197998047" y="35" font-family="Virgil, Segoe UI Emoji" font-size="28px" fill="#1e1e1e" text-anchor="middle" style="white-space: pre;" direction="ltr" dominant-baseline="text-before-edge">controlplane</text><text x="80.80834197998047" y="70" font-family="Virgil, Segoe UI Emoji" font-size="28px" fill="#1e1e1e" text-anchor="middle" style="white-space: pre;" direction="ltr" dominant-baseline="text-before-edge">VMs</text></g><g transform="translate(870.1046650662929 1169.2923440916916) rotate(0 23.88410186767578 17.5)"><text x="23.88410186767578" y="0" font-family="Virgil, Segoe UI Emoji" font-size="28px" fill="#1e1e1e" text-anchor="middle" style="white-space: pre;" direction="ltr" dominant-baseline="text-before-edge">x N</text></g><g stroke-linecap="round" transform="translate(637.970050855195 1359.5869049735625) rotate(0 80.22221684235683 65.91903089371954)"><path d="M32 0 L128.44 0 L135.94 0.5 L142.44 2 L147.94 4.5 L152.44 8 L155.94 12.5 L158.44 18 L159.94 24.5 L160.44 32 L159.94 107.34 L158.44 113.84 L155.94 119.34 L152.44 123.84 L147.94 127.34 L142.44 129.84 L135.94 131.34 L128.44 131.84 L32 131.84 L24.5 131.34 L18 129.84 L12.5 127.34 L8 123.84 L4.5 119.34 L2 113.84 L0.5 107.34 L0 99.84 L0.5 24.5 L2 18 L4.5 12.5 L8 8 L12.5 4.5 L18 2 L24.5 0.5 L32 0" stroke="none" stroke-width="0" fill="#fff"></path><path d="M32 0 M32 0 C59.08 0, 86.16 0, 128.44 0 M32 0 C57.64 0, 83.28 0, 128.44 0 M128.44 0 C149.78 0, 160.44 10.67, 160.44 32 M128.44 0 C149.78 0, 160.44 10.67, 160.44 32 M160.44 32 C160.44 52.97, 160.44 73.94, 160.44 99.84 M160.44 32 C160.44 55.6, 160.44 79.2, 160.44 99.84 M160.44 99.84 C160.44 121.17, 149.78 131.84, 128.44 131.84 M160.44 99.84 C160.44 121.17, 149.78 131.84, 128.44 131.84 M128.44 131.84 C105.83 131.84, 83.22 131.84, 32 131.84 M128.44 131.84 C96.02 131.84, 63.59 131.84, 32 131.84 M32 131.84 C10.67 131.84, 0 121.17, 0 99.84 M32 131.84 C10.67 131.84, 0 121.17, 0 99.84 M0 99.84 C0 80.97, 0 62.1, 0 32 M0 99.84 C0 80.3, 0 60.76, 0 32 M0 32 C0 10.67, 10.67 0, 32 0 M0 32 C0 10.67, 10.67 0, 32 0" stroke="#1e1e1e" stroke-width="4" fill="none"></path></g><g stroke-linecap="round" transform="translate(659.735768603121 1344.6618413749816) rotate(0 88.5 66)"><path d="M32 0 L145 0 L152.5 0.5 L159 2 L164.5 4.5 L169 8 L172.5 12.5 L175 18 L176.5 24.5 L177 32 L176.5 107.5 L175 114 L172.5 119.5 L169 124 L164.5 127.5 L159 130 L152.5 131.5 L145 132 L32 132 L24.5 131.5 L18 130 L12.5 127.5 L8 124 L4.5 119.5 L2 114 L0.5 107.5 L0 100 L0.5 24.5 L2 18 L4.5 12.5 L8 8 L12.5 4.5 L18 2 L24.5 0.5 L32 0" stroke="none" stroke-width="0" fill="#fff"></path><path d="M32 0 M32 0 C64.56 0, 97.12 0, 145 0 M32 0 C75.16 0, 118.33 0, 145 0 M145 0 C166.33 0, 177 10.67, 177 32 M145 0 C166.33 0, 177 10.67, 177 32 M177 32 C177 57.35, 177 82.69, 177 100 M177 32 C177 58.1, 177 84.19, 177 100 M177 100 C177 121.33, 166.33 132, 145 132 M177 100 C177 121.33, 166.33 132, 145 132 M145 132 C104.94 132, 64.88 132, 32 132 M145 132 C105.15 132, 65.31 132, 32 132 M32 132 C10.67 132, 0 121.33, 0 100 M32 132 C10.67 132, 0 121.33, 0 100 M0 100 C0 76.63, 0 53.27, 0 32 M0 100 C0 76.99, 0 53.98, 0 32 M0 32 C0 10.67, 10.67 0, 32 0 M0 32 C0 10.67, 10.67 0, 32 0" stroke="#1e1e1e" stroke-width="4" fill="none"></path></g><g transform="translate(676.7374699581014 1358.1618413749816) rotate(0 71.49829864501953 52.5)"><text x="71.49829864501953" y="0" font-family="Virgil, Segoe UI Emoji" font-size="28px" fill="#1e1e1e" text-anchor="middle" style="white-space: pre;" direction="ltr" dominant-baseline="text-before-edge">delete</text><text x="71.49829864501953" y="35" font-family="Virgil, Segoe UI Emoji" font-size="28px" fill="#1e1e1e" text-anchor="middle" style="white-space: pre;" direction="ltr" dominant-baseline="text-before-edge">datastore</text><text x="71.49829864501953" y="70" font-family="Virgil, Segoe UI Emoji" font-size="28px" fill="#1e1e1e" text-anchor="middle" style="white-space: pre;" direction="ltr" dominant-baseline="text-before-edge">VMs</text></g><g transform="translate(868.3966572537929 1432.9684676665688) rotate(0 25.59210968017578 17.5)"><text x="25.59210968017578" y="0" font-family="Virgil, Segoe UI Emoji" font-size="28px" fill="#1e1e1e" text-anchor="middle" style="white-space: pre;" direction="ltr" dominant-baseline="text-before-edge">x M</text></g><g stroke-linecap="round" transform="translate(641.2029400102633 1580.6006663453586) rotate(0 101 75)"><path d="M32 0 L170 0 L177.5 0.5 L184 2 L189.5 4.5 L194 8 L197.5 12.5 L200 18 L201.5 24.5 L202 32 L201.5 125.5 L200 132 L197.5 137.5 L194 142 L189.5 145.5 L184 148 L177.5 149.5 L170 150 L32 150 L24.5 149.5 L18 148 L12.5 145.5 L8 142 L4.5 137.5 L2 132 L0.5 125.5 L0 118 L0.5 24.5 L2 18 L4.5 12.5 L8 8 L12.5 4.5 L18 2 L24.5 0.5 L32 0" stroke="none" stroke-width="0" fill="#fff"></path><path d="M32 0 M32 0 C84.15 0, 136.29 0, 170 0 M32 0 C66.89 0, 101.78 0, 170 0 M170 0 C191.33 0, 202 10.67, 202 32 M170 0 C191.33 0, 202 10.67, 202 32 M202 32 C202 52.05, 202 72.09, 202 118 M202 32 C202 58.25, 202 84.5, 202 118 M202 118 C202 139.33, 191.33 150, 170 150 M202 118 C202 139.33, 191.33 150, 170 150 M170 150 C120.33 150, 70.66 150, 32 150 M170 150 C132.32 150, 94.64 150, 32 150 M32 150 C10.67 150, 0 139.33, 0 118 M32 150 C10.67 150, 0 139.33, 0 118 M0 118 C0 97.2, 0 76.4, 0 32 M0 118 C0 95.85, 0 73.69, 0 32 M0 32 C0 10.67, 10.67 0, 32 0 M0 32 C0 10.67, 10.67 0, 32 0" stroke="#1e1e1e" stroke-width="4" fill="none"></path></g><g transform="translate(656.7465877763766 1603.1006663453586) rotate(0 85.45635223388672 52.5)"><text x="85.45635223388672" y="0" font-family="Virgil, Segoe UI Emoji" font-size="28px" fill="#1e1e1e" text-anchor="middle" style="white-space: pre;" direction="ltr" dominant-baseline="text-before-edge">delete</text><text x="85.45635223388672" y="35" font-family="Virgil, Segoe UI Emoji" font-size="28px" fill="#1e1e1e" text-anchor="middle" style="white-space: pre;" direction="ltr" dominant-baseline="text-before-edge">loadbalancer</text><text x="85.45635223388672" y="70" font-family="Virgil, Segoe UI Emoji" font-size="28px" fill="#1e1e1e" text-anchor="middle" style="white-space: pre;" direction="ltr" dominant-baseline="text-before-edge">VM</text></g><g transform="translate(875.3266880765468 1688.8073774350482) rotate(0 18.662078857421875 17.5)"><text x="18.662078857421875" y="0" font-family="Virgil, Segoe UI Emoji" font-size="28px" fill="#1e1e1e" text-anchor="middle" style="white-space: pre;" direction="ltr" dominant-baseline="text-before-edge">x 1</text></g><g stroke-linecap="round" transform="translate(657.3746335883216 2192.281078244227) rotate(0 86.4409933417644 69.02841914342298)"><path d="M32 0 L140.88 0 L148.38 0.5 L154.88 2 L160.38 4.5 L164.88 8 L168.38 12.5 L170.88 18 L172.38 24.5 L172.88 32 L172.38 113.56 L170.88 120.06 L168.38 125.56 L164.88 130.06 L160.38 133.56 L154.88 136.06 L148.38 137.56 L140.88 138.06 L32 138.06 L24.5 137.56 L18 136.06 L12.5 133.56 L8 130.06 L4.5 125.56 L2 120.06 L0.5 113.56 L0 106.06 L0.5 24.5 L2 18 L4.5 12.5 L8 8 L12.5 4.5 L18 2 L24.5 0.5 L32 0" stroke="none" stroke-width="0" fill="#fff"></path><path d="M32 0 M32 0 C55.34 0, 78.68 0, 140.88 0 M32 0 C63.08 0, 94.16 0, 140.88 0 M140.88 0 C162.22 0, 172.88 10.67, 172.88 32 M140.88 0 C162.22 0, 172.88 10.67, 172.88 32 M172.88 32 C172.88 47.22, 172.88 62.44, 172.88 106.06 M172.88 32 C172.88 52.1, 172.88 72.21, 172.88 106.06 M172.88 106.06 C172.88 127.39, 162.22 138.06, 140.88 138.06 M172.88 106.06 C172.88 127.39, 162.22 138.06, 140.88 138.06 M140.88 138.06 C116.32 138.06, 91.76 138.06, 32 138.06 M140.88 138.06 C113.93 138.06, 86.98 138.06, 32 138.06 M32 138.06 C10.67 138.06, 0 127.39, 0 106.06 M32 138.06 C10.67 138.06, 0 127.39, 0 106.06 M0 106.06 C0 85.21, 0 64.37, 0 32 M0 106.06 C0 89.4, 0 72.74, 0 32 M0 32 C0 10.67, 10.67 0, 32 0 M0 32 C0 10.67, 10.67 0, 32 0" stroke="#1e1e1e" stroke-width="4" fill="none"></path></g><g transform="translate(665.7092884291096 2226.30949738765) rotate(0 78.10633850097656 35)"><text x="78.10633850097656" y="0" font-family="Virgil, Segoe UI Emoji" font-size="28px" fill="#1e1e1e" text-anchor="middle" style="white-space: pre;" direction="ltr" dominant-baseline="text-before-edge">delete</text><text x="78.10633850097656" y="35" font-family="Virgil, Segoe UI Emoji" font-size="28px" fill="#1e1e1e" text-anchor="middle" style="white-space: pre;" direction="ltr" dominant-baseline="text-before-edge">SSH keypair</text></g><g stroke-linecap="round" transform="translate(653.0214900387368 2388.794415625502) rotate(0 92.0378921912311 75.24719564283077)"><path d="M32 0 L152.08 0 L159.58 0.5 L166.08 2 L171.58 4.5 L176.08 8 L179.58 12.5 L182.08 18 L183.58 24.5 L184.08 32 L183.58 125.99 L182.08 132.49 L179.58 137.99 L176.08 142.49 L171.58 145.99 L166.08 148.49 L159.58 149.99 L152.08 150.49 L32 150.49 L24.5 149.99 L18 148.49 L12.5 145.99 L8 142.49 L4.5 137.99 L2 132.49 L0.5 125.99 L0 118.49 L0.5 24.5 L2 18 L4.5 12.5 L8 8 L12.5 4.5 L18 2 L24.5 0.5 L32 0" stroke="none" stroke-width="0" fill="#fff"></path><path d="M32 0 M32 0 C78.57 0, 125.13 0, 152.08 0 M32 0 C64.39 0, 96.79 0, 152.08 0 M152.08 0 C173.41 0, 184.08 10.67, 184.08 32 M152.08 0 C173.41 0, 184.08 10.67, 184.08 32 M184.08 32 C184.08 53.62, 184.08 75.25, 184.08 118.49 M184.08 32 C184.08 49.38, 184.08 66.76, 184.08 118.49 M184.08 118.49 C184.08 139.83, 173.41 150.49, 152.08 150.49 M184.08 118.49 C184.08 139.83, 173.41 150.49, 152.08 150.49 M152.08 150.49 C106.12 150.49, 60.16 150.49, 32 150.49 M152.08 150.49 C108.96 150.49, 65.84 150.49, 32 150.49 M32 150.49 C10.67 150.49, 0 139.83, 0 118.49 M32 150.49 C10.67 150.49, 0 139.83, 0 118.49 M0 118.49 C0 87, 0 55.5, 0 32 M0 118.49 C0 97.86, 0 77.22, 0 32 M0 32 C0 10.67, 10.67 0, 32 0 M0 32 C0 10.67, 10.67 0, 32 0" stroke="#1e1e1e" stroke-width="4" fill="none"></path></g><g transform="translate(693.8331554233273 2429.041611268333) rotate(0 51.226226806640625 35)"><text x="51.226226806640625" y="0" font-family="Virgil, Segoe UI Emoji" font-size="28px" fill="#1e1e1e" text-anchor="middle" style="white-space: pre;" direction="ltr" dominant-baseline="text-before-edge">delete</text><text x="51.226226806640625" y="35" font-family="Virgil, Segoe UI Emoji" font-size="28px" fill="#1e1e1e" text-anchor="middle" style="white-space: pre;" direction="ltr" dominant-baseline="text-before-edge">network</text></g><g stroke-linecap="round"><g transform="translate(727.6468080316267 974.0227620102964) rotate(0 0.6218776499406431 50.37208964520096)"><path d="M0 0 C0.21 16.79, 1.04 83.95, 1.24 100.74 M0 0 C0.21 16.79, 1.04 83.95, 1.24 100.74" stroke="#1e1e1e" stroke-width="4" fill="none"></path></g><g transform="translate(727.6468080316267 974.0227620102964) rotate(0 0.6218776499406431 50.37208964520096)"><path d="M1.24 100.74 L-5.26 87.23 L7.41 87.07 L1.24 100.74" stroke="none" stroke-width="0" fill="#1e1e1e" fill-rule="evenodd"></path><path d="M1.24 100.74 C-0.18 97.79, -1.6 94.84, -5.26 87.23 M1.24 100.74 C-0.69 96.72, -2.63 92.69, -5.26 87.23 M-5.26 87.23 C-2.24 87.19, 0.78 87.15, 7.41 87.07 M-5.26 87.23 C-2.15 87.19, 0.96 87.15, 7.41 87.07 M7.41 87.07 C5.35 91.66, 3.28 96.24, 1.24 100.74 M7.41 87.07 C5.31 91.75, 3.2 96.42, 1.24 100.74 M1.24 100.74 C1.24 100.74, 1.24 100.74, 1.24 100.74 M1.24 100.74 C1.24 100.74, 1.24 100.74, 1.24 100.74" stroke="#1e1e1e" stroke-width="4" fill="none"></path></g></g><mask></mask><g stroke-linecap="round"><g transform="translate(723.915542131982 1231.4801090857668) rotate(0 1.2437552998815136 52.859600244963985)"><path d="M0 0 C0.41 17.62, 2.07 88.1, 2.49 105.72 M0 0 C0.41 17.62, 2.07 88.1, 2.49 105.72" stroke="#1e1e1e" stroke-width="4" fill="none"></path></g><g transform="translate(723.915542131982 1231.4801090857668) rotate(0 1.2437552998815136 52.859600244963985)"><path d="M2.49 105.72 L-4.17 92.28 L8.51 91.98 L2.49 105.72" stroke="none" stroke-width="0" fill="#1e1e1e" fill-rule="evenodd"></path><path d="M2.49 105.72 C0.14 100.98, -2.2 96.25, -4.17 92.28 M2.49 105.72 C0.56 101.84, -1.36 97.96, -4.17 92.28 M-4.17 92.28 C-1.29 92.21, 1.59 92.14, 8.51 91.98 M-4.17 92.28 C-0.26 92.19, 3.66 92.09, 8.51 91.98 M8.51 91.98 C6.47 96.63, 4.43 101.29, 2.49 105.72 M8.51 91.98 C6.65 96.21, 4.8 100.44, 2.49 105.72 M2.49 105.72 C2.49 105.72, 2.49 105.72, 2.49 105.72 M2.49 105.72 C2.49 105.72, 2.49 105.72, 2.49 105.72" stroke="#1e1e1e" stroke-width="4" fill="none"></path></g></g><mask></mask><g stroke-linecap="round"><g transform="translate(725.1592974318637 1496.3999879605267) rotate(0 0 39.80016959620798)"><path d="M0 0 C0 13.27, 0 66.33, 0 79.6 M0 0 C0 13.27, 0 66.33, 0 79.6" stroke="#1e1e1e" stroke-width="4" fill="none"></path></g><g transform="translate(725.1592974318637 1496.3999879605267) rotate(0 0 39.80016959620798)"><path d="M0 79.6 L-6.34 66.01 L6.34 66.01 L0 79.6" stroke="none" stroke-width="0" fill="#1e1e1e" fill-rule="evenodd"></path><path d="M0 79.6 C-1.95 75.41, -3.9 71.23, -6.34 66.01 M0 79.6 C-1.65 76.06, -3.3 72.53, -6.34 66.01 M-6.34 66.01 C-3.71 66.01, -1.07 66.01, 6.34 66.01 M-6.34 66.01 C-1.39 66.01, 3.56 66.01, 6.34 66.01 M6.34 66.01 C4.92 69.04, 3.51 72.08, 0 79.6 M6.34 66.01 C4.97 68.94, 3.6 71.88, 0 79.6 M0 79.6 C0 79.6, 0 79.6, 0 79.6 M0 79.6 C0 79.6, 0 79.6, 0 79.6" stroke="#1e1e1e" stroke-width="4" fill="none"></path></g></g><mask></mask><g stroke-linecap="round"><g transform="translate(732.9869412222415 1735.2010055377746) rotate(0 0.49934036703416496 49.11497476455452)"><path d="M0 0 C0.17 16.37, 0.83 81.86, 1 98.23 M0 0 C0.17 16.37, 0.83 81.86, 1 98.23" stroke="#1e1e1e" stroke-width="4" fill="none"></path></g><g transform="translate(732.9869412222415 1735.2010055377746) rotate(0 0.49934036703416496 49.11497476455452)"><path d="M1 98.23 L-5.48 84.7 L7.2 84.57 L1 98.23" stroke="none" stroke-width="0" fill="#1e1e1e" fill-rule="evenodd"></path><path d="M1 98.23 C-1.45 93.11, -3.91 87.98, -5.48 84.7 M1 98.23 C-1.24 93.55, -3.49 88.86, -5.48 84.7 M-5.48 84.7 C-2.29 84.67, 0.89 84.64, 7.2 84.57 M-5.48 84.7 C-0.66 84.65, 4.16 84.6, 7.2 84.57 M7.2 84.57 C5 89.41, 2.81 94.24, 1 98.23 M7.2 84.57 C5.91 87.42, 4.61 90.27, 1 98.23 M1 98.23 C1 98.23, 1 98.23, 1 98.23 M1 98.23 C1 98.23, 1 98.23, 1 98.23" stroke="#1e1e1e" stroke-width="4" fill="none"></path></g></g><mask></mask><g stroke-linecap="round"><g transform="translate(740.0843610304419 2140.665233299143) rotate(0 0 23.009473047808115)"><path d="M0 0 C0 7.67, 0 38.35, 0 46.02 M0 0 C0 7.67, 0 38.35, 0 46.02" stroke="#1e1e1e" stroke-width="4" fill="none"></path></g><g transform="translate(740.0843610304419 2140.665233299143) rotate(0 0 23.009473047808115)"><path d="M0 46.02 L-6.34 32.42 L6.34 32.42 L0 46.02" stroke="none" stroke-width="0" fill="#1e1e1e" fill-rule="evenodd"></path><path d="M0 46.02 C-1.93 41.87, -3.87 37.72, -6.34 32.42 M0 46.02 C-1.43 42.94, -2.87 39.87, -6.34 32.42 M-6.34 32.42 C-3.23 32.42, -0.12 32.42, 6.34 32.42 M-6.34 32.42 C-2.45 32.42, 1.43 32.42, 6.34 32.42 M6.34 32.42 C3.82 37.83, 1.3 43.24, 0 46.02 M6.34 32.42 C4.15 37.12, 1.96 41.82, 0 46.02 M0 46.02 C0 46.02, 0 46.02, 0 46.02 M0 46.02 C0 46.02, 0 46.02, 0 46.02" stroke="#1e1e1e" stroke-width="4" fill="none"></path></g></g><mask></mask><g stroke-linecap="round"><g transform="translate(740.0843610304419 2332.2035494808947) rotate(0 -0.6218776499406431 26.740738947451973)"><path d="M0 0 C-0.21 8.91, -1.04 44.57, -1.24 53.48 M0 0 C-0.21 8.91, -1.04 44.57, -1.24 53.48" stroke="#1e1e1e" stroke-width="4" fill="none"></path></g><g transform="translate(740.0843610304419 2332.2035494808947) rotate(0 -0.6218776499406431 26.740738947451973)"><path d="M-1.24 53.48 L-7.27 39.74 L5.41 40.04 L-1.24 53.48" stroke="none" stroke-width="0" fill="#1e1e1e" fill-rule="evenodd"></path><path d="M-1.24 53.48 C-2.53 50.55, -3.82 47.61, -7.27 39.74 M-1.24 53.48 C-2.65 50.28, -4.05 47.08, -7.27 39.74 M-7.27 39.74 C-4.11 39.82, -0.95 39.89, 5.41 40.04 M-7.27 39.74 C-4.25 39.81, -1.23 39.88, 5.41 40.04 M5.41 40.04 C4.03 42.82, 2.65 45.61, -1.24 53.48 M5.41 40.04 C3.19 44.51, 0.98 48.99, -1.24 53.48 M-1.24 53.48 C-1.24 53.48, -1.24 53.48, -1.24 53.48 M-1.24 53.48 C-1.24 53.48, -1.24 53.48, -1.24 53.48" stroke="#1e1e1e" stroke-width="4" fill="none"></path></g></g><mask></mask><g stroke-linecap="round" transform="translate(1289.8242035780659 797.4095094271229) rotate(0 109.45046638957228 75.24719564283123)"><path d="M32 0 L186.9 0 L194.4 0.5 L200.9 2 L206.4 4.5 L210.9 8 L214.4 12.5 L216.9 18 L218.4 24.5 L218.9 32 L218.9 118.49 L218.4 125.99 L216.9 132.49 L214.4 137.99 L210.9 142.49 L206.4 145.99 L200.9 148.49 L194.4 149.99 L186.9 150.49 L32 150.49 L24.5 149.99 L18 148.49 L12.5 145.99 L8 142.49 L4.5 137.99 L2 132.49 L0.5 125.99 L0 118.49 L0.5 24.5 L2 18 L4.5 12.5 L8 8 L12.5 4.5 L18 2 L24.5 0.5 L32 0" stroke="none" stroke-width="0" fill="#fff"></path><path d="M32 0 M32 0 C66.73 0, 101.45 0, 186.9 0 M32 0 C72.88 0, 113.76 0, 186.9 0 M186.9 0 C208.23 0, 218.9 10.67, 218.9 32 M186.9 0 C208.23 0, 218.9 10.67, 218.9 32 M218.9 32 C218.9 59.98, 218.9 87.95, 218.9 118.49 M218.9 32 C218.9 66.28, 218.9 100.55, 218.9 118.49 M218.9 118.49 C218.9 139.83, 208.23 150.49, 186.9 150.49 M218.9 118.49 C218.9 139.83, 208.23 150.49, 186.9 150.49 M186.9 150.49 C154.88 150.49, 122.86 150.49, 32 150.49 M186.9 150.49 C127.67 150.49, 68.44 150.49, 32 150.49 M32 150.49 C10.67 150.49, 0 139.83, 0 118.49 M32 150.49 C10.67 150.49, 0 139.83, 0 118.49 M0 118.49 C0 93.12, 0 67.75, 0 32 M0 118.49 C0 99.38, 0 80.26, 0 32 M0 32 C0 10.67, 10.67 0, 32 0 M0 32 C0 10.67, 10.67 0, 32 0" stroke="#1e1e1e" stroke-width="4" fill="none"></path></g><g transform="translate(1313.8183177337514 837.6567050699546) rotate(0 85.45635223388672 35)"><text x="85.45635223388672" y="0" font-family="Virgil, Segoe UI Emoji" font-size="28px" fill="#1e1e1e" text-anchor="middle" style="white-space: pre;" direction="ltr" dominant-baseline="text-before-edge">configure</text><text x="85.45635223388672" y="35" font-family="Virgil, Segoe UI Emoji" font-size="28px" fill="#1e1e1e" text-anchor="middle" style="white-space: pre;" direction="ltr" dominant-baseline="text-before-edge">loadbalancer</text></g><g transform="translate(1578.369683791374 886.8724652169335) rotate(0 18.662078857421875 17.5)"><text x="18.662078857421875" y="0" font-family="Virgil, Segoe UI Emoji" font-size="28px" fill="#1e1e1e" text-anchor="middle" style="white-space: pre;" direction="ltr" dominant-baseline="text-before-edge">x 1</text></g><g stroke-linecap="round" transform="translate(1270.8093722385702 1062.6403271268532) rotate(0 109.45046638957228 75.24719564283123)"><path d="M32 0 L186.9 0 L194.4 0.5 L200.9 2 L206.4 4.5 L210.9 8 L214.4 12.5 L216.9 18 L218.4 24.5 L218.9 32 L218.9 118.49 L218.4 125.99 L216.9 132.49 L214.4 137.99 L210.9 142.49 L206.4 145.99 L200.9 148.49 L194.4 149.99 L186.9 150.49 L32 150.49 L24.5 149.99 L18 148.49 L12.5 145.99 L8 142.49 L4.5 137.99 L2 132.49 L0.5 125.99 L0 118.49 L0.5 24.5 L2 18 L4.5 12.5 L8 8 L12.5 4.5 L18 2 L24.5 0.5 L32 0" stroke="none" stroke-width="0" fill="#fff"></path><path d="M32 0 M32 0 C70.39 0, 108.78 0, 186.9 0 M32 0 C68.18 0, 104.35 0, 186.9 0 M186.9 0 C208.23 0, 218.9 10.67, 218.9 32 M186.9 0 C208.23 0, 218.9 10.67, 218.9 32 M218.9 32 C218.9 63.19, 218.9 94.39, 218.9 118.49 M218.9 32 C218.9 53.11, 218.9 74.21, 218.9 118.49 M218.9 118.49 C218.9 139.83, 208.23 150.49, 186.9 150.49 M218.9 118.49 C218.9 139.83, 208.23 150.49, 186.9 150.49 M186.9 150.49 C150.9 150.49, 114.89 150.49, 32 150.49 M186.9 150.49 C141.87 150.49, 96.84 150.49, 32 150.49 M32 150.49 C10.67 150.49, 0 139.83, 0 118.49 M32 150.49 C10.67 150.49, 0 139.83, 0 118.49 M0 118.49 C0 95.6, 0 72.71, 0 32 M0 118.49 C0 95.18, 0 71.87, 0 32 M0 32 C0 10.67, 10.67 0, 32 0 M0 32 C0 10.67, 10.67 0, 32 0" stroke="#1e1e1e" stroke-width="4" fill="none"></path></g><g stroke-linecap="round" transform="translate(1305.6345206352535 1038.3870987791638) rotate(0 109.45046638957228 75.24719564283123)"><path d="M32 0 L186.9 0 L194.4 0.5 L200.9 2 L206.4 4.5 L210.9 8 L214.4 12.5 L216.9 18 L218.4 24.5 L218.9 32 L218.9 118.49 L218.4 125.99 L216.9 132.49 L214.4 137.99 L210.9 142.49 L206.4 145.99 L200.9 148.49 L194.4 149.99 L186.9 150.49 L32 150.49 L24.5 149.99 L18 148.49 L12.5 145.99 L8 142.49 L4.5 137.99 L2 132.49 L0.5 125.99 L0 118.49 L0.5 24.5 L2 18 L4.5 12.5 L8 8 L12.5 4.5 L18 2 L24.5 0.5 L32 0" stroke="none" stroke-width="0" fill="#fff"></path><path d="M32 0 M32 0 C72.77 0, 113.54 0, 186.9 0 M32 0 C73.6 0, 115.2 0, 186.9 0 M186.9 0 C208.23 0, 218.9 10.67, 218.9 32 M186.9 0 C208.23 0, 218.9 10.67, 218.9 32 M218.9 32 C218.9 61.02, 218.9 90.03, 218.9 118.49 M218.9 32 C218.9 66.29, 218.9 100.59, 218.9 118.49 M218.9 118.49 C218.9 139.83, 208.23 150.49, 186.9 150.49 M218.9 118.49 C218.9 139.83, 208.23 150.49, 186.9 150.49 M186.9 150.49 C147.06 150.49, 107.22 150.49, 32 150.49 M186.9 150.49 C126.88 150.49, 66.87 150.49, 32 150.49 M32 150.49 C10.67 150.49, 0 139.83, 0 118.49 M32 150.49 C10.67 150.49, 0 139.83, 0 118.49 M0 118.49 C0 87.69, 0 56.89, 0 32 M0 118.49 C0 93.19, 0 67.89, 0 32 M0 32 C0 10.67, 10.67 0, 32 0 M0 32 C0 10.67, 10.67 0, 32 0" stroke="#1e1e1e" stroke-width="4" fill="none"></path></g><g transform="translate(1339.7226670785367 1078.6342944219946) rotate(0 75.36231994628906 35)"><text x="75.36231994628906" y="0" font-family="Virgil, Segoe UI Emoji" font-size="28px" fill="#1e1e1e" text-anchor="middle" style="white-space: pre;" direction="ltr" dominant-baseline="text-before-edge">configure</text><text x="75.36231994628906" y="35" font-family="Virgil, Segoe UI Emoji" font-size="28px" fill="#1e1e1e" text-anchor="middle" style="white-space: pre;" direction="ltr" dominant-baseline="text-before-edge">DataStore</text></g><g transform="translate(1575.7887983899145 1411.4262629419568) rotate(0 23.88410186767578 17.5)"><text x="23.88410186767578" y="0" font-family="Virgil, Segoe UI Emoji" font-size="28px" fill="#1e1e1e" text-anchor="middle" style="white-space: pre;" direction="ltr" dominant-baseline="text-before-edge">x N</text></g><g stroke-linecap="round" transform="translate(1259.225823146005 1327.560206001613) rotate(0 109.45046638957228 75.24719564283123)"><path d="M32 0 L186.9 0 L194.4 0.5 L200.9 2 L206.4 4.5 L210.9 8 L214.4 12.5 L216.9 18 L218.4 24.5 L218.9 32 L218.9 118.49 L218.4 125.99 L216.9 132.49 L214.4 137.99 L210.9 142.49 L206.4 145.99 L200.9 148.49 L194.4 149.99 L186.9 150.49 L32 150.49 L24.5 149.99 L18 148.49 L12.5 145.99 L8 142.49 L4.5 137.99 L2 132.49 L0.5 125.99 L0 118.49 L0.5 24.5 L2 18 L4.5 12.5 L8 8 L12.5 4.5 L18 2 L24.5 0.5 L32 0" stroke="none" stroke-width="0" fill="#fff"></path><path d="M32 0 M32 0 C86.44 0, 140.88 0, 186.9 0 M32 0 C72.33 0, 112.66 0, 186.9 0 M186.9 0 C208.23 0, 218.9 10.67, 218.9 32 M186.9 0 C208.23 0, 218.9 10.67, 218.9 32 M218.9 32 C218.9 56.05, 218.9 80.1, 218.9 118.49 M218.9 32 C218.9 64.58, 218.9 97.15, 218.9 118.49 M218.9 118.49 C218.9 139.83, 208.23 150.49, 186.9 150.49 M218.9 118.49 C218.9 139.83, 208.23 150.49, 186.9 150.49 M186.9 150.49 C139.15 150.49, 91.39 150.49, 32 150.49 M186.9 150.49 C139.72 150.49, 92.54 150.49, 32 150.49 M32 150.49 C10.67 150.49, 0 139.83, 0 118.49 M32 150.49 C10.67 150.49, 0 139.83, 0 118.49 M0 118.49 C0 88.87, 0 59.25, 0 32 M0 118.49 C0 87.35, 0 56.21, 0 32 M0 32 C0 10.67, 10.67 0, 32 0 M0 32 C0 10.67, 10.67 0, 32 0" stroke="#1e1e1e" stroke-width="4" fill="none"></path></g><g stroke-linecap="round" transform="translate(1294.0509715426883 1303.3069776539246) rotate(0 109.45046638957228 75.24719564283123)"><path d="M32 0 L186.9 0 L194.4 0.5 L200.9 2 L206.4 4.5 L210.9 8 L214.4 12.5 L216.9 18 L218.4 24.5 L218.9 32 L218.9 118.49 L218.4 125.99 L216.9 132.49 L214.4 137.99 L210.9 142.49 L206.4 145.99 L200.9 148.49 L194.4 149.99 L186.9 150.49 L32 150.49 L24.5 149.99 L18 148.49 L12.5 145.99 L8 142.49 L4.5 137.99 L2 132.49 L0.5 125.99 L0 118.49 L0.5 24.5 L2 18 L4.5 12.5 L8 8 L12.5 4.5 L18 2 L24.5 0.5 L32 0" stroke="none" stroke-width="0" fill="#fff"></path><path d="M32 0 M32 0 C92.2 0, 152.41 0, 186.9 0 M32 0 C79.73 0, 127.45 0, 186.9 0 M186.9 0 C208.23 0, 218.9 10.67, 218.9 32 M186.9 0 C208.23 0, 218.9 10.67, 218.9 32 M218.9 32 C218.9 62.35, 218.9 92.69, 218.9 118.49 M218.9 32 C218.9 62.36, 218.9 92.73, 218.9 118.49 M218.9 118.49 C218.9 139.83, 208.23 150.49, 186.9 150.49 M218.9 118.49 C218.9 139.83, 208.23 150.49, 186.9 150.49 M186.9 150.49 C132.12 150.49, 77.35 150.49, 32 150.49 M186.9 150.49 C133.88 150.49, 80.85 150.49, 32 150.49 M32 150.49 C10.67 150.49, 0 139.83, 0 118.49 M32 150.49 C10.67 150.49, 0 139.83, 0 118.49 M0 118.49 C0 95.92, 0 73.34, 0 32 M0 118.49 C0 91.22, 0 63.95, 0 32 M0 32 C0 10.67, 10.67 0, 32 0 M0 32 C0 10.67, 10.67 0, 32 0" stroke="#1e1e1e" stroke-width="4" fill="none"></path></g><g transform="translate(1320.7050893604833 1343.5541732967563) rotate(0 82.79634857177734 35)"><text x="82.79634857177734" y="0" font-family="Virgil, Segoe UI Emoji" font-size="28px" fill="#1e1e1e" text-anchor="middle" style="white-space: pre;" direction="ltr" dominant-baseline="text-before-edge">configure</text><text x="82.79634857177734" y="35" font-family="Virgil, Segoe UI Emoji" font-size="28px" fill="#1e1e1e" text-anchor="middle" style="white-space: pre;" direction="ltr" dominant-baseline="text-before-edge">Controlplane</text></g><g transform="translate(1574.0807905774145 1156.456426466248) rotate(0 25.59210968017578 17.5)"><text x="25.59210968017578" y="0" font-family="Virgil, Segoe UI Emoji" font-size="28px" fill="#1e1e1e" text-anchor="middle" style="white-space: pre;" direction="ltr" dominant-baseline="text-before-edge">x M</text></g><g stroke-linecap="round" transform="translate(1271.6633761448202 1586.261308376966) rotate(0 109.45046638957228 75.24719564283123)"><path d="M32 0 L186.9 0 L194.4 0.5 L200.9 2 L206.4 4.5 L210.9 8 L214.4 12.5 L216.9 18 L218.4 24.5 L218.9 32 L218.9 118.49 L218.4 125.99 L216.9 132.49 L214.4 137.99 L210.9 142.49 L206.4 145.99 L200.9 148.49 L194.4 149.99 L186.9 150.49 L32 150.49 L24.5 149.99 L18 148.49 L12.5 145.99 L8 142.49 L4.5 137.99 L2 132.49 L0.5 125.99 L0 118.49 L0.5 24.5 L2 18 L4.5 12.5 L8 8 L12.5 4.5 L18 2 L24.5 0.5 L32 0" stroke="none" stroke-width="0" fill="#fff"></path><path d="M32 0 M32 0 C89.81 0, 147.62 0, 186.9 0 M32 0 C81.37 0, 130.74 0, 186.9 0 M186.9 0 C208.23 0, 218.9 10.67, 218.9 32 M186.9 0 C208.23 0, 218.9 10.67, 218.9 32 M218.9 32 C218.9 54.25, 218.9 76.49, 218.9 118.49 M218.9 32 C218.9 56.72, 218.9 81.45, 218.9 118.49 M218.9 118.49 C218.9 139.83, 208.23 150.49, 186.9 150.49 M218.9 118.49 C218.9 139.83, 208.23 150.49, 186.9 150.49 M186.9 150.49 C142.55 150.49, 98.21 150.49, 32 150.49 M186.9 150.49 C130.76 150.49, 74.61 150.49, 32 150.49 M32 150.49 C10.67 150.49, 0 139.83, 0 118.49 M32 150.49 C10.67 150.49, 0 139.83, 0 118.49 M0 118.49 C0 91.52, 0 64.55, 0 32 M0 118.49 C0 100.95, 0 83.41, 0 32 M0 32 C0 10.67, 10.67 0, 32 0 M0 32 C0 10.67, 10.67 0, 32 0" stroke="#1e1e1e" stroke-width="4" fill="none"></path></g><g stroke-linecap="round" transform="translate(1306.4885245415035 1562.0080800292776) rotate(0 109.45046638957228 75.24719564283123)"><path d="M32 0 L186.9 0 L194.4 0.5 L200.9 2 L206.4 4.5 L210.9 8 L214.4 12.5 L216.9 18 L218.4 24.5 L218.9 32 L218.9 118.49 L218.4 125.99 L216.9 132.49 L214.4 137.99 L210.9 142.49 L206.4 145.99 L200.9 148.49 L194.4 149.99 L186.9 150.49 L32 150.49 L24.5 149.99 L18 148.49 L12.5 145.99 L8 142.49 L4.5 137.99 L2 132.49 L0.5 125.99 L0 118.49 L0.5 24.5 L2 18 L4.5 12.5 L8 8 L12.5 4.5 L18 2 L24.5 0.5 L32 0" stroke="none" stroke-width="0" fill="#fff"></path><path d="M32 0 M32 0 C68.37 0, 104.73 0, 186.9 0 M32 0 C69.27 0, 106.55 0, 186.9 0 M186.9 0 C208.23 0, 218.9 10.67, 218.9 32 M186.9 0 C208.23 0, 218.9 10.67, 218.9 32 M218.9 32 C218.9 63.65, 218.9 95.3, 218.9 118.49 M218.9 32 C218.9 59.71, 218.9 87.42, 218.9 118.49 M218.9 118.49 C218.9 139.83, 208.23 150.49, 186.9 150.49 M218.9 118.49 C218.9 139.83, 208.23 150.49, 186.9 150.49 M186.9 150.49 C150.43 150.49, 113.97 150.49, 32 150.49 M186.9 150.49 C154.64 150.49, 122.37 150.49, 32 150.49 M32 150.49 C10.67 150.49, 0 139.83, 0 118.49 M32 150.49 C10.67 150.49, 0 139.83, 0 118.49 M0 118.49 C0 94.73, 0 70.97, 0 32 M0 118.49 C0 84.13, 0 49.76, 0 32 M0 32 C0 10.67, 10.67 0, 32 0 M0 32 C0 10.67, 10.67 0, 32 0" stroke="#1e1e1e" stroke-width="4" fill="none"></path></g><g transform="translate(1334.75264296965 1602.2552756721093) rotate(0 81.18634796142578 35)"><text x="81.18634796142578" y="0" font-family="Virgil, Segoe UI Emoji" font-size="28px" fill="#1e1e1e" text-anchor="middle" style="white-space: pre;" direction="ltr" dominant-baseline="text-before-edge">configure</text><text x="81.18634796142578" y="35" font-family="Virgil, Segoe UI Emoji" font-size="28px" fill="#1e1e1e" text-anchor="middle" style="white-space: pre;" direction="ltr" dominant-baseline="text-before-edge">WorkerPlane</text></g><g transform="translate(1574.6407957654028 1677.5898971165984) rotate(0 25.0321044921875 17.5)"><text x="25.0321044921875" y="0" font-family="Virgil, Segoe UI Emoji" font-size="28px" fill="#1e1e1e" text-anchor="middle" style="white-space: pre;" direction="ltr" dominant-baseline="text-before-edge">x O</text></g><g stroke-linecap="round"><g transform="translate(1381.8620957692965 656.8651605405134) rotate(0 -1.2437552998812862 64.67527559383825)"><path d="M0 0 C-0.41 21.56, -2.07 107.79, -2.49 129.35 M0 0 C-0.41 21.56, -2.07 107.79, -2.49 129.35" stroke="#1e1e1e" stroke-width="4" fill="none"></path></g><g transform="translate(1381.8620957692965 656.8651605405134) rotate(0 -1.2437552998812862 64.67527559383825)"><path d="M-2.49 129.35 L-8.56 115.64 L4.11 115.88 L-2.49 129.35" stroke="none" stroke-width="0" fill="#1e1e1e" fill-rule="evenodd"></path><path d="M-2.49 129.35 C-4.53 124.73, -6.58 120.11, -8.56 115.64 M-2.49 129.35 C-4.24 125.39, -6 121.43, -8.56 115.64 M-8.56 115.64 C-5.67 115.69, -2.77 115.75, 4.11 115.88 M-8.56 115.64 C-5.79 115.69, -3.01 115.74, 4.11 115.88 M4.11 115.88 C1.53 121.14, -1.04 126.41, -2.49 129.35 M4.11 115.88 C2.56 119.04, 1.01 122.21, -2.49 129.35 M-2.49 129.35 C-2.49 129.35, -2.49 129.35, -2.49 129.35 M-2.49 129.35 C-2.49 129.35, -2.49 129.35, -2.49 129.35" stroke="#1e1e1e" stroke-width="4" fill="none"></path></g></g><mask></mask><g stroke-linecap="round"><g transform="translate(1384.34960636906 951.6351666124297) rotate(0 -0.6218776499408705 42.28768019597101)"><path d="M0 0 C-0.21 14.1, -1.04 70.48, -1.24 84.58 M0 0 C-0.21 14.1, -1.04 70.48, -1.24 84.58" stroke="#1e1e1e" stroke-width="4" fill="none"></path></g><g transform="translate(1384.34960636906 951.6351666124297) rotate(0 -0.6218776499408705 42.28768019597101)"><path d="M-1.24 84.58 L-7.38 70.89 L5.29 71.08 L-1.24 84.58" stroke="none" stroke-width="0" fill="#1e1e1e" fill-rule="evenodd"></path><path d="M-1.24 84.58 C-2.68 81.38, -4.11 78.18, -7.38 70.89 M-1.24 84.58 C-3.26 80.08, -5.27 75.59, -7.38 70.89 M-7.38 70.89 C-3.59 70.94, 0.21 71, 5.29 71.08 M-7.38 70.89 C-4.5 70.93, -1.63 70.97, 5.29 71.08 M5.29 71.08 C3.48 74.82, 1.67 78.56, -1.24 84.58 M5.29 71.08 C3.42 74.96, 1.54 78.84, -1.24 84.58 M-1.24 84.58 C-1.24 84.58, -1.24 84.58, -1.24 84.58 M-1.24 84.58 C-1.24 84.58, -1.24 84.58, -1.24 84.58" stroke="#1e1e1e" stroke-width="4" fill="none"></path></g></g><mask></mask><g stroke-linecap="round"><g transform="translate(1389.324627568586 1214.067534887426) rotate(0 0 41.66580254603059)"><path d="M0 0 C0 13.89, 0 69.44, 0 83.33 M0 0 C0 13.89, 0 69.44, 0 83.33" stroke="#1e1e1e" stroke-width="4" fill="none"></path></g><g transform="translate(1389.324627568586 1214.067534887426) rotate(0 0 41.66580254603059)"><path d="M0 83.33 L-6.34 69.74 L6.34 69.74 L0 83.33" stroke="none" stroke-width="0" fill="#1e1e1e" fill-rule="evenodd"></path><path d="M0 83.33 C-1.83 79.41, -3.66 75.48, -6.34 69.74 M0 83.33 C-1.67 79.75, -3.34 76.17, -6.34 69.74 M-6.34 69.74 C-2.45 69.74, 1.43 69.74, 6.34 69.74 M-6.34 69.74 C-2.24 69.74, 1.86 69.74, 6.34 69.74 M6.34 69.74 C3.99 74.77, 1.65 79.8, 0 83.33 M6.34 69.74 C5.05 72.5, 3.77 75.26, 0 83.33 M0 83.33 C0 83.33, 0 83.33, 0 83.33 M0 83.33 C0 83.33, 0 83.33, 0 83.33" stroke="#1e1e1e" stroke-width="4" fill="none"></path></g></g><mask></mask><g stroke-linecap="round"><g transform="translate(1390.5683828684673 1481.4749243619485) rotate(0 0.6218776499406431 37.31265899644495)"><path d="M0 0 C0.21 12.44, 1.04 62.19, 1.24 74.63 M0 0 C0.21 12.44, 1.04 62.19, 1.24 74.63" stroke="#1e1e1e" stroke-width="4" fill="none"></path></g><g transform="translate(1390.5683828684673 1481.4749243619485) rotate(0 0.6218776499406431 37.31265899644495)"><path d="M1.24 74.63 L-5.32 61.14 L7.36 60.93 L1.24 74.63" stroke="none" stroke-width="0" fill="#1e1e1e" fill-rule="evenodd"></path><path d="M1.24 74.63 C-0.74 70.54, -2.73 66.46, -5.32 61.14 M1.24 74.63 C-0.69 70.66, -2.62 66.69, -5.32 61.14 M-5.32 61.14 C-2.14 61.09, 1.04 61.03, 7.36 60.93 M-5.32 61.14 C-1.06 61.07, 3.19 61, 7.36 60.93 M7.36 60.93 C5.69 64.65, 4.03 68.38, 1.24 74.63 M7.36 60.93 C5.02 66.17, 2.68 71.41, 1.24 74.63 M1.24 74.63 C1.24 74.63, 1.24 74.63, 1.24 74.63 M1.24 74.63 C1.24 74.63, 1.24 74.63, 1.24 74.63" stroke="#1e1e1e" stroke-width="4" fill="none"></path></g></g><mask></mask><g transform="translate(593.949284583703 10) rotate(0 202.10406494140625 22.5)"><text x="202.10406494140625" y="0" font-family="Virgil, Segoe UI Emoji" font-size="36px" fill="#1e1e1e" text-anchor="middle" style="white-space: pre;" direction="ltr" dominant-baseline="text-before-edge">Highly Available cluster</text></g></svg>