<svg xmlns="http://www.w3.org/2000/svg" version="1.1" width="200px" height="200px" style="shape-rendering:geometricPrecision; text-rendering:geometricPrecision; image-rendering:optimizeQuality; fill-rule:evenodd; clip-rule:evenodd" xmlns:xlink="http://www.w3.org/1999/xlink" viewBox="0 0 200px 200px">
  <g>
    <path style="opacity:1" fill="#fefefe" d="M-0.417 -0.417h200v200H-0.417V-0.417Z" />
  </g>
  <g>
    <path style="opacity:1" fill="#070707" d="M162.917 54.583c0.811 2.04 1.088 4.263 0.833 6.667a127.728 127.728 0 0 1 -3.333 18.75c1.924 8.167 0.674 15.806 -3.75 22.917l-0.833 -5.833c-2.795 -3.393 -3.489 -2.977 -2.083 1.25 -1.961 11.145 -7.517 20.034 -16.667 26.667a65.563 65.563 0 0 1 -10.417 6.25 14.708 14.708 0 0 1 0.417 -5c0.945 -2.055 1.084 -4.277 0.417 -6.667a35.392 35.392 0 0 0 -1.25 4.167c-4.258 8.532 -11.203 13.393 -20.833 14.583a75.379 75.379 0 0 1 -15.833 0c-4.174 -0.486 -8.063 -1.736 -11.667 -3.75a192.615 192.615 0 0 1 15 -7.917c0.792 -0.598 0.931 -1.292 0.417 -2.083 -4.94 3.147 -10.356 4.952 -16.25 5.417 -6.939 1.096 -13.606 0.263 -20 -2.5 -9.758 -3.373 -17.258 -9.484 -22.5 -18.333 3.215 -0.066 6.27 -0.622 9.167 -1.667 -8.315 -2.209 -13.177 -7.626 -14.583 -16.25 -0.556 -3.333 -0.556 -6.667 0 -10 9.894 -2.388 18.783 -0.166 26.667 6.667a42.111 42.111 0 0 1 5 10c0.887 -1.203 1.303 -2.593 1.25 -4.167 -0.232 -2.351 -0.648 -4.573 -1.25 -6.667 9.444 6.111 17.223 13.889 23.333 23.333 0.212 -4.825 -0.76 -9.408 -2.917 -13.75a157.089 157.089 0 0 1 12.5 7.5c5.956 2.313 12.068 3.424 18.333 3.333l-8.333 -10c12.58 2.321 24.247 0.098 35 -6.667 -7.424 -3.543 -7.424 -5.21 0 -5a234.533 234.533 0 0 0 12.083 -5.417l1.25 0.417c-0.627 0.558 -0.905 1.253 -0.833 2.083 -16.858 27.587 -41.58 39.115 -74.167 34.583 -14.606 -3.101 -26.828 -10.184 -36.667 -21.25 5.688 7.722 12.911 13.694 21.667 17.917 31.894 12.326 59.811 6.353 83.75 -17.917 2.092 -3.079 4.175 -6.135 6.25 -9.167 4.918 -9.065 7.557 -18.788 7.917 -29.167a16.304 16.304 0 0 0 2.917 -3.333Z" />
  </g>
  <g>
    <path style="opacity:1" fill="#5c5c5c" d="M162.917 54.583c0.05 -0.453 0.328 -0.73 0.833 -0.833 1.086 2.621 1.086 5.121 0 7.5 0.255 -2.404 -0.022 -4.627 -0.833 -6.667Z" />
  </g>
  <g>
    <path style="opacity:1" fill="#8a8a8a" d="M40.417 96.25c-1.622 -0.628 -2.317 -1.74 -2.083 -3.333 1.234 0.809 1.929 1.92 2.083 3.333Z" />
  </g>
  <g>
    <path style="opacity:1" fill="#dddddd" d="M151.25 82.917c-0.072 0.83 0.207 1.524 0.833 2.083 -2.178 0.892 -2.178 1.588 0 2.083 -2.075 3.032 -4.158 6.088 -6.25 9.167 -23.939 24.27 -51.856 30.242 -83.75 17.917 -8.756 -4.223 -15.978 -10.195 -21.667 -17.917 9.838 11.066 22.061 18.149 36.667 21.25 32.587 4.532 57.309 -6.996 74.167 -34.583Z" />
  </g>
  <g>
    <path style="opacity:1" fill="#909090" d="M127.083 126.25c0.198 -1.076 -0.08 -1.909 -0.833 -2.5a35.392 35.392 0 0 1 1.25 -4.167c0.668 2.389 0.528 4.612 -0.417 6.667Z" />
  </g>
  <g>
    <path style="opacity:1" fill="#f2f2f2" d="M66.25 153.75c21.668 -0.139 43.335 0 65 0.417a218.553 218.553 0 0 1 31.667 3.333l1.667 1.667a25.108 25.108 0 0 1 -10 2.5 423.648 423.648 0 0 1 -20 1.667c-23.611 0.556 -47.223 0.556 -70.833 0a317.276 317.276 0 0 1 -25 -2.5c-1.601 -0.3 -2.99 -0.995 -4.167 -2.083 1.706 -1.262 3.65 -1.958 5.833 -2.083a1048.613 1048.613 0 0 1 25.833 -2.917Z" />
  </g>
  <g>
    <path style="opacity:1" fill="#e2e3e4" d="M70.417 155.417c19.447 -0.139 38.891 0 58.333 0.417a70.425 70.425 0 0 1 17.5 2.917c-5.063 1.941 -10.341 2.913 -15.833 2.917 -20.833 0.556 -41.667 0.556 -62.5 0 -5.213 -0.046 -10.213 -1.018 -15 -2.917 5.843 -1.584 11.676 -2.695 17.5 -3.333Z" />
  </g>
</svg>