<?xml version="1.0" encoding="UTF-8"?>
<!-- Created with Inkscape (http://www.inkscape.org/) -->
<svg width="150px" height="150px" version="1.1" viewBox="0 0 384 384" xmlns="http://www.w3.org/2000/svg">
 <path d="m0.16985 192.32v-192h384v384h-384z" fill="#d8e0d3"/>
 <path d="m116.08 261.91c-2.3521-0.63323-3.2996-1.1808-4.672-2.6999-1.3849-1.533-1.7417-2.3475-2.165-4.943-0.40029-2.4546 0.26753-7.1478 1.9559-13.745 0.68061-2.6596 1.9586-7.6437 2.84-11.076 2.1122-8.2248 2.6987-11.624 2.7055-15.68 0.0115-6.8637-2.6946-9.9705-8.6846-9.9705-3.2261 0-4.7901 0.30204-4.9926 0.9641-0.0885 0.28953-2.6887 12.478-5.7782 27.086-3.0895 14.608-5.7549 26.884-5.9231 27.28l-0.3059 0.72h-10.407c-6.7011 0-10.407-0.11356-10.407-0.31892 0-0.29522 13.302-63.11 18.702-88.315 1.3002-6.0687 2.2964-11.143 2.2138-11.277-0.40815-0.6604-6.1 2.6964-9.4262 5.5592-4.2666 3.6722-8.0927 9.8683-9.5539 15.472-1.5476 5.9352-1.6949 14.371-0.32026 18.346 0.42449 1.2275 0.58502 2.1415 0.40732 2.3192-0.43149 0.43149-5.26-0.24933-7.405-1.0441-5.3717-1.9904-7.738-5.9338-7.738-12.896 0-10.1 6.58-20.02 18.56-27.979 8.5487-5.6794 16.95-8.9107 26.346-10.133 4.1872-0.54473 11.796-0.52201 12.353 0.0369 0.22582 0.22645-1.0767 6.9547-4.1449 21.411-2.4608 11.595-4.4742 21.358-4.4742 21.696 0 0.3384 0.13201 0.56726 0.29336 0.5086 0.16135-0.0587 7.3726-9.6107 16.025-21.227 8.6524-11.616 16.024-21.372 16.382-21.68 0.57757-0.49719 1.452-0.56 7.7962-0.56 4.396 0 7.2214 0.12256 7.3425 0.31849 0.10826 0.17517-8.8112 10.705-19.821 23.4-11.01 12.695-20.018 23.189-20.018 23.321 0 0.13176 2.412 0.30801 5.36 0.39166 4.7368 0.13441 5.6577 0.25252 7.92 1.0158 6.0885 2.0541 8.7538 5.5586 9.4665 12.447 0.50704 4.9009-0.29596 9.8614-3.7145 22.947-2.6922 10.305-3.4847 14.556-3.2459 17.409 0.28172 3.3658 1.0639 5.2068 3.0463 7.1702 0.94365 0.9346 1.6339 1.7811 1.5339 1.8811s-1.3033 0.45283-2.6741 0.78407c-6.4504 1.5588-12.083 1.9468-15.379 1.0594zm40.406-1.5849c-6.2002-1.1716-10.339-3.8817-13.648-8.9359-1.7337-2.6485-2.5134-5.3774-2.5075-8.7768 0.0108-6.3101 2.0911-10.485 7.0651-14.179 0.92237-0.68505 1.7848-2.1354 4.3766-7.36 4.9905-10.06 8.8959-19.647 12.557-30.827 0.92228-2.816 1.8438-5.2999 2.0479-5.5199 0.3466-0.37356 18.391-2.9601 20.651-2.9601 1.211 0 1.208-0.0136 1.447 6.72 0.27524 7.7571 0.72577 14.995 1.7928 28.8 0.92106 11.917 1.2135 20.391 0.76524 22.177-0.15828 0.63064-0.0956 0.86316 0.23276 0.86316 0.815 0 7.2785-4.2343 7.9819-5.229 0.11107-0.15706 0.29855-1.4568 0.41664-2.8883 0.88371-10.712 4.9862-22.81 10.601-31.262 1.9452-2.928 6.2652-7.479 9.078-9.5636 6.6459-4.9253 14.471-7.219 21.979-6.4426 7.0878 0.73293 11.161 2.9981 13.196 7.3382 0.78537 1.6752 0.84735 2.1233 0.84735 6.1274 0 4.0839-0.049 4.4197-0.89625 6.1452-1.8996 3.8687-5.4551 5.3193-9.5869 3.9114-2.2021-0.75033-2.3109-1.0056-1.5141-3.5536 0.97447-3.1161 1.2124-7.6629 0.49867-9.5317-0.73101-1.9141-1.8074-2.7315-3.5973-2.7315-3.7475 0-7.6755 4.3047-11.797 12.928-3.6848 7.7099-6.1369 17.118-6.8892 26.432-0.63585 7.8726-0.0202 11.188 2.5559 13.764 1.1277 1.1277 1.9153 1.5926 3.4075 2.0113 4.9147 1.379 12.604 0.1002 17.727-2.9483 2.8057-1.6694 7.9381-6.026 10.651-9.0414l2.2084-2.4543 4.2958-20.075c2.3627-11.041 4.2958-20.341 4.2958-20.666 0-0.51357-0.27189-0.59037-2.09-0.59037-1.417 0-2.1413-0.13362-2.2493-0.41496-0.16642-0.43367 0.70571-5.0173 1.0136-5.327 0.0973-0.0979 1.2094-0.25003 2.4714-0.33803l2.2944-0.16 2.2051-9.983c1.2128-5.4907 2.3663-10.045 2.5634-10.121 0.88568-0.33987 20.998-2.877 21.2-2.6745 0.12502 0.12502-0.80677 5.0154-2.0706 10.868-1.2639 5.8522-2.2979 10.962-2.2979 11.355 0 0.70184 0.0739 0.71512 3.9811 0.71512 2.4106 0 4.0622 0.13127 4.1868 0.33275 0.26531 0.42928-0.46077 4.8227-0.88372 5.3472-0.22772 0.28242-1.5283 0.4-4.4245 0.4-2.3766 0-4.1847 0.13397-4.2988 0.31851-0.51688 0.83633-9.8315 45.531-9.9704 47.841-0.1734 2.8848 0.30092 4.2349 1.8997 5.4074 1.2304 0.9023 4.7274 1.0908 6.8928 0.37154 3.3514-1.1132 6.9978-4.662 8.8969-8.6589 0.50999-1.0733 2.4915-9.7638 6.0196-26.4 2.8926-13.64 6.5143-30.704 8.0483-37.92s2.9472-13.293 3.1406-13.505c0.19992-0.21905 4.4931-0.94268 9.9516-1.6774 5.28-0.71067 9.9147-1.3436 10.299-1.4064 0.38463-0.0629 0.84519-0.0241 1.0235 0.0861 0.20412 0.12616-2.8806 15.247-8.33 40.832-6.0606 28.454-8.6689 41.303-8.7035 42.871-0.0572 2.5961 0.58092 4.0166 2.3353 5.1989 0.86088 0.58015 1.5147 0.72109 3.3448 0.72109 1.2511 0 2.772-0.14261 3.3798-0.3169 0.60774-0.1743 1.2202-0.20164 1.3611-0.0608 0.33681 0.33681-0.17784 2.9857-1.0146 5.2221-1.015 2.713-2.5076 4.7216-4.6779 6.2956-9.3208 6.7597-22.046 3.3337-25.032-6.7396-0.29997-1.0118-0.65017-1.8398-0.7782-1.84-0.12804-2.4e-4 -1.424 1.2413-2.88 2.759-4.3217 4.5049-8.5758 7.0924-13.899 8.4539-3.1844 0.81443-7.7601 1.1131-10.188 0.66502-4.3731-0.80716-8.8738-4.0234-10.53-7.5251-1.0222-2.1607-1.777-5.279-1.7898-7.3933-0.0175-2.9038-0.2678-2.8437-3.8706 0.92981-6.9474 7.2766-14.398 11.641-23.075 13.516-3.9702 0.85804-11.995 0.77471-15.436-0.16028-5.2629-1.43-9.3752-4.1694-11.731-7.8149-1.3054-2.0198-2.7171-5.8711-3.0492-8.3191-0.11407-0.8408-0.32272-1.6-0.46368-1.6871-0.14095-0.0871-1.6688 0.94998-3.3953 2.3046-1.7265 1.3547-5.155 3.8081-7.619 5.452s-5.3332 3.7039-6.3761 4.5776c-6.0057 5.0318-16.948 7.56-25.624 5.9205zm4.2381-11.813c4.7469-1.2637 7.4032-3.8394 8.6069-8.3457 0.65536-2.4534 0.52427-9.0464-0.34993-17.6-0.64797-6.34-1.7751-19.264-1.7751-20.354 0-0.74776-0.63222-0.15638-0.97673 0.91364-1.5774 4.8993-4.1572 11.011-7.8879 18.687l-3.0556 6.287 1.4517 1.393c1.7121 1.6429 2.1009 3.0312 1.5448 5.516-0.76454 3.4163-2.7753 5.3566-5.7762 5.5736-1.2811 0.0927-2.1388-0.0229-2.8328-0.38184-0.54748-0.28311-1.0746-0.51475-1.1713-0.51475-0.36959 0-0.15386 2.8622 0.31656 4.1998 1.3361 3.799 3.2332 5.0818 7.5076 5.0762 1.496-2e-3 3.4752-0.20458 4.3981-0.45028z" fill="#3e6665"/>
</svg>
