<svg version="1.1" id="Layer_1" xmlns="http://www.w3.org/2000/svg" xmlns:xlink="http://www.w3.org/1999/xlink" x="0px" y="0px"
	 width="150px" height="150px" viewBox="0 0 1200 1200" enable-background="new 0 0 1200 1200" xml:space="preserve">
<path fill="#DAE2D5" opacity="1.000000" stroke="none"
	d="
M545.000000,1201.000000
	C363.333344,1201.000000 182.166672,1201.000000 1.000000,1201.000000
	C1.000000,801.000000 1.000000,401.000000 1.000000,1.000000
	C401.000000,1.000000 801.000000,1.000000 1201.000000,1.000000
	C1201.000000,401.000000 1201.000000,801.000000 1201.000000,1201.000000
	C982.500000,1201.000000 764.000000,1201.000000 545.000000,1201.000000
M891.256592,646.812073
	C894.612305,631.258118 897.967957,615.704224 901.375854,599.908325
	C910.748047,599.908325 919.715881,599.908325 929.107117,599.908325
	C930.226135,593.709717 931.297241,587.776855 932.503052,581.097534
	C922.829529,581.097534 914.108032,581.097534 905.050232,581.097534
	C910.277954,556.690002 915.365906,532.934937 920.495239,508.986664
	C918.852356,508.884521 918.351807,508.772583 917.874207,508.835388
	C896.915100,511.591125 875.950623,514.309814 855.019348,517.263855
	C853.786987,517.437805 852.156616,519.366882 851.837830,520.740540
	C848.115662,536.781006 844.507629,552.849854 841.080750,568.956177
	C838.580811,580.705322 838.716187,580.658142 826.969421,581.367737
	C825.570801,581.452209 823.375061,582.679077 823.054565,583.805054
	C821.613525,588.867432 820.716003,594.084473 819.483459,599.901855
	C824.768799,599.901855 829.364746,599.901855 834.331421,599.901855
	C834.057190,602.107727 833.976013,603.755493 833.636292,605.348083
	C825.064026,645.532715 816.480957,685.714966 807.818298,725.880127
	C807.415466,727.747803 806.680664,729.881165 805.382324,731.164246
	C796.390686,740.050598 787.578979,749.175049 778.006165,757.404968
	C761.127563,771.915710 741.007812,777.206238 719.064575,775.833130
	C709.652466,775.244141 701.535217,771.629211 696.665833,763.016052
	C692.700012,756.001160 691.588501,748.153809 692.167358,740.285522
	C693.155334,726.854980 693.950623,713.336670 696.196899,700.087524
	C700.909546,672.290955 709.794006,645.807129 725.610352,622.214966
	C730.059143,615.579041 735.795715,609.294678 742.228149,604.619019
	C752.124878,597.425171 762.429810,602.842896 763.851013,614.997009
	C764.082397,616.976074 764.376099,619.045898 764.051819,620.974731
	C762.734131,628.812500 761.102844,636.597656 759.800110,644.437622
	C759.557983,645.894348 759.777954,648.407654 760.663696,648.923157
	C771.753784,655.377930 785.571716,655.621521 793.561890,642.856384
	C801.016296,630.947021 800.543274,617.840881 797.226929,604.739014
	C795.310425,597.167358 790.749512,591.267639 784.262146,586.986816
	C770.642822,577.999817 755.216919,576.597107 739.624268,577.610046
	C708.282471,579.646057 683.341187,594.732605 664.473450,618.888611
	C639.057068,651.428650 627.028931,689.347656 624.028748,730.300049
	C623.903503,732.009460 623.804077,734.460083 622.729431,735.242798
	C614.589050,741.171692 606.207947,746.770020 597.681641,752.622620
	C597.681641,738.562622 598.320740,725.427429 597.566162,712.372742
	C594.914001,666.489746 591.782837,620.634460 588.833191,574.768616
	C588.677795,572.352661 588.519531,569.936768 588.338440,567.147827
	C565.912109,570.137146 544.153503,572.985535 522.427673,576.065125
	C521.151550,576.245972 519.596008,578.097290 519.094666,579.501221
	C516.242737,587.488586 513.730835,595.596436 510.995056,603.626404
	C498.523102,640.233765 483.616913,675.792542 464.989349,709.727661
	C463.996338,711.536682 462.498291,713.389648 460.759857,714.420044
	C435.866241,729.175598 433.846985,765.874207 446.143341,784.875061
	C458.605469,804.131897 476.405945,813.444580 498.648132,814.719238
	C521.155151,816.008972 542.973389,812.815857 562.379822,800.402527
	C571.866821,794.334167 580.604309,787.099121 589.738831,780.471741
	C592.964355,778.131531 596.456055,776.156006 599.661865,773.791138
	C607.794739,767.791382 615.834656,761.665710 624.233704,755.348267
	C624.491394,756.762085 624.787354,758.007996 624.938416,759.271179
	C628.160400,786.197815 643.663879,804.598389 668.928406,811.481567
	C684.301453,815.669922 699.868774,815.910645 715.482361,813.413147
	C746.559265,808.442200 771.476807,792.416382 792.659729,769.856689
	C796.000366,766.299011 799.219360,762.627075 803.177063,758.253784
	C803.547913,763.381287 803.787842,767.352722 804.129456,771.315430
	C806.181274,795.122314 821.530029,811.781799 845.167969,814.330505
	C867.028198,816.687500 887.222717,810.938232 904.692078,797.575867
	C912.793518,791.379028 919.698608,783.618042 927.419189,776.307556
	C929.952759,790.660095 937.188477,802.284302 950.820740,809.154358
	C964.287659,815.941162 978.221863,816.423462 992.536743,812.074585
	C1011.726929,806.244629 1027.735596,784.326111 1025.210205,766.936279
	C1022.293335,767.587708 1019.413452,768.456848 1016.470886,768.824707
	C1013.511414,769.194641 1010.477234,769.282227 1007.497375,769.113281
	C999.899536,768.682617 994.217529,764.442322 993.089478,756.973633
	C992.291626,751.691101 992.617188,745.977417 993.698975,740.714722
	C1001.100891,704.706970 1008.831360,668.766724 1016.463745,632.806396
	C1024.337524,595.708557 1032.224731,558.613525 1040.095703,521.515015
	C1042.422974,510.546234 1044.715820,499.570160 1047.143555,488.030945
	C1024.641968,491.081482 1002.897339,493.965149 981.195190,497.138519
	C979.952087,497.320251 978.463928,499.729828 978.092773,501.334534
	C975.768555,511.383331 973.747375,521.501892 971.592651,531.590332
	C957.486633,597.634338 943.242493,663.649292 929.386108,729.745605
	C927.025146,741.007385 921.663818,750.227295 913.993408,758.270752
	C906.049316,766.601257 896.387390,771.166870 884.484314,770.073975
	C875.482056,769.247437 869.945129,763.789551 870.091919,754.788940
	C870.175598,749.658386 870.664124,744.452698 871.704041,739.432800
	C878.047180,708.810547 884.600952,678.231812 891.256592,646.812073
M340.499176,465.998352
	C286.114655,467.339142 240.388565,488.103699 203.594910,527.990112
	C187.003677,545.975952 177.408493,567.062012 178.878830,592.358643
	C180.425735,618.972656 199.720932,631.848694 227.662033,630.072388
	C207.632202,570.343567 241.632233,514.120850 286.042419,499.085846
	C263.886932,603.379456 241.781738,707.436279 219.594116,811.881104
	C241.959061,811.881104 263.722321,811.881104 285.868103,811.881104
	C287.334900,804.834717 288.756409,797.861023 290.240326,790.900574
	C300.124298,744.540039 310.093201,698.197327 319.873444,651.814941
	C323.042786,636.784302 324.086700,635.757446 339.574524,636.606079
	C340.738678,636.669861 341.905670,636.724548 343.063568,636.853333
	C352.829407,637.939636 360.467468,642.476685 363.127838,652.174927
	C364.939270,658.778320 366.303772,666.128113 365.303528,672.757202
	C362.729584,689.815796 358.906769,706.697693 355.252594,723.578674
	C350.859283,743.874023 345.074158,763.929688 341.846191,784.397461
	C338.887787,803.155823 347.287842,816.095886 366.666809,819.150391
	C385.574493,822.130737 403.457916,817.024719 421.706635,812.652771
	C418.110870,809.493469 414.395721,807.113403 411.855804,803.825500
	C405.262970,795.290955 403.612274,785.038147 405.634369,774.897705
	C409.564972,755.186401 414.541107,735.682617 419.131561,716.104004
	C423.763763,696.347534 429.315308,676.734680 427.000397,656.050049
	C425.157684,639.584961 417.979858,627.105347 401.880646,620.781616
	C390.956207,616.490356 379.588379,615.697510 368.048889,615.820068
	C363.853271,615.864624 359.656830,615.827148 354.614929,615.827148
	C397.500641,566.366760 439.702087,517.695557 482.658417,468.153717
	C467.608124,468.153717 453.970093,468.362793 440.344757,468.038849
	C435.655426,467.927338 432.711456,469.501160 429.987457,473.174194
	C405.011017,506.851654 379.903748,540.432068 354.822235,574.031555
	C346.783356,584.800476 338.707489,595.541870 330.648529,606.295837
	C330.376434,606.176941 330.104309,606.058105 329.832184,605.939270
	C339.616577,559.729980 349.401001,513.520691 359.463409,465.998322
	C352.749542,465.998322 347.120880,465.998322 340.499176,465.998352
M599.957764,407.286438
	C600.217468,409.175262 600.477173,411.064056 600.736877,412.952881
	C601.375427,412.877289 602.014038,412.801727 602.652588,412.726135
	C602.325256,405.495056 601.997925,398.263977 601.670593,391.032898
	C601.080322,390.990082 600.489990,390.947266 599.899658,390.904449
	C598.827637,394.800415 597.755615,398.696350 596.683594,402.592316
	C596.406250,402.550842 596.128906,402.509369 595.851501,402.467926
	C594.779907,398.498962 593.708313,394.529968 592.636658,390.561005
	C592.104980,390.627258 591.573242,390.693512 591.041504,390.759766
	C590.653564,398.081024 590.265625,405.402283 589.877625,412.723541
	C590.501221,412.832214 591.124878,412.940857 591.748474,413.049500
	C592.233582,410.929077 592.718750,408.808655 593.393616,405.858765
	C594.375549,408.834290 595.063721,410.919617 596.031372,413.852051
	C597.656738,410.812500 598.791565,408.690277 599.957764,407.286438
M506.385803,396.018250
	C506.385803,401.644531 506.385803,407.270844 506.385803,412.897125
	C506.725433,412.940033 507.065033,412.982910 507.404663,413.025818
	C507.906860,411.120575 508.409088,409.215332 509.139984,406.442413
	C510.198700,409.229523 510.935303,411.168610 512.058655,414.125854
	C513.337891,411.202393 514.070984,409.527008 515.117737,407.134796
	C515.801270,409.720093 516.239502,411.377441 516.677734,413.034790
	C517.241638,412.932831 517.805542,412.830902 518.369446,412.728973
	C518.037598,405.497894 517.705750,398.266815 517.373901,391.035706
	C516.768005,390.997467 516.162170,390.959229 515.556335,390.920990
	C514.555725,394.705200 513.555115,398.489410 512.554504,402.273621
	C512.228210,402.224915 511.901947,402.176178 511.575684,402.127441
	C510.472809,398.256042 509.369965,394.384613 508.267090,390.513184
	C507.889221,390.606567 507.511353,390.699921 507.133484,390.793304
	C506.905823,392.250946 506.678162,393.708557 506.385803,396.018250
M289.802185,390.703400
	C289.802185,398.091309 289.802185,405.479187 289.802185,412.867096
	C290.419464,412.895386 291.036743,412.923706 291.653992,412.951996
	C291.872833,409.562134 292.091675,406.172272 292.383728,401.648621
	C294.471893,406.014832 296.091736,409.401733 297.711548,412.788635
	C298.164032,412.641235 298.616516,412.493866 299.068970,412.346466
	C299.168549,404.912292 300.162750,397.451324 298.749268,390.062500
	C298.216919,390.056519 297.684570,390.050537 297.152222,390.044556
	C297.152222,393.792206 297.152222,397.539825 297.152222,401.287476
	C296.722504,401.370209 296.292786,401.452942 295.863037,401.535675
	C295.185852,399.767365 294.630035,397.939636 293.800537,396.245941
	C292.781708,394.165558 291.534393,392.197113 289.802185,390.703400
M435.431641,411.727783
	C436.297333,411.440826 437.886017,411.210541 437.913635,410.857910
	C438.123779,408.176849 438.028687,405.471893 438.028687,402.774384
	C438.330688,402.734131 438.632690,402.693878 438.934662,402.653625
	C440.494110,406.042480 442.053558,409.431366 443.613007,412.820221
	C444.175720,412.643982 444.738434,412.467743 445.301147,412.291534
	C444.809143,404.899811 446.447418,397.430054 444.690216,390.084717
	C444.156067,390.077850 443.621887,390.070984 443.087738,390.064148
	C443.087738,393.808350 443.087738,397.552582 443.087738,401.296783
	C442.699036,401.362640 442.310364,401.428528 441.921661,401.494385
	C440.353607,397.594666 438.785583,393.694916 437.217560,389.795197
	C436.582214,389.927765 435.946869,390.060303 435.311523,390.192871
	C435.311523,397.083313 435.311523,403.973724 435.431641,411.727783
M619.082825,399.562256
	C619.082825,404.012207 619.082825,408.462158 619.082825,412.912109
	C619.846069,412.950531 620.609253,412.988953 621.372498,413.027374
	C621.671936,409.619781 621.971436,406.212219 622.342346,401.991577
	C624.318787,406.179413 625.857544,409.439667 627.396240,412.699921
	C627.791382,412.542145 628.186584,412.384399 628.581787,412.226654
	C628.581787,404.878418 628.581787,397.530151 628.581787,390.064880
	C627.747314,390.247711 627.174438,390.287659 627.163696,390.388031
	C626.802368,393.748169 626.494568,397.114044 626.179077,400.479095
	C625.930664,400.560120 625.682251,400.641113 625.433838,400.722137
	C623.964111,397.113586 622.494324,393.505066 621.024597,389.896515
	C620.520264,389.976166 620.015869,390.055786 619.511536,390.135437
	C619.372131,392.956299 619.232666,395.777161 619.082825,399.562256
M547.031128,410.595459
	C547.031128,403.778351 547.031128,396.961212 547.031128,390.144104
	C546.341309,390.113892 545.651550,390.083649 544.961731,390.053436
	C544.720642,393.530579 544.479614,397.007751 544.238525,400.484894
	C543.967041,400.564423 543.695557,400.643921 543.424072,400.723450
	C541.946167,397.109619 540.468262,393.495789 538.990356,389.881958
	C538.578186,389.990448 538.165955,390.098969 537.753784,390.207489
	C537.753784,397.752655 537.753784,405.297852 537.753784,412.843048
	C538.331787,412.887451 538.909790,412.931824 539.487793,412.976227
	C539.714539,409.600800 539.941284,406.225342 540.263000,401.437042
	C541.883240,405.248474 542.814331,407.862305 544.130066,410.265564
	C544.505493,410.951294 545.997070,411.025879 547.031128,410.595459
M405.655762,393.164246
	C404.155273,389.586365 401.347321,389.596619 397.847290,390.433472
	C397.847290,396.885010 397.840851,403.317566 397.849792,409.750122
	C397.854675,413.260712 400.468353,413.866943 402.534698,412.603546
	C404.280304,411.536255 405.861847,408.952362 406.076447,406.889954
	C406.519196,402.634613 406.001648,398.279358 405.655762,393.164246
M262.927460,406.164703
	C262.708801,408.399048 262.490173,410.633392 262.148773,414.121918
	C264.598602,411.312439 265.984436,409.723145 267.370300,408.133881
	C268.638306,409.772400 269.906281,411.410919 271.174286,413.049408
	C271.615601,412.952301 272.056885,412.855164 272.498169,412.758026
	C271.427002,406.084534 270.430359,399.397278 269.204468,392.752319
	C269.020233,391.753632 267.763855,390.952728 267.003448,390.060333
	C266.324646,391.057587 265.258026,391.975983 265.036346,393.066162
	C264.212891,397.115814 263.667480,401.221985 262.927460,406.164703
M559.084167,395.376648
	C558.979614,394.722809 559.038025,393.979004 558.737000,393.433594
	C558.082275,392.247284 557.244202,391.162201 556.481140,390.035706
	C555.668030,391.290710 554.418823,392.451569 554.123779,393.818420
	C553.251892,397.857147 552.698608,401.969269 552.138306,406.068726
	C551.830994,408.317017 551.760803,410.597717 551.583679,412.863800
	C551.891418,413.943298 552.199158,415.022766 552.506958,416.102234
	C555.080933,402.384766 558.111938,409.983337 561.730713,412.612122
	C560.887390,407.145721 560.044067,401.679352 559.084167,395.376648
M531.717529,412.903748
	C532.001038,412.772919 532.543640,412.605560 532.531067,412.516449
	C531.543030,405.515167 530.546570,398.514313 529.417908,391.534912
	C529.326111,390.967133 527.943665,390.033905 527.782471,390.148041
	C526.960938,390.729858 525.906372,391.512054 525.729919,392.385071
	C524.878906,396.595978 524.233704,400.851379 523.616272,405.105591
	C523.244080,407.670135 523.056030,410.261444 522.785278,412.840729
	C523.223694,412.916962 523.662109,412.993195 524.100525,413.069427
	C524.498108,412.272156 524.776184,411.378601 525.322266,410.700867
	C526.076660,409.764587 527.032898,408.990906 527.902771,408.147614
	C528.634766,409.085449 529.402161,409.998474 530.084412,410.971191
	C530.451050,411.493805 530.671631,412.118896 531.717529,412.903748
M421.988647,398.572754
	C421.988647,403.334351 421.988647,408.095947 421.988647,412.857513
	C422.577301,412.892883 423.165924,412.928253 423.754578,412.963593
	C424.302582,411.423706 424.850586,409.883820 425.604828,407.764435
	C426.641937,409.882111 427.446350,411.524628 428.474548,413.624084
	C429.388397,408.309082 430.388916,403.962799 430.785522,399.562103
	C430.983673,397.363708 430.696503,394.621765 429.490692,392.943359
	C428.383545,391.402283 425.748505,390.958832 423.786621,390.031799
	C423.184875,391.562561 422.460510,393.059692 422.028107,394.636871
	C421.774658,395.561279 421.986359,396.613251 421.988647,398.572754
M223.045471,402.448547
	C222.966217,399.457733 223.307343,396.367554 222.633636,393.517242
	C222.287323,392.052002 220.261993,390.303589 218.748932,390.025818
	C217.685852,389.830658 215.172729,391.825378 215.088745,392.972656
	C214.678467,398.576508 214.652283,404.238342 215.022797,409.844482
	C215.097733,410.978241 217.481354,412.793182 218.786560,412.781036
	C220.133057,412.768585 222.129745,411.159698 222.638901,409.799072
	C223.356522,407.881287 222.966843,405.549164 223.045471,402.448547
M230.797363,403.280945
	C230.693893,398.884186 230.590408,394.487457 230.486938,390.090698
	C229.821899,390.117401 229.156845,390.144104 228.491806,390.170776
	C228.491806,396.934814 228.368362,403.703796 228.639786,410.456879
	C228.675858,411.354218 230.662369,412.748871 231.846283,412.862274
	C233.026489,412.975342 235.394562,411.807465 235.420883,411.130402
	C235.690735,404.189850 235.589798,397.234863 235.592361,390.283905
	C235.275742,390.283905 234.959137,390.283905 233.809113,390.283905
	C233.809113,393.500824 233.878769,396.746735 233.789566,399.988251
	C233.700119,403.237915 233.452179,406.483154 233.273712,409.730347
	C232.634811,409.727722 231.995895,409.725098 231.356995,409.722473
	C231.170410,407.883942 230.983826,406.045380 230.797363,403.280945
M384.005768,402.419373
	C384.024048,404.575500 383.516968,406.925354 384.219116,408.829285
	C384.832184,410.491608 386.629150,412.361633 388.247162,412.767242
	C389.216980,413.010406 391.901581,410.698792 392.001068,409.396790
	C392.465668,403.314850 392.322174,397.184570 392.300201,391.071960
	C392.298889,390.706360 391.464661,390.343750 390.419586,389.492157
	C388.988007,396.549286 390.952301,403.436676 388.938934,409.700653
	C388.143127,409.659210 387.347290,409.617737 386.551483,409.576263
	C386.551483,403.072693 386.551483,396.569122 386.551483,390.065582
	C385.703949,390.070892 384.856384,390.076233 384.008850,390.081543
	C384.008850,393.872437 384.008850,397.663300 384.005768,402.419373
M310.172943,412.829926
	C311.119629,411.390778 312.781219,409.999268 312.880890,408.503693
	C313.198547,403.737091 313.249481,398.896698 312.719879,394.161255
	C312.543610,392.585052 310.303650,391.239624 309.007172,389.788727
	C307.567749,391.250854 305.089325,392.581909 304.885193,394.199890
	C304.290070,398.916473 304.189270,403.800262 304.784821,408.505829
	C304.995392,410.170044 307.774689,411.509186 310.172943,412.829926
M241.617752,399.583435
	C241.606918,402.559113 241.322632,405.569641 241.695312,408.496490
	C241.895477,410.068390 243.224075,411.496582 244.043503,412.989624
	C245.995224,411.843353 249.464218,410.882507 249.630936,409.518127
	C250.284927,404.166443 250.280045,398.640533 249.622849,393.289490
	C249.462433,391.983307 245.946320,390.943298 243.824020,390.215790
	C243.569504,390.128540 242.098068,392.708130 241.696823,394.188812
	C241.321228,395.574799 241.618042,397.143036 241.617752,399.583435
M205.129135,441.421478
	C208.523026,442.896088 211.025772,441.626129 211.265076,438.198547
	C211.642227,432.796600 211.431839,427.318970 210.951477,421.919556
	C210.849396,420.772186 208.604843,419.177216 207.189804,418.991913
	C206.107513,418.850220 203.726410,420.605011 203.725037,421.518951
	C203.715363,427.984955 204.171158,434.451630 205.129135,441.421478
M373.104919,407.578918
	C373.204407,405.768066 373.303894,403.957214 373.403412,402.146362
	C373.779999,402.144073 374.156616,402.141754 374.533203,402.139465
	C375.985229,405.828247 377.437256,409.517059 378.889282,413.205841
	C379.419647,413.013458 379.950043,412.821075 380.480408,412.628693
	C379.178497,405.193970 373.906525,398.062622 379.646057,390.089752
	C379.056244,390.014923 378.466400,389.940063 377.876556,389.865234
	C376.602325,391.570374 375.328125,393.275513 373.718567,395.429382
	C373.183228,393.183197 372.808624,391.611420 372.434021,390.039673
	C372.056702,390.085052 371.679413,390.130432 371.302094,390.175781
	C371.302094,397.717865 371.302094,405.259918 371.302094,412.801971
	C371.792664,412.829315 372.283234,412.856628 372.773804,412.883942
	C372.885803,411.406891 372.997833,409.929871 373.104919,407.578918
M216.133667,435.155975
	C216.234467,438.381775 216.261002,442.056335 220.673996,441.918823
	C225.032104,441.783051 224.944183,438.032043 224.945679,434.865479
	C224.947540,430.903625 225.124542,426.878876 224.466461,423.010468
	C224.199173,421.439209 221.964203,419.164307 220.566147,419.121582
	C219.220703,419.080505 216.874084,421.341522 216.596664,422.884064
	C215.932617,426.576416 216.226608,430.441101 216.133667,435.155975
M565.910645,393.625580
	C565.746887,397.938629 565.462402,402.251282 565.447205,406.564850
	C565.423523,413.291687 566.938904,414.284424 573.462891,412.184113
	C573.462891,409.238892 573.462891,406.322144 573.462891,403.350250
	C571.528015,403.060547 569.978638,402.828522 567.933167,402.522247
	C568.219727,399.118500 568.475342,396.082184 568.843201,391.712311
	C570.838745,394.053406 571.682434,395.043243 572.526184,396.033081
	C573.012390,395.801575 573.498596,395.570099 573.984863,395.338623
	C573.232300,393.671661 572.482422,390.613525 571.726685,390.612091
	C569.848145,390.608459 567.966858,391.998474 565.910645,393.625580
M284.527374,405.099426
	C283.284271,404.302094 282.041168,403.504791 281.012085,402.844757
	C281.215088,405.991608 281.358643,408.216705 281.502167,410.441772
	C280.888275,410.466644 280.274384,410.491516 279.660492,410.516357
	C279.660492,404.730957 279.660492,398.945526 279.660492,391.881805
	C281.549774,393.977356 282.476166,395.004913 283.824005,396.499908
	C284.707306,393.085358 284.528656,390.384430 281.370972,390.245361
	C279.837463,390.177795 277.115082,392.430328 276.808868,393.999115
	C276.025574,398.012299 276.190063,402.230469 276.167908,406.367676
	C276.131866,413.110168 277.495300,414.076416 284.587463,412.258789
	C284.587463,410.218109 284.587463,408.071014 284.527374,405.099426
M191.648712,405.142609
	C191.702667,406.305481 191.438339,407.612244 191.883942,408.598083
	C192.580154,410.138428 193.480881,412.063843 194.821259,412.678619
	C195.824234,413.138672 198.199814,412.192535 198.976501,411.142181
	C199.868408,409.935944 199.671082,407.924255 199.946899,406.262421
	C199.493881,406.194214 199.040848,406.126007 198.587814,406.057800
	C198.288162,406.747681 198.066849,407.487335 197.668274,408.114319
	C197.209106,408.836578 196.593338,409.459259 195.329361,410.995941
	C194.013611,404.180878 193.765381,398.564606 195.417801,391.754272
	C197.257126,394.184753 198.140717,395.352325 199.682556,397.389709
	C200.183533,393.442169 200.351334,390.680267 196.800644,390.083313
	C193.011871,389.446350 191.914429,392.001740 191.857117,395.275177
	C191.804703,398.269104 191.709961,401.262299 191.648712,405.142609
M487.687256,396.320374
	C487.988525,395.229553 488.289795,394.138733 488.683258,392.713989
	C490.129791,394.039062 490.982819,394.820496 491.835876,395.601898
	C492.322937,395.310059 492.809998,395.018188 493.297058,394.726349
	C492.392212,393.177460 491.476379,390.346710 490.584869,390.354340
	C488.882050,390.368927 486.356964,391.598755 485.664429,393.040527
	C483.986877,396.532990 485.264709,399.610199 488.388824,402.165619
	C492.008514,405.126373 492.034729,407.014069 488.990997,410.265076
	C488.050751,408.719269 487.160919,407.256348 486.271118,405.793457
	C485.738373,406.049652 485.205658,406.305817 484.672943,406.562012
	C485.491974,408.449921 485.932159,410.701904 487.268555,412.092621
	C488.104431,412.962341 491.114288,413.234558 491.700348,412.544647
	C492.951630,411.071594 493.942993,408.736938 493.774658,406.869385
	C493.585999,404.776337 492.131073,402.729431 490.975250,400.814453
	C490.147156,399.442474 488.904846,398.320496 487.687256,396.320374
M324.147705,401.411713
	C321.783752,399.154327 318.104004,397.337097 321.406525,392.821350
	C322.503571,393.841125 323.418152,394.691315 324.332764,395.541504
	C324.789154,395.232147 325.245544,394.922821 325.701935,394.613495
	C324.759735,393.090668 323.817566,391.567810 322.875336,390.044952
	C321.208282,391.270233 318.716064,392.157288 318.046265,393.791382
	C316.659210,397.175201 318.162476,400.068573 321.181946,402.368011
	C324.098969,404.589447 324.951477,407.340729 321.659973,410.879456
	C320.508179,408.752747 319.734344,407.323914 318.960480,405.895050
	C318.473969,406.037415 317.987457,406.179779 317.500977,406.322144
	C318.015228,408.127441 318.093048,410.292786 319.187500,411.619507
	C320.003754,412.609039 322.687805,413.315491 323.551636,412.718292
	C324.903412,411.783661 326.027802,409.678833 326.132355,408.000214
	C326.255585,406.022064 325.189178,403.969818 324.147705,401.411713
M350.069611,398.684296
	C350.103241,402.007477 349.833496,405.374512 350.304443,408.634521
	C350.524323,410.156830 351.914703,411.921936 353.276611,412.717255
	C354.131744,413.216705 356.499817,412.541626 357.154785,411.641205
	C358.179474,410.232391 358.328369,408.186523 358.848267,406.410522
	C358.346069,406.263733 357.843903,406.116943 357.341705,405.970154
	C356.516846,407.347565 355.691986,408.724976 354.867126,410.102356
	C354.489349,410.036621 354.111542,409.970856 353.733765,409.905121
	C353.733765,404.257874 353.733765,398.610657 353.733765,392.963409
	C354.065094,392.888916 354.396393,392.814423 354.727722,392.739929
	C355.609283,394.010284 356.490845,395.280640 357.774689,397.130707
	C359.139557,393.526855 358.810211,391.087524 355.705292,390.126190
	C352.800446,389.226807 350.900787,390.799530 350.388336,393.789978
	C350.165131,395.092346 350.174286,396.434570 350.069611,398.684296
M416.577515,392.661865
	C416.132355,391.765320 415.687225,390.868805 415.242065,389.972260
	C413.803680,390.891235 411.176483,391.742432 411.119568,392.740204
	C410.745911,399.292847 410.926941,405.877106 410.926941,413.140442
	C413.482635,412.856354 415.469635,412.635498 417.456665,412.414612
	C417.727173,412.084839 417.997681,411.755066 418.268188,411.425293
	C412.386475,409.331085 412.533661,406.685059 416.937622,403.951691
	C412.879578,400.396454 412.525299,395.641541 416.577515,392.661865
M582.110229,405.797058
	C583.534912,405.044312 585.725769,404.737427 583.229492,402.434082
	C582.207764,401.491272 581.258728,399.579590 581.496460,398.343292
	C582.024109,395.600250 583.322693,393.005493 584.883545,388.794495
	C582.325134,390.340179 579.107422,391.303955 579.018494,392.500397
	C578.520813,399.193512 578.779053,405.942810 578.779053,413.067383
	C581.379333,412.896210 583.185730,412.777283 584.914551,412.663483
	C583.590332,410.130310 582.582214,408.201874 582.110229,405.797058
M610.124695,400.071045
	C610.958374,396.938599 611.792114,393.806152 612.667542,390.517120
	C608.539856,389.180817 607.375366,389.829987 607.247375,394.764526
	C607.127319,399.391663 607.047852,404.028076 607.226013,408.649780
	C607.281921,410.098175 607.888855,412.349823 608.853271,412.744690
	C610.285217,413.330963 612.259888,412.591644 614.003540,412.416534
	C609.944580,409.436340 607.546143,407.156891 613.548950,404.105011
	C612.198792,402.812714 611.200989,401.857697 610.124695,400.071045
M476.720551,390.017578
	C475.888336,391.604889 474.467285,393.145569 474.337158,394.788483
	C473.982819,399.261810 474.115601,403.778992 474.164795,408.277588
	C474.222046,413.511993 475.755890,414.294037 481.380066,411.549896
	C476.337952,409.533936 475.525482,406.871765 480.314117,403.931793
	C475.597809,399.887634 475.910553,395.453613 481.521027,390.706970
	C479.848969,390.395813 478.699219,390.181854 476.720551,390.017578
M451.063599,390.635437
	C450.576569,397.935974 450.089569,405.236511 449.543579,413.421143
	C452.874847,412.882202 454.812592,412.568695 456.750366,412.255188
	C457.053802,411.886566 457.357269,411.517975 457.660706,411.149353
	C450.231567,409.242493 452.834839,406.417908 456.168335,403.800598
	C451.465912,400.125916 451.768707,395.301514 457.527496,390.491974
	C455.056824,390.360931 453.422424,390.274231 451.063599,390.635437
M193.845428,434.416809
	C193.958832,436.910889 194.072235,439.404968 194.185623,441.899048
	C194.731720,441.925140 195.277802,441.951202 195.823883,441.977264
	C196.046021,440.240417 196.235825,438.498718 196.496216,436.767609
	C197.358475,431.035339 194.219849,424.668518 199.969223,419.378662
	C196.555435,419.378662 193.902802,419.378662 192.067413,419.378662
	C192.708817,422.435883 193.426102,425.187469 193.822495,427.984558
	C194.075974,429.773193 193.855255,431.629059 193.845428,434.416809
M463.950806,405.416748
	C464.063538,407.914246 464.176239,410.411743 464.288940,412.909271
	C464.934814,412.944611 465.580658,412.979980 466.226532,413.015350
	C466.435577,411.005554 466.552429,408.980988 466.871399,406.988800
	C467.730835,401.620911 464.458557,395.523529 470.487946,390.571655
	C466.884705,390.571655 464.099243,390.571655 462.053345,390.571655
	C462.771118,392.996307 463.635681,394.959137 463.882446,396.996826
	C464.179565,399.450104 463.951599,401.967010 463.950806,405.416748
M335.144165,394.166382
	C336.132935,393.071930 337.121674,391.977478 338.424774,390.535095
	C335.038910,390.535095 332.322693,390.535095 331.087891,390.535095
	C331.706848,398.311707 332.290100,405.639618 332.873322,412.967499
	C333.605377,412.890594 334.337463,412.813690 335.069519,412.736786
	C335.069519,406.841614 335.069519,400.946472 335.144165,394.166382
M639.027466,408.253418
	C639.951782,402.422180 636.717590,395.928131 642.220703,390.439087
	C639.093811,390.439087 636.384216,390.439087 633.271484,390.439087
	C639.234985,397.484711 633.773315,406.023163 638.435364,413.054565
	C638.635437,411.763702 638.835510,410.472870 639.027466,408.253418
M230.122711,419.919708
	C230.122711,427.115295 230.122711,434.310913 230.122711,441.524109
	C232.148438,441.524109 233.950211,441.524109 235.751999,441.524109
	C230.579254,438.785919 232.328537,434.223877 232.040665,430.284973
	C231.778488,426.697998 231.238861,423.131317 230.122711,419.919708
M207.080856,405.236908
	C207.080856,400.318542 207.080856,395.400177 207.080856,390.481812
	C206.456299,390.506500 205.831741,390.531189 205.207184,390.555847
	C205.207184,397.892883 205.207184,405.229889 205.207184,412.997345
	C207.257919,412.876251 209.034607,412.771301 210.536514,412.682587
	C209.199219,410.149445 208.144379,408.151337 207.080856,405.236908
M342.396240,409.993530
	C342.748444,411.023499 343.100647,412.053467 343.452820,413.083435
	C343.832092,412.986450 344.211365,412.889496 344.590637,412.792511
	C344.590637,405.257843 344.590637,397.723175 344.590637,389.793976
	C343.605591,390.278656 342.846741,390.467957 342.839569,390.682343
	C342.634827,396.816864 342.505493,402.953857 342.396240,409.993530
z"/>
<path fill="#406867" opacity="1.000000" stroke="none"
	d="
M891.170532,647.225342
	C884.600952,678.231812 878.047180,708.810547 871.704041,739.432800
	C870.664124,744.452698 870.175598,749.658386 870.091919,754.788940
	C869.945129,763.789551 875.482056,769.247437 884.484314,770.073975
	C896.387390,771.166870 906.049316,766.601257 913.993408,758.270752
	C921.663818,750.227295 927.025146,741.007385 929.386108,729.745605
	C943.242493,663.649292 957.486633,597.634338 971.592651,531.590332
	C973.747375,521.501892 975.768555,511.383331 978.092773,501.334534
	C978.463928,499.729828 979.952087,497.320251 981.195190,497.138519
	C1002.897339,493.965149 1024.641968,491.081482 1047.143555,488.030945
	C1044.715820,499.570160 1042.422974,510.546234 1040.095703,521.515015
	C1032.224731,558.613525 1024.337524,595.708557 1016.463745,632.806396
	C1008.831360,668.766724 1001.100891,704.706970 993.698975,740.714722
	C992.617188,745.977417 992.291626,751.691101 993.089478,756.973633
	C994.217529,764.442322 999.899536,768.682617 1007.497375,769.113281
	C1010.477234,769.282227 1013.511414,769.194641 1016.470886,768.824707
	C1019.413452,768.456848 1022.293335,767.587708 1025.210205,766.936279
	C1027.735596,784.326111 1011.726929,806.244629 992.536743,812.074585
	C978.221863,816.423462 964.287659,815.941162 950.820740,809.154358
	C937.188477,802.284302 929.952759,790.660095 927.419189,776.307556
	C919.698608,783.618042 912.793518,791.379028 904.692078,797.575867
	C887.222717,810.938232 867.028198,816.687500 845.167969,814.330505
	C821.530029,811.781799 806.181274,795.122314 804.129456,771.315430
	C803.787842,767.352722 803.547913,763.381287 803.177063,758.253784
	C799.219360,762.627075 796.000366,766.299011 792.659729,769.856689
	C771.476807,792.416382 746.559265,808.442200 715.482361,813.413147
	C699.868774,815.910645 684.301453,815.669922 668.928406,811.481567
	C643.663879,804.598389 628.160400,786.197815 624.938416,759.271179
	C624.787354,758.007996 624.491394,756.762085 624.233704,755.348267
	C615.834656,761.665710 607.794739,767.791382 599.661865,773.791138
	C596.456055,776.156006 592.964355,778.131531 589.738831,780.471741
	C580.604309,787.099121 571.866821,794.334167 562.379822,800.402527
	C542.973389,812.815857 521.155151,816.008972 498.648132,814.719238
	C476.405945,813.444580 458.605469,804.131897 446.143341,784.875061
	C433.846985,765.874207 435.866241,729.175598 460.759857,714.420044
	C462.498291,713.389648 463.996338,711.536682 464.989349,709.727661
	C483.616913,675.792542 498.523102,640.233765 510.995056,603.626404
	C513.730835,595.596436 516.242737,587.488586 519.094666,579.501221
	C519.596008,578.097290 521.151550,576.245972 522.427673,576.065125
	C544.153503,572.985535 565.912109,570.137146 588.338440,567.147827
	C588.519531,569.936768 588.677795,572.352661 588.833191,574.768616
	C591.782837,620.634460 594.914001,666.489746 597.566162,712.372742
	C598.320740,725.427429 597.681641,738.562622 597.681641,752.622620
	C606.207947,746.770020 614.589050,741.171692 622.729431,735.242798
	C623.804077,734.460083 623.903503,732.009460 624.028748,730.300049
	C627.028931,689.347656 639.057068,651.428650 664.473450,618.888611
	C683.341187,594.732605 708.282471,579.646057 739.624268,577.610046
	C755.216919,576.597107 770.642822,577.999817 784.262146,586.986816
	C790.749512,591.267639 795.310425,597.167358 797.226929,604.739014
	C800.543274,617.840881 801.016296,630.947021 793.561890,642.856384
	C785.571716,655.621521 771.753784,655.377930 760.663696,648.923157
	C759.777954,648.407654 759.557983,645.894348 759.800110,644.437622
	C761.102844,636.597656 762.734131,628.812500 764.051819,620.974731
	C764.376099,619.045898 764.082397,616.976074 763.851013,614.997009
	C762.429810,602.842896 752.124878,597.425171 742.228149,604.619019
	C735.795715,609.294678 730.059143,615.579041 725.610352,622.214966
	C709.794006,645.807129 700.909546,672.290955 696.196899,700.087524
	C693.950623,713.336670 693.155334,726.854980 692.167358,740.285522
	C691.588501,748.153809 692.700012,756.001160 696.665833,763.016052
	C701.535217,771.629211 709.652466,775.244141 719.064575,775.833130
	C741.007812,777.206238 761.127563,771.915710 778.006165,757.404968
	C787.578979,749.175049 796.390686,740.050598 805.382324,731.164246
	C806.680664,729.881165 807.415466,727.747803 807.818298,725.880127
	C816.480957,685.714966 825.064026,645.532715 833.636292,605.348083
	C833.976013,603.755493 834.057190,602.107727 834.331421,599.901855
	C829.364746,599.901855 824.768799,599.901855 819.483459,599.901855
	C820.716003,594.084473 821.613525,588.867432 823.054565,583.805054
	C823.375061,582.679077 825.570801,581.452209 826.969421,581.367737
	C838.716187,580.658142 838.580811,580.705322 841.080750,568.956177
	C844.507629,552.849854 848.115662,536.781006 851.837830,520.740540
	C852.156616,519.366882 853.786987,517.437805 855.019348,517.263855
	C875.950623,514.309814 896.915100,511.591125 917.874207,508.835388
	C918.351807,508.772583 918.852356,508.884521 920.495239,508.986664
	C915.365906,532.934937 910.277954,556.690002 905.050232,581.097534
	C914.108032,581.097534 922.829529,581.097534 932.503052,581.097534
	C931.297241,587.776855 930.226135,593.709717 929.107117,599.908325
	C919.715881,599.908325 910.748047,599.908325 901.375854,599.908325
	C897.967957,615.704224 894.612305,631.258118 891.170532,647.225342
M473.742157,752.060303
	C470.269592,750.874573 466.796997,749.688904 463.332977,748.506165
	C463.384888,749.557312 463.381775,751.054626 463.543610,752.533875
	C465.439148,769.861938 472.678314,780.147095 492.904205,778.045776
	C493.730713,777.959961 494.574768,778.036926 495.399475,777.941467
	C506.633484,776.642151 516.880554,773.226501 523.823608,763.587280
	C531.257629,753.266541 532.112793,741.251709 531.326233,729.205078
	C530.199097,711.940857 528.342285,694.724792 526.840698,677.484253
	C525.415161,661.116394 524.045898,644.743713 522.803528,630.153748
	C511.162323,656.976501 498.895966,685.239685 486.433746,713.954163
	C496.458954,719.197937 497.820282,728.123230 494.007874,738.584229
	C490.683899,747.705139 484.555328,751.879395 473.742157,752.060303
z"/>
<path fill="#406867" opacity="1.000000" stroke="none"
	d="
M340.995728,465.998352
	C347.120880,465.998322 352.749542,465.998322 359.463409,465.998322
	C349.401001,513.520691 339.616577,559.729980 329.832184,605.939270
	C330.104309,606.058105 330.376434,606.176941 330.648529,606.295837
	C338.707489,595.541870 346.783356,584.800476 354.822235,574.031555
	C379.903748,540.432068 405.011017,506.851654 429.987457,473.174194
	C432.711456,469.501160 435.655426,467.927338 440.344757,468.038849
	C453.970093,468.362793 467.608124,468.153717 482.658417,468.153717
	C439.702087,517.695557 397.500641,566.366760 354.614929,615.827148
	C359.656830,615.827148 363.853271,615.864624 368.048889,615.820068
	C379.588379,615.697510 390.956207,616.490356 401.880646,620.781616
	C417.979858,627.105347 425.157684,639.584961 427.000397,656.050049
	C429.315308,676.734680 423.763763,696.347534 419.131561,716.104004
	C414.541107,735.682617 409.564972,755.186401 405.634369,774.897705
	C403.612274,785.038147 405.262970,795.290955 411.855804,803.825500
	C414.395721,807.113403 418.110870,809.493469 421.706635,812.652771
	C403.457916,817.024719 385.574493,822.130737 366.666809,819.150391
	C347.287842,816.095886 338.887787,803.155823 341.846191,784.397461
	C345.074158,763.929688 350.859283,743.874023 355.252594,723.578674
	C358.906769,706.697693 362.729584,689.815796 365.303528,672.757202
	C366.303772,666.128113 364.939270,658.778320 363.127838,652.174927
	C360.467468,642.476685 352.829407,637.939636 343.063568,636.853333
	C341.905670,636.724548 340.738678,636.669861 339.574524,636.606079
	C324.086700,635.757446 323.042786,636.784302 319.873444,651.814941
	C310.093201,698.197327 300.124298,744.540039 290.240326,790.900574
	C288.756409,797.861023 287.334900,804.834717 285.868103,811.881104
	C263.722321,811.881104 241.959061,811.881104 219.594116,811.881104
	C241.781738,707.436279 263.886932,603.379456 286.042419,499.085846
	C241.632233,514.120850 207.632202,570.343567 227.662033,630.072388
	C199.720932,631.848694 180.425735,618.972656 178.878830,592.358643
	C177.408493,567.062012 187.003677,545.975952 203.594910,527.990112
	C240.388565,488.103699 286.114655,467.339142 340.995728,465.998352
z"/>
<path fill="#4B716F" opacity="1.000000" stroke="none"
	d="
M599.942078,406.927246
	C598.791565,408.690277 597.656738,410.812500 596.031372,413.852051
	C595.063721,410.919617 594.375549,408.834290 593.393616,405.858765
	C592.718750,408.808655 592.233582,410.929077 591.748474,413.049500
	C591.124878,412.940857 590.501221,412.832214 589.877625,412.723541
	C590.265625,405.402283 590.653564,398.081024 591.041504,390.759766
	C591.573242,390.693512 592.104980,390.627258 592.636658,390.561005
	C593.708313,394.529968 594.779907,398.498962 595.851501,402.467926
	C596.128906,402.509369 596.406250,402.550842 596.683594,402.592316
	C597.755615,398.696350 598.827637,394.800415 599.899658,390.904449
	C600.489990,390.947266 601.080322,390.990082 601.670593,391.032898
	C601.997925,398.263977 602.325256,405.495056 602.652588,412.726135
	C602.014038,412.801727 601.375427,412.877289 600.736877,412.952881
	C600.477173,411.064056 600.217468,409.175262 599.942078,406.927246
z"/>
<path fill="#486F6D" opacity="1.000000" stroke="none"
	d="
M506.418152,395.592224
	C506.678162,393.708557 506.905823,392.250946 507.133484,390.793304
	C507.511353,390.699921 507.889221,390.606567 508.267090,390.513184
	C509.369965,394.384613 510.472809,398.256042 511.575684,402.127441
	C511.901947,402.176178 512.228210,402.224915 512.554504,402.273621
	C513.555115,398.489410 514.555725,394.705200 515.556335,390.920990
	C516.162170,390.959229 516.768005,390.997467 517.373901,391.035706
	C517.705750,398.266815 518.037598,405.497894 518.369446,412.728973
	C517.805542,412.830902 517.241638,412.932831 516.677734,413.034790
	C516.239502,411.377441 515.801270,409.720093 515.117737,407.134796
	C514.070984,409.527008 513.337891,411.202393 512.058655,414.125854
	C510.935303,411.168610 510.198700,409.229523 509.139984,406.442413
	C508.409088,409.215332 507.906860,411.120575 507.404663,413.025818
	C507.065033,412.982910 506.725433,412.940033 506.385803,412.897125
	C506.385803,407.270844 506.385803,401.644531 506.418152,395.592224
z"/>
<path fill="#4B716F" opacity="1.000000" stroke="none"
	d="
M290.093994,390.441833
	C291.534393,392.197113 292.781708,394.165558 293.800537,396.245941
	C294.630035,397.939636 295.185852,399.767365 295.863037,401.535675
	C296.292786,401.452942 296.722504,401.370209 297.152222,401.287476
	C297.152222,397.539825 297.152222,393.792206 297.152222,390.044556
	C297.684570,390.050537 298.216919,390.056519 298.749268,390.062500
	C300.162750,397.451324 299.168549,404.912292 299.068970,412.346466
	C298.616516,412.493866 298.164032,412.641235 297.711548,412.788635
	C296.091736,409.401733 294.471893,406.014832 292.383728,401.648621
	C292.091675,406.172272 291.872833,409.562134 291.653992,412.951996
	C291.036743,412.923706 290.419464,412.895386 289.802185,412.867096
	C289.802185,405.479187 289.802185,398.091309 290.093994,390.441833
z"/>
<path fill="#4B716F" opacity="1.000000" stroke="none"
	d="
M435.371582,411.295959
	C435.311523,403.973724 435.311523,397.083313 435.311523,390.192871
	C435.946869,390.060303 436.582214,389.927765 437.217560,389.795197
	C438.785583,393.694916 440.353607,397.594666 441.921661,401.494385
	C442.310364,401.428528 442.699036,401.362640 443.087738,401.296783
	C443.087738,397.552582 443.087738,393.808350 443.087738,390.064148
	C443.621887,390.070984 444.156067,390.077850 444.690216,390.084717
	C446.447418,397.430054 444.809143,404.899811 445.301147,412.291534
	C444.738434,412.467743 444.175720,412.643982 443.613007,412.820221
	C442.053558,409.431366 440.494110,406.042480 438.934662,402.653625
	C438.632690,402.693878 438.330688,402.734131 438.028687,402.774384
	C438.028687,405.471893 438.123779,408.176849 437.913635,410.857910
	C437.886017,411.210541 436.297333,411.440826 435.371582,411.295959
z"/>
<path fill="#4B716F" opacity="1.000000" stroke="none"
	d="
M619.088013,399.080139
	C619.232666,395.777161 619.372131,392.956299 619.511536,390.135437
	C620.015869,390.055786 620.520264,389.976166 621.024597,389.896515
	C622.494324,393.505066 623.964111,397.113586 625.433838,400.722137
	C625.682251,400.641113 625.930664,400.560120 626.179077,400.479095
	C626.494568,397.114044 626.802368,393.748169 627.163696,390.388031
	C627.174438,390.287659 627.747314,390.247711 628.581787,390.064880
	C628.581787,397.530151 628.581787,404.878418 628.581787,412.226654
	C628.186584,412.384399 627.791382,412.542145 627.396240,412.699921
	C625.857544,409.439667 624.318787,406.179413 622.342346,401.991577
	C621.971436,406.212219 621.671936,409.619781 621.372498,413.027374
	C620.609253,412.988953 619.846069,412.950531 619.082825,412.912109
	C619.082825,408.462158 619.082825,404.012207 619.088013,399.080139
z"/>
<path fill="#4B716F" opacity="1.000000" stroke="none"
	d="
M547.004028,410.988098
	C545.997070,411.025879 544.505493,410.951294 544.130066,410.265564
	C542.814331,407.862305 541.883240,405.248474 540.263000,401.437042
	C539.941284,406.225342 539.714539,409.600800 539.487793,412.976227
	C538.909790,412.931824 538.331787,412.887451 537.753784,412.843048
	C537.753784,405.297852 537.753784,397.752655 537.753784,390.207489
	C538.165955,390.098969 538.578186,389.990448 538.990356,389.881958
	C540.468262,393.495789 541.946167,397.109619 543.424072,400.723450
	C543.695557,400.643921 543.967041,400.564423 544.238525,400.484894
	C544.479614,397.007751 544.720642,393.530579 544.961731,390.053436
	C545.651550,390.083649 546.341309,390.113892 547.031128,390.144104
	C547.031128,396.961212 547.031128,403.778351 547.004028,410.988098
z"/>
<path fill="#486F6D" opacity="1.000000" stroke="none"
	d="
M405.767456,393.564728
	C406.001648,398.279358 406.519196,402.634613 406.076447,406.889954
	C405.861847,408.952362 404.280304,411.536255 402.534698,412.603546
	C400.468353,413.866943 397.854675,413.260712 397.849792,409.750122
	C397.840851,403.317566 397.847290,396.885010 397.847290,390.433472
	C401.347321,389.596619 404.155273,389.586365 405.767456,393.564728
M400.203827,404.195374
	C400.332428,406.057983 400.461029,407.920593 400.589630,409.783234
	C401.238953,409.853638 401.888275,409.924042 402.537598,409.994446
	C402.822784,408.107422 403.242157,406.221008 403.250610,404.332733
	C403.251862,404.044922 401.350220,403.748596 400.203827,404.195374
z"/>
<path fill="#4B716F" opacity="1.000000" stroke="none"
	d="
M262.972595,405.735840
	C263.667480,401.221985 264.212891,397.115814 265.036346,393.066162
	C265.258026,391.975983 266.324646,391.057587 267.003448,390.060333
	C267.763855,390.952728 269.020233,391.753632 269.204468,392.752319
	C270.430359,399.397278 271.427002,406.084534 272.498169,412.758026
	C272.056885,412.855164 271.615601,412.952301 271.174286,413.049408
	C269.906281,411.410919 268.638306,409.772400 267.370300,408.133850
	C265.984436,409.723145 264.598602,411.312439 262.148773,414.121918
	C262.490173,410.633392 262.708801,408.399048 262.972595,405.735840
z"/>
<path fill="#4B716F" opacity="1.000000" stroke="none"
	d="
M559.142456,395.794800
	C560.044067,401.679352 560.887390,407.145721 561.730713,412.612122
	C558.111938,409.983337 555.080933,402.384766 552.506958,416.102234
	C552.199158,415.022766 551.891418,413.943298 551.583679,412.863800
	C551.760803,410.597717 551.830994,408.317017 552.138306,406.068726
	C552.698608,401.969269 553.251892,397.857147 554.123779,393.818420
	C554.418823,392.451569 555.668030,391.290710 556.481140,390.035706
	C557.244202,391.162201 558.082275,392.247284 558.737000,393.433594
	C559.038025,393.979004 558.979614,394.722809 559.142456,395.794800
z"/>
<path fill="#4B716F" opacity="1.000000" stroke="none"
	d="
M531.337769,412.800751
	C530.671631,412.118896 530.451050,411.493805 530.084412,410.971191
	C529.402161,409.998474 528.634766,409.085449 527.902771,408.147583
	C527.032898,408.990906 526.076660,409.764587 525.322266,410.700867
	C524.776184,411.378601 524.498108,412.272156 524.100525,413.069427
	C523.662109,412.993195 523.223694,412.916962 522.785278,412.840729
	C523.056030,410.261444 523.244080,407.670135 523.616272,405.105591
	C524.233704,400.851379 524.878906,396.595978 525.729919,392.385071
	C525.906372,391.512054 526.960938,390.729858 527.782471,390.148041
	C527.943665,390.033905 529.326111,390.967133 529.417908,391.534912
	C530.546570,398.514313 531.543030,405.515167 532.531067,412.516449
	C532.543640,412.605560 532.001038,412.772919 531.337769,412.800751
z"/>
<path fill="#527673" opacity="1.000000" stroke="none"
	d="
M421.988708,398.090271
	C421.986359,396.613251 421.774658,395.561279 422.028107,394.636871
	C422.460510,393.059692 423.184875,391.562561 423.786621,390.031799
	C425.748505,390.958832 428.383545,391.402283 429.490692,392.943359
	C430.696503,394.621765 430.983673,397.363708 430.785522,399.562103
	C430.388916,403.962799 429.388397,408.309082 428.474548,413.624084
	C427.446350,411.524628 426.641937,409.882111 425.604828,407.764435
	C424.850586,409.883820 424.302582,411.423706 423.754578,412.963593
	C423.165924,412.928253 422.577301,412.892883 421.988647,412.857513
	C421.988647,408.095947 421.988647,403.334351 421.988708,398.090271
M426.686005,403.001831
	C428.819580,399.507141 428.673157,396.273407 426.491821,393.272552
	C425.802155,393.353210 425.112488,393.433868 424.422852,393.514496
	C424.954651,396.832062 425.486450,400.149628 426.686005,403.001831
z"/>
<path fill="#4D7270" opacity="1.000000" stroke="none"
	d="
M223.048035,402.921387
	C222.966843,405.549164 223.356522,407.881287 222.638901,409.799072
	C222.129745,411.159698 220.133057,412.768585 218.786560,412.781036
	C217.481354,412.793182 215.097733,410.978241 215.022797,409.844482
	C214.652283,404.238342 214.678467,398.576508 215.088745,392.972656
	C215.172729,391.825378 217.685852,389.830658 218.748932,390.025818
	C220.261993,390.303589 222.287323,392.052002 222.633636,393.517242
	C223.307343,396.367554 222.966217,399.457733 223.048035,402.921387
M220.138672,394.950226
	C219.737610,394.323486 219.336548,393.696777 218.935471,393.070038
	C218.342850,393.732147 217.252823,394.383453 217.238159,395.058105
	C217.141403,399.515167 217.225815,403.979187 217.399033,408.435181
	C217.420319,408.983063 218.318314,409.496857 218.810028,410.026459
	C219.270996,409.946259 219.731979,409.866058 220.192947,409.785828
	C220.192947,405.145416 220.192947,400.505005 220.138672,394.950226
z"/>
<path fill="#527673" opacity="1.000000" stroke="none"
	d="
M230.797302,403.743896
	C230.983826,406.045380 231.170410,407.883942 231.356995,409.722473
	C231.995895,409.725098 232.634811,409.727722 233.273712,409.730347
	C233.452179,406.483154 233.700119,403.237915 233.789566,399.988251
	C233.878769,396.746735 233.809113,393.500824 233.809113,390.283905
	C234.959137,390.283905 235.275742,390.283905 235.592361,390.283905
	C235.589798,397.234863 235.690735,404.189850 235.420883,411.130402
	C235.394562,411.807465 233.026489,412.975342 231.846283,412.862274
	C230.662369,412.748871 228.675858,411.354218 228.639786,410.456879
	C228.368362,403.703796 228.491806,396.934814 228.491806,390.170776
	C229.156845,390.144104 229.821899,390.117401 230.486938,390.090698
	C230.590408,394.487457 230.693893,398.884186 230.797302,403.743896
z"/>
<path fill="#527673" opacity="1.000000" stroke="none"
	d="
M384.007324,401.936768
	C384.008850,397.663300 384.008850,393.872437 384.008850,390.081543
	C384.856384,390.076233 385.703949,390.070892 386.551483,390.065582
	C386.551483,396.569122 386.551483,403.072693 386.551483,409.576263
	C387.347290,409.617737 388.143127,409.659210 388.938934,409.700653
	C390.952301,403.436676 388.988007,396.549286 390.419586,389.492157
	C391.464661,390.343750 392.298889,390.706360 392.300201,391.071960
	C392.322174,397.184570 392.465668,403.314850 392.001068,409.396790
	C391.901581,410.698792 389.216980,413.010406 388.247162,412.767242
	C386.629150,412.361633 384.832184,410.491608 384.219116,408.829285
	C383.516968,406.925354 384.024048,404.575500 384.007324,401.936768
z"/>
<path fill="#4D7270" opacity="1.000000" stroke="none"
	d="
M309.777100,412.913330
	C307.774689,411.509186 304.995392,410.170044 304.784821,408.505829
	C304.189270,403.800262 304.290070,398.916473 304.885193,394.199890
	C305.089325,392.581909 307.567749,391.250854 309.007141,389.788696
	C310.303650,391.239624 312.543610,392.585052 312.719879,394.161255
	C313.249481,398.896698 313.198547,403.737091 312.880890,408.503693
	C312.781219,409.999268 311.119629,411.390778 309.777100,412.913330
M310.268158,407.079254
	C310.190613,402.351501 310.113098,397.623718 310.035583,392.895966
	C309.163208,392.916077 308.290802,392.936188 307.418427,392.956329
	C307.418427,398.211487 307.418427,403.466675 307.418427,408.721832
	C308.344574,408.473633 309.270691,408.225464 310.268158,407.079254
z"/>
<path fill="#446B6A" opacity="1.000000" stroke="none"
	d="
M241.618347,399.107239
	C241.618042,397.143036 241.321228,395.574799 241.696823,394.188812
	C242.098068,392.708130 243.569504,390.128540 243.824020,390.215790
	C245.946320,390.943298 249.462433,391.983307 249.622849,393.289490
	C250.280045,398.640533 250.284927,404.166443 249.630936,409.518127
	C249.464218,410.882507 245.995224,411.843353 244.043503,412.989624
	C243.224075,411.496582 241.895477,410.068390 241.695312,408.496490
	C241.322632,405.569641 241.606918,402.559113 241.618347,399.107239
M244.072296,397.779846
	C244.182510,401.855072 244.292709,405.930328 244.438461,411.320068
	C248.887787,405.844818 248.796921,396.195953 244.743698,392.418579
	C244.467972,394.251953 244.271164,395.560608 244.072296,397.779846
z"/>
<path fill="#4D7270" opacity="1.000000" stroke="none"
	d="
M204.803833,441.169800
	C204.171158,434.451630 203.715363,427.984955 203.725037,421.518951
	C203.726410,420.605011 206.107513,418.850220 207.189804,418.991913
	C208.604843,419.177216 210.849396,420.772186 210.951477,421.919556
	C211.431839,427.318970 211.642227,432.796600 211.265076,438.198547
	C211.025772,441.626129 208.523026,442.896088 204.803833,441.169800
M208.932556,435.147308
	C208.835480,430.719849 208.738419,426.292389 208.641357,421.864929
	C207.922714,421.898560 207.204086,421.932159 206.485443,421.965759
	C206.485443,427.566010 206.485443,433.166290 206.485443,438.766571
	C206.895798,438.875946 207.306168,438.985321 207.716522,439.094666
	C208.118607,438.080261 208.520691,437.065857 208.932556,435.147308
z"/>
<path fill="#486F6D" opacity="1.000000" stroke="none"
	d="
M373.107391,408.015869
	C372.997833,409.929871 372.885803,411.406891 372.773804,412.883942
	C372.283234,412.856628 371.792664,412.829315 371.302094,412.801971
	C371.302094,405.259918 371.302094,397.717865 371.302094,390.175781
	C371.679413,390.130432 372.056702,390.085052 372.434021,390.039673
	C372.808624,391.611420 373.183228,393.183197 373.718567,395.429382
	C375.328125,393.275513 376.602325,391.570374 377.876556,389.865234
	C378.466400,389.940063 379.056244,390.014923 379.646057,390.089752
	C373.906525,398.062622 379.178497,405.193970 380.480408,412.628693
	C379.950043,412.821075 379.419647,413.013458 378.889282,413.205841
	C377.437256,409.517059 375.985229,405.828247 374.533203,402.139465
	C374.156616,402.141754 373.779999,402.144073 373.403412,402.146362
	C373.303894,403.957214 373.204407,405.768066 373.107391,408.015869
z"/>
<path fill="#527673" opacity="1.000000" stroke="none"
	d="
M216.133759,434.696106
	C216.226608,430.441101 215.932617,426.576416 216.596664,422.884064
	C216.874084,421.341522 219.220703,419.080505 220.566147,419.121582
	C221.964203,419.164307 224.199173,421.439209 224.466461,423.010468
	C225.124542,426.878876 224.947540,430.903625 224.945679,434.865479
	C224.944183,438.032043 225.032104,441.783051 220.673996,441.918823
	C216.261002,442.056335 216.234467,438.381775 216.133759,434.696106
M218.987503,428.605896
	C219.175766,432.008667 219.364044,435.411438 219.552307,438.814209
	C220.135620,438.783691 220.718933,438.753204 221.302246,438.722717
	C221.302246,433.143799 221.302246,427.564880 221.302246,421.985962
	C220.777008,421.948273 220.251755,421.910583 219.726517,421.872894
	C219.478745,423.803772 219.230972,425.734619 218.987503,428.605896
z"/>
<path fill="#4D7270" opacity="1.000000" stroke="none"
	d="
M565.998657,393.227234
	C567.966858,391.998474 569.848145,390.608459 571.726685,390.612091
	C572.482422,390.613525 573.232300,393.671661 573.984863,395.338623
	C573.498596,395.570099 573.012390,395.801575 572.526184,396.033081
	C571.682434,395.043243 570.838745,394.053406 568.843201,391.712311
	C568.475342,396.082184 568.219727,399.118500 567.933167,402.522247
	C569.978638,402.828522 571.528015,403.060547 573.462891,403.350250
	C573.462891,406.322144 573.462891,409.238892 573.462891,412.184113
	C566.938904,414.284424 565.423523,413.291687 565.447205,406.564850
	C565.462402,402.251282 565.746887,397.938629 565.998657,393.227234
M570.287842,410.429260
	C571.444214,407.947052 572.146240,405.608887 567.594299,404.143555
	C568.379700,406.769653 568.955261,408.694397 570.287842,410.429260
z"/>
<path fill="#4D7270" opacity="1.000000" stroke="none"
	d="
M284.557434,405.511658
	C284.587463,408.071014 284.587463,410.218109 284.587463,412.258789
	C277.495300,414.076416 276.131866,413.110168 276.167908,406.367676
	C276.190063,402.230469 276.025574,398.012299 276.808868,393.999115
	C277.115082,392.430328 279.837463,390.177795 281.370972,390.245361
	C284.528656,390.384430 284.707306,393.085358 283.824005,396.499908
	C282.476166,395.004913 281.549774,393.977356 279.660492,391.881805
	C279.660492,398.945526 279.660492,404.730957 279.660492,410.516357
	C280.274384,410.491516 280.888275,410.466644 281.502167,410.441772
	C281.358643,408.216705 281.215088,405.991608 281.012085,402.844757
	C282.041168,403.504791 283.284271,404.302094 284.557434,405.511658
z"/>
<path fill="#486F6D" opacity="1.000000" stroke="none"
	d="
M191.641281,404.699219
	C191.709961,401.262299 191.804703,398.269104 191.857117,395.275177
	C191.914429,392.001740 193.011871,389.446350 196.800644,390.083313
	C200.351334,390.680267 200.183533,393.442169 199.682556,397.389709
	C198.140717,395.352325 197.257126,394.184753 195.417801,391.754272
	C193.765381,398.564606 194.013611,404.180878 195.329361,410.995941
	C196.593338,409.459259 197.209106,408.836578 197.668274,408.114319
	C198.066849,407.487335 198.288162,406.747681 198.587814,406.057800
	C199.040848,406.126007 199.493881,406.194214 199.946899,406.262421
	C199.671082,407.924255 199.868408,409.935944 198.976501,411.142181
	C198.199814,412.192535 195.824234,413.138672 194.821259,412.678619
	C193.480881,412.063843 192.580154,410.138428 191.883942,408.598083
	C191.438339,407.612244 191.702667,406.305481 191.641281,404.699219
z"/>
<path fill="#527673" opacity="1.000000" stroke="none"
	d="
M487.767273,396.703674
	C488.904846,398.320496 490.147156,399.442474 490.975250,400.814453
	C492.131073,402.729431 493.585999,404.776337 493.774658,406.869385
	C493.942993,408.736938 492.951630,411.071594 491.700348,412.544647
	C491.114288,413.234558 488.104431,412.962341 487.268555,412.092621
	C485.932159,410.701904 485.491974,408.449921 484.672943,406.562012
	C485.205658,406.305817 485.738373,406.049652 486.271118,405.793457
	C487.160919,407.256348 488.050751,408.719269 488.990997,410.265076
	C492.034729,407.014069 492.008514,405.126373 488.388824,402.165619
	C485.264709,399.610199 483.986877,396.532990 485.664429,393.040527
	C486.356964,391.598755 488.882050,390.368927 490.584869,390.354340
	C491.476379,390.346710 492.392212,393.177460 493.297058,394.726349
	C492.809998,395.018188 492.322937,395.310059 491.835876,395.601898
	C490.982819,394.820496 490.129791,394.039062 488.683258,392.713989
	C488.289795,394.138733 487.988525,395.229553 487.767273,396.703674
z"/>
<path fill="#486F6D" opacity="1.000000" stroke="none"
	d="
M324.393158,401.680725
	C325.189178,403.969818 326.255585,406.022064 326.132355,408.000214
	C326.027802,409.678833 324.903412,411.783661 323.551636,412.718292
	C322.687805,413.315491 320.003754,412.609039 319.187500,411.619507
	C318.093048,410.292786 318.015228,408.127441 317.500977,406.322144
	C317.987457,406.179779 318.473969,406.037415 318.960480,405.895050
	C319.734344,407.323914 320.508179,408.752747 321.659973,410.879456
	C324.951477,407.340729 324.098969,404.589447 321.181946,402.368011
	C318.162476,400.068573 316.659210,397.175201 318.046265,393.791382
	C318.716064,392.157288 321.208282,391.270233 322.875366,390.044983
	C323.817566,391.567810 324.759735,393.090668 325.701935,394.613495
	C325.245544,394.922821 324.789154,395.232147 324.332764,395.541504
	C323.418152,394.691315 322.503571,393.841125 321.406525,392.821350
	C318.104004,397.337097 321.783752,399.154327 324.393158,401.680725
z"/>
<path fill="#527673" opacity="1.000000" stroke="none"
	d="
M350.073761,398.221497
	C350.174286,396.434570 350.165131,395.092346 350.388336,393.789978
	C350.900787,390.799530 352.800446,389.226807 355.705292,390.126190
	C358.810211,391.087524 359.139557,393.526855 357.774689,397.130707
	C356.490845,395.280640 355.609283,394.010284 354.727722,392.739929
	C354.396393,392.814423 354.065094,392.888916 353.733765,392.963409
	C353.733765,398.610657 353.733765,404.257874 353.733765,409.905121
	C354.111542,409.970856 354.489349,410.036621 354.867126,410.102356
	C355.691986,408.724976 356.516846,407.347565 357.341705,405.970154
	C357.843903,406.116943 358.346069,406.263733 358.848267,406.410522
	C358.328369,408.186523 358.179474,410.232391 357.154785,411.641205
	C356.499817,412.541626 354.131744,413.216705 353.276611,412.717255
	C351.914703,411.921936 350.524323,410.156830 350.304443,408.634521
	C349.833496,405.374512 350.103241,402.007477 350.073761,398.221497
z"/>
<path fill="#4D7270" opacity="1.000000" stroke="none"
	d="
M416.198425,392.761597
	C412.525299,395.641541 412.879578,400.396454 416.937622,403.951691
	C412.533661,406.685059 412.386475,409.331085 418.268188,411.425293
	C417.997681,411.755066 417.727173,412.084839 417.456665,412.414612
	C415.469635,412.635498 413.482635,412.856354 410.926941,413.140442
	C410.926941,405.877106 410.745911,399.292847 411.119568,392.740204
	C411.176483,391.742432 413.803680,390.891235 415.242065,389.972260
	C415.687225,390.868805 416.132355,391.765320 416.198425,392.761597
z"/>
<path fill="#446B6A" opacity="1.000000" stroke="none"
	d="
M581.842163,406.035248
	C582.582214,408.201874 583.590332,410.130310 584.914551,412.663483
	C583.185730,412.777283 581.379333,412.896210 578.779053,413.067383
	C578.779053,405.942810 578.520813,399.193512 579.018494,392.500397
	C579.107422,391.303955 582.325134,390.340179 584.883545,388.794495
	C583.322693,393.005493 582.024109,395.600250 581.496460,398.343292
	C581.258728,399.579590 582.207764,401.491272 583.229492,402.434082
	C585.725769,404.737427 583.534912,405.044312 581.842163,406.035248
z"/>
<path fill="#4F7472" opacity="1.000000" stroke="none"
	d="
M610.163940,400.486847
	C611.200989,401.857697 612.198792,402.812714 613.548950,404.105011
	C607.546143,407.156891 609.944580,409.436340 614.003540,412.416534
	C612.259888,412.591644 610.285217,413.330963 608.853271,412.744690
	C607.888855,412.349823 607.281921,410.098175 607.226013,408.649780
	C607.047852,404.028076 607.127319,399.391663 607.247375,394.764526
	C607.375366,389.829987 608.539856,389.180817 612.667542,390.517120
	C611.792114,393.806152 610.958374,396.938599 610.163940,400.486847
z"/>
<path fill="#4F7472" opacity="1.000000" stroke="none"
	d="
M477.135010,389.992737
	C478.699219,390.181854 479.848969,390.395813 481.521027,390.706970
	C475.910553,395.453613 475.597809,399.887634 480.314117,403.931793
	C475.525482,406.871765 476.337952,409.533936 481.380066,411.549896
	C475.755890,414.294037 474.222046,413.511993 474.164795,408.277588
	C474.115601,403.778992 473.982819,399.261810 474.337158,394.788483
	C474.467285,393.145569 475.888336,391.604889 477.135010,389.992737
z"/>
<path fill="#4B716F" opacity="1.000000" stroke="none"
	d="
M451.425812,390.411499
	C453.422424,390.274231 455.056824,390.360931 457.527496,390.491974
	C451.768707,395.301514 451.465912,400.125916 456.168335,403.800598
	C452.834839,406.417908 450.231567,409.242493 457.660706,411.149353
	C457.357269,411.517975 457.053802,411.886566 456.750366,412.255188
	C454.812592,412.568695 452.874847,412.882202 449.543579,413.421143
	C450.089569,405.236511 450.576569,397.935974 451.425812,390.411499
z"/>
<path fill="#446B6A" opacity="1.000000" stroke="none"
	d="
M193.846283,433.935791
	C193.855255,431.629059 194.075974,429.773193 193.822495,427.984558
	C193.426102,425.187469 192.708817,422.435883 192.067413,419.378662
	C193.902802,419.378662 196.555435,419.378662 199.969223,419.378662
	C194.219849,424.668518 197.358475,431.035339 196.496216,436.767609
	C196.235825,438.498718 196.046021,440.240417 195.823883,441.977264
	C195.277802,441.951202 194.731720,441.925140 194.185623,441.899048
	C194.072235,439.404968 193.958832,436.910889 193.846283,433.935791
z"/>
<path fill="#4F7472" opacity="1.000000" stroke="none"
	d="
M463.950867,404.936554
	C463.951599,401.967010 464.179565,399.450104 463.882446,396.996826
	C463.635681,394.959137 462.771118,392.996307 462.053345,390.571655
	C464.099243,390.571655 466.884705,390.571655 470.487946,390.571655
	C464.458557,395.523529 467.730835,401.620911 466.871399,406.988800
	C466.552429,408.980988 466.435577,411.005554 466.226532,413.015350
	C465.580658,412.979980 464.934814,412.944611 464.288940,412.909271
	C464.176239,410.411743 464.063538,407.914246 463.950867,404.936554
z"/>
<path fill="#4F7472" opacity="1.000000" stroke="none"
	d="
M335.106842,394.608826
	C335.069519,400.946472 335.069519,406.841614 335.069519,412.736786
	C334.337463,412.813690 333.605377,412.890594 332.873322,412.967499
	C332.290100,405.639618 331.706848,398.311707 331.087891,390.535095
	C332.322693,390.535095 335.038910,390.535095 338.424774,390.535095
	C337.121674,391.977478 336.132935,393.071930 335.106842,394.608826
z"/>
<path fill="#4F7472" opacity="1.000000" stroke="none"
	d="
M639.031555,408.717712
	C638.835510,410.472870 638.635437,411.763702 638.435364,413.054565
	C633.773315,406.023163 639.234985,397.484711 633.271484,390.439087
	C636.384216,390.439087 639.093811,390.439087 642.220703,390.439087
	C636.717590,395.928131 639.951782,402.422180 639.031555,408.717712
z"/>
<path fill="#446B6A" opacity="1.000000" stroke="none"
	d="
M230.472137,419.737701
	C231.238861,423.131317 231.778488,426.697998 232.040665,430.284973
	C232.328537,434.223877 230.579254,438.785919 235.751999,441.524109
	C233.950211,441.524109 232.148438,441.524109 230.122711,441.524109
	C230.122711,434.310913 230.122711,427.115295 230.472137,419.737701
z"/>
<path fill="#446B6A" opacity="1.000000" stroke="none"
	d="
M207.085190,405.695068
	C208.144379,408.151337 209.199219,410.149445 210.536514,412.682587
	C209.034607,412.771301 207.257919,412.876251 205.207184,412.997345
	C205.207184,405.229889 205.207184,397.892883 205.207184,390.555847
	C205.831741,390.531189 206.456299,390.506500 207.080856,390.481812
	C207.080856,395.400177 207.080856,400.318542 207.085190,405.695068
z"/>
<path fill="#527673" opacity="1.000000" stroke="none"
	d="
M342.380066,409.541992
	C342.505493,402.953857 342.634827,396.816864 342.839569,390.682343
	C342.846741,390.467957 343.605591,390.278656 344.590637,389.793976
	C344.590637,397.723175 344.590637,405.257843 344.590637,412.792511
	C344.211365,412.889496 343.832092,412.986450 343.452820,413.083435
	C343.100647,412.053467 342.748444,411.023499 342.380066,409.541992
z"/>
<path fill="#D9E1D4" opacity="1.000000" stroke="none"
	d="
M474.174255,752.071655
	C484.555328,751.879395 490.683899,747.705139 494.007874,738.584229
	C497.820282,728.123230 496.458954,719.197937 486.433746,713.954163
	C498.895966,685.239685 511.162323,656.976501 522.803528,630.153748
	C524.045898,644.743713 525.415161,661.116394 526.840698,677.484253
	C528.342285,694.724792 530.199097,711.940857 531.326233,729.205078
	C532.112793,741.251709 531.257629,753.266541 523.823608,763.587280
	C516.880554,773.226501 506.633484,776.642151 495.399475,777.941467
	C494.574768,778.036926 493.730713,777.959961 492.904205,778.045776
	C472.678314,780.147095 465.439148,769.861938 463.543610,752.533875
	C463.381775,751.054626 463.384888,749.557312 463.332977,748.506165
	C466.796997,749.688904 470.269592,750.874573 474.174255,752.071655
z"/>
<path fill="#D0DACE" opacity="1.000000" stroke="none"
	d="
M400.266296,403.825775
	C401.350220,403.748596 403.251862,404.044922 403.250610,404.332733
	C403.242157,406.221008 402.822784,408.107422 402.537598,409.994446
	C401.888275,409.924042 401.238953,409.853638 400.589630,409.783234
	C400.461029,407.920593 400.332428,406.057983 400.266296,403.825775
z"/>
<path fill="#D9E1D4" opacity="1.000000" stroke="none"
	d="
M426.352112,403.234497
	C425.486450,400.149628 424.954651,396.832062 424.422852,393.514496
	C425.112488,393.433868 425.802155,393.353210 426.491821,393.272552
	C428.673157,396.273407 428.819580,399.507141 426.352112,403.234497
z"/>
<path fill="#D0DACE" opacity="1.000000" stroke="none"
	d="
M220.165802,395.407410
	C220.192947,400.505005 220.192947,405.145416 220.192947,409.785828
	C219.731979,409.866058 219.270996,409.946259 218.810028,410.026459
	C218.318314,409.496857 217.420319,408.983063 217.399033,408.435181
	C217.225815,403.979187 217.141403,399.515167 217.238159,395.058105
	C217.252823,394.383453 218.342850,393.732147 218.935471,393.070038
	C219.336548,393.696777 219.737610,394.323486 220.165802,395.407410
z"/>
<path fill="#D0DACE" opacity="1.000000" stroke="none"
	d="
M310.232483,407.528259
	C309.270691,408.225464 308.344574,408.473633 307.418427,408.721832
	C307.418427,403.466675 307.418427,398.211487 307.418427,392.956329
	C308.290802,392.936188 309.163208,392.916077 310.035583,392.895966
	C310.113098,397.623718 310.190613,402.351501 310.232483,407.528259
z"/>
<path fill="#D0DACE" opacity="1.000000" stroke="none"
	d="
M244.073334,397.324585
	C244.271164,395.560608 244.467972,394.251953 244.743698,392.418579
	C248.796921,396.195953 248.887787,405.844818 244.438461,411.320068
	C244.292709,405.930328 244.182510,401.855072 244.073334,397.324585
z"/>
<path fill="#D0DACE" opacity="1.000000" stroke="none"
	d="
M208.927673,435.599365
	C208.520691,437.065857 208.118607,438.080261 207.716522,439.094666
	C207.306168,438.985321 206.895798,438.875946 206.485443,438.766571
	C206.485443,433.166290 206.485443,427.566010 206.485443,421.965759
	C207.204086,421.932159 207.922714,421.898560 208.641357,421.864929
	C208.738419,426.292389 208.835480,430.719849 208.927673,435.599365
z"/>
<path fill="#D9E1D4" opacity="1.000000" stroke="none"
	d="
M218.985352,428.135681
	C219.230972,425.734619 219.478745,423.803772 219.726517,421.872894
	C220.251755,421.910583 220.777008,421.948273 221.302246,421.985962
	C221.302246,427.564880 221.302246,433.143799 221.302246,438.722717
	C220.718933,438.753204 220.135620,438.783691 219.552307,438.814209
	C219.364044,435.411438 219.175766,432.008667 218.985352,428.135681
z"/>
<path fill="#DAE2D5" opacity="1.000000" stroke="none"
	d="
M569.909363,410.524170
	C568.955261,408.694397 568.379700,406.769653 567.594299,404.143555
	C572.146240,405.608887 571.444214,407.947052 569.909363,410.524170
z"/>
</svg>