<svg version="1.1" xmlns="http://www.w3.org/2000/svg" viewBox="0 0 184.28075896858354 169.1083097835915" width="184.28075896858354" height="169.1083097835915" filter="invert(93%) hue-rotate(180deg)">
  <!-- svg-source:excalidraw -->
  
  <defs>
    <style class="style-fonts">
      @font-face {
        font-family: "Virgil";
        src: url("https://excalidraw.com/Virgil.woff2");
      }
      @font-face {
        font-family: "Cascadia";
        src: url("https://excalidraw.com/Cascadia.woff2");
      }
    </style>
  </defs>
  <g stroke-linecap="round" transform="translate(10 10) rotate(0 82.14037948429177 74.55415489179575)"><path d="M32 0 M32 0 C67.83 0, 103.66 0, 132.28 0 M32 0 C66.42 0, 100.83 0, 132.28 0 M132.28 0 C153.61 0, 164.28 10.67, 164.28 32 M132.28 0 C153.61 0, 164.28 10.67, 164.28 32 M164.28 32 C164.28 54.44, 164.28 76.89, 164.28 117.11 M164.28 32 C164.28 54.11, 164.28 76.22, 164.28 117.11 M164.28 117.11 C164.28 138.44, 153.61 149.11, 132.28 149.11 M164.28 117.11 C164.28 138.44, 153.61 149.11, 132.28 149.11 M132.28 149.11 C93.75 149.11, 55.21 149.11, 32 149.11 M132.28 149.11 C99.57 149.11, 66.85 149.11, 32 149.11 M32 149.11 C10.67 149.11, 0 138.44, 0 117.11 M32 149.11 C10.67 149.11, 0 138.44, 0 117.11 M0 117.11 C0 86.42, 0 55.72, 0 32 M0 117.11 C0 89.79, 0 62.48, 0 32 M0 32 C0 10.67, 10.67 0, 32 0 M0 32 C0 10.67, 10.67 0, 32 0" stroke="#0b7285" stroke-width="1" fill="none"></path></g><g transform="translate(59.100241239662864 119.67457896384735) rotate(0 33.040138244628906 17.5)"><text x="33.040138244628906" y="0" font-family="Virgil, Segoe UI Emoji" font-size="28px" fill="#862e9c" text-anchor="middle" style="white-space: pre;" direction="ltr" dominant-baseline="text-before-edge">ksctl</text></g><g stroke-linecap="round" transform="translate(26.104533239324155 62.14603712752387) rotate(0 26.196633094019717 11.713942208677395)"><path d="M-1.61 0.74 C16.34 -1.35, 33.05 1.19, 52.97 0.55 M0.55 -0.24 C14.97 0.51, 29.29 -0.77, 52.43 0.08 M53.54 1.44 C53.63 5.76, 53.2 11.71, 52.27 24.8 M52.24 -0.33 C52.19 6.73, 52.64 13.82, 52.59 22.75 M53.12 23.57 C32.37 22.55, 13.36 22.11, 1.17 23.78 M52.2 23.71 C31.11 23.06, 11.01 23.86, -0.96 23.9 M1.93 24.61 C0.81 13.5, 1.28 7.29, 0.47 -0.17 M0.21 23.25 C0.34 19.35, 0.46 14.87, -0.79 -0.48" stroke="#087f5b" stroke-width="1" fill="none"></path></g><g stroke-linecap="round"><g transform="translate(31.21608465697045 61.72007689259431) rotate(0 0.3323967338460534 11.654272336904455)"><path d="M0.44 -0.39 C0.51 3.72, -0.75 19.54, -0.68 23.71 M-0.79 -1.65 C-0.26 2.71, 1.27 20.93, 1.45 24.95" stroke="#087f5b" stroke-width="1" fill="none"></path></g></g><mask></mask><g stroke-linecap="round"><g transform="translate(37.57887364078306 62.24333107487837) rotate(0 -0.130625030164083 12.03070180097643)"><path d="M-1.11 -0.57 C-1.04 3.6, 0.53 20.53, 0.84 24.63 M0.51 1.75 C0.42 5.58, 0.17 18.77, 0.12 22.69" stroke="#087f5b" stroke-width="1" fill="none"></path></g></g><mask></mask><g stroke-linecap="round"><g transform="translate(44.73504562548828 61.64699532552436) rotate(0 -0.019578151490463824 12.471755437199477)"><path d="M0.42 0.35 C0.73 4.45, 0.83 20.05, 0.76 24.04 M-0.82 -0.52 C-0.54 3.82, 0.02 21.1, -0.01 25.46" stroke="#087f5b" stroke-width="1" fill="none"></path></g></g><mask></mask><g stroke-linecap="round"><g transform="translate(51.67818744536794 62.07295556045415) rotate(0 -0.49679812973408843 12.222761329654986)"><path d="M0.33 -0.24 C0.26 3.76, -0.15 20.26, -0.02 24.3 M-0.95 -1.4 C-1.26 2.76, -1.47 21.42, -1.2 25.85" stroke="#087f5b" stroke-width="1" fill="none"></path></g></g><mask></mask><g stroke-linecap="round"><g transform="translate(59.08994415057782 62.11555301387148) rotate(0 0.5356840355693748 12.18228484028998)"><path d="M-0.45 0.02 C-0.32 4.06, 0.88 19.84, 1.08 23.99 M1.52 -1.01 C1.51 3.22, 0.7 21.39, 0.48 25.38" stroke="#087f5b" stroke-width="1" fill="none"></path></g></g><mask></mask><g stroke-linecap="round"><g transform="translate(66.58686716413149 62.03037240628237) rotate(0 0.17405893587886112 11.710690685529812)"><path d="M0.65 -0.29 C0.86 3.86, 0.82 20.96, 0.76 24.91 M-0.46 -1.49 C-0.35 2.31, 0 18.83, -0.01 23.11" stroke="#087f5b" stroke-width="1" fill="none"></path></g></g><mask></mask><g stroke-linecap="round"><g transform="translate(72.33733748530335 62.49891579538371) rotate(0 -0.3493761918026621 12.169529979769663)"><path d="M0.34 0.63 C0.28 4.57, 0.29 19.41, 0.32 23.37 M-0.94 -0.09 C-1.22 4, -0.8 20.12, -0.69 24.43" stroke="#087f5b" stroke-width="1" fill="none"></path></g></g><mask></mask><g stroke-linecap="round"><g transform="translate(76.2136342500703 63.13786329740083) rotate(0 7.454354158627666 1.916828206805917)"><path d="M0 0 C2.48 0.64, 12.42 3.19, 14.91 3.83 M0 0 C2.48 0.64, 12.42 3.19, 14.91 3.83" stroke="#087f5b" stroke-width="1" fill="none"></path></g></g><mask></mask><g stroke-linecap="round"><g transform="translate(89.20541426579871 84.26555672643758) rotate(0 -7.058810705316887 0.2288544480196606)"><path d="M0.04 0.09 C-2.09 0.3, -10.7 0.01, -12.92 0.32 M-1.4 -0.9 C-3.73 -0.49, -12.59 1.21, -14.16 1.36" stroke="#087f5b" stroke-width="1" fill="none"></path></g></g><mask></mask><g stroke-linecap="round" transform="translate(84.46828368225101 69.84268137010622) rotate(0 3.62195909096954 3.36324847173762)"><path d="M-0.58 -0.55 C2.61 0.56, 4.91 -0.03, 7.61 -0.06 M-0.1 -0.3 C2.07 -0.12, 4.21 -0.07, 7.36 -0.02 M7.07 -0.18 C7.44 2.2, 6.9 4.05, 6.99 6.33 M7.3 -0.15 C7.19 2.51, 7.07 4.78, 7.27 6.95 M6.7 6.98 C6.46 7.21, 4.52 6.35, 0.4 7.21 M6.91 6.9 C4.98 6.59, 2.61 6.9, 0.09 7.07 M0.04 6.65 C-0.1 5.01, -0.39 4.32, -0.35 0.12 M0.25 6.96 C-0.01 4.26, 0.1 1.4, 0.19 -0.12" stroke="#087f5b" stroke-width="1" fill="none"></path></g><g stroke-linecap="round"><g transform="translate(84.6752521776366 72.22282601485495) rotate(0 3.4218210998052427 -0.02409006352434062)"><path d="M0.39 0.49 C2.22 -0.08, 3.8 -0.16, 6.79 0.16 M-0.05 -0.11 C1.98 -0.1, 4.15 -0.14, 6.9 -0.54" stroke="#087f5b" stroke-width="1" fill="none"></path></g></g><mask></mask><g stroke-linecap="round"><g transform="translate(84.33676263883535 74.46455319356915) rotate(0 3.5030243730632264 -0.2622287022220462)"><path d="M0.49 -0.06 C1.87 -0.17, 3.02 0.28, 6.8 -0.5 M-0.05 -0.07 C1.59 -0.06, 3.03 -0.34, 7.05 -0.4" stroke="#087f5b" stroke-width="1" fill="none"></path></g></g><mask></mask><g stroke-linecap="round" transform="translate(94.11605010010794 74.49948641191077) rotate(0 3.62195909096954 3.36324847173762)"><path d="M0.36 -0.06 C2.65 0.5, 5.36 -0.19, 6.64 -0.11 M0.11 -0.02 C2 -0.23, 4.1 -0.08, 7.15 0.13 M6.99 -0.39 C7.61 2.19, 7.86 4.24, 6.95 6.6 M7.27 0.22 C6.88 2.37, 7.45 4.17, 7.36 7.05 M7.64 7.21 C4.81 6.62, 1.34 6.02, 0.36 6.88 M7.33 7.07 C4.91 6.6, 3.39 6.8, -0.04 6.66 M-0.35 6.85 C0.55 5.57, 0.42 3.64, 0.46 0.1 M0.19 6.61 C0.06 4.25, -0.21 2.17, -0.15 0.14" stroke="#087f5b" stroke-width="1" fill="none"></path></g><g stroke-linecap="round"><g transform="translate(94.32301859549375 76.87963105665972) rotate(0 3.4070409184379287 0.00532639058269524)"><path d="M-0.04 0.47 C1.96 -0.27, 3.42 -0.28, 6.6 -0.41 M0.07 -0.23 C2.14 -0.17, 3.73 -0.05, 6.85 -0.46" stroke="#087f5b" stroke-width="1" fill="none"></path></g></g><mask></mask><g stroke-linecap="round"><g transform="translate(93.98452905669228 79.12135823537392) rotate(0 3.3383042557253475 -0.24210515579773073)"><path d="M-0.03 -0.19 C1.43 -0.24, 3.77 -0.32, 6.69 -0.1 M0.22 -0.09 C1.92 0.08, 4.05 -0.29, 6.7 -0.44" stroke="#087f5b" stroke-width="1" fill="none"></path></g></g><mask></mask><g stroke-linecap="round"><g transform="translate(56.44198390754832 47.220342470006926) rotate(0 -2.9318953927681832 6.466792280509253)"><path d="M0 0 C-0.02 2.44, -0.05 4.88, -0.1 9.94 M0 0 C-0.04 3.82, -0.08 7.64, -0.1 9.94 M-0.1 9.94 C-0.47 10.63, -0.84 11.31, -1.12 11.82 M-0.1 9.94 C-0.31 10.33, -0.52 10.72, -1.12 11.82 M-1.12 11.82 C-1.82 12.13, -2.52 12.44, -3.64 12.93 M-1.12 11.82 C-1.91 12.17, -2.71 12.52, -3.64 12.93 M-3.64 12.93 C-4.42 12.26, -5.2 11.59, -5.86 11.01 M-3.64 12.93 C-4.25 12.41, -4.86 11.88, -5.86 11.01 M-5.86 11.01 C-5.76 10.53, -5.67 10.04, -5.44 8.95 M-5.86 11.01 C-5.72 10.29, -5.57 9.56, -5.44 8.95" stroke="#862e9c" stroke-width="1" fill="none"></path></g></g><mask></mask><g stroke-linecap="round"><g transform="translate(53.508060569363124 59.345685279280815) rotate(0 0.020037703608295487 1.317851365595061)"><path d="M-0.08 -0.04 C-0.04 0.77, 0.02 1.43, -0.07 2.69 M0.01 -0.06 C-0.03 0.64, -0.03 1.45, 0.12 2.65" stroke="#087f5b" stroke-width="1" fill="none"></path></g></g><mask></mask><g stroke-linecap="round" transform="translate(83.57384884908879 88.28778202909348) rotate(0 26.196633094019717 11.713942208677395)"><path d="M-0.87 1.89 C12.48 -0.66, 26.93 -1.23, 54.15 -0.23 M-0.84 0.65 C11.71 -0.7, 25.27 -0.22, 51.41 0.38 M54.31 -1.06 C53.42 8.4, 52.18 16.14, 51.82 22.09 M53.28 0.33 C53.08 7.98, 52.03 15.85, 53.26 23.24 M53.19 22 C38.14 21.9, 23.92 25.06, -1.2 21.43 M53.11 24.19 C36.38 23.91, 19.48 22.6, 0.16 23.6 M-0.57 24.35 C0.35 14.65, 1.41 7.9, -1.95 1.69 M-0.91 22.63 C-0.8 17.99, 0.68 10.68, 0.87 0.77" stroke="#1864ab" stroke-width="1" fill="none"></path></g><g stroke-linecap="round"><g transform="translate(88.68540026673509 87.86182179416369) rotate(0 0.85631807360312 13.185304558221787)"><path d="M-0.52 1.14 C-0.44 4.97, -0.37 20.41, -0.24 24.19 M1.41 0.69 C1.95 5.23, 2.46 21.64, 2.13 25.68" stroke="#1864ab" stroke-width="1" fill="none"></path></g></g><mask></mask><g stroke-linecap="round"><g transform="translate(95.0481892505477 88.38507597644798) rotate(0 0.24014570119004475 12.46467499629648)"><path d="M1.14 -0.66 C1 3.45, 0.53 19.8, 0.34 24.13 M0.27 1.61 C-0.13 5.95, -0.44 21.93, -0.66 25.59" stroke="#1864ab" stroke-width="1" fill="none"></path></g></g><mask></mask><g stroke-linecap="round"><g transform="translate(102.20436123525269 87.7887402270942) rotate(0 0.22172122436052177 11.991477591638045)"><path d="M-0.66 -0.09 C-0.53 3.7, -0.08 19.81, 0.28 23.85 M1.19 -1.18 C1.2 3.28, -0.76 20.73, -0.75 25.16" stroke="#1864ab" stroke-width="1" fill="none"></path></g></g><mask></mask><g stroke-linecap="round"><g transform="translate(109.1475030551328 88.21470046202353) rotate(0 -0.8802856543455846 12.031190586099797)"><path d="M-0.09 -0.15 C-0.28 4.18, -0.07 21.38, 0 25.33 M-1.59 -1.27 C-2.08 2.81, -1.35 19.47, -1.18 23.77" stroke="#1864ab" stroke-width="1" fill="none"></path></g></g><mask></mask><g stroke-linecap="round"><g transform="translate(116.55925976034268 88.25729791544086) rotate(0 -0.10231803923363714 11.953671294991409)"><path d="M-0.15 -0.43 C0.21 3.61, 1.5 19.96, 1.48 24.14 M-1.69 -1.7 C-1.34 2.54, 0.44 21.58, 1.09 25.61" stroke="#1864ab" stroke-width="1" fill="none"></path></g></g><mask></mask><g stroke-linecap="round"><g transform="translate(124.05618277389613 88.17211730785198) rotate(0 0.40725336904779397 12.638910159245711)"><path d="M-0.43 1.05 C-0.37 5.01, 0.09 19.68, 0.29 23.56 M1.55 0.56 C1.45 4.67, -0.51 20.54, -0.73 24.72" stroke="#1864ab" stroke-width="1" fill="none"></path></g></g><mask></mask><g stroke-linecap="round"><g transform="translate(129.8066530950682 88.64066069695332) rotate(0 0.8713495003553362 11.691379151661408)"><path d="M1.05 -0.14 C1.03 4.04, -0.19 20.74, -0.3 24.64 M0.15 -1.26 C0.53 2.59, 2.11 18.49, 2.04 22.7" stroke="#1864ab" stroke-width="1" fill="none"></path></g></g><mask></mask><g stroke-linecap="round"><g transform="translate(133.68294985983493 89.27960819897066) rotate(0 7.454354158627666 1.916828206805917)"><path d="M0 0 C2.48 0.64, 12.42 3.19, 14.91 3.83 M0 0 C2.48 0.64, 12.42 3.19, 14.91 3.83" stroke="#1864ab" stroke-width="1" fill="none"></path></g></g><mask></mask><g stroke-linecap="round"><g transform="translate(146.67472987556357 110.40730162800696) rotate(0 -6.090150458363496 0.3855382589689498)"><path d="M-0.72 0.36 C-2.95 0.43, -10.53 0.28, -12.34 0.26 M1.1 -0.5 C-1.38 -0.3, -11.11 1.02, -13.28 1.27" stroke="#1864ab" stroke-width="1" fill="none"></path></g></g><mask></mask><g stroke-linecap="round" transform="translate(141.93759929201588 95.98442627167583) rotate(0 3.62195909096954 3.36324847173762)"><path d="M0.01 -0.61 C2.56 -0.64, 3.68 0.08, 7.09 -0.71 M0.13 0.35 C2.25 0.23, 4.98 0.01, 7.3 -0.1 M7.1 0.59 C7.49 2.14, 7.37 3, 7.38 7.31 M7.42 0.13 C6.97 1.75, 6.91 3.51, 7.47 6.53 M7.06 7.25 C6.35 6.94, 4.79 6.56, -0.5 6.84 M7.44 6.62 C5.11 6.74, 2.4 6.94, -0.12 6.37 M-0.64 6.11 C-0.51 3.58, 0.44 1.99, -0.42 0.59 M0.12 6.8 C-0.29 4.34, 0.05 1.73, -0.27 -0.07" stroke="#1864ab" stroke-width="1" fill="none"></path></g><g stroke-linecap="round"><g transform="translate(142.14456778740123 98.36457091642455) rotate(0 3.0774682079510285 -0.048110019389923764)"><path d="M-0.58 0.44 C1.05 -0.55, 3.37 -0.3, 6.16 -0.05 M0.33 -0.18 C2.5 -0.04, 4.59 -0.18, 6.73 -0.54" stroke="#1864ab" stroke-width="1" fill="none"></path></g></g><mask></mask><g stroke-linecap="round"><g transform="translate(141.8060782486 100.60629809513898) rotate(0 3.453372190171649 -0.19675407801014444)"><path d="M0.44 -0.58 C1.78 0.06, 4.36 -0.82, 7.09 -0.05 M-0.18 0.19 C1.87 -0.17, 3.62 -0.33, 6.6 -0.2" stroke="#1864ab" stroke-width="1" fill="none"></path></g></g><mask></mask><g stroke-linecap="round" transform="translate(151.58536570987235 100.64123131348038) rotate(0 3.62195909096954 3.36324847173762)"><path d="M-0.62 -0.5 C2.29 -0.2, 3.65 0.23, 7.52 -0.28 M0.2 0.09 C2.42 0.1, 4.78 -0.2, 7.37 -0.25 M7.82 0.11 C7.17 2.02, 7.89 3.63, 6.95 6.35 M7.11 -0.3 C7 2.6, 7.07 4.4, 7.29 6.41 M7.52 7.17 C5.16 6.28, 3.39 6.91, 0.13 6.44 M7.29 6.48 C4.91 6.64, 1.74 7.07, -0.15 6.67 M-0.56 7.14 C0.49 4.92, 0.65 4.49, -0.2 0.05 M0.15 6.76 C0.07 4.2, -0.08 2.45, -0.05 -0.31" stroke="#1864ab" stroke-width="1" fill="none"></path></g><g stroke-linecap="round"><g transform="translate(151.79233420525816 103.0213759582291) rotate(0 3.060710453854199 -0.14062182128338918)"><path d="M-0.47 0.1 C1.32 -0.68, 3.2 0.18, 6.56 -0.06 M0.09 -0.02 C2.76 -0.26, 5.18 -0.17, 6.59 -0.38" stroke="#1864ab" stroke-width="1" fill="none"></path></g></g><mask></mask><g stroke-linecap="round"><g transform="translate(151.45384466645692 105.26310313694353) rotate(0 3.5297959892964172 0.03720011848395188)"><path d="M0.1 -0.15 C1.82 0.19, 5.24 -0.45, 7.08 0.35 M-0.02 0.06 C1.59 -0.32, 3.49 -0.41, 6.76 -0.01" stroke="#1864ab" stroke-width="1" fill="none"></path></g></g><mask></mask><g stroke-linecap="round"><g transform="translate(113.91129951731273 73.36208737157654) rotate(0 -2.9318953927681832 6.466792280509253)"><path d="M0 0 C-0.03 3.31, -0.07 6.62, -0.1 9.94 M0 0 C-0.02 2.25, -0.05 4.49, -0.1 9.94 M-0.1 9.94 C-0.46 10.61, -0.82 11.28, -1.12 11.82 M-0.1 9.94 C-0.37 10.44, -0.64 10.94, -1.12 11.82 M-1.12 11.82 C-1.65 12.06, -2.18 12.29, -3.64 12.93 M-1.12 11.82 C-2.07 12.24, -3.02 12.66, -3.64 12.93 M-3.64 12.93 C-4.27 12.39, -4.9 11.85, -5.86 11.01 M-3.64 12.93 C-4.52 12.18, -5.4 11.42, -5.86 11.01 M-5.86 11.01 C-5.78 10.59, -5.69 10.17, -5.44 8.95 M-5.86 11.01 C-5.76 10.51, -5.66 10.01, -5.44 8.95" stroke="#862e9c" stroke-width="1" fill="none"></path></g></g><mask></mask><g stroke-linecap="round"><g transform="translate(110.97737617912753 85.4874301808502) rotate(0 -0.05296226062671394 1.291233250547748)"><path d="M-0.25 0.1 C0.12 0.49, 0.14 1.41, -0.03 2.67 M-0.04 -0.08 C0.07 0.73, 0.04 1.75, 0.14 2.63" stroke="#1864ab" stroke-width="1" fill="none"></path></g></g><mask></mask><g stroke-linecap="round" transform="translate(64.89839755604203 21.099901904313583) rotate(0 12.182431915884536 12.182431915884536)"><path d="M24.36 12.18 C24.36 12.89, 24.3 13.6, 24.18 14.3 C24.06 14.99, 23.87 15.69, 23.63 16.35 C23.39 17.01, 23.09 17.66, 22.73 18.27 C22.38 18.88, 21.97 19.47, 21.51 20.01 C21.06 20.55, 20.55 21.06, 20.01 21.51 C19.47 21.97, 18.88 22.38, 18.27 22.73 C17.66 23.09, 17.01 23.39, 16.35 23.63 C15.69 23.87, 14.99 24.06, 14.3 24.18 C13.6 24.3, 12.89 24.36, 12.18 24.36 C11.48 24.36, 10.76 24.3, 10.07 24.18 C9.37 24.06, 8.68 23.87, 8.02 23.63 C7.35 23.39, 6.7 23.09, 6.09 22.73 C5.48 22.38, 4.89 21.97, 4.35 21.51 C3.81 21.06, 3.3 20.55, 2.85 20.01 C2.4 19.47, 1.98 18.88, 1.63 18.27 C1.28 17.66, 0.98 17.01, 0.73 16.35 C0.49 15.69, 0.31 14.99, 0.19 14.3 C0.06 13.6, 0 12.89, 0 12.18 C0 11.48, 0.06 10.76, 0.19 10.07 C0.31 9.37, 0.49 8.68, 0.73 8.02 C0.98 7.35, 1.28 6.7, 1.63 6.09 C1.98 5.48, 2.4 4.89, 2.85 4.35 C3.3 3.81, 3.81 3.3, 4.35 2.85 C4.89 2.4, 5.48 1.98, 6.09 1.63 C6.7 1.28, 7.35 0.98, 8.02 0.73 C8.68 0.49, 9.37 0.31, 10.07 0.19 C10.76 0.06, 11.48 0, 12.18 0 C12.89 0, 13.6 0.06, 14.3 0.19 C14.99 0.31, 15.69 0.49, 16.35 0.73 C17.01 0.98, 17.66 1.28, 18.27 1.63 C18.88 1.98, 19.47 2.4, 20.01 2.85 C20.55 3.3, 21.06 3.81, 21.51 4.35 C21.97 4.89, 22.38 5.48, 22.73 6.09 C23.09 6.7, 23.39 7.35, 23.63 8.02 C23.87 8.68, 24.06 9.37, 24.18 10.07 C24.3 10.76, 24.33 11.83, 24.36 12.18 C24.4 12.54, 24.4 11.83, 24.36 12.18" stroke="#862e9c" stroke-width="2" fill="none"></path></g><g stroke-linecap="round" transform="translate(70.07900884353376 26.17999419388434) rotate(0 6.930322736673816 7.102339626313778)"><path d="M13.86 7.1 C13.86 7.51, 13.83 7.93, 13.76 8.34 C13.69 8.74, 13.58 9.15, 13.44 9.53 C13.31 9.92, 13.13 10.3, 12.93 10.65 C12.73 11.01, 12.5 11.35, 12.24 11.67 C11.98 11.98, 11.69 12.28, 11.39 12.54 C11.08 12.81, 10.74 13.05, 10.4 13.25 C10.05 13.46, 9.68 13.64, 9.3 13.78 C8.92 13.92, 8.53 14.03, 8.13 14.1 C7.74 14.17, 7.33 14.2, 6.93 14.2 C6.53 14.2, 6.12 14.17, 5.73 14.1 C5.33 14.03, 4.94 13.92, 4.56 13.78 C4.18 13.64, 3.81 13.46, 3.47 13.25 C3.12 13.05, 2.78 12.81, 2.48 12.54 C2.17 12.28, 1.88 11.98, 1.62 11.67 C1.36 11.35, 1.13 11.01, 0.93 10.65 C0.73 10.3, 0.56 9.92, 0.42 9.53 C0.28 9.15, 0.17 8.74, 0.11 8.34 C0.04 7.93, 0 7.51, 0 7.1 C0 6.69, 0.04 6.27, 0.11 5.87 C0.17 5.46, 0.28 5.06, 0.42 4.67 C0.56 4.29, 0.73 3.91, 0.93 3.55 C1.13 3.2, 1.36 2.85, 1.62 2.54 C1.88 2.22, 2.17 1.93, 2.48 1.66 C2.78 1.4, 3.12 1.16, 3.47 0.95 C3.81 0.75, 4.18 0.57, 4.56 0.43 C4.94 0.29, 5.33 0.18, 5.73 0.11 C6.12 0.04, 6.53 0, 6.93 0 C7.33 0, 7.74 0.04, 8.13 0.11 C8.53 0.18, 8.92 0.29, 9.3 0.43 C9.68 0.57, 10.05 0.75, 10.4 0.95 C10.74 1.16, 11.08 1.4, 11.39 1.66 C11.69 1.93, 11.98 2.22, 12.24 2.54 C12.5 2.85, 12.73 3.2, 12.93 3.55 C13.13 3.91, 13.31 4.29, 13.44 4.67 C13.58 5.06, 13.69 5.46, 13.76 5.87 C13.83 6.27, 13.84 6.9, 13.86 7.1 C13.88 7.31, 13.88 6.9, 13.86 7.1" stroke="#862e9c" stroke-width="2" fill="none"></path></g><g stroke-linecap="round" transform="translate(74.22562600666788 16.219833524582327) rotate(359.4091261237852 2.4262449137742124 2.6856774938805756)"><path d="M1.21 0 M1.21 0 C1.79 0, 2.37 0, 3.64 0 M1.21 0 C2.01 0, 2.81 0, 3.64 0 M3.64 0 C4.45 0, 4.85 0.4, 4.85 1.21 M3.64 0 C4.45 0, 4.85 0.4, 4.85 1.21 M4.85 1.21 C4.85 2, 4.85 2.8, 4.85 4.16 M4.85 1.21 C4.85 2.01, 4.85 2.8, 4.85 4.16 M4.85 4.16 C4.85 4.97, 4.45 5.37, 3.64 5.37 M4.85 4.16 C4.85 4.97, 4.45 5.37, 3.64 5.37 M3.64 5.37 C3.15 5.37, 2.67 5.37, 1.21 5.37 M3.64 5.37 C3.09 5.37, 2.53 5.37, 1.21 5.37 M1.21 5.37 C0.4 5.37, 0 4.97, 0 4.16 M1.21 5.37 C0.4 5.37, 0 4.97, 0 4.16 M0 4.16 C0 3.17, 0 2.17, 0 1.21 M0 4.16 C0 3.37, 0 2.59, 0 1.21 M0 1.21 C0 0.4, 0.4 0, 1.21 0 M0 1.21 C0 0.4, 0.4 0, 1.21 0" stroke="#862e9c" stroke-width="2" fill="none"></path></g><g stroke-linecap="round" transform="translate(89.2553861275569 31.830032843262416) rotate(359.4091261237852 2.5025215327789283 2.282176866441546)"><path d="M1.14 0 M1.14 0 C1.88 0, 2.63 0, 3.86 0 M1.14 0 C1.8 0, 2.45 0, 3.86 0 M3.86 0 C4.62 0, 5.01 0.38, 5.01 1.14 M3.86 0 C4.62 0, 5.01 0.38, 5.01 1.14 M5.01 1.14 C5.01 1.74, 5.01 2.33, 5.01 3.42 M5.01 1.14 C5.01 2.03, 5.01 2.92, 5.01 3.42 M5.01 3.42 C5.01 4.18, 4.62 4.56, 3.86 4.56 M5.01 3.42 C5.01 4.18, 4.62 4.56, 3.86 4.56 M3.86 4.56 C3.06 4.56, 2.26 4.56, 1.14 4.56 M3.86 4.56 C3.04 4.56, 2.22 4.56, 1.14 4.56 M1.14 4.56 C0.38 4.56, 0 4.18, 0 3.42 M1.14 4.56 C0.38 4.56, 0 4.18, 0 3.42 M0 3.42 C0 2.94, 0 2.46, 0 1.14 M0 3.42 C0 2.68, 0 1.94, 0 1.14 M0 1.14 C0 0.38, 0.38 0, 1.14 0 M0 1.14 C0 0.38, 0.38 0, 1.14 0" stroke="#862e9c" stroke-width="2" fill="none"></path></g><g stroke-linecap="round" transform="translate(58.608707488380105 31.74527542839428) rotate(359.4091261237852 2.715510106746706 2.3669342813094545)"><path d="M1.18 0 M1.18 0 C1.81 0, 2.44 0, 4.25 0 M1.18 0 C1.8 0, 2.41 0, 4.25 0 M4.25 0 C5.04 0, 5.43 0.39, 5.43 1.18 M4.25 0 C5.04 0, 5.43 0.39, 5.43 1.18 M5.43 1.18 C5.43 1.72, 5.43 2.25, 5.43 3.55 M5.43 1.18 C5.43 1.97, 5.43 2.76, 5.43 3.55 M5.43 3.55 C5.43 4.34, 5.04 4.73, 4.25 4.73 M5.43 3.55 C5.43 4.34, 5.04 4.73, 4.25 4.73 M4.25 4.73 C3.56 4.73, 2.86 4.73, 1.18 4.73 M4.25 4.73 C3.53 4.73, 2.81 4.73, 1.18 4.73 M1.18 4.73 C0.39 4.73, 0 4.34, 0 3.55 M1.18 4.73 C0.39 4.73, 0 4.34, 0 3.55 M0 3.55 C0 2.93, 0 2.3, 0 1.18 M0 3.55 C0 2.84, 0 2.13, 0 1.18 M0 1.18 C0 0.39, 0.39 0, 1.18 0 M0 1.18 C0 0.39, 0.39 0, 1.18 0" stroke="#862e9c" stroke-width="2" fill="none"></path></g><g stroke-linecap="round" transform="translate(74.22562600666788 46.12448310928539) rotate(359.4091261237852 2.4262449137742124 2.6856774938805756)"><path d="M1.21 0 M1.21 0 C1.8 0, 2.39 0, 3.64 0 M1.21 0 C1.92 0, 2.63 0, 3.64 0 M3.64 0 C4.45 0, 4.85 0.4, 4.85 1.21 M3.64 0 C4.45 0, 4.85 0.4, 4.85 1.21 M4.85 1.21 C4.85 2.12, 4.85 3.03, 4.85 4.16 M4.85 1.21 C4.85 2.38, 4.85 3.56, 4.85 4.16 M4.85 4.16 C4.85 4.97, 4.45 5.37, 3.64 5.37 M4.85 4.16 C4.85 4.97, 4.45 5.37, 3.64 5.37 M3.64 5.37 C2.83 5.37, 2.02 5.37, 1.21 5.37 M3.64 5.37 C3.07 5.37, 2.5 5.37, 1.21 5.37 M1.21 5.37 C0.4 5.37, 0 4.97, 0 4.16 M1.21 5.37 C0.4 5.37, 0 4.97, 0 4.16 M0 4.16 C0 3.04, 0 1.92, 0 1.21 M0 4.16 C0 3.25, 0 2.33, 0 1.21 M0 1.21 C0 0.4, 0.4 0, 1.21 0 M0 1.21 C0 0.4, 0.4 0, 1.21 0" stroke="#862e9c" stroke-width="2" fill="none"></path></g><g stroke-linecap="round" transform="translate(85.44858048667834 19.998756265809106) rotate(404.9778735123102 2.4262449137742124 2.6856774938805756)"><path d="M1.21 0 M1.21 0 C1.93 0, 2.64 0, 3.64 0 M1.21 0 C2.08 0, 2.94 0, 3.64 0 M3.64 0 C4.45 0, 4.85 0.4, 4.85 1.21 M3.64 0 C4.45 0, 4.85 0.4, 4.85 1.21 M4.85 1.21 C4.85 2.14, 4.85 3.07, 4.85 4.16 M4.85 1.21 C4.85 2.19, 4.85 3.17, 4.85 4.16 M4.85 4.16 C4.85 4.97, 4.45 5.37, 3.64 5.37 M4.85 4.16 C4.85 4.97, 4.45 5.37, 3.64 5.37 M3.64 5.37 C2.97 5.37, 2.3 5.37, 1.21 5.37 M3.64 5.37 C2.78 5.37, 1.91 5.37, 1.21 5.37 M1.21 5.37 C0.4 5.37, 0 4.97, 0 4.16 M1.21 5.37 C0.4 5.37, 0 4.97, 0 4.16 M0 4.16 C0 3.2, 0 2.24, 0 1.21 M0 4.16 C0 3.54, 0 2.92, 0 1.21 M0 1.21 C0 0.4, 0.4 0, 1.21 0 M0 1.21 C0 0.4, 0.4 0, 1.21 0" stroke="#862e9c" stroke-width="2" fill="none"></path></g><g stroke-linecap="round" transform="translate(85.08836382481263 41.834835112521205) rotate(404.9778735123102 2.5025215327789283 2.282176866441546)"><path d="M1.14 0 M1.14 0 C1.83 0, 2.53 0, 3.86 0 M1.14 0 C1.87 0, 2.61 0, 3.86 0 M3.86 0 C4.62 0, 5.01 0.38, 5.01 1.14 M3.86 0 C4.62 0, 5.01 0.38, 5.01 1.14 M5.01 1.14 C5.01 1.83, 5.01 2.51, 5.01 3.42 M5.01 1.14 C5.01 1.85, 5.01 2.55, 5.01 3.42 M5.01 3.42 C5.01 4.18, 4.62 4.56, 3.86 4.56 M5.01 3.42 C5.01 4.18, 4.62 4.56, 3.86 4.56 M3.86 4.56 C3 4.56, 2.15 4.56, 1.14 4.56 M3.86 4.56 C2.88 4.56, 1.89 4.56, 1.14 4.56 M1.14 4.56 C0.38 4.56, 0 4.18, 0 3.42 M1.14 4.56 C0.38 4.56, 0 4.18, 0 3.42 M0 3.42 C0 2.69, 0 1.96, 0 1.14 M0 3.42 C0 2.61, 0 1.8, 0 1.14 M0 1.14 C0 0.38, 0.38 0, 1.14 0 M0 1.14 C0 0.38, 0.38 0, 1.14 0" stroke="#862e9c" stroke-width="2" fill="none"></path></g><g stroke-linecap="round" transform="translate(63.57018063873625 20.01765552419579) rotate(404.9778735123102 2.715510106746706 2.3669342813094545)"><path d="M1.18 0 M1.18 0 C2.33 0, 3.48 0, 4.25 0 M1.18 0 C2.13 0, 3.07 0, 4.25 0 M4.25 0 C5.04 0, 5.43 0.39, 5.43 1.18 M4.25 0 C5.04 0, 5.43 0.39, 5.43 1.18 M5.43 1.18 C5.43 1.73, 5.43 2.28, 5.43 3.55 M5.43 1.18 C5.43 2.12, 5.43 3.05, 5.43 3.55 M5.43 3.55 C5.43 4.34, 5.04 4.73, 4.25 4.73 M5.43 3.55 C5.43 4.34, 5.04 4.73, 4.25 4.73 M4.25 4.73 C3.36 4.73, 2.47 4.73, 1.18 4.73 M4.25 4.73 C3.31 4.73, 2.38 4.73, 1.18 4.73 M1.18 4.73 C0.39 4.73, 0 4.34, 0 3.55 M1.18 4.73 C0.39 4.73, 0 4.34, 0 3.55 M0 3.55 C0 2.77, 0 1.98, 0 1.18 M0 3.55 C0 2.89, 0 2.23, 0 1.18 M0 1.18 C0 0.39, 0.39 0, 1.18 0 M0 1.18 C0 0.39, 0.39 0, 1.18 0" stroke="#862e9c" stroke-width="2" fill="none"></path></g><g stroke-linecap="round" transform="translate(64.09394132423836 40.93359452708705) rotate(404.9778735123102 2.4262449137742124 2.6856774938805756)"><path d="M1.21 0 M1.21 0 C2.05 0, 2.89 0, 3.64 0 M1.21 0 C1.76 0, 2.32 0, 3.64 0 M3.64 0 C4.45 0, 4.85 0.4, 4.85 1.21 M3.64 0 C4.45 0, 4.85 0.4, 4.85 1.21 M4.85 1.21 C4.85 2.31, 4.85 3.41, 4.85 4.16 M4.85 1.21 C4.85 2.15, 4.85 3.1, 4.85 4.16 M4.85 4.16 C4.85 4.97, 4.45 5.37, 3.64 5.37 M4.85 4.16 C4.85 4.97, 4.45 5.37, 3.64 5.37 M3.64 5.37 C2.92 5.37, 2.2 5.37, 1.21 5.37 M3.64 5.37 C2.69 5.37, 1.74 5.37, 1.21 5.37 M1.21 5.37 C0.4 5.37, 0 4.97, 0 4.16 M1.21 5.37 C0.4 5.37, 0 4.97, 0 4.16 M0 4.16 C0 3.47, 0 2.77, 0 1.21 M0 4.16 C0 3.39, 0 2.62, 0 1.21 M0 1.21 C0 0.4, 0.4 0, 1.21 0 M0 1.21 C0 0.4, 0.4 0, 1.21 0" stroke="#862e9c" stroke-width="2" fill="none"></path></g><g stroke-linecap="round" transform="translate(96.31088257922806 26.742371126295666) rotate(0 12.182431915884536 12.182431915884536)"><path d="M24.36 12.18 C24.36 12.89, 24.3 13.6, 24.18 14.3 C24.06 14.99, 23.87 15.69, 23.63 16.35 C23.39 17.01, 23.09 17.66, 22.73 18.27 C22.38 18.88, 21.97 19.47, 21.51 20.01 C21.06 20.55, 20.55 21.06, 20.01 21.51 C19.47 21.97, 18.88 22.38, 18.27 22.73 C17.66 23.09, 17.01 23.39, 16.35 23.63 C15.69 23.87, 14.99 24.06, 14.3 24.18 C13.6 24.3, 12.89 24.36, 12.18 24.36 C11.48 24.36, 10.76 24.3, 10.07 24.18 C9.37 24.06, 8.68 23.87, 8.02 23.63 C7.35 23.39, 6.7 23.09, 6.09 22.73 C5.48 22.38, 4.89 21.97, 4.35 21.51 C3.81 21.06, 3.3 20.55, 2.85 20.01 C2.4 19.47, 1.98 18.88, 1.63 18.27 C1.28 17.66, 0.98 17.01, 0.73 16.35 C0.49 15.69, 0.31 14.99, 0.19 14.3 C0.06 13.6, 0 12.89, 0 12.18 C0 11.48, 0.06 10.76, 0.19 10.07 C0.31 9.37, 0.49 8.68, 0.73 8.02 C0.98 7.35, 1.28 6.7, 1.63 6.09 C1.98 5.48, 2.4 4.89, 2.85 4.35 C3.3 3.81, 3.81 3.3, 4.35 2.85 C4.89 2.4, 5.48 1.98, 6.09 1.63 C6.7 1.28, 7.35 0.98, 8.02 0.73 C8.68 0.49, 9.37 0.31, 10.07 0.19 C10.76 0.06, 11.48 0, 12.18 0 C12.89 0, 13.6 0.06, 14.3 0.19 C14.99 0.31, 15.69 0.49, 16.35 0.73 C17.01 0.98, 17.66 1.28, 18.27 1.63 C18.88 1.98, 19.47 2.4, 20.01 2.85 C20.55 3.3, 21.06 3.81, 21.51 4.35 C21.97 4.89, 22.38 5.48, 22.73 6.09 C23.09 6.7, 23.39 7.35, 23.63 8.02 C23.87 8.68, 24.06 9.37, 24.18 10.07 C24.3 10.76, 24.33 11.83, 24.36 12.18 C24.4 12.54, 24.4 11.83, 24.36 12.18" stroke="#862e9c" stroke-width="2" fill="none"></path></g><g stroke-linecap="round" transform="translate(101.49149386671957 31.82246341586665) rotate(0 6.930322736673816 7.102339626313778)"><path d="M13.86 7.1 C13.86 7.51, 13.83 7.93, 13.76 8.34 C13.69 8.74, 13.58 9.15, 13.44 9.53 C13.31 9.92, 13.13 10.3, 12.93 10.65 C12.73 11.01, 12.5 11.35, 12.24 11.67 C11.98 11.98, 11.69 12.28, 11.39 12.54 C11.08 12.81, 10.74 13.05, 10.4 13.25 C10.05 13.46, 9.68 13.64, 9.3 13.78 C8.92 13.92, 8.53 14.03, 8.13 14.1 C7.74 14.17, 7.33 14.2, 6.93 14.2 C6.53 14.2, 6.12 14.17, 5.73 14.1 C5.33 14.03, 4.94 13.92, 4.56 13.78 C4.18 13.64, 3.81 13.46, 3.47 13.25 C3.12 13.05, 2.78 12.81, 2.48 12.54 C2.17 12.28, 1.88 11.98, 1.62 11.67 C1.36 11.35, 1.13 11.01, 0.93 10.65 C0.73 10.3, 0.56 9.92, 0.42 9.53 C0.28 9.15, 0.17 8.74, 0.11 8.34 C0.04 7.93, 0 7.51, 0 7.1 C0 6.69, 0.04 6.27, 0.11 5.87 C0.17 5.46, 0.28 5.06, 0.42 4.67 C0.56 4.29, 0.73 3.91, 0.93 3.55 C1.13 3.2, 1.36 2.85, 1.62 2.54 C1.88 2.22, 2.17 1.93, 2.48 1.66 C2.78 1.4, 3.12 1.16, 3.47 0.95 C3.81 0.75, 4.18 0.57, 4.56 0.43 C4.94 0.29, 5.33 0.18, 5.73 0.11 C6.12 0.04, 6.53 0, 6.93 0 C7.33 0, 7.74 0.04, 8.13 0.11 C8.53 0.18, 8.92 0.29, 9.3 0.43 C9.68 0.57, 10.05 0.75, 10.4 0.95 C10.74 1.16, 11.08 1.4, 11.39 1.66 C11.69 1.93, 11.98 2.22, 12.24 2.54 C12.5 2.85, 12.73 3.2, 12.93 3.55 C13.13 3.91, 13.31 4.29, 13.44 4.67 C13.58 5.06, 13.69 5.46, 13.76 5.87 C13.83 6.27, 13.84 6.9, 13.86 7.1 C13.88 7.31, 13.88 6.9, 13.86 7.1" stroke="#862e9c" stroke-width="2" fill="none"></path></g><g stroke-linecap="round" transform="translate(105.63811102985369 21.86230274656441) rotate(359.4091261237852 2.4262449137742124 2.6856774938805756)"><path d="M1.21 0 M1.21 0 C1.83 0, 2.45 0, 3.64 0 M1.21 0 C2.1 0, 2.99 0, 3.64 0 M3.64 0 C4.45 0, 4.85 0.4, 4.85 1.21 M3.64 0 C4.45 0, 4.85 0.4, 4.85 1.21 M4.85 1.21 C4.85 1.86, 4.85 2.5, 4.85 4.16 M4.85 1.21 C4.85 2.38, 4.85 3.55, 4.85 4.16 M4.85 4.16 C4.85 4.97, 4.45 5.37, 3.64 5.37 M4.85 4.16 C4.85 4.97, 4.45 5.37, 3.64 5.37 M3.64 5.37 C3.04 5.37, 2.43 5.37, 1.21 5.37 M3.64 5.37 C2.93 5.37, 2.22 5.37, 1.21 5.37 M1.21 5.37 C0.4 5.37, 0 4.97, 0 4.16 M1.21 5.37 C0.4 5.37, 0 4.97, 0 4.16 M0 4.16 C0 3.5, 0 2.83, 0 1.21 M0 4.16 C0 3.39, 0 2.62, 0 1.21 M0 1.21 C0 0.4, 0.4 0, 1.21 0 M0 1.21 C0 0.4, 0.4 0, 1.21 0" stroke="#862e9c" stroke-width="2" fill="none"></path></g><g stroke-linecap="round" transform="translate(120.66787115074271 37.472502065244726) rotate(359.4091261237852 2.5025215327789283 2.282176866441546)"><path d="M1.14 0 M1.14 0 C1.9 0, 2.65 0, 3.86 0 M1.14 0 C2.11 0, 3.07 0, 3.86 0 M3.86 0 C4.62 0, 5.01 0.38, 5.01 1.14 M3.86 0 C4.62 0, 5.01 0.38, 5.01 1.14 M5.01 1.14 C5.01 1.9, 5.01 2.67, 5.01 3.42 M5.01 1.14 C5.01 1.65, 5.01 2.17, 5.01 3.42 M5.01 3.42 C5.01 4.18, 4.62 4.56, 3.86 4.56 M5.01 3.42 C5.01 4.18, 4.62 4.56, 3.86 4.56 M3.86 4.56 C3.13 4.56, 2.39 4.56, 1.14 4.56 M3.86 4.56 C3.31 4.56, 2.75 4.56, 1.14 4.56 M1.14 4.56 C0.38 4.56, 0 4.18, 0 3.42 M1.14 4.56 C0.38 4.56, 0 4.18, 0 3.42 M0 3.42 C0 2.96, 0 2.49, 0 1.14 M0 3.42 C0 2.89, 0 2.36, 0 1.14 M0 1.14 C0 0.38, 0.38 0, 1.14 0 M0 1.14 C0 0.38, 0.38 0, 1.14 0" stroke="#862e9c" stroke-width="2" fill="none"></path></g><g stroke-linecap="round" transform="translate(90.02119251156569 37.38774465037636) rotate(359.4091261237852 2.715510106746706 2.3669342813094545)"><path d="M1.18 0 M1.18 0 C2.31 0, 3.44 0, 4.25 0 M1.18 0 C1.98 0, 2.78 0, 4.25 0 M4.25 0 C5.04 0, 5.43 0.39, 5.43 1.18 M4.25 0 C5.04 0, 5.43 0.39, 5.43 1.18 M5.43 1.18 C5.43 2.11, 5.43 3.04, 5.43 3.55 M5.43 1.18 C5.43 1.83, 5.43 2.47, 5.43 3.55 M5.43 3.55 C5.43 4.34, 5.04 4.73, 4.25 4.73 M5.43 3.55 C5.43 4.34, 5.04 4.73, 4.25 4.73 M4.25 4.73 C3.29 4.73, 2.33 4.73, 1.18 4.73 M4.25 4.73 C3.06 4.73, 1.88 4.73, 1.18 4.73 M1.18 4.73 C0.39 4.73, 0 4.34, 0 3.55 M1.18 4.73 C0.39 4.73, 0 4.34, 0 3.55 M0 3.55 C0 2.73, 0 1.9, 0 1.18 M0 3.55 C0 2.98, 0 2.4, 0 1.18 M0 1.18 C0 0.39, 0.39 0, 1.18 0 M0 1.18 C0 0.39, 0.39 0, 1.18 0" stroke="#862e9c" stroke-width="2" fill="none"></path></g><g stroke-linecap="round" transform="translate(105.63811102985369 51.7669523312677) rotate(359.4091261237852 2.4262449137742124 2.6856774938805756)"><path d="M1.21 0 M1.21 0 C1.99 0, 2.78 0, 3.64 0 M1.21 0 C2.08 0, 2.96 0, 3.64 0 M3.64 0 C4.45 0, 4.85 0.4, 4.85 1.21 M3.64 0 C4.45 0, 4.85 0.4, 4.85 1.21 M4.85 1.21 C4.85 2.06, 4.85 2.91, 4.85 4.16 M4.85 1.21 C4.85 2.16, 4.85 3.1, 4.85 4.16 M4.85 4.16 C4.85 4.97, 4.45 5.37, 3.64 5.37 M4.85 4.16 C4.85 4.97, 4.45 5.37, 3.64 5.37 M3.64 5.37 C3.03 5.37, 2.42 5.37, 1.21 5.37 M3.64 5.37 C2.8 5.37, 1.95 5.37, 1.21 5.37 M1.21 5.37 C0.4 5.37, 0 4.97, 0 4.16 M1.21 5.37 C0.4 5.37, 0 4.97, 0 4.16 M0 4.16 C0 3.08, 0 2.01, 0 1.21 M0 4.16 C0 3.42, 0 2.68, 0 1.21 M0 1.21 C0 0.4, 0.4 0, 1.21 0 M0 1.21 C0 0.4, 0.4 0, 1.21 0" stroke="#862e9c" stroke-width="2" fill="none"></path></g><g stroke-linecap="round" transform="translate(116.86106550986392 25.64122548779119) rotate(404.9778735123102 2.4262449137742124 2.6856774938805756)"><path d="M1.21 0 M1.21 0 C1.81 0, 2.41 0, 3.64 0 M1.21 0 C1.92 0, 2.62 0, 3.64 0 M3.64 0 C4.45 0, 4.85 0.4, 4.85 1.21 M3.64 0 C4.45 0, 4.85 0.4, 4.85 1.21 M4.85 1.21 C4.85 2.26, 4.85 3.3, 4.85 4.16 M4.85 1.21 C4.85 1.94, 4.85 2.67, 4.85 4.16 M4.85 4.16 C4.85 4.97, 4.45 5.37, 3.64 5.37 M4.85 4.16 C4.85 4.97, 4.45 5.37, 3.64 5.37 M3.64 5.37 C2.69 5.37, 1.74 5.37, 1.21 5.37 M3.64 5.37 C3.05 5.37, 2.46 5.37, 1.21 5.37 M1.21 5.37 C0.4 5.37, 0 4.97, 0 4.16 M1.21 5.37 C0.4 5.37, 0 4.97, 0 4.16 M0 4.16 C0 3.29, 0 2.42, 0 1.21 M0 4.16 C0 3.52, 0 2.88, 0 1.21 M0 1.21 C0 0.4, 0.4 0, 1.21 0 M0 1.21 C0 0.4, 0.4 0, 1.21 0" stroke="#862e9c" stroke-width="2" fill="none"></path></g><g stroke-linecap="round" transform="translate(116.50084884799821 47.47730433450329) rotate(404.9778735123102 2.5025215327789283 2.282176866441546)"><path d="M1.14 0 M1.14 0 C1.88 0, 2.61 0, 3.86 0 M1.14 0 C2.06 0, 2.97 0, 3.86 0 M3.86 0 C4.62 0, 5.01 0.38, 5.01 1.14 M3.86 0 C4.62 0, 5.01 0.38, 5.01 1.14 M5.01 1.14 C5.01 1.69, 5.01 2.23, 5.01 3.42 M5.01 1.14 C5.01 1.68, 5.01 2.22, 5.01 3.42 M5.01 3.42 C5.01 4.18, 4.62 4.56, 3.86 4.56 M5.01 3.42 C5.01 4.18, 4.62 4.56, 3.86 4.56 M3.86 4.56 C3.23 4.56, 2.59 4.56, 1.14 4.56 M3.86 4.56 C2.85 4.56, 1.84 4.56, 1.14 4.56 M1.14 4.56 C0.38 4.56, 0 4.18, 0 3.42 M1.14 4.56 C0.38 4.56, 0 4.18, 0 3.42 M0 3.42 C0 2.95, 0 2.48, 0 1.14 M0 3.42 C0 2.94, 0 2.46, 0 1.14 M0 1.14 C0 0.38, 0.38 0, 1.14 0 M0 1.14 C0 0.38, 0.38 0, 1.14 0" stroke="#862e9c" stroke-width="2" fill="none"></path></g><g stroke-linecap="round" transform="translate(94.98266566192183 25.66012474617787) rotate(404.9778735123102 2.715510106746706 2.3669342813094545)"><path d="M1.18 0 M1.18 0 C1.82 0, 2.46 0, 4.25 0 M1.18 0 C1.93 0, 2.68 0, 4.25 0 M4.25 0 C5.04 0, 5.43 0.39, 5.43 1.18 M4.25 0 C5.04 0, 5.43 0.39, 5.43 1.18 M5.43 1.18 C5.43 2.1, 5.43 3.02, 5.43 3.55 M5.43 1.18 C5.43 1.77, 5.43 2.36, 5.43 3.55 M5.43 3.55 C5.43 4.34, 5.04 4.73, 4.25 4.73 M5.43 3.55 C5.43 4.34, 5.04 4.73, 4.25 4.73 M4.25 4.73 C3.38 4.73, 2.5 4.73, 1.18 4.73 M4.25 4.73 C3.25 4.73, 2.24 4.73, 1.18 4.73 M1.18 4.73 C0.39 4.73, 0 4.34, 0 3.55 M1.18 4.73 C0.39 4.73, 0 4.34, 0 3.55 M0 3.55 C0 2.98, 0 2.4, 0 1.18 M0 3.55 C0 2.89, 0 2.23, 0 1.18 M0 1.18 C0 0.39, 0.39 0, 1.18 0 M0 1.18 C0 0.39, 0.39 0, 1.18 0" stroke="#862e9c" stroke-width="2" fill="none"></path></g><g stroke-linecap="round" transform="translate(95.5064263474244 46.576063749069135) rotate(404.9778735123102 2.4262449137742124 2.6856774938805756)"><path d="M1.21 0 M1.21 0 C2.1 0, 2.99 0, 3.64 0 M1.21 0 C1.76 0, 2.31 0, 3.64 0 M3.64 0 C4.45 0, 4.85 0.4, 4.85 1.21 M3.64 0 C4.45 0, 4.85 0.4, 4.85 1.21 M4.85 1.21 C4.85 2.38, 4.85 3.55, 4.85 4.16 M4.85 1.21 C4.85 2.14, 4.85 3.08, 4.85 4.16 M4.85 4.16 C4.85 4.97, 4.45 5.37, 3.64 5.37 M4.85 4.16 C4.85 4.97, 4.45 5.37, 3.64 5.37 M3.64 5.37 C2.93 5.37, 2.22 5.37, 1.21 5.37 M3.64 5.37 C2.73 5.37, 1.81 5.37, 1.21 5.37 M1.21 5.37 C0.4 5.37, 0 4.97, 0 4.16 M1.21 5.37 C0.4 5.37, 0 4.97, 0 4.16 M0 4.16 C0 3.39, 0 2.62, 0 1.21 M0 4.16 C0 3.5, 0 2.85, 0 1.21 M0 1.21 C0 0.4, 0.4 0, 1.21 0 M0 1.21 C0 0.4, 0.4 0, 1.21 0" stroke="#862e9c" stroke-width="2" fill="none"></path></g></svg>