<?xml version="1.0" standalone="no"?>
<!DOCTYPE svg PUBLIC "-//W3C//DTD SVG 20010904//EN"
 "http://www.w3.org/TR/2001/REC-SVG-20010904/DTD/svg10.dtd">
<svg version="1.0" xmlns="http://www.w3.org/2000/svg"
 width="1200.000000pt" height="1200.000000pt" viewBox="0 0 1200.000000 1200.000000"
 preserveAspectRatio="xMidYMid meet">
<metadata>
Created by potrace 1.14, written by Peter Selinger 2001-2017
</metadata>
<g transform="translate(0.000000,1200.000000) scale(0.100000,-0.100000)"
fill="#000000" stroke="none">
<path d="M1921 8096 c-8 -9 -11 -47 -9 -106 2 -76 6 -95 21 -104 24 -15 51 3
55 38 4 31 -13 35 -21 5 -3 -12 -12 -19 -19 -17 -20 7 -24 151 -4 167 12 10
16 8 21 -8 8 -26 25 -28 25 -3 0 38 -46 56 -69 28z"/>
<path d="M2040 7995 l0 -115 30 0 c34 0 41 19 10 27 -18 5 -20 14 -20 104 0
59 -4 99 -10 99 -6 0 -10 -45 -10 -115z"/>
<path d="M2144 8097 c-3 -8 -3 -55 -2 -107 2 -76 6 -95 21 -104 12 -8 22 -8
35 0 14 9 18 28 20 104 2 59 -1 97 -9 106 -15 18 -58 18 -65 1z m46 -103 c0
-64 -3 -85 -12 -82 -13 5 -24 138 -14 165 14 35 26 -5 26 -83z"/>
<path d="M2270 8015 c0 -102 9 -135 39 -135 31 0 39 21 41 110 3 108 2 120
-10 120 -5 0 -11 -43 -12 -97 -2 -64 -7 -98 -15 -100 -9 -3 -13 22 -15 93 -2
67 -7 99 -15 102 -10 3 -13 -20 -13 -93z"/>
<path d="M2410 7995 l0 -115 28 0 c45 0 52 16 52 115 0 99 -7 115 -52 115
l-28 0 0 -115z m54 69 c8 -20 8 -102 0 -131 -4 -13 -13 -23 -20 -23 -11 0 -14
19 -14 85 0 66 3 85 14 85 8 0 17 -7 20 -16z"/>
<path d="M2645 8098 c-4 -12 -35 -200 -35 -213 0 -16 22 -1 30 20 5 14 16 25
25 25 8 0 17 -11 21 -25 3 -14 11 -25 16 -25 12 0 6 73 -13 173 -8 37 -17 57
-26 57 -7 0 -16 -6 -18 -12z m29 -95 c5 -35 3 -43 -9 -43 -16 0 -21 43 -9 75
8 21 10 18 18 -32z"/>
<path d="M2769 8094 c-18 -22 -25 -164 -10 -193 8 -14 21 -21 41 -21 29 0 30
1 30 50 0 43 -3 50 -20 50 -11 0 -20 -4 -20 -10 0 -5 5 -10 11 -10 13 0 8 -50
-6 -53 -6 -1 -11 34 -13 86 -2 73 0 87 13 87 8 0 15 -7 15 -15 0 -8 5 -15 11
-15 6 0 9 12 7 28 -4 32 -37 42 -59 16z"/>
<path d="M2888 8083 c-9 -62 -3 -196 9 -200 8 -3 13 15 15 59 l3 63 20 -53
c36 -97 45 -88 45 42 0 71 -4 116 -10 116 -6 0 -10 -29 -10 -67 -1 -63 -2 -66
-14 -43 -8 14 -20 44 -27 68 -14 49 -25 54 -31 15z"/>
<path d="M3044 8097 c-3 -8 -3 -55 -2 -107 2 -76 6 -95 21 -104 12 -8 22 -8
35 0 14 9 18 28 20 104 2 59 -1 97 -9 106 -15 18 -58 18 -65 1z m46 -103 c0
-64 -3 -85 -12 -82 -13 5 -24 138 -14 165 14 35 26 -5 26 -83z"/>
<path d="M3182 8098 c-6 -6 -12 -28 -12 -48 0 -27 7 -42 31 -63 21 -18 29 -34
27 -49 -4 -30 -38 -38 -38 -9 0 12 -4 21 -10 21 -14 0 -13 -43 2 -58 17 -17
55 -15 62 4 15 39 6 81 -24 109 -16 16 -30 37 -30 46 0 21 22 38 28 21 7 -21
23 -13 20 11 -3 25 -36 35 -56 15z"/>
<path d="M3285 8100 c-3 -5 1 -10 9 -10 14 0 16 -17 16 -105 0 -87 3 -105 15
-105 12 0 15 18 15 99 0 79 3 100 15 105 8 3 15 10 15 16 0 13 -77 13 -85 0z"/>
<path d="M3418 8098 c-2 -7 -3 -35 -2 -63 1 -27 2 -74 3 -102 0 -29 6 -53 11
-53 6 0 10 45 10 115 0 63 -4 115 -9 115 -5 0 -11 -6 -13 -12z"/>
<path d="M3500 8084 c-13 -34 -13 -160 0 -185 6 -10 19 -19 30 -19 20 0 50 35
50 57 0 23 -28 14 -32 -9 -2 -13 -7 -22 -13 -21 -14 4 -19 163 -5 177 8 8 12
4 16 -12 4 -12 13 -22 20 -22 17 0 17 1 4 34 -7 19 -17 26 -35 26 -18 0 -28
-7 -35 -26z"/>
<path d="M3700 7995 c0 -70 4 -115 10 -115 6 0 10 24 10 54 0 30 4 57 9 60 4
3 16 -22 26 -54 10 -33 24 -60 30 -60 9 0 6 22 -11 76 -22 72 -22 77 -7 110
18 36 8 62 -11 31 -31 -51 -35 -54 -36 -19 0 17 -4 32 -10 32 -6 0 -10 -45
-10 -115z"/>
<path d="M3830 8015 c0 -102 9 -135 39 -135 30 0 38 20 43 110 5 91 2 120 -12
120 -5 0 -11 -44 -12 -97 -2 -64 -7 -98 -15 -100 -9 -3 -13 22 -15 93 -2 67
-7 99 -15 102 -10 3 -13 -20 -13 -93z"/>
<path d="M3972 7998 c3 -107 4 -113 24 -116 44 -6 70 59 44 108 -7 13 -7 21 0
25 13 8 13 51 0 76 -7 12 -21 19 -41 19 l-30 0 3 -112z m52 67 c8 -21 -3 -45
-20 -45 -9 0 -14 11 -14 30 0 32 23 42 34 15z m6 -119 c0 -20 -18 -39 -29 -32
-12 8 -15 59 -4 70 8 8 33 -21 33 -38z"/>
<path d="M4107 8103 c-4 -3 -7 -55 -7 -115 l0 -108 30 0 c34 0 42 25 11 33
-14 3 -18 11 -14 26 3 12 12 21 19 21 19 0 18 16 -1 24 -10 4 -15 20 -15 51 0
33 4 45 15 45 8 0 15 7 15 15 0 15 -40 21 -53 8z"/>
<path d="M4217 8103 c-4 -3 -7 -55 -7 -115 0 -83 3 -109 13 -106 6 3 13 17 15
31 4 33 22 26 22 -9 0 -15 6 -24 15 -24 12 0 14 7 9 28 -9 37 -9 32 5 79 15
45 10 83 -15 107 -16 16 -46 21 -57 9z m47 -39 c11 -28 6 -71 -9 -84 -13 -11
-15 -5 -15 44 0 54 11 73 24 40z"/>
<path d="M4347 8078 c-9 -62 -3 -191 10 -195 8 -3 13 15 15 59 l3 63 20 -53
c36 -97 45 -88 45 42 0 71 -4 116 -10 116 -6 0 -10 -29 -10 -67 -1 -63 -2 -66
-14 -43 -8 14 -20 44 -27 68 -15 50 -25 54 -32 10z"/>
<path d="M4494 8097 c-2 -7 -3 -58 -2 -113 3 -96 4 -99 27 -102 33 -5 53 17
23 24 -26 7 -29 39 -4 54 16 10 16 10 0 20 -27 16 -25 96 2 103 11 3 20 10 20
16 0 16 -60 14 -66 -2z"/>
<path d="M4600 8101 c0 -5 7 -11 15 -15 12 -4 15 -26 15 -106 0 -82 3 -100 15
-100 12 0 15 18 15 99 0 79 3 100 15 105 30 11 14 26 -30 26 -25 0 -45 -4 -45
-9z"/>
<path d="M4735 8088 c-3 -13 -5 -63 -3 -113 l3 -90 33 -3 c24 -2 32 1 32 12 0
9 -9 16 -20 16 -25 0 -27 35 -2 50 16 10 16 10 0 20 -13 8 -18 24 -18 55 0 38
3 45 20 45 11 0 20 7 20 15 0 10 -10 15 -30 15 -22 0 -31 -5 -35 -22z"/>
<path d="M4856 8094 c-26 -25 -20 -67 14 -99 19 -19 30 -39 30 -57 0 -33 -25
-39 -35 -8 -8 26 -25 26 -25 1 0 -46 60 -68 81 -30 16 31 3 80 -31 111 -32 29
-35 35 -20 58 8 13 11 12 24 -5 14 -19 15 -19 21 -2 8 19 -10 47 -31 47 -7 0
-20 -7 -28 -16z"/>
<path d="M5056 8057 c-9 -80 -7 -177 4 -177 6 0 10 18 10 41 0 48 15 44 24 -6
8 -42 23 -46 32 -7 11 52 18 57 22 15 2 -24 7 -43 13 -43 10 0 11 172 0 210
-9 32 -16 19 -31 -52 -6 -32 -15 -58 -19 -58 -5 0 -14 27 -20 60 -7 33 -16 62
-20 64 -5 3 -11 -18 -15 -47z"/>
<path d="M5246 8078 c-3 -18 -10 -60 -16 -92 -12 -73 -13 -106 -1 -106 5 0 12
12 15 26 8 31 40 29 44 -4 2 -12 10 -22 18 -22 11 0 14 8 10 33 -3 17 -11 61
-16 97 -6 36 -13 73 -16 83 -9 29 -33 19 -38 -15z m34 -85 c0 -24 -5 -33 -16
-33 -13 0 -15 7 -10 31 3 17 6 39 6 48 0 14 2 14 10 1 5 -8 10 -30 10 -47z"/>
<path d="M5360 7995 c0 -89 3 -116 13 -113 7 3 14 29 17 63 l5 59 18 -52 c10
-28 25 -56 33 -63 12 -10 14 6 14 105 0 71 -4 116 -10 116 -6 0 -10 -29 -10
-67 0 -76 -6 -75 -35 4 -34 94 -45 81 -45 -52z"/>
<path d="M5536 8093 c-3 -10 -10 -54 -16 -98 -6 -44 -13 -88 -16 -97 -4 -12 0
-18 10 -18 8 0 16 10 18 23 2 14 10 22 23 22 13 0 21 -8 23 -22 2 -13 10 -23
18 -23 10 0 14 6 10 18 -2 9 -7 37 -11 62 -14 103 -27 150 -40 150 -8 0 -16
-8 -19 -17z m33 -110 c1 -14 -5 -23 -14 -23 -16 0 -19 28 -8 70 l7 25 7 -25
c4 -14 7 -35 8 -47z"/>
<path d="M5661 8096 c-8 -9 -11 -48 -9 -112 l3 -99 38 -3 38 -3 -3 48 c-3 41
-6 48 -25 51 -13 2 -23 -1 -23 -7 0 -6 5 -11 10 -11 6 0 10 -14 10 -31 0 -20
-4 -29 -12 -26 -9 2 -13 29 -13 87 0 58 4 85 13 88 6 2 12 -3 12 -12 0 -9 7
-16 15 -16 18 0 19 14 5 41 -12 22 -43 25 -59 5z"/>
<path d="M5787 8103 c-4 -3 -7 -55 -7 -115 l0 -108 30 0 c20 0 30 5 30 15 0 8
-9 15 -20 15 -25 0 -27 35 -2 50 16 10 16 10 0 20 -13 8 -18 24 -18 55 0 38 3
45 20 45 11 0 20 7 20 15 0 15 -40 21 -53 8z"/>
<path d="M5982 8074 c-6 -22 -13 -52 -16 -67 -9 -38 -23 -26 -31 27 -7 43 -20
74 -28 66 -10 -11 -19 -220 -10 -220 6 0 14 19 20 43 l9 42 8 -43 c10 -53 27
-50 42 9 l12 44 1 -48 c1 -33 5 -47 13 -45 8 3 11 35 9 109 -3 113 -14 144
-29 83z"/>
<path d="M6065 8088 c-3 -13 -5 -63 -3 -113 l3 -90 33 -3 c24 -2 32 1 32 12 0
9 -9 16 -20 16 -25 0 -27 35 -2 50 16 10 16 10 0 20 -13 8 -18 24 -18 55 0 38
3 45 20 45 11 0 20 7 20 15 0 10 -10 15 -30 15 -22 0 -31 -5 -35 -22z"/>
<path d="M6180 7995 c0 -89 3 -116 13 -113 7 3 14 29 17 63 l5 59 18 -52 c10
-28 25 -56 33 -63 12 -10 14 6 14 105 0 71 -4 116 -10 116 -6 0 -10 -29 -10
-67 0 -76 -6 -75 -35 4 -34 94 -45 81 -45 -52z"/>
<path d="M6325 8100 c-3 -5 1 -10 9 -10 14 0 16 -17 16 -105 0 -87 3 -105 15
-105 12 0 15 18 15 99 0 79 3 100 15 105 8 3 15 10 15 16 0 13 -77 13 -85 0z"/>
<path d="M1900 7811 c0 -5 7 -11 15 -15 12 -4 15 -26 15 -106 0 -60 4 -100 10
-100 6 0 11 36 11 85 2 109 1 104 21 119 10 7 15 16 11 19 -10 10 -83 8 -83
-2z"/>
<path d="M2031 7801 c-6 -11 -11 -55 -11 -98 0 -86 13 -118 46 -111 33 6 43
45 36 138 -7 83 -8 85 -34 88 -18 2 -30 -3 -37 -17z m49 -97 c0 -68 -3 -84
-15 -84 -12 0 -15 16 -15 83 0 46 3 87 6 90 17 16 24 -11 24 -89z"/>
<path d="M2160 7794 c-13 -34 -13 -160 0 -185 6 -11 21 -19 35 -19 34 0 45 27
45 109 0 90 -11 121 -45 121 -18 0 -28 -7 -35 -26z m50 -90 c0 -68 -3 -84 -15
-84 -12 0 -15 16 -15 83 0 46 3 87 6 90 17 16 24 -11 24 -89z"/>
<path d="M2290 7705 l0 -115 30 0 c34 0 41 19 10 27 -18 5 -20 14 -20 104 0
59 -4 99 -10 99 -6 0 -10 -45 -10 -115z"/>
<path d="M3160 7334 c-225 -34 -404 -93 -610 -201 -277 -145 -489 -327 -631
-542 -102 -155 -144 -304 -137 -486 4 -98 8 -118 35 -178 66 -141 170 -200
392 -223 60 -7 64 -6 57 12 -39 101 -49 148 -54 255 -9 220 26 398 113 574 68
136 157 244 277 335 79 60 234 147 244 138 2 -3 -34 -182 -80 -399 -223 -1041
-576 -2709 -576 -2719 0 -7 107 -10 329 -10 l329 0 12 53 c6 28 65 306 131
617 66 311 142 671 170 800 27 129 52 242 55 251 6 20 64 30 165 30 124 0 205
-54 245 -162 22 -59 22 -225 0 -349 -10 -52 -40 -183 -67 -290 -28 -107 -68
-262 -89 -345 -58 -226 -75 -352 -61 -439 40 -242 259 -301 716 -194 l90 21
-30 21 c-58 41 -102 96 -119 149 -40 129 -30 236 55 565 99 383 109 428 129
566 30 198 18 322 -42 444 -37 75 -90 125 -172 162 -96 43 -150 53 -328 59
l-167 6 47 56 c26 31 311 360 635 733 323 372 587 678 587 681 0 3 -108 5
-240 5 l-241 0 -431 -577 c-237 -318 -471 -631 -520 -696 -48 -65 -88 -114
-88 -108 0 6 66 319 146 697 80 377 142 689 139 693 -13 12 -321 9 -415 -5z"/>
<path d="M10105 7083 c-175 -24 -321 -46 -323 -48 -5 -4 -58 -252 -317 -1470
-103 -484 -191 -896 -196 -915 -25 -102 -154 -257 -255 -306 -113 -55 -245
-42 -298 29 -18 24 -21 42 -20 120 1 78 23 195 148 777 81 377 150 697 153
713 l6 27 138 0 c155 0 140 -9 158 94 19 104 30 96 -124 96 -135 0 -135 0
-130 23 35 146 145 676 143 688 -3 13 -44 10 -337 -30 l-335 -46 -11 -45 c-6
-25 -38 -167 -70 -317 l-59 -272 -76 -3 -75 -3 -12 -49 c-7 -27 -15 -69 -19
-92 l-6 -43 74 -3 75 -3 -138 -643 -138 -643 -66 -74 c-114 -128 -271 -255
-386 -313 -88 -44 -204 -72 -329 -79 -122 -7 -191 8 -257 56 -55 40 -81 86
-100 178 -34 164 16 551 107 838 73 228 197 463 303 574 120 124 252 122 287
-4 17 -61 8 -200 -19 -285 -12 -36 -21 -70 -21 -77 0 -19 106 -53 168 -53 94
0 166 55 209 161 14 35 18 71 18 174 0 127 -1 132 -33 197 -67 137 -199 204
-442 223 -79 6 -230 -8 -290 -27 -134 -43 -235 -91 -340 -161 -68 -46 -206
-183 -264 -262 -202 -274 -343 -668 -372 -1038 l-7 -88 -127 -85 c-69 -46
-130 -84 -134 -84 -5 0 -5 17 -1 38 17 91 6 332 -50 1032 -10 128 -25 398 -31
580 -4 102 -9 188 -13 192 -3 4 -154 -13 -336 -38 -181 -24 -333 -44 -337 -44
-3 0 -30 -71 -58 -157 -123 -373 -247 -678 -403 -992 -80 -162 -108 -209 -136
-230 -157 -116 -221 -245 -221 -446 0 -149 55 -270 179 -392 70 -69 169 -123
276 -150 87 -22 359 -24 450 -4 190 41 326 106 433 205 26 24 92 72 147 107
109 68 268 184 327 238 26 23 39 29 41 20 3 -8 11 -51 20 -96 56 -298 283
-471 642 -490 370 -19 682 113 987 417 150 151 148 150 148 45 0 -116 56 -251
135 -328 115 -112 273 -155 466 -128 225 33 411 136 570 318 28 32 53 57 57
56 3 -1 14 -28 23 -60 70 -224 293 -353 546 -315 227 35 386 199 418 434 l7
46 -52 -15 c-72 -21 -180 -14 -217 13 -50 38 -68 81 -66 159 1 48 86 468 272
1342 149 700 271 1275 271 1278 0 7 -3 7 -355 -42z m-4876 -1523 c7 -91 25
-298 41 -460 32 -320 38 -516 16 -595 -48 -180 -177 -269 -394 -274 -107 -3
-143 10 -196 70 -36 40 -59 103 -70 193 l-6 50 24 -23 c28 -26 93 -37 151 -27
72 14 138 98 151 193 9 69 -9 115 -58 158 l-42 35 92 187 c121 250 200 437
257 611 9 29 18 52 20 50 1 -2 8 -77 14 -168z"/>
</g>
</svg>
